<svg xmlns="http://www.w3.org/2000/svg" width="512" height="512"><path fill="#331C02" d="m254.508 73.79 3.529 1.855c3.483 2.178 6.434 5.066 9.222 8.056 6.144 6.585 11.644 14.281 15.221 22.57.943 2.184 1.828 4.494 2.505 6.772.343 1.152.33 2.631.867 3.668.5.967 1.471 1.861 2.137 2.751 1.024 1.369 1.898 2.843 2.774 4.308 6.34 10.593 11.876 21.668 14.641 33.766.93 4.073 1.717 8.189 1.806 12.38.279 13.145-4.997 26.925-11.904 37.912 1.25.639 3.279.73 4.688.939l9.703 1.448c15.995 2.472 33.116 5.96 47.232 14.153 3.219 1.869 6.353 3.853 8.865 6.643 2.079 2.31 3.185 4.914 3.472 8.018.228 2.458-.761 6.67.86 8.546 1.41.162 3.154-.376 4.562-.592 2.385-.364 4.758-.635 7.174-.65 9.16-.056 17.237 2.93 23.77 9.425 7.092 7.051 10.58 17.934 10.54 27.801-.09 22.284-11.846 43.966-27.436 59.306l.39 3.163c1.338 12.844-3.213 25.639-11.284 35.562-7.08 8.704-16.204 15.088-26.07 20.25-23.253 12.166-49.06 16.8-74.915 19.527-26.086 2.135-53.18-.133-78.688-5.872-20.444-4.6-42.392-12.72-58.02-27.09-4.11-3.778-7.855-7.869-10.822-12.62-5.46-8.745-8.476-19.485-6.108-29.725 2.997-12.964 12.564-23.393 23.605-30.364-1.306-4.1-2.061-8.723-2.88-12.946-2.09-10.795-3.67-21.442-4.33-32.425-.412-6.864-.022-13.728.537-20.569.368-4.52.676-9.35 2.226-13.642a17.091 17.091 0 0 1 3.365-5.656c2.332-2.593 5.589-4.593 8.612-6.275 11.57-6.438 24.746-9.368 37.63-11.89 7.722-1.514 15.767-2.969 23.617-3.418l-1.598-2.145c-6.902-10.163-11.434-24.049-11.153-36.357.063-2.752.14-5.542.542-8.268 2.631-17.853 12.447-32.464 24.717-45.192 5.396-5.598 11.26-10.82 15.763-17.209 5.43-7.703 8.885-16.697 10.636-25.915Z"/><path fill="#F3F0EA" d="M237.832 222.037c2.327-.046 4.796-.137 7.067.466 1.431.38 3.438 1.374 4.226 2.663l-.234.047c-.77.093-1.618-.107-2.39-.192-3.29-.363-5.928-1.077-8.669-2.984ZM272.077 221.856l2.425.024c-2.495 1.967-5.069 2.506-8.064 3.233l-2.852.668 1.56-1.99c1.843-2.03 4.413-1.814 6.93-1.935ZM248.819 163.375c.28.698-.137 1.692-.314 2.435l-1.664 7.134-1.45 9.09c-1.488 11.99.254 23.32 3.826 34.767-1.01-.92-1.835-1.803-2.639-2.912-4.117-5.632-6.278-13.114-6.783-20.02-.642-8.776 1.334-17.126 5.493-24.839 1.038-1.925 2.1-3.993 3.53-5.655ZM287.336 131.028l.592.76c1.95 2.73 3.37 6.15 4.77 9.197 5.669 12.34 9.04 24.628 6.773 38.265-1.778 10.703-6.758 22.21-13.738 30.532-1.913 2.281-3.926 4.485-6.358 6.227-2.52-.457-5.756-.278-8.314-.07l-.338.028 5.836-6.829c12.821-17.653 17.1-38.483 14.26-59.893-.817-6.157-2.516-12.102-3.483-18.217Z"/><path fill="#F3F0EA" d="m283.529 145.625.342.076c1.312 4.892 1.426 10.795 1.326 15.864-.338 16.947-5.502 31.958-15.23 45.811-2.096 2.985-4.218 6.172-6.864 8.7l-.853.385-.329-.336c.12-14.527 3.274-28.807 8.65-42.27 2.442-6.115 5.468-12.067 8.281-18.022l4.677-10.208ZM225.466 223.366c1.409-.083 2.585 1.09 3.78 1.728l4.835 2.294c-16.94 1.663-34.03 4.601-50.444 9.143-6.296 1.743-12.924 3.538-18.534 6.99-.896.55-2.192 1.268-2.453 2.354l.584.75c.214.061.421.218.64.184.446-.07 1.535-1.2 1.974-1.52.86-.624 1.826-1.14 2.775-1.615 3.874-1.935 8.153-3.16 12.291-4.397 15.128-4.522 30.842-7.244 46.499-9.153 1.973-.24 8.785-1.25 10.431-.429 1.534.766 2.847 2.118 4.469 2.745 1.996.772 4.831-.58 6.66-1.333l3.19-1.567.618 4.213-19.78 1.242c-14.175 1.242-28.477 3.404-42.25 6.996-7.42 1.936-15.058 3.56-20.788 8.968-2.816-1.076-5.742-2.81-8.11-4.679-1.132-.893-1.759-1.943-1.818-3.405-.052-1.312.657-2.41 1.485-3.354 2.386-2.723 6.27-4.196 9.545-5.466 10.382-4.026 21.486-6.015 32.432-7.816 7.28-1.198 14.604-2.37 21.97-2.873ZM283.29 223.007c3.249-.063 6.637.474 9.874.814 11.307 1.187 22.787 2.968 33.827 5.71 6.053 1.502 19.187 5.124 22.31 10.667.453.802.52 1.43.22 2.3-1.483 4.303-6.043 6.717-9.909 8.467-.35-.733-.7-1.524-1.2-2.168-1.658-2.142-6.792-3.398-9.333-4.172-14.17-4.318-29.294-7.202-44.01-8.836l-14.332-1.236c-3.01-.2-6.137-.252-9.112-.748-.492-.693-.13-1.78-.02-2.624.142-.354.304-.598.52-.91 4.976.957 9.865-.488 14.884-.32 10.085.338 20.482 1.906 30.4 3.72 8.26 1.512 16.894 3.642 24.841 6.326l9.199 3.458c1.66.68 3.656 1.98 5.387 2.17.253-.662.072-.845-.154-1.5-2.15-2.213-6.366-3.314-9.252-4.36-15.559-5.647-31.695-8.744-48.081-10.776l-13.412-1.313 7.353-4.67ZM260.617 117.375l.31.137c-.609 10.402-4.044 22.435-9.446 31.34-2.016 3.323-4.692 6.356-6.995 9.492-6.576 8.957-11.043 18.76-11.548 29.995-.347 7.723 1.133 15.84 4.877 22.66.912 1.661 1.845 3.314 3.154 4.7l.23.234-5.03.092-1.963-2.4c-3.683-4.539-6.305-10.1-8.183-15.608-2.558-7.504-3.248-15.275-2.077-23.12 1.241-8.318 4.682-16.042 9.54-22.866 3.25-4.565 7.167-8.652 10.897-12.818l7.642-9.106c3.116-3.85 6.295-7.959 8.453-12.437l.14-.295ZM376.356 277.579c1.4-.086 2.729-.064 4.12.146 3.676.554 8.048 2.884 10.198 5.982 1.878 2.706 1.902 5.322 1.286 8.425-.563 2.835-1.821 5.583-3.078 8.165-5.226 10.733-14.081 20.35-23.998 26.916-3.598 2.408-7.33 4.202-11.46 5.471l4.254-13.824 4.976-19.676c1.277-5.108 2.114-10.38 3.628-15.418.349-1.163.629-2.582 1.72-3.26l.304-.18c2.542-1.525 5.114-2.366 8.05-2.747ZM266.648 93.237l.725.898c2.19 2.814 3.976 5.934 5.674 9.06 2.01 3.7 3.867 7.356 5.114 11.398 1.272 4.124 2.288 8.57 2.274 12.903-.045 13.584-8.629 26.383-13.792 38.522-3.125 7.346-6.052 14.851-7.974 22.617-1.346 5.442-2.143 11.056-2.846 16.611l-.73 9.724c-1.397-3.801-1.977-7.816-2.624-11.8-1.429-8.81-1.314-17.585.3-26.363 2.691-14.628 8.787-28.427 12.177-42.886 2.085-8.893 2.573-17.559 2.561-26.647-.006-4.683-.042-9.414-.859-14.037Z"/><path fill="#F3F0EA" d="m258.728 86.625.309.266c1.72 4.952 2.174 11.694.724 16.73-1.58 5.49-5.089 10.504-8.397 15.086l-8.197 10.915-12.528 14.763c-3.75 4.894-6.966 10.271-9.376 15.952-4.499 10.61-5.684 23.786-2.615 34.952 1.143 4.156 2.987 8.131 4.603 12.121-.819-.554-1.844-2.247-2.482-3.069-2.602-3.684-4.844-7.238-6.504-11.448-4.215-10.692-5.65-22.91-3.242-34.206 2.37-11.107 8.17-21.286 15.528-29.834 8.438-9.805 18.141-18.066 25.456-28.872 1.63-2.407 3.172-4.937 4.382-7.582l2.34-5.774ZM291.648 213.634l16.552 2.333c10.457 1.641 20.835 3.681 30.838 7.218 4.688 1.656 9.634 3.61 13.858 6.262 3.636 2.283 8.077 5.61 8.969 10.067.585 2.923-.227 5.469-1.929 7.849-3.155 4.412-8.143 7.572-12.86 10.098-13.857 7.421-29.597 11.058-45.016 13.53-27.377 4.387-55.223 4.688-82.735 1.442-13.367-1.578-26.933-3.988-39.787-8.047-8.31-2.624-16.631-5.628-23.724-10.823-3.387-2.48-6.453-5.88-7.021-10.188-.406-3.074.46-5.987 2.402-8.404 3.321-4.136 8.7-6.758 13.492-8.78 16.094-6.788 34.097-9.395 51.333-11.528.849-.106 2.807-.584 3.587-.449.342.059 1.106.625 1.427.808l4.027 2.4c-5.73.12-11.746 1.282-17.396 2.212-11.513 1.896-22.67 3.952-33.806 7.525-4.596 1.474-9.268 3.077-13.448 5.527-2.964 1.739-6.324 4.328-7.146 7.865-.489 2.108-.078 4.357 1.04 6.194 4.322 7.113 15.71 10.91 23.136 13.346l10 3.006c14.364 3.62 29.28 5.666 44.036 6.768 8.814.66 17.664 1.192 26.507 1.113 15.87-.141 31.675-1.77 47.315-4.389 14.703-2.462 30.03-5.91 42.928-13.737 3.34-2.027 7.866-5.218 8.789-9.313l.06-.289.134-.594c.362-2.003-.256-3.795-1.43-5.406-2.722-3.74-7.716-6.033-11.842-7.797-17.918-7.658-36.597-9.173-55.63-12.029l3.34-3.79ZM378.882 253.847c3.919-.42 8.12-.118 11.866 1.131 6.605 2.202 11.892 7.233 14.923 13.43 5.589 11.421 3.687 24.243-.26 35.85-2.936 8.64-7.266 16.445-12.783 23.688-4.607 6.049-10.016 11.96-16.183 16.452-6.439 4.69-13.744 7.796-20.98 10.999l-16.155 7.554c.584-2.202 1.493-4.263 2.492-6.303.61-1.27 8.787-16.308 8.82-16.333.374-.276 2.2-.486 2.735-.616 1.95-.475 3.887-1.028 5.769-1.73 4.747-1.772 9.303-4.315 13.412-7.275 3.966-2.857 7.453-6.341 10.7-9.979 7.042-7.888 13.684-17.846 15.337-28.495.713-4.595.243-9.547-2.643-13.345-3.551-4.674-8.965-7.354-14.682-8.196-3.75-.553-8.12-.286-11.674 1.144-1.908.767-3.727 1.94-5.496 2.984-.333-.558-.384-1.388-.47-2.034-.558-4.267-.86-10.458 1.95-13.945 2.772-3.438 9.15-4.523 13.322-4.981Z"/><path fill="#F3F0EA" d="M253.625 239.36c8.617-.287 17.554.719 26.125 1.583 11.124 1.122 22.061 2.656 33 5.008 5.05 1.085 10.373 2.228 15.137 4.23 1.71.72 3.172 1.702 4.674 2.776-3.495 3.391-10.322 4.276-14.932 5.293-14.94 3.296-30.189 5.283-45.43 6.506l-15.14.604c-10.877-.085-21.59-.97-32.404-2.035-12.377-1.218-24.984-2.658-37.013-5.913-3.297-.892-6.576-1.618-9.542-3.385a9.678 9.678 0 0 1 1.581-2.206c1.215-1.27 2.965-1.902 4.597-2.462 2.975-1.02 6.039-1.735 9.097-2.447 19.738-4.595 40.018-6.763 60.25-7.553Z"/><path fill="#331C02" d="M234.508 256.125c3.417-.35 7.388.448 10.812.784l9.18.458 10.476-.4c3.133-.244 6.253-.623 9.399-.444l.31.477c-.399.978-.539.987-1.4 1.519-4.368.948-8.856 1.222-13.31 1.393-3.829.147-24.408.034-26.35-1.767-.107-.636-.238-1.124.033-1.74l.85-.28ZM252.072 249.612c13.287-.32 26.71 1.363 39.938 2.476l8.529.739c1.34.128 2.986.131 4.237.63.637.254.794.296 1.04.918-.15.228-.348.572-.569.75-1.408 1.13-6.468.516-8.365.475l-19.257-.818c-8.268-.722-16.454-1.92-24.766-2.005l-20.664 2.135c-4.458.453-31.478 1.073-33.633-.687l.012-.6c1.643-.86 3.787-.889 5.618-1.046l10.842-.736 37.038-2.23Z"/><path fill="#F3F0EA" d="M148.691 321.982c1.354 2.763 2.163 5.968 3.381 8.83 3.614 8.49 7.637 16.798 12.545 24.626 3.148 5.022 6.514 9.934 10.476 14.355 11.584 12.925 26.826 21.352 43.667 25.195 33.893 7.734 72.682 4.686 103.64-11.904 3.117-1.67 6.26-3.371 9.08-5.52 3.719-2.832 7.032-6.142 11.143-8.438 5.28-2.951 11.293-4.98 16.852-7.362 5.693-2.44 11.026-5.353 16.273-8.638-1.454 4.96-3.346 9.48-6.208 13.815-12.794 19.367-38.75 28.81-60.56 33.211-12.652 2.553-25.272 4.625-38.172 5.425-12.878.798-25.836.389-38.683-.747a243.746 243.746 0 0 1-30.633-4.668c-15.298-3.334-30.228-8.321-43.346-17.071-9.718-6.482-18.905-15.577-21.17-27.491-1.418-7.452.793-13.664 4.917-19.766l4.823-6.555c-3.173 1.61-6.127 5.227-8.237 8.064-4.304 5.786-6.997 13.173-5.84 20.459l.078.448c.782 4.682 2.905 8.73 5.462 12.674 2.438 3.757 5.536 7.207 8.878 10.188 13.54 12.083 30.877 18.485 48.206 22.856 25.121 6.336 51.635 8.56 77.487 6.98 30.678-1.876 75.653-10.817 96.646-34.838 6.227-7.125 11.4-16.486 10.73-26.204a24.642 24.642 0 0 0 4.01-2.918c.208.955-.043 2.269-.121 3.247-1.153 14.364-7.761 26.07-18.697 35.299-10.727 9.052-23.956 14.996-37.19 19.35-29.999 9.872-62.113 12.51-93.472 9.785-13.462-1.17-26.685-3.333-39.781-6.65-16.794-4.255-33.5-10.527-47.125-21.508-3.27-2.636-6.484-5.476-9.177-8.713-6.314-7.592-10.88-17.742-9.84-27.796 1.29-12.455 10.841-20.711 19.958-28.02Z"/><path fill="#F3F0EA" d="m366.327 251.375.451-.14c.967.416 1.665 1.016 2.463 1.686-3.067 2.211-5.547 4.157-6.914 7.825-1.585 4.253-1.355 9.449-1.881 13.94l-1.916 11.533-6.613 28.678-7.506 25.603 3.683-.227c-2.428 3.975-5.113 7.724-7.191 11.914-1.52 3.064-2.601 6.301-4.044 9.397-2.68 5.75-7.005 9.053-12.386 12.178-21.345 12.396-46.734 17.816-71.246 17.776-10.988-.018-22.129-1.054-32.773-3.89-13.897-3.704-27.35-9.638-37.641-19.954-5.886-5.9-10.576-12.92-14.722-20.11-4.753-8.714-9.028-17.767-12.239-27.17-5.796-16.977-8.55-35.126-9.285-53.008-.192-4.7.436-9.348.296-14.005l-.012-.3 2.216 2.837c2.983 3.337 6.924 5.608 10.854 7.656 9.55 4.977 19.828 7.905 30.265 10.346 16.554 3.872 33.369 6.073 50.334 7.033 12.66.716 25.308.338 37.947-.552 24.675-1.738 50.648-5.479 72.547-17.749 5.58-3.127 10.554-7.047 15.313-11.297Z"/></svg>