<svg xmlns="http://www.w3.org/2000/svg" xmlns:xlink="http://www.w3.org/1999/xlink" width="512" height="512">
	
	<path fill="#331C02" transform="scale(0.666667 0.666667)" d="M381.762 110.684L387.055 113.468C392.28 116.734 396.707 121.067 400.889 125.551C410.105 135.429 418.355 146.973 423.72 159.405C425.134 162.683 426.462 166.147 427.478 169.565C427.992 171.293 427.972 173.511 428.778 175.067C429.529 176.517 430.985 177.858 431.983 179.193C433.519 181.246 434.83 183.457 436.145 185.655C445.655 201.544 453.958 218.157 458.106 236.304C459.502 242.413 460.681 248.587 460.815 254.873C461.233 274.591 453.32 295.261 442.959 311.742C444.834 312.7 447.877 312.837 449.991 313.15L464.546 315.322C488.538 319.03 514.219 324.261 535.393 336.552C540.221 339.355 544.923 342.331 548.691 346.517C551.809 349.981 553.468 353.888 553.899 358.544C554.24 362.23 552.757 368.547 555.188 371.363C557.305 371.605 559.919 370.798 562.031 370.475C565.609 369.928 569.168 369.522 572.793 369.499C586.532 369.416 598.648 373.894 608.447 383.637C619.086 394.214 624.317 410.538 624.257 425.339C624.124 458.764 606.489 491.287 583.103 514.297L583.688 519.042C585.696 538.308 578.869 557.5 566.762 572.384C556.142 585.44 542.457 595.017 527.658 602.76C492.778 621.009 454.069 627.959 415.286 632.05C376.157 635.252 335.514 631.85 297.254 623.242C266.588 616.342 233.666 604.161 210.222 582.607C204.059 576.94 198.441 570.804 193.99 563.676C185.799 550.559 181.277 534.449 184.829 519.089C189.324 499.644 203.675 484.001 220.236 473.544C218.277 467.394 217.144 460.459 215.917 454.125C212.78 437.933 210.411 421.962 209.421 405.487C208.803 395.191 209.388 384.895 210.226 374.634C210.779 367.853 211.241 360.61 213.566 354.171C214.699 351.033 216.382 348.169 218.613 345.687C222.111 341.797 226.996 338.798 231.531 336.274C248.886 326.617 268.65 322.223 287.976 318.438C299.559 316.169 311.627 313.986 323.401 313.313L321.005 310.095C310.651 294.851 303.854 274.022 304.275 255.559C304.369 251.431 304.485 247.247 305.088 243.157C309.035 216.378 323.759 194.461 342.163 175.369C350.257 166.973 359.053 159.138 365.808 149.556C373.954 138.001 379.136 124.511 381.762 110.684Z"/>
	<path fill="#F3F0EA" transform="scale(0.666667 0.666667)" d="M356.748 333.056C360.238 332.986 363.942 332.85 367.348 333.754C369.495 334.324 372.506 335.815 373.688 337.749L373.336 337.819C372.182 337.959 370.909 337.659 369.75 337.531C364.815 336.987 360.859 335.916 356.748 333.056Z"/>
	<path fill="#F3F0EA" transform="scale(0.666667 0.666667)" d="M408.115 332.784L411.753 332.82C408.011 335.77 404.15 336.579 399.657 337.669L395.379 338.672L397.72 335.685C400.484 332.64 404.339 332.965 408.115 332.784Z"/>
	<path fill="#F3F0EA" transform="scale(0.666667 0.666667)" d="M373.228 245.062C373.647 246.11 373.023 247.6 372.758 248.715L370.262 259.416L368.087 273.052C365.855 291.036 368.467 308.031 373.826 325.201C372.311 323.822 371.073 322.497 369.867 320.834C363.691 312.385 360.45 301.162 359.692 290.804C358.729 277.639 361.694 265.114 367.932 253.545C369.489 250.657 371.083 247.555 373.228 245.062Z"/>
	<path fill="#F3F0EA" transform="scale(0.666667 0.666667)" d="M431.004 196.542L431.892 197.682C434.817 201.776 436.948 206.907 439.048 211.478C447.55 229.986 452.607 248.42 449.207 268.875C446.539 284.93 439.07 302.189 428.6 314.673C425.73 318.095 422.71 321.4 419.062 324.014C415.282 323.328 410.429 323.597 406.592 323.908L406.085 323.951L414.838 313.707C434.07 287.228 440.488 255.983 436.228 223.868C435.003 214.632 432.455 205.715 431.004 196.542Z"/>
	<path fill="#F3F0EA" transform="scale(0.666667 0.666667)" d="M425.293 218.438L425.806 218.552C427.774 225.89 427.946 234.744 427.795 242.348C427.288 267.768 419.542 290.285 404.951 311.064C401.807 315.542 398.623 320.322 394.655 324.115L393.375 324.692L392.882 324.188C393.062 302.397 397.793 280.977 405.856 260.782C409.519 251.61 414.058 242.682 418.278 233.749L425.293 218.438Z"/>
	<path fill="#F3F0EA" transform="scale(0.666667 0.666667)" d="M338.199 335.049C340.312 334.925 342.076 336.683 343.87 337.641L351.121 341.082C325.711 343.576 300.077 347.984 275.456 354.797C266.011 357.411 256.069 360.104 247.655 365.28C246.31 366.107 244.367 367.183 243.975 368.812L244.851 369.938C245.172 370.029 245.483 370.265 245.812 370.213C246.48 370.107 248.113 368.412 248.772 367.933C250.062 366.998 251.511 366.222 252.935 365.511C258.746 362.608 265.164 360.77 271.371 358.915C294.063 352.133 317.634 348.049 341.119 345.186C344.079 344.825 354.297 343.311 356.766 344.543C359.067 345.692 361.037 347.72 363.469 348.66C366.463 349.818 370.716 347.79 373.459 346.661L378.245 344.31L379.172 350.63L349.5 352.493C328.239 354.355 306.786 357.599 286.125 362.987C274.995 365.89 263.54 368.325 254.945 376.438C250.72 374.824 246.332 372.224 242.779 369.42C241.082 368.081 240.141 366.505 240.053 364.312C239.974 362.345 241.038 360.698 242.28 359.281C245.859 355.197 251.685 352.988 256.598 351.082C272.17 345.043 288.826 342.06 305.246 339.358C316.166 337.562 327.152 335.802 338.199 335.049Z"/>
	<path fill="#F3F0EA" transform="scale(0.666667 0.666667)" d="M424.935 334.51C429.808 334.416 434.89 335.221 439.746 335.731C456.707 337.512 473.927 340.183 490.487 344.295C499.566 346.549 519.267 351.983 523.952 360.297C524.63 361.5 524.732 362.443 524.282 363.747C522.057 370.201 515.216 373.823 509.418 376.447C508.894 375.348 508.368 374.162 507.619 373.195C505.13 369.983 497.43 368.099 493.618 366.937C472.362 360.46 449.678 356.134 427.604 353.684L406.106 351.83C401.59 351.528 396.9 351.452 392.438 350.707C391.699 349.668 392.242 348.036 392.406 346.771C392.621 346.24 392.864 345.875 393.188 345.407C400.652 346.842 407.985 344.674 415.514 344.926C430.641 345.434 446.236 347.785 461.113 350.507C473.503 352.774 486.454 355.97 498.375 359.996L512.173 365.182C514.664 366.202 517.657 368.152 520.253 368.438C520.633 367.444 520.362 367.17 520.023 366.188C516.797 362.868 510.474 361.217 506.145 359.646C482.807 351.177 458.603 346.532 434.023 343.484L413.905 341.514L424.935 334.51Z"/>
	<path fill="#F3F0EA" transform="scale(0.666667 0.666667)" d="M390.926 176.062L391.39 176.268C390.477 191.871 385.324 209.92 377.221 223.278C374.198 228.262 370.184 232.812 366.729 237.516C356.865 250.951 350.164 265.657 349.407 282.508C348.886 294.093 351.107 306.268 356.722 316.497C358.091 318.99 359.49 321.469 361.453 323.547L361.799 323.9L354.252 324.037L351.309 320.437C345.785 313.629 341.852 305.287 339.035 297.026C335.197 285.77 334.163 274.113 335.919 262.346C337.781 249.868 342.942 238.283 350.229 228.047C355.104 221.199 360.979 215.069 366.575 208.82L378.038 195.161C382.711 189.386 387.48 183.222 390.717 176.505L390.926 176.062Z"/>
	<path fill="#F3F0EA" transform="scale(0.666667 0.666667)" d="M564.534 416.368C566.635 416.24 568.627 416.272 570.713 416.587C576.227 417.418 582.785 420.914 586.011 425.561C588.828 429.619 588.864 433.544 587.939 438.198C587.095 442.45 585.208 446.572 583.322 450.445C575.483 466.545 562.201 480.97 547.325 490.819C541.928 494.431 536.331 497.122 530.136 499.026L536.517 478.29L543.98 448.776C545.896 441.114 547.151 433.206 549.422 425.649C549.946 423.904 550.366 421.776 552.004 420.758L552.459 420.49C556.271 418.201 560.129 416.94 564.534 416.368Z"/>
	<path fill="#F3F0EA" transform="scale(0.666667 0.666667)" d="M399.972 139.856L401.059 141.202C404.344 145.424 407.023 150.103 409.57 154.792C412.584 160.343 415.371 165.826 417.241 171.89C419.149 178.075 420.674 184.745 420.653 191.244C420.585 211.62 407.709 230.819 399.964 249.027C395.277 260.046 390.886 271.304 388.004 282.953C385.985 291.115 384.789 299.536 383.734 307.869L382.638 322.455C380.544 316.753 379.674 310.731 378.704 304.756C376.56 291.539 376.732 278.378 379.154 265.211C383.19 243.269 392.334 222.57 397.419 200.882C400.547 187.542 401.278 174.543 401.261 160.911C401.252 153.886 401.197 146.79 399.972 139.856Z"/>
	<path fill="#F3F0EA" transform="scale(0.666667 0.666667)" d="M388.092 129.938L388.555 130.337C391.135 137.765 391.816 147.877 389.641 155.431C387.27 163.667 382.008 171.188 377.046 178.061L364.75 194.433L345.958 216.577C340.332 223.918 335.509 231.984 331.895 240.506C325.146 256.421 323.368 276.185 327.972 292.934C329.686 299.167 332.453 305.13 334.877 311.115C333.648 310.284 332.11 307.745 331.153 306.512C327.251 300.985 323.888 295.655 321.398 289.34C315.075 273.302 312.922 254.973 316.535 238.03C320.088 221.37 328.79 206.102 339.826 193.279C352.484 178.572 367.038 166.18 378.011 149.972C380.455 146.361 382.769 142.566 384.583 138.599L388.092 129.938Z"/>
	<path fill="#F3F0EA" transform="scale(0.666667 0.666667)" d="M437.472 320.451L462.3 323.951C477.985 326.412 493.553 329.472 508.557 334.777C515.588 337.262 523.008 340.193 529.343 344.171C534.797 347.595 541.459 352.586 542.797 359.271C543.674 363.655 542.457 367.474 539.904 371.044C535.171 377.662 527.689 382.402 520.614 386.191C499.829 397.323 476.219 402.778 453.09 406.485C412.024 413.067 370.255 413.518 328.988 408.649C308.937 406.283 288.588 402.668 269.307 396.579C256.843 392.643 244.36 388.137 233.721 380.344C228.641 376.623 224.042 371.525 223.189 365.062C222.58 360.451 223.88 356.082 226.792 352.457C231.774 346.253 239.842 342.32 247.03 339.287C271.171 329.104 298.176 325.194 324.03 321.995C325.303 321.835 328.241 321.118 329.411 321.321C329.923 321.409 331.069 322.258 331.551 322.533L337.592 326.134C328.996 326.312 319.972 328.056 311.498 329.451C294.228 332.295 277.491 335.379 260.788 340.738C253.894 342.95 246.886 345.354 240.617 349.029C236.17 351.637 231.13 355.521 229.898 360.827C229.164 363.988 229.781 367.362 231.456 370.118C237.941 380.787 255.021 386.482 266.161 390.137L281.162 394.646C302.707 400.075 325.082 403.144 347.215 404.798C360.436 405.787 373.712 406.585 386.976 406.467C410.781 406.255 434.488 403.812 457.948 399.884C480.003 396.191 502.994 391.019 522.34 379.278C527.349 376.238 534.139 371.451 535.523 365.308L535.613 364.875L535.814 363.984C536.358 360.98 535.43 358.291 533.671 355.875C529.586 350.266 522.096 346.826 515.906 344.18C489.03 332.692 461.012 330.42 432.461 326.136L437.472 320.451Z"/>
	<path fill="#F3F0EA" transform="scale(0.666667 0.666667)" d="M568.323 380.77C574.201 380.14 580.503 380.593 586.122 382.467C596.029 385.77 603.959 393.317 608.506 402.612C616.889 419.744 614.037 438.977 608.117 456.388C603.712 469.346 597.217 481.055 588.942 491.919C582.031 500.992 573.917 509.859 564.667 516.597C555.009 523.632 544.051 528.291 533.196 533.095L508.965 544.426C509.84 541.123 511.204 538.032 512.702 534.971C513.619 533.066 525.883 510.509 525.934 510.472C526.493 510.058 529.232 509.743 530.035 509.548C532.96 508.836 535.866 508.006 538.688 506.953C545.809 504.295 552.643 500.48 558.806 496.041C564.756 491.756 569.986 486.529 574.857 481.073C585.42 469.241 595.382 454.304 597.862 438.33C598.932 431.437 598.227 424.01 593.898 418.312C588.571 411.301 580.45 407.281 571.875 406.018C566.249 405.189 559.694 405.59 554.364 407.734C551.501 408.885 548.773 410.643 546.12 412.21C545.62 411.373 545.543 410.128 545.416 409.159C544.578 402.759 544.125 393.473 548.341 388.242C552.498 383.085 562.064 381.457 568.323 380.77Z"/>
	<path fill="#F3F0EA" transform="scale(0.666667 0.666667)" d="M380.437 359.039C393.363 358.609 406.769 360.118 419.625 361.415C436.311 363.098 452.717 365.398 469.125 368.926C476.699 370.554 484.685 372.269 491.831 375.272C494.395 376.35 496.589 377.825 498.841 379.436C493.599 384.522 483.359 385.85 476.444 387.375C454.034 392.319 431.16 395.3 408.297 397.134L385.587 398.04C369.273 397.913 353.203 396.585 336.983 394.988C318.417 393.16 299.506 391.001 281.463 386.118C276.518 384.78 271.599 383.691 267.15 381.04C267.807 379.805 268.553 378.746 269.522 377.732C271.344 375.826 273.969 374.878 276.417 374.039C280.879 372.509 285.475 371.436 290.062 370.368C319.67 363.476 350.089 360.224 380.437 359.039Z"/>
	<path fill="#331C02" transform="scale(0.666667 0.666667)" d="M351.762 384.188C356.887 383.663 362.844 384.86 367.98 385.364L381.75 386.05L397.464 385.451C402.163 385.084 406.844 384.516 411.562 384.785L412.026 385.5C411.429 386.967 411.219 386.981 409.927 387.778C403.376 389.201 396.643 389.611 389.961 389.868C384.219 390.089 353.351 389.919 350.438 387.217C350.277 386.264 350.08 385.532 350.487 384.608L351.762 384.188Z"/>
	<path fill="#331C02" transform="scale(0.666667 0.666667)" d="M378.108 374.418C398.039 373.937 418.172 376.463 438.015 378.132L450.808 379.24C452.818 379.432 455.287 379.437 457.164 380.186C458.12 380.567 458.355 380.63 458.723 381.562C458.499 381.904 458.202 382.421 457.871 382.688C455.759 384.382 448.169 383.461 445.323 383.4L416.438 382.173C404.035 381.09 391.757 379.292 379.289 379.165L348.293 382.368C341.605 383.047 301.076 383.977 297.843 381.338L297.861 380.438C300.325 379.148 303.541 379.104 306.288 378.869L322.551 377.765L378.108 374.418Z"/>
	<path fill="#F3F0EA" transform="scale(0.666667 0.666667)" d="M223.037 482.973C225.067 487.117 226.281 491.925 228.108 496.219C233.529 508.954 239.564 521.415 246.925 533.157C251.647 540.689 256.697 548.058 262.64 554.689C280.015 574.076 302.878 586.717 328.14 592.482C378.98 604.083 437.163 599.51 483.601 574.626C488.276 572.121 492.991 569.569 497.219 566.347C502.798 562.097 507.767 557.133 513.934 553.688C521.854 549.262 530.874 546.22 539.212 542.646C547.751 538.985 555.751 534.616 563.622 529.688C561.44 537.129 558.603 543.91 554.309 550.411C535.118 579.462 496.184 593.627 463.469 600.228C444.492 604.057 425.562 607.165 406.212 608.365C386.895 609.562 367.458 608.948 348.188 607.244C332.631 605.868 317.497 603.567 302.238 600.242C279.291 595.241 256.896 587.761 237.219 574.636C222.642 564.913 208.862 551.271 205.463 533.399C203.337 522.222 206.654 512.903 212.84 503.751L220.074 493.918C215.315 496.334 210.883 501.759 207.718 506.014C201.262 514.693 197.223 525.773 198.959 536.702L199.076 537.375C200.248 544.397 203.433 550.471 207.268 556.386C210.925 562.021 215.573 567.196 220.585 571.668C240.896 589.792 266.901 599.395 292.895 605.951C330.576 615.456 370.347 618.791 409.125 616.421C455.142 613.608 522.604 600.196 554.093 564.165C563.434 553.477 571.194 539.436 570.189 524.858C572.402 523.549 574.286 522.195 576.204 520.482C576.516 521.914 576.139 523.885 576.022 525.352C574.292 546.898 564.38 564.458 547.977 578.3C531.886 591.879 512.042 600.794 492.191 607.326C447.194 622.133 399.023 626.091 351.984 622.003C331.791 620.248 311.956 617.004 292.312 612.028C267.122 605.646 242.062 596.237 221.625 579.766C216.719 575.812 211.899 571.552 207.86 566.696C198.388 555.308 191.54 540.083 193.1 525.003C195.034 506.32 209.361 493.936 223.037 482.973Z"/>
	<path fill="#F3F0EA" transform="scale(0.666667 0.666667)" d="M549.49 377.062L550.167 376.853C551.617 377.477 552.664 378.377 553.861 379.381C549.26 382.698 545.541 385.617 543.49 391.119C541.112 397.498 541.458 405.292 540.668 412.03L537.795 429.329L527.875 472.346L516.616 510.75L522.14 510.409C518.498 516.372 514.471 521.995 511.354 528.28C509.075 532.876 507.452 537.732 505.288 542.376C501.269 551 494.781 555.955 486.709 560.643C454.692 579.237 416.608 587.366 379.841 587.306C363.359 587.279 346.647 585.726 330.681 581.471C309.836 575.916 289.655 567.014 274.219 551.54C265.391 542.691 258.356 532.16 252.136 521.377C245.007 508.304 238.594 494.725 233.778 480.62C225.084 455.155 220.954 427.932 219.851 401.109C219.562 394.059 220.504 387.087 220.295 380.101L220.277 379.65L223.601 383.907C228.075 388.913 233.987 392.319 239.882 395.391C254.205 402.856 269.623 407.249 285.279 410.91C310.11 416.718 335.332 420.02 360.78 421.46C379.769 422.534 398.742 421.966 417.7 420.631C454.713 418.024 493.672 412.413 526.521 394.008C534.891 389.318 542.351 383.437 549.49 377.062Z"/>
</svg>