<svg xmlns="http://www.w3.org/2000/svg" width="512" height="512"><path fill="#230D27" d="M190.987 44.5c.15 1.105-.21 1.91-.988 2.749-.274.295-.584.373-.867.629l-.398.585-.41.3-1.45 1.674c.825-.137 1.167-.538 1.813-1l.563-.312.187-.438.563-.437.198.198c-.168.291-.413.625-.506.946-1.505 1.3-3.063 2.591-4.841 3.503-1.94 1.119-3.886 2.138-5.97 2.965-.422.168-1.15.55-1.58.556l-1.8-.04-.25.247c-.63.021-1.087-.076-1.688-.249l-.188-.499h-.875c-2.908-.732-6.478-.148-9.536-.403 1.392-.315 3.037-.268 4.47-.365 2.776-.186 5.575-.403 8.315-.907 6.622-1.217 11.367-4.124 15.238-9.703Z"/><path fill="#551830" d="M426.845 77.826c.825.42 1.161 1.094 1.658 1.858 1.424 2.193 2.577 4.76 3.397 7.246 1.688 5.11 1.176 9.732-.318 14.816-.341 1.161-.685 2.76-1.31 3.77l-.272.362-.252-.405-.111-.149c1.109-9.101.171-18.84-2.792-27.498Z"/><path fill="#230D27" d="M255.575 15.213c2.124-3.235 5.904-4.44 9.514-5.17 2.954-.597 6.081-.49 9.074-.264 8.906.675 17.802 3.456 25.24 8.432 1.136.76 2.31 1.627 3.306 2.568l-.022.473-.444-.27c-.793-.619-1.497-1.132-2.368-1.653-1.344-.805-2.657-1.63-4.25-1.3-1.107.229-1.968.036-3-.401-.492-.209-.768-.277-1.32-.319l-3.857-1.434c-4.005-1.375-8.287-2.226-12.469-2.853-5.736-.859-11.862-1.511-17.249 1.094a9.631 9.631 0 0 0-2.155 1.097Z"/><path fill="#802016" d="M414.964 38.35c6.624 1.664 12.752 7.003 16.196 12.775 2.674 4.482 3.326 9.988 2.059 15.009-.234.926-.533 1.608-1.037 2.421l-.14.237c.122-6.663-3.69-14.962-7.818-20.066-2.671-3.302-5.844-6.136-8.704-9.267l-.388.093c-.124-.199-.133-.936-.168-1.203Z"/><path fill="#1C0610" d="M302.71 20.779c1.03.29 2.145-.482 3.157-.74 1.762-.45 3.6-.804 5.412-.97 12.878-1.185 25.46 3.189 36.115 10.211 2.21 1.457 4.709 2.989 6.546 4.903-1.467-.393-2.692-1.528-4.15-1.989-.897-.283-2.158-.22-2.895-.804-.664-.527.203.01-.7-.51l-.85-.518c-1.015-.674-2.058-1.127-3.095-1.734-.802-.47-1.526-.933-2.407-1.255l-6.217-2.492-1.768-.5-.36-.13-.373-.124c-.64-.26-1.114-.283-1.806-.32l-.047.56c-1.257.167-3.035-.509-4.345-.694-3.873-.548-8.184-.981-12.09-.475-2.508-.042-4.969.64-7.462.797l-.557-.62.215-.5 1.258-.386c-1.212-.066-1.962-.14-2.952-.876l-.652-.36.022-.474Z"/><path fill="#230D27" d="m303.339 21.613 3.532-1.334c.594-.21 1.314-.184 1.94-.212l.064.56.28-.008c.744-.018 1.04.107 1.72.259 1.85.41 4.432.249 6.362.407.937.076 2.07.113 2.836.722-4.698-.368-9.148-.468-13.782.482-1.212-.066-1.962-.14-2.952-.876Z"/><path fill="#88CDFF" d="M306.29 22.489c4.635-.95 9.085-.85 13.783-.482l9.246 1.8-.047.56c-1.257.167-3.035-.509-4.345-.694-3.873-.548-8.184-.981-12.09-.475-2.508-.042-4.969.64-7.462.797l-.557-.62.215-.5 1.258-.386Z"/><path fill="#1C0610" d="M191.749 42.476c-4 1.603-8.012 2.457-12.346 1.833-4.054-.584-7.179-2.634-9.582-5.908-2.439-3.322-3.498-7.113-2.83-11.218.684-4.212 3.812-8.735 7.3-11.119 5.024-3.435 11.573-4.032 17.42-2.874 6.26 1.24 11.48 4.999 14.982 10.268-1.205-.592-2.41-1.11-3.348-2.096a10.886 10.886 0 0 0-2.018-1.657c-1.16-.728-2.98-2.34-4.312-2.364-4.258-2.034-9.048-2.96-13.765-2.411l-.407.045c-4.505.543-8.257 3.185-10.936 6.733l-.144.2c-1.155 1.964-2.06 3.765-2.427 6.05l.795.417.194.837c.045 3.63 1.302 6.87 3.901 9.457A13.37 13.37 0 0 0 177 40.8c.479.275 2.6 1.062 2.813 1.4.07.11.055.255.082.383 1.736 1.11 5.315.73 7.355.928l.367-.172.786-.365c.636-.3 1-.404 1.724-.348l.124-.374c.91-.317 1.186-.437 2.098-.127l-.6.352Z"/><path fill="#88CDFF" d="m169.336 27.957.795.418.194.837c.045 3.63 1.302 6.87 3.901 9.457A13.37 13.37 0 0 0 177 40.8c.479.275 2.6 1.062 2.813 1.4.07.11.055.255.082.383-2.8-.615-5.242-2.055-7.156-4.198-2.71-3.033-3.632-6.41-3.403-10.427Z"/><path fill="#351A47" d="M136.135 27.875c.495-.098.273-.08.828-.069 1.004.02 2.253 1.255 2.912 1.953 2.14 2.268 3.415 5.637 3.3 8.743-.132 3.492-1.458 6.393-2.592 9.623-.24.685-.436 2.072-.93 2.54l-.855-1.346c-2.282-3.332-6.03-4.298-9.78-4.998-4.976-.82-9.177-1.92-13.663-4.284 3.11-1.123 6.155-2.693 8.895-4.542 3.905-2.635 7.54-5.72 11.885-7.62ZM171.763 21.907l.144-.199c2.68-3.548 6.431-6.19 10.936-6.733l.407-.045c4.717-.55 9.507.377 13.765 2.411 1.332.023 3.152 1.636 4.312 2.364.71.445 1.441 1.05 2.018 1.657.938.987 2.143 1.504 3.348 2.096 1.81 2.83 3.014 5.579 3.834 8.826.091 6.978-1.582 13.414-6.582 18.532-5.8 5.94-14.663 8.404-22.746 8.862-2.988.17-6.11-.061-9.069.274l-14.446.3c.46-.301.83-.386 1.36-.483l.706-.141.375-.25c.397.016.775.04 1.125-.19.558-.366.587-.293 1.25-.31.492-.328.56-.25 1.125-.25l.25-.25.25.25c.653-.653 1.36-.554 2.25-.628l.5-.623h.875c2.161-.342 5.211-.536 7.38-.06l2.17-.9c.43-.004 1.159-.387 1.581-.555 2.084-.827 4.03-1.846 5.97-2.965 1.778-.912 3.336-2.203 4.841-3.503.093-.321.338-.655.506-.946L190 48.25l-.563.437-.187.438-.563.312c-.646.462-.988.863-1.813 1l1.45-1.674.41-.3.398-.585c.283-.256.593-.334.867-.63.778-.838 1.138-1.643.988-2.749.434-.74.88-1.157.762-2.023l.6-.352c-.912-.31-1.189-.19-2.098.127l-.124.374c-.725-.056-1.088.049-1.724.348l-.786.365-.367.172c-2.04-.197-5.619.182-7.355-.928-.027-.128-.012-.273-.082-.384-.214-.337-2.334-1.124-2.813-1.398a13.37 13.37 0 0 1-2.774-2.13c-2.6-2.589-3.856-5.827-3.901-9.458l-.194-.837-.795-.418c.367-2.284 1.272-4.085 2.427-6.05Z"/><path fill="#52C1E4" d="m171.763 21.907.801 1.038c-.65 1.207-1.295 2.395-1.687 3.717-.25.839-.268 1.734-.552 2.55l-.194-.837-.795-.418c.367-2.284 1.272-4.085 2.427-6.05Z"/><path fill="#49296F" d="m184.85 52.897.483.884c-2.332 1.672-6.77 4.212-9.706 3.647l-.497-.111 2.17-.9c.43-.004 1.159-.387 1.581-.555 2.084-.827 4.03-1.846 5.97-2.965Z"/><path fill="#603058" d="M189.692 49.394c2.69-2.25 4.348-4.512 5.979-7.604-.362 3.685-1.614 5.657-4.465 8.003-1.725 1.42-3.875 2.984-5.873 3.988l-.482-.884c1.778-.912 3.336-2.203 4.841-3.503Z"/><path fill="#88CDFF" d="m171.763 21.907.144-.199c2.68-3.548 6.431-6.19 10.936-6.733l.407-.045c4.717-.55 9.507.377 13.765 2.411l-.22.027c-1.5.15-3.192-.69-4.718-.959-6.442-1.13-13.964-.082-18.417 5.161l-1.096 1.375-.801-1.038Z"/><path fill="#FBCAB9" d="M186.063 24.792c1.437-.1 2.934-.02 4.247.633 1.985.986 3.414 2.821 4.082 4.909.68 2.128.471 4.173-.61 6.134-1.143 2.074-2.677 2.905-4.845 3.537-1.427.037-2.74.047-4.107-.459-1.779-.658-3.16-1.92-3.883-3.688-.918-2.248-.777-4.65.206-6.845 1.04-2.317 2.628-3.381 4.91-4.221Z"/><path fill="#351A47" d="m428.33 120.156.42-1.05c2.714-6.72 6.9-10.794 13.61-13.663 7.185-3.07 15.275-3.498 22.576-.485 1.136.469 2.257 1.048 3.262 1.755.98-2.14 1.948-4.12 2.343-6.463l.067-.36c.406-2.364-1.025-5.687-2.417-7.572-2.529-3.423-6.07-5.417-9.85-7.163 10.314 2.303 18.84 6.393 24.713 15.595 4.699 7.364 6.61 16.96 4.658 25.5-1.205 5.275-3.513 10.913-7.29 14.879 8.908 7.29 13.39 17.86 14.479 29.202 1.087 11.34-2.793 23.504-10.101 32.218-4.232 5.045-9.93 9.608-15.566 12.942l-.244.54c-1.151-.332-2.533.63-3.69 1.027l-1.534.404c-.464 2.43-2.004 3.585-3.194 5.584-.944 1.585-1.183 2.603-2.537 3.99-.445.455-.847.97-1.35 1.365-1.443 1.136-3.493 1.47-3.89 3.64.385.092.724.15 1.072.342l-.547.27-3.184-.559-.492-2.186c-.885-1.886-1.712-2.871-3.238-4.26l-.658-.488c-5.47-4.088-8.153-8.803-9.137-15.597l.005-1.628c.208-1.157-.045-2.508-.307-3.643-.06-1.219.067-2.416.17-3.629-.327-3.819.629-6.943 2.285-10.336 1.848-2.38 3.306-4.5 5.61-6.532 4.049-3.568 9.23-6.179 13-10.044.769-.786 1.276-1.917 1.74-2.908 2.118-4.519 2.382-9.584 2.372-14.49-5.106 1.152-9.58 1.61-14.736.302-6.313-1.604-11.842-5.29-15.132-10.98-4.35-7.525-5.55-17.158-3.288-25.519Z"/><path fill="#53F5FC" d="M436.48 200.663c.606 2.234 1.199 4.44 2.194 6.538 1.346 2.841 3.21 5.398 4.783 8.112l3.885 6.922.294 2.432c-.398.365-.78.683-1.23.982l-.658-.489c-5.47-4.088-8.153-8.803-9.137-15.597l.005-1.628c.208-1.157-.045-2.508-.307-3.643-.06-1.219.067-2.416.17-3.629Z"/><path fill="#52C1E4" d="m461.882 217.876 1.884-.414c-.464 2.43-2.004 3.585-3.194 5.584-.944 1.585-1.183 2.603-2.537 3.99-.445.455-.847.97-1.35 1.365-1.443 1.136-3.493 1.47-3.89 3.64.385.092.724.15 1.072.342l-.547.27-3.184-.559-.492-2.186c-.885-1.886-1.712-2.871-3.238-4.26.45-.298.832-.616 1.23-.981l-.294-2.432c2.499-1.258 4.902-2.694 7.632-3.408 2.197-.575 4.648-.698 6.908-.95Z"/><path fill="#7A9FCB" d="m461.882 217.876 1.884-.414c-.464 2.43-2.004 3.585-3.194 5.584-.944 1.585-1.183 2.603-2.537 3.99-.445.455-.847.97-1.35 1.365-1.443 1.136-3.493 1.47-3.89 3.64.385.092.724.15 1.072.342l-.547.27-3.184-.559-.492-2.186c.68.594.46 1.215 1.356 1.72.52-.176.778-.625 1.002-1.127l.126-.376.263-.054c1.178-.363 1.611-1.679 2.105-2.696 1.339-2.758 4.172-3.59 6.142-5.618 1.09-1.12 1.254-2.347 1.244-3.88Z"/><path fill="#603058" d="M468.96 146.613c1.436 1.194 2.704 2.644 4.018 3.976 1.706 1.73 3.606 3.491 4.933 5.534 3.089 4.754 5.743 11.74 5.074 17.502-.427 3.678-3.652 7.05-6.352 9.282-1.725 1.305-3.431 2.328-5.367 3.287 1.062-2.018 2.015-3.919 2.56-6.155.848-3.48.686-7 .414-10.539-.35-4.545-.998-8.921-2.27-13.305-.932-3.214-2.221-6.333-3.01-9.582Z"/><path fill="#FBCAB9" d="M448.083 114.297c1.76-.224 3.546-.18 5.22.45 2.609.982 4.748 3.157 5.871 5.695 1.346 3.041 1.336 6.913.064 9.986-1.54 3.72-3.858 5.878-7.498 7.43-1.818.368-3.18.264-4.892-.472-2.886-1.24-5.08-3.962-6.176-6.857-1.27-3.352-1.201-6.894.344-10.154 1.48-3.123 3.848-4.939 7.067-6.078Z"/><defs><linearGradient id="a" x1="332.324" x2="275.377" y1="133.644" y2="41.539" gradientUnits="userSpaceOnUse"><stop offset="0" stop-color="#FFCAB9"/><stop offset="1" stop-color="#F7DDD4"/></linearGradient></defs><path fill="url(#a)" d="M315.791 48.426c1.267-2.189 1.109-6.77 1.474-9.426 1.17-8.5 3.261-17.732 7.921-25.042 3.249-5.095 7.935-8.955 13.932-10.198 5.398-1.118 10.64-.026 15.219 3.018 8.974 5.968 10.403 15.804 12.506 25.526l2.615 11.04c.884-1.666 1.226-3.65 2.049-5.39 2.844-6.011 6.986-10.695 11.856-15.135 1.054-.714 2.039-1.202 3.232-1.645 8.081-3.907 17.27-2.929 25.874-1.64 6.273.939 12.696 2.216 18.703 4.279l5.786 2.15c-2.767.583-6.433-.858-9.27-1.248-11.687-1.603-23.249-.613-34.255 3.59-8.664 5.164-14.457 11.88-16.946 21.821-2.231 8.912-1.856 19.38 3.064 27.355l1.86 2.76c-1.046.377-1.211.33-2.206-.121-11.45-5.186-23.042-7.317-35.279-2.974-11.794 4.186-21.654 12.194-27.043 23.635-4.33 9.192-5.977 19.953-4.077 29.937.887 4.657 3.542 8.601 6.292 12.352-7.455-1.714-14.437-5.099-18.766-11.725-.623-.953-1.034-1.852-1.143-3.001-.965.126-1.553.937-2.207 1.594-.486 1.398-.31 2.565.322 3.908 1.701 3.611 4.743 7.13 6.928 10.531l-40.596-1.991c-14.706-.508-29.86.025-44.419 2.274-3.509.542-8.404.998-11.569 2.563l-5.652 1.607-9.162 2.17c-8.137 3.828-14.877 10.826-17.91 19.37-3.046 8.58-2.828 18.342 1.151 26.527.926 1.906 1.873 3.767 3.183 5.445l.729-.44.569.236c1.71.656 3.922.701 5.726.697.508-.001.97.053 1.467.148-2.666 2.926-4.277 7.507-4.433 11.461l-.531 1.321-.723.236-7.577-4.718c-14.067-9.803-23.619-21.113-26.611-38.378-2.369-13.67 1.103-28.403 9.006-39.745 1.471-2.678 3.545-5.292 5.483-7.654 13.45-16.393 31.755-26.84 52.221-31.784 7.236-1.747 14.552-2.594 21.942-3.343l21.669-.451c4.438-.502 9.122-.157 13.603-.41 12.125-.688 25.418-4.384 34.12-13.294 7.5-7.678 10.009-17.331 9.873-27.798Z" transform="scale(.66667)"/><path fill="#9BEEFB" d="m157.684 60.253 14.446-.301 4.347.169c-.984.389-2.284.232-3.345.236l-7.293.02c-2.058.03-4.436.163-6.464.453-2.602.372-5.43.048-8.052.581-.494.1-.95.39-1.45.458-1.162.16-1.96 0-3.143.386-.45.148-.852.174-1.316.239l-3.312.704c-.895.138-1.706.574-2.617.765l-1.614.601c-2.212.699-4.465 1.493-6.576 2.45-1.178.535-2.064 1.442-3.336 1.71-.878.183-1.377.857-2.218 1.165-1.055.388-1.857 1.169-2.795 1.764-2.675 1.697-4.965 3.46-7.45 5.414-3.189 2.506-6.169 6.116-8.601 9.342l.1.206c.312.663.425 1.074.425 1.804l.267.268 4.56-4.56c.816-.816 1.56-1.72 2.503-2.377.5-.347.862-.757 1.267-1.198.271-.294.545-.336.858-.552l.75-.873.375-.002.203-.156 1.38-.988c.218-.176.502-.254.73-.418l.562-.686.375-.002c.532-.281.77-.513 1.125-.998l.375-.002c.463-.275.873-.524 1.277-.882.44-.389.12-.147.723-.368l2.629-1.473c.348-.193.231-.13.496-.525l.252-.002.373-.186.297-.075c.447-.135.584-.361.953-.614.88-.601 2.04-1.02 3-1.5 1.011-.506 2.16-1.287 3.246-1.559.513-.128.952-.423 1.414-.672.48-.258.277-.17.743-.296.476-.13.8-.342 1.222-.596l.375-.002.75-.375.242-.055c.42-.105.763-.348 1.133-.568l.375-.002.75-.375a16.91 16.91 0 0 1 1.75-.625l2.313-.812c.381-.154.55-.125.937-.188l.75-.25c.404-.111.657-.162 1.063-.312l4.187-.874 1.25-.314.305-.063c.58-.115 1.042-.22 1.632-.125l.438-.187c.623-.165 1.322-.084 2-.25 1-.245 2.074-.072 3.125-.311h.75c2.035.044 4.016-.21 6.082-.21.752 0 1.575-.094 2.29.146-.533.343-.944.263-1.563.288l-.01.056c-4.94-.027-9.939.138-14.818 1.002-9.856 1.744-19.21 5.825-27.856 10.764-3.807 2.176-7.644 4.463-11.058 7.232-2.18 1.768-4.195 3.864-6.192 5.836l-3.486 3.724c-.67 1.219-1.354 2.41-1.846 3.714-4.428 7.984-5.604 18.28-3.12 27.022 2.654 9.35 9.061 15.87 17.4 20.484l2.888 1.466-.354.88-.482.158-5.052-3.146c-9.378-6.535-15.746-14.075-17.74-25.585-1.58-9.113.735-18.935 6.004-26.497.98-1.785 2.363-3.528 3.655-5.102 8.967-10.929 21.17-17.894 34.814-21.19 4.824-1.165 9.701-1.73 14.628-2.228Z"/><path fill="#89435C" d="m122.21 142.963-2.887-1.466c-8.339-4.614-14.746-11.134-17.4-20.484-2.484-8.743-1.308-19.038 3.12-27.022-.34 1.442-.883 2.876-1.106 4.337-1.452 9.517.782 19.98 5.847 28.138 2.524 4.067 5.713 6.52 9.716 8.999l.394-.016-.389-.554.486-.294.38.158c1.14.437 2.614.467 3.817.464.339 0 .647.036.978.1-1.777 1.95-2.851 5.004-2.955 7.64Z"/><path fill="#FBCAB9" d="m106.89 90.277 3.485-3.724c1.997-1.972 4.012-4.068 6.192-5.836 3.414-2.769 7.251-5.056 11.058-7.232 8.646-4.939 18-9.02 27.856-10.764 4.88-.864 9.877-1.029 14.818-1.002l.215.023 13.284.192c-3.979 3.67-8.021 6.73-12.738 9.422-9.895 5.648-20.621 9.68-30.29 15.811-3.957 2.51-7.543 4.971-10.695 8.47-1.4 1.556-2.639 2.911-3.452 4.88l.127.36.313-.126c.503-.144.977-.096 1.493-.084-5.425 2.552-9.918 7.217-11.94 12.913-2.03 5.72-1.885 12.228.767 17.685.618 1.27 1.25 2.511 2.122 3.63l.39.554-.395.016c-4.003-2.479-7.192-4.932-9.716-8.999-5.065-8.158-7.299-18.621-5.847-28.138.223-1.461.766-2.895 1.106-4.337.492-1.304 1.176-2.495 1.846-3.714Z"/><defs><linearGradient id="b" x1="252.202" x2="698.828" y1="33.278" y2="232.71" gradientUnits="userSpaceOnUse"><stop offset="0" stop-color="#C05452"/><stop offset="1" stop-color="#FFE5CF"/></linearGradient></defs><path fill="url(#b)" d="M571.54 78.376c-3.163-.926-6.094-1.96-8.845-3.82-5.469-3.7-8.633-11.253-9.757-17.565-1.329-7.457 1.168-15.678 5.495-21.774 4.894-6.896 13.124-11.634 21.398-13.048l.669-.11c7.53-1.33 16.4.724 22.89 4.745 10.886 6.745 16.169 18.72 19.056 30.72.052.4.066 1.506.252 1.805l.582-.14c4.29 4.696 9.049 8.947 13.056 13.9 6.193 7.656 11.91 20.105 11.728 30.099l-.37.48c-1.885 2.43-4.314 4.612-7.498 5.015-1.116.141-2.222.025-3.324-.162.428 2.712 2.092 5.752 3.358 8.2l.037.018c4.445 12.987 5.851 27.595 4.188 41.247-.749 2.922-1.968 5.81-2.587 8.732-.895 4.23.193 9.249.626 13.516-3.393 12.542-1.591 26.991 4.933 38.277 4.934 8.537 13.228 14.066 22.698 16.471 7.733 1.963 14.445 1.276 22.104-.454.014 7.361-.382 14.958-3.558 21.737-.696 1.486-1.457 3.182-2.609 4.362-5.656 5.797-13.428 9.713-19.5 15.066-3.457 3.048-5.644 6.227-8.417 9.798l-18.78.127c-4.286-.003-8.901.417-12.957-1.113l-3.619-1.187-14.88-4.452 6.114-3.584c10.122-6.984 17.118-18.237 19.305-30.282 2.092-11.515.83-23.36-2.784-34.452-1.346-4.132-3.083-8.52-5.537-12.118l-.603-1.12c-9.535-16.137-26.232-26.789-43.08-33.933-5.658-2.399-11.447-4.6-17.406-6.123-9.031-3.104-20.02-4.107-29.481-2.806-5.053.695-9.907 2.172-14.083 5.152l-.413.291c-2.629 1.913-3.689 4.882-5.025 7.705-1.521 3.215-3.049 6.332-4.917 9.367 11.672-6.565 24.627-7.861 37.794-7.88 10.406-.015 21.1.972 31.137 3.823 3.796 1.078 7.799 2.306 11.267 4.213l-.379 1.193c1.286 1.724 3.135 3.041 4.75 4.454l7.19 6.649c13.095 13.056 22.317 31.224 19.497 50.157-.762 5.117-2.527 9.871-4.823 14.49-2.432 4.895-6.271 9.929-10.807 13.008-4.179 2.837-8.011 4.206-12.821 5.513l-6.013 1.205c-.96.2-1.437.062-2.351-.234l-.611-.185c-1.377-.451.434.15-1.079-.562l-1.311-.371c-1.029-.339-.825-.684-1.501-1.127-.396-.259-1.992-.246-2.642-.522-8.701.145-16.734-2.188-24.508-5.929-2.054-.988-3.981-2.42-6.065-3.279l-.556-.222c.118-.971.109-1.77.021-2.734-1.422-.349-2.907-.43-4.362-.572l-4.235-.011-5.615-.354c-6.589.055-13.298-.538-19.875-.942l-47.549-4.612c-45.943-5.773-91.671-13.273-136.31-25.794l-48.494-14.527-13.69-4.776c-2.565-.94-5.091-2.089-7.729-2.799l-.306-.079-25.89-10.953c-.69-2.315-2.123-4.442-3.195-6.611l-10.467-20.722-3.58.515c-.877.18-1.323.148-2.172-.207a5.503 5.503 0 0 1-.563-1.368c-.072.721-.112 1.145.05 1.863l-.444.625-4.692-13.494-.169-.744c-.189-.443-.148-.961-.175-1.439a8.19 8.19 0 0 0-1.788-1.544c-1.57-.066-3.16-.277-4.667.237.325-.779 1.029-1.032 1.725-1.485l5.652-1.607c3.165-1.565 8.06-2.021 11.569-2.563 14.559-2.249 29.713-2.782 44.419-2.274l40.596 1.991c-2.185-3.401-5.227-6.92-6.928-10.531-.632-1.343-.808-2.51-.322-3.908.654-.657 1.242-1.468 2.207-1.594.109 1.149.52 2.048 1.143 3.001 4.329 6.626 11.311 10.011 18.766 11.725-2.75-3.751-5.405-7.695-6.292-12.352-1.9-9.984-.253-20.745 4.077-29.937 5.389-11.442 15.249-19.449 27.043-23.635 12.237-4.343 23.829-2.212 35.279 2.974.995.45 1.16.498 2.206.121l-1.86-2.76c-4.92-7.975-5.295-18.443-3.064-27.355 2.489-9.942 8.282-16.657 16.946-21.82 11.006-4.204 22.568-5.194 34.255-3.59 2.837.389 6.503 1.83 9.27 1.248.827.063 1.241.165 1.98.477 1.548.656 2.839.945 4.5.602 2.389-.495 4.359.743 6.374 1.95 1.307.782 2.363 1.552 3.552 2.48l.666.405.978.541c1.486 1.103 2.61 1.216 4.428 1.314l-1.886.58-.323.75.835.93c3.74-.236 7.431-1.259 11.194-1.197 5.858-.758 12.325-.109 18.135.713 1.964.278 4.631 1.292 6.517 1.041l.071-.838c1.037.055 1.749.088 2.708.48l.561.185.539.194 2.651.75 9.326 3.738c1.322.484 2.407 1.177 3.611 1.882 1.555.911 3.12 1.591 4.641 2.602l1.277.777c1.354.78.053-.025 1.049.765 1.105.876 2.997.781 4.342 1.206 2.188.692 4.025 2.394 6.226 2.984 12.311 9.848 17.373 26.373 27.796 37.963 2.893-3.998 8.502-8.534 12.834-10.862Z" transform="scale(.66667)"/><path fill="#89435C" d="M137.54 99.417c.295.086.616.108.883.258.826.47.57 1.691 2.09.854l.237-.152.4.058c.935.126 1.907-.136 2.606.518l-5.62.38-.202.708c-.126-.296-.099-.64-.117-.96.024-.376.056-.608-.104-.962-.194-.431-.102-.077-.172-.702Z"/><path fill="#FFFEFE" d="M337.594 138.125c1.119-.046 2.453.233 3.384.868.619.424.783.49.897 1.217l-.289.063c-1.362.16-3.174-.735-4.211-1.57l.219-.578Z"/><path fill="#89435C" d="M294.657 107.483c1.38 1.478 2.794 3.016 3.847 4.748l-.365.148c-2.14-1.132-4.167-2.775-6.165-4.15.76-.218 1.493-.234 2.276-.266l.407-.48Z"/><path fill="#964140" d="M317.27 132.466c1.47.407 3.091.81 4.626.797.714.088 1.473.06 2.065.487-.835 1.344-4.158 2.889-5.537 3.933l-1.827-4.95.672-.267Z"/><defs><linearGradient id="c" x1="473.478" x2="490.797" y1="196.244" y2="135.466" gradientUnits="userSpaceOnUse"><stop offset="0" stop-color="#B45859"/><stop offset="1" stop-color="#9D5060"/></linearGradient></defs><path fill="url(#c)" d="m467.8 187.601-.321-.609c-4.512-8.387-11.906-14.648-8.825-25.134 2.638-8.977 9.985-15.515 18.01-19.798 6.525-3.483 16.105-6.719 23.478-4.598 1.89.544 4.285 2.001 5.14 3.865.505 1.101.36 2.765-.086 3.853-1.86 4.538-6.157 6.712-10.162 9.008-1.085.621-2.47 1.229-3.396 2.051l.588.112c3.612.728 6.878 2.171 8.941 5.395 2.725 4.258 4.035 10.163 2.849 15.123-1.327 5.55-4.228 10.254-8.235 14.257-1.81 1.529-3.863 3.008-5.488 4.718l-.42.071c-2.58.407-5.204.468-7.811.571-2.117.084-4.928-.277-6.503 1.326l.345.887-1.009.401c-2.293-3.886-4.343-7.9-7.095-11.499Z" transform="scale(.66667)"/><path fill="#D77C76" d="M330.52 127.417c6.794.026 13.382.825 20.09 1.842 6.988 1.06 14.2 2.253 20.874 4.622 4.604 1.634 8.845 3.836 12.98 6.424 2.722 1.703 5.487 3.524 7.764 5.808 4.208 4.22 5.202 9.885 5.19 15.637-.004 2.403-.157 4.886-.591 7.25-.67 3.642-1.736 6.897-4.93 9.081-2.144 1.467-4.507 2.043-7.033 2.444-5.8.096-11.156-1.459-16.338-3.953-1.37-.659-2.654-1.613-4.044-2.186l-.37-.148c.078-.647.072-1.18.014-1.823-.948-.232-1.938-.286-2.908-.38 1.169-.112 2.43.081 3.616.064 2.5-.035 4.908-.233 7.369-.672l4.18-32.166c-4.147-1.42-8.82-2.174-13.116-3.02l-25.142-4.305c-3.66-.545-7.569-1.595-11.263-1.373 1.083-1.14 2.452-2.126 3.659-3.146Z"/><path fill="#FFFEFE" d="m143.756 100.953.37.011c3.525.091 7.1-.3 10.624-.457l18.213-.4c11.82.04 23.792 1.228 35.578 2.082 17.44 1.264 34.93 2.01 51.958 6.362 4.776 1.22 9.621 2.84 14.206 4.645 2.372.933 4.726 2.128 7.115 2.966-.72-.665-1.469-1.449-2.322-1.935-1.757-1-3.963-1.524-5.859-2.252-3.653-1.4-7.626-3.533-11.496-4.26a5.884 5.884 0 0 1-1.134-.34l-.004-.262c8.86.75 18.366 2.865 26.75 5.818 2.646.933 5.154 2.31 7.783 3.204l8.39 5.278c3.908 3.422 6.919 6.865 9.201 11.58.873 1.804 1.73 3.868 1.812 5.894.077 1.946-.72 3.26-2.025 4.617-1.917 1.994-4.546 3.012-7.24 3.454l21.503.035c7.337-.187 18.332.484 23.787-5.262-4.005-3.808-9.498-5.105-14.702-6.434-3.244-.829-6.584-1.714-9.929-1.99l-4.439-.044c-1.535.013-3.156-.39-4.627-.797l-.23-.591c1.05-1.069 2.924-.828 4.336-.884 1.738-.069 3.487-.11 5.207-.38l.28-.048c3.694-.222 7.604.828 11.263 1.373l25.142 4.305c4.295.846 8.97 1.6 13.117 3.02l-4.181 32.166c-2.46.44-4.869.637-7.37.672-1.185.017-2.446-.176-3.615-.065l-2.824-.007-3.743-.236c-4.393.036-8.865-.359-13.25-.628l-31.7-3.075c-30.628-3.849-61.114-8.849-90.873-17.196l-32.33-9.685-9.126-3.184c-1.71-.626-3.394-1.392-5.153-1.866l-.204-.052-17.26-7.302c-.46-1.544-1.415-2.962-2.13-4.408l-6.978-13.814-2.386.343c-.585.12-.882.099-1.448-.138a3.669 3.669 0 0 1-.376-.912c-.048.48-.074.763.034 1.242l-.296.417-3.128-8.996-.113-.496.202-.708 5.62-.38Z"/><path fill="#53F5FC" d="M138.047 102.537c.691.213 1.54.43 2.145.834 1.18.787 3.976 5.762 4.87 5.95l.585 1.26-2.386.343c-.585.12-.882.099-1.448-.138a3.669 3.669 0 0 1-.376-.912c-.048.48-.074.763.034 1.242l-.296.417-3.128-8.996Z"/><defs><linearGradient id="d" x1="359.426" x2="383.241" y1="210.675" y2="150.676" gradientUnits="userSpaceOnUse"><stop offset="0" stop-color="#7D354C"/><stop offset="1" stop-color="#9D4753"/></linearGradient></defs><path fill="url(#d)" d="M422.73 174.243c-1.08-.997-2.203-2.173-3.483-2.902-2.635-1.502-5.945-2.287-8.788-3.378-5.48-2.102-11.439-5.3-17.244-6.391a8.826 8.826 0 0 1-1.702-.51l-.005-.392c13.288 1.124 27.549 4.297 40.124 8.727 3.969 1.399 7.731 3.464 11.675 4.805l12.584 7.917c5.863 5.134 10.379 10.298 13.803 17.371 1.309 2.705 2.595 5.802 2.717 8.84.116 2.919-1.081 4.89-3.037 6.926-2.876 2.991-6.819 4.518-10.86 5.181-18.456.286-36.669-2.341-54.826-5.332l-52.537-10.897c-19.11-4.761-37.626-10.267-55.697-18.183-8.224-3.602-17.076-7.571-23.829-13.622-2.06-1.846-6.067-5.572-5.939-8.546.061-1.433 1.151-1.919 2.166-2.719 2.997 3.642 5.738 6.86 9.576 9.686 18.233 13.426 41.163 19.729 62.627 25.7 18.547 5.16 37.808 9.925 56.986 11.794 12.669 1.235 25.126-.766 37.592-2.859 3.295-.553 8.274-.87 11.028-2.805.336-1.143.017-2-.285-3.104l-.741-2.488c-3.632-10.736-11.997-17.884-21.905-22.819Z" transform="scale(.66667)"/><path fill="#E7C5DF" d="M145.063 109.321c.222 0 .982-.08 1.142-.002.726.354 1.635 1.318 2.3 1.836a33.497 33.497 0 0 0 4.12 2.724l26.652 13.961c8.518 4.02 17.558 6.96 26.473 9.938l24.75 7.659c22.557 6.233 46.1 10.192 69.47 11.426l19.604.198 26.04-.393c1.936-.07 12.506-1.206 13.388-.801-.472 3.412-1.11 6.821-2.23 10.087-.648 1.894-1.666 3.916-2.121 5.837-4.393.036-8.865-.359-13.25-.628l-31.7-3.075c-30.628-3.849-61.114-8.849-90.873-17.196l-32.33-9.685-9.126-3.184c-1.71-.626-3.394-1.392-5.153-1.866l-.204-.052-17.26-7.302c-.46-1.544-1.415-2.962-2.13-4.408l-6.978-13.814-.584-1.26Z"/><path fill="#FFBD6E" d="M178.568 107.425c3.031-1.929 7.153-2.198 10.646-2.518 8.865-.81 17.336-.432 26.2.018 6.101.31 12.228.493 18.3 1.228 6.257.758 12.625 1.996 18.777 3.365 9.873 2.196 19.688 5.574 28.134 11.282 3.784 2.557 7.336 5.602 10.913 8.449l3.587 2.948c.192.168.784.831 1 .904.411.14.444.066.792-.068.202.736.414 1.308.19 2.07-1.836 1.29-5.155 1.501-7.352 1.87-8.31 1.395-16.615 2.73-25.06 1.906-12.786-1.246-25.627-4.423-37.992-7.863-14.309-3.98-29.596-8.183-41.75-17.133-2.56-1.884-4.387-4.03-6.385-6.458Z"/><path fill="#FFFEFE" d="M252.267 117.561c7.14-.867 20.75 3.162 26.483 7.658.887.694 2.225 1.898 2.304 3.07.09 1.346-.994 2.518-1.81 3.467-.883-.078-1.79-.673-2.58-1.063l-6.189-3.2c-8.39-3.828-17.302-6.106-26.558-6.269-2.182-.038-4.356.233-6.542.281l-.353-.38c.66-.76 3.707-.695 4.849-.914 3.531-.678 6.921-1.756 10.396-2.65Z"/><defs><linearGradient id="e" x1="514.537" x2="521.331" y1="26.166" y2="151.197" gradientUnits="userSpaceOnUse"><stop offset="0" stop-color="#261341"/><stop offset="1" stop-color="#582C58"/></linearGradient></defs><path fill="url(#e)" d="M571.54 78.376c-3.163-.926-6.094-1.96-8.845-3.82-5.469-3.7-8.633-11.253-9.757-17.565-1.329-7.457 1.168-15.678 5.495-21.774 4.894-6.896 13.124-11.634 21.398-13.048l.669-.11c7.53-1.33 16.4.724 22.89 4.745 10.886 6.745 16.169 18.72 19.056 30.72.052.4.066 1.506.252 1.805 1.563 10.173 2.061 22.893-4.327 31.701-1.548 2.136-3.655 3.725-5.711 5.342 7.49 2.95 14.242 6.436 17.578 14.248 2.967 6.947 3.029 15 .125 21.995-2.399 5.776-6.059 10.813-12.068 13.155-10.36 4.037-23.401-2.405-32.791-6.696-10.288-4.701-20.199-10.289-31.254-13.071-11.575-2.913-24.484-2.631-36.375-3.276-14.371-.779-29.1-2.331-43.482-1.054-7.166.636-14.639 2.164-21.377 4.692-7.039 2.641-12.889 6.077-18.11 11.494-1.474 1.53-3.392 3.454-4.326 5.383 3.42 6.329 6.917 12.321 11.405 17.983l-.61.72c-1.174.048-2.275.071-3.414.399-12.574-6.669-26.609-10.46-39.711-16.025-8.543-3.628-16.39-7.644-22.96-14.326-1.894-1.19-3.544-2.841-4.974-4.544-3.998-4.627-6.727-11.461-6.903-17.574-.25-8.696 3.734-17.361 9.655-23.587 2.006-2.11 5.055-5.364 8.1-5.366l.372.009-.129-.69-1.86-2.76c-4.92-7.975-5.295-18.443-3.064-27.355 2.489-9.942 8.282-16.657 16.946-21.82 11.006-4.204 22.568-5.194 34.255-3.59 2.837.389 6.503 1.83 9.27 1.248.827.063 1.241.165 1.98.477 1.548.656 2.839.945 4.5.602 2.389-.495 4.359.743 6.374 1.95 1.307.782 2.363 1.552 3.552 2.48l.666.405.978.541c1.486 1.103 2.61 1.216 4.428 1.314l-1.886.58-.323.75.835.93c3.74-.236 7.431-1.259 11.194-1.197 5.858-.758 12.325-.109 18.135.713 1.964.278 4.631 1.292 6.517 1.041l.071-.838c1.037.055 1.749.088 2.708.48l.561.185.539.194 2.651.75 9.326 3.738c1.322.484 2.407 1.177 3.611 1.882 1.555.911 3.12 1.591 4.641 2.602l1.277.777c1.354.78.053-.025 1.049.765 1.105.876 2.997.781 4.342 1.206 2.188.692 4.025 2.394 6.226 2.984 12.311 9.848 17.373 26.373 27.796 37.963 2.893-3.998 8.502-8.534 12.834-10.862Z" transform="scale(.66667)"/><path fill="#FBCAB9" d="M381.027 52.251c5.032.15 10.973-1.726 14.059-5.935l.664-.888c-3.232.338-5.786.64-8.48-1.582-1.52-1.252-2.666-2.983-2.916-4.971-.22-1.737.523-3.615 1.625-4.93 1.091-1.302 2.762-2.309 4.48-2.45 3.76-.308 7.598.764 10.416 3.337 2.861 2.612 4.473 6.572 4.581 10.416.188 6.66-2.374 14.846-7.107 19.664-1.701 1.732-3.766 3.138-6.099 3.848l-.288.09c-3.882 1.1-8.951-1.14-12.236-3.1-2.733-1.63-5.328-3.708-7.255-6.258 1.929-2.665 5.668-5.69 8.556-7.241Z"/><path fill="#603058" d="M301.984 57.947c2.427-1.635 4.912-4.048 6.431-6.578l.46-.767c3.173-5.26 4.376-12.2 2.806-18.174-.092-.347.02-.447.144-.776.133.358.143.78.53.917 1.275.453 3.231.136 4.635.339l7.77 1.508c8.45 1.757 17.012 4.751 24.163 9.664 5.62 3.86 11.126 9.754 15.19 15.264-3.045-1.458-5.831-3.126-9.113-4.045-6.107-1.71-13.188-1.056-19.235.594-3.908 1.065-7.756 2.48-11.765 3.11-5.69.894-10.856.507-16.496-.33-1.175-.175-4.718-.175-5.52-.726Z"/><path fill="#351A47" d="M262.289 18.87c7.337-2.802 15.045-3.462 22.836-2.393 1.892.26 4.336 1.22 6.18.832.552.042.828.11 1.32.319 1.032.437 1.893.63 3 .4 1.593-.33 2.906.496 4.25 1.3.871.522 1.575 1.035 2.368 1.654l.444.27.652.36c.99.736 1.74.811 2.952.877l-1.258.386-.215.5.557.62c2.493-.157 4.954-.839 7.462-.797-.513.274-.978.66-1.563.62-1.165-.078-2.067.012-3.211.308l.452 1.332c.506 1.514 1.786 3.145 2.485 4.667h.25l.125-.747c.362.544.146.82.472 1.382l-.022.892c-.125.329-.236.429-.144.776 1.57 5.973.367 12.913-2.806 18.174l-.46.767c-1.519 2.53-4.004 4.943-6.43 6.578-5.914 3.151-10.478 4.863-17.31 4.76-2.122-.032-4.388-.186-6.425-.83l-5.336-1.91a15.251 15.251 0 0 1-.523 2.033l-.12.501-.114.344c-1.566 4.848-1.879 8.55.542 13.181 1.318 2.522 12.39 18.047 14.27 18.725l.011.676.073.068c2.28 4.219 4.612 8.214 7.604 11.988l-.407.48c-.783.032-1.517.048-2.276.266-8.383-4.446-17.74-6.973-26.474-10.683-5.695-2.419-10.927-5.096-15.307-9.55-1.262-.794-2.362-1.895-3.316-3.03-2.665-3.085-4.484-7.64-4.602-11.716-.166-5.797 2.49-11.574 6.437-15.724 1.337-1.407 3.37-3.576 5.4-3.578l.248.006-.086-.46-1.24-1.84c-3.28-5.316-3.53-12.296-2.043-18.236 1.66-6.628 5.522-11.105 11.298-14.547Z"/><path fill="#603058" d="m246.877 84.966.638-.091c.12-.804-.332-1.51-.593-2.25-.9-2.546-1.087-5.652 1.18-7.518.635 1.022.199 4.98.356 6.393.125 1.13.25 2.172.637 3.25.41 1.145.983 2.007 1.098 3.245-1.262-.793-2.362-1.894-3.316-3.029Z"/><path fill="#FBCAB9" d="M277.413 26.812c1.672-.051 3.084-.034 4.653.669 2.497 1.12 4.548 3.55 5.386 6.144.767 2.373.377 5.084-.818 7.24-1.733 3.124-4.497 5.158-7.893 6.153-2.399.25-4.403-.26-6.425-1.603-1.89-1.256-3.562-3.488-3.953-5.76-.476-2.771.612-5.944 2.214-8.196 1.726-2.427 3.856-4.104 6.836-4.647Z"/><defs><linearGradient id="f" x1="468.99" x2="282.821" y1="661.634" y2="63.972" gradientUnits="userSpaceOnUse"><stop offset="0" stop-color="#13000C"/><stop offset="1" stop-color="#2D0C37"/></linearGradient></defs><path fill="url(#f)" d="M150.425 198.699c-6.85-10.427-11.566-21.038-11.816-33.743-.381-19.41 8.051-36.162 21.329-49.958 22.378-23.253 53.143-31.27 84.508-31.787 4.587.383 9.942-.494 14.304.605h1.312l.282.748c.902.259 1.588.405 2.531.374l.375-.372 2.7.06-3.255 1.35c-3.253-.714-7.828-.423-11.07.09h-1.313l-.75.934c-1.334.11-2.395-.038-3.374.941l-.376-.375-.374.375c-.849 0-.95-.117-1.688.375-.994.027-1.038-.083-1.875.467-.525.345-1.092.308-1.687.283l-.563.375-1.058.213c-.797.144-1.351.272-2.041.725-7.39.749-14.706 1.596-21.942 3.343-20.466 4.944-38.771 15.391-52.221 31.784-1.938 2.362-4.012 4.976-5.483 7.654-7.903 11.342-11.375 26.075-9.006 39.745 2.992 17.265 12.544 28.575 26.611 38.378l7.577 4.718.723-.236.531-1.321c.156-3.954 1.767-8.535 4.433-11.461a7.518 7.518 0 0 0-1.467-.148c-1.804.004-4.016-.041-5.726-.697l-.569-.236-.729.44c-1.31-1.678-2.257-3.539-3.183-5.445-3.979-8.185-4.197-17.947-1.151-26.527 3.033-8.544 9.773-15.542 17.91-19.37l9.162-2.17c-.696.453-1.4.706-1.725 1.485 1.507-.514 3.097-.303 4.667-.237a8.19 8.19 0 0 1 1.788 1.544c.027.478-.014.996.175 1.439l.169.744 4.692 13.494.444-.625c-.162-.718-.122-1.142-.05-1.863.16.561.287.875.563 1.368.849.355 1.295.387 2.172.207l3.58-.515 10.467 20.722c1.072 2.169 2.505 4.296 3.195 6.611l25.89 10.953.306.079c2.638.71 5.164 1.859 7.729 2.799l13.69 4.776 48.494 14.527c44.639 12.521 90.367 20.021 136.31 25.794l47.549 4.612c6.577.404 13.286.997 19.875.942l5.615.354 4.235.011c1.455.142 2.94.223 4.362.572.088.964.097 1.763-.021 2.734l.556.222c2.084.859 4.011 2.291 6.065 3.279 7.774 3.741 15.807 6.074 24.508 5.929.65.276 2.246.263 2.642.522.676.443.472.788 1.501 1.127l1.311.371c1.513.712-.298.111 1.079.562l.611.185c.914.296 1.391.434 2.351.234l6.013-1.205c4.81-1.307 8.642-2.676 12.821-5.513 4.536-3.079 8.375-8.113 10.807-13.008 2.296-4.619 4.061-9.373 4.823-14.49 2.82-18.933-6.402-37.101-19.497-50.157l-7.19-6.649c-1.615-1.413-3.464-2.73-4.75-4.454l.379-1.193c-3.468-1.907-7.471-3.135-11.267-4.213-10.037-2.851-20.731-3.838-31.137-3.823-13.167.019-26.122 1.315-37.794 7.88 1.868-3.035 3.396-6.152 4.917-9.367 1.336-2.823 2.396-5.792 5.025-7.705l.413-.291c4.176-2.98 9.03-4.457 14.083-5.152 9.461-1.301 20.45-.298 29.481 2.806 5.959 1.523 11.748 3.724 17.406 6.123 16.848 7.144 33.545 17.796 43.08 33.933l.603 1.12c2.454 3.598 4.191 7.986 5.537 12.118 3.614 11.092 4.876 22.937 2.784 34.452-2.187 12.045-9.183 23.298-19.305 30.282l-6.114 3.584 14.88 4.452 3.619 1.187c4.056 1.53 8.671 1.11 12.957 1.113l18.78-.127c-2.484 5.089-3.918 9.775-3.426 15.504-.155 1.819-.345 3.615-.256 5.443.393 1.703.773 3.729.46 5.465l-.007 2.442c1.476 10.191 5.501 17.263 13.706 23.395l.987.733c2.288 2.082 3.529 3.56 4.857 6.389l.737 3.279 4.776.839.821-.406c-.522-.287-1.031-.374-1.607-.513.595-3.255 3.67-3.755 5.835-5.459.754-.593 1.357-1.365 2.024-2.048 2.031-2.08 2.39-3.607 3.806-5.985 1.785-2.998 4.095-4.732 4.791-8.376l2.302-.606c1.734-.596 3.807-2.038 5.534-1.541 1.749 3.671 2.4 8.134 2.928 12.152l1.617 14.285c.201 2.217.224 4.408.22 6.632 0 .222-.096 1.687-.007 1.851.175.319 1.55 1.178 1.896 1.448l5.588 4.485c4.979 4.074 9.493 8.518 13.521 13.538 20.143 25.102 27.781 58.761 23.494 90.381-1.311 9.675-3.848 18.91-7.083 28.103-2.827 8.034-6.667 15.931-11.042 23.232-6.848 11.43-14.651 21.461-26.909 27.329-8.043 3.851-16.674 6.703-24.987 9.934l-37.579 15.616c-2.226 1.005-6.451 2.352-8.175 3.878-.884.782-2.002 4.725-2.606 6l-.552.33-.429.436-.849-.481-.843.073c-1.456.053-2.418.036-3.796.608l-34.098 16.171c-4.199 1.959-8.573 4.334-12.977 5.723-4.642 1.463-9.571 1.44-14.379 1.866l-9.647 1.176c-3.084.299-6.672.029-9.517 1.38-2.404 1.142-4.678 3.38-6.755 5.061l-10.85 8.583c-5.834 4.49-11.87 9.177-18.044 13.182l-14.435 8.571c-6.746 4.176-12.764 8.585-20.276 11.426-9.456 3.576-18.655 8.027-28.252 11.182-4.713 1.55-9.689 2.441-14.506 3.617L426 673.34c-8.492 1.966-17.755 2.283-26.438 3.156l-37.5 3.127-31.49.453c-5.402-.009-11.79.455-17.072-.467l-36.562-3.235-14.859-2.615c-22.649-3.852-45.237-9.428-66.426-18.447-9.026-3.842-17.591-8.39-26.148-13.149-19.357-10.767-38.069-24.626-52.395-41.625-8.491-10.074-15.303-20.774-22.226-31.936l-4.616-7.656c-.858-1.511-1.63-3.251-2.705-4.614l-.339-.419-5.07-10.299-14.81-33.91c-13.092-32.039-20.95-66.447-22.882-100.986l-.238-4.158-.051-1.914c-.207-9.393-.37-18.786.288-28.167.759-10.818 2.508-21.535 4.555-32.174l8.674-27.287 16.175-33.467c2.666-4.831 5.996-11.836 10.193-15.464 5.188-8.241 11.356-15.619 17.63-23.044 9.566-11.322 19.696-21.897 30.712-31.819 5.78-5.205 11.491-10.266 18.025-14.525Z" transform="scale(.66667)"/><path fill="#FFBD6E" d="m336.068 292.237 7.435 6.906c-.043.95-.17 6.47-.687 7.026l-.11-.252c.085-.526.149-1.017.124-1.552-.068-1.436-.185-3.963-1.282-4.962-.81-.607-1.454-1.483-2.173-2.2a44.882 44.882 0 0 0-3.647-3.273c.307-.484.28-1.128.34-1.693Z"/><path fill="#351A47" d="M57.358 255.546c-1.214 4.13-2.617 8.215-3.509 12.433-2.844 13.46-3.19 27.685-2.837 41.396h-.262V292.5c.51-.765.25-3.235.25-4.25.5-.75.25-3.02.25-4 .418-.627.25-1.731.25-2.5.488-.731.062-1.337.25-2.125a7.871 7.871 0 0 0 .25-1.875c.488-.731.062-1.337.25-2.125.136-.57.103-1.232.25-1.75.174-.614.092-1.193.25-1.75.128-.452.139-.82.25-1.25.209-.806.177-.124.215-.69.027-.394.015-.758.094-1.15l.066-.285.125-.625c.258-.749.489-1.668.687-2.438.108-.416.018-.74.192-1.175.03-.078-.189-1.322-.251-1.637l-.127-.438-.001-.312-.499-.438c-.002-.505-.475-.59-.624-1.187.267-.366.445-.61.842-.85.547-.328.712-1.854 1.156-2.523.367.204.438.251.875.248.298-.442.3-.536.349-1.05l.028-.325.31-.313-.186-.25c.27-.408.609-.775.922-1.15l.185 1.26Z"/><path fill="#49296F" d="M73.846 382.12c.635-.256.933-.532 1.608-.226 1.523.69 2.935 2.309 4.082 3.492l.025.12c.028 1.53 1.24 3.07 2.01 4.399 2.87 4.956 7.718 9.457 11.687 13.54 1.629 1.673 3.315 3.26 4.657 5.18l-.746.297c-8.648-7.82-17.26-16.804-23.323-26.802Z"/><path fill="#802016" d="M125.985 397.566c2.56.426 5.335 2.727 7.506 4.093l11.884 7.503.37-.287c-.003-.652-.05-1.333.015-1.98.445 1.722.476 3.727.65 5.501l-18.427-8.023c-.743-2.304-1.553-4.409-1.998-6.807Z"/><path fill="#63FDF9" d="m141.175 111.533.296-.417c-.108-.479-.082-.761-.034-1.242.107.374.192.583.376.912.566.237.863.258 1.448.138l2.386-.343 6.978 13.814c.715 1.446 1.67 2.864 2.13 4.408l-5.219-2.342c-.917-.467-3.315-1.494-3.929-2.266-.38-.478-.678-1.573-.926-2.184-1.384-3.39-2.37-6.994-3.506-10.478Z"/><defs><linearGradient id="g" x1="494.696" x2="485.087" y1="381.186" y2="381.583" gradientUnits="userSpaceOnUse"><stop offset="0" stop-color="#FFE59F"/><stop offset="1" stop-color="#FFEDD6"/></linearGradient></defs><path fill="url(#g)" d="M484.642 336.067c.891 3.077 1.231 6.332 1.711 9.495l2.539 17.627 8.677 62.999c-.692.75-1.134.731-2.081.996l-.775-.809-1.877-17.952-8.152-56.079-1.567-11.094c-.184-1.462-.617-3.237-.13-4.647l1.655-.536Z" transform="scale(.66667)"/><path fill="#6767D1" d="M73.846 382.12c-8.133-13.11-14.163-26.76-18.603-41.533-1.129-3.755-2.425-7.692-2.868-11.593.812.788 1.37 3.818 1.747 4.996l2.576 7.256c5.394 14.33 13.439 28.452 24.143 39.476 5.114 5.268 10.834 9.736 16.854 13.91-1.518.074-6.192-3.824-7.517-4.935l-.74-.634A37.933 37.933 0 0 1 85.874 386c-.432.862-.846 1.71-.666 2.7.08.44.016.46-.147.877.296.374.469.663.902.87.541.26.735.763 1.277 1.024l.258.11c.23.19.407.44.638.63l.363.29c1.305 1.057 2.803 2.27 4.25 3.125.69.407 1.417.672 2.059 1.167.496.383 1.014.665 1.566.957v.248c-6.24-3.216-11.55-7.916-16.814-12.491l-.025-.121c-1.147-1.183-2.559-2.801-4.082-3.492-.675-.306-.973-.03-1.608.226Z"/><defs><linearGradient id="h" x1="713.06" x2="686.53" y1="348.206" y2="333.67" gradientUnits="userSpaceOnUse"><stop offset="0" stop-color="#B15AC0"/><stop offset="1" stop-color="#997FD2"/></linearGradient></defs><path fill="url(#h)" d="M697.951 325.587c1.734-.596 3.807-2.038 5.534-1.541l.031.329c.276 2.595.999 5.131 1.508 7.687l1.872 11.307c.792 5.251.779 10.377 1.155 15.646-8.847-5.296-18.199-7.54-28.072-10.035l.821-.406c-.522-.287-1.031-.374-1.607-.513.595-3.255 3.67-3.755 5.835-5.459.754-.593 1.357-1.365 2.024-2.048 2.031-2.08 2.39-3.607 3.806-5.985 1.785-2.998 4.095-4.732 4.791-8.376l2.302-.606Z" transform="scale(.66667)"/><defs><linearGradient id="i" x1="451.439" x2="496.409" y1="536.144" y2="546.018" gradientUnits="userSpaceOnUse"><stop offset="0" stop-color="#F1A04E"/><stop offset="1" stop-color="#FFFFB2"/></linearGradient></defs><path fill="url(#i)" d="M512.321 449.104c1.646 1.499 1.822 5.289 1.924 7.443.037.803-.059 1.54-.187 2.329l.165.378c-2.911 33.96-15.19 67.403-31.682 96.996l-18.603 30.167c-9.666 15.807-20.183 32.129-32.897 45.643l-.248-.566 30.634-46.233 28.165-50.177c1.276-2.104 2.106-4.809 3.116-7.084 8.48-19.11 14.022-39.946 17.284-60.542.963-6.08 2.043-12.198 2.329-18.354Z" transform="scale(.66667)"/><path fill="#802016" d="M224.544 415.777c1.166.707 2.835.464 4.18.447 5.573-.072 11.25-.827 16.807-1.3 1.888-.161 3.87-.586 5.748-.22l-2.216 8.48c-.277 1.085-.452 2.622-1.033 3.534l-26.57-.527c.176-1.405.8-2.898 1.243-4.247l1.841-6.167Z"/><path fill="#FFFEFE" d="M393.465 118.08c6.378 3.137 12.607 7.647 16.895 13.387 2.404 3.218 4.132 6.663 5.7 10.344 2.934 9.144 3.44 19.326-1.102 28.071-3.06 5.888-8.06 10.739-14.502 12.676-5.08 1.528-10.351 1.355-15.566.757-7.138-.817-14.146-2.458-20.82-5.143-.508-.692-.316-2.139-.168-2.997l.21-.937.37.148c1.39.573 2.674 1.527 4.044 2.186 5.182 2.494 10.538 4.05 16.338 3.953.434.184 1.498.175 1.762.348.45.295.314.525 1 .751l.874.247c1.009.475-.198.074.72.375l.407.123c.61.198.927.29 1.567.156l4.009-.803c3.207-.871 5.761-1.784 8.547-3.675 3.024-2.053 5.584-5.409 7.205-8.672 1.53-3.08 2.707-6.249 3.215-9.66 1.88-12.622-4.268-24.734-12.998-33.438l-4.793-4.433c-1.077-.942-2.31-1.82-3.167-2.97l.253-.795Z"/><path fill="#551830" d="M436.61 209.563c.985 6.794 3.668 11.51 9.138 15.597l.658.489c1.526 1.388 2.353 2.373 3.238 4.26l.492 2.185-23.623-4.405-5.712-.96c-.523-.106-1.5-.189-1.953-.418-.496-.25-1.074-1.298-1.372-1.742a53.079 53.079 0 0 0-2.828-3.864c.986-1.068 2.52-1.855 3.78-2.56 5.758-3.216 12.274-4.48 17.947-7.713l.236-.869Z"/><path fill="#B33307" d="m147.343 400.023 43.262 11.604-1.21 11.184c-3.3-.94-6.71-1.551-10.058-2.301-10.248-2.298-20.852-4.374-30.675-8.154l-.261-1.3c-.579-2.744-.76-5.6-.959-8.396.221-.51-.054-2.024-.099-2.637Z"/><path fill="#D77C76" d="m128.556 100.667 6.108-1.447c-.464.302-.933.47-1.15.99l-.01.25c-.053 2.455.763 5.147 1.227 7.562l3.77 17.471-13.335 9.83c-.331-.064-.64-.1-.978-.1-1.203.003-2.677-.027-3.817-.464l-.38-.158-.486.294c-.873-1.119-1.504-2.36-2.122-3.63-2.652-5.457-2.798-11.965-.767-17.685 2.022-5.696 6.515-10.361 11.94-12.913Z"/><path fill="#551830" d="M32.677 229.537c12.547 4.431 24.765-1.047 37.436-.502-3.202 5.65-6.435 11.04-9.164 16.965-.786 1.705-1.709 3.447-2.284 5.237-5.674 1.807-10.806 5.092-15.63 8.526l-6.555 4.996c-2.061 1.685-4.435 4.448-7.032 5.005-.137-6.262-.246-12.524.193-18.778.506-7.212 1.671-14.357 3.036-21.45Z"/><path fill="#C33B02" d="m401.356 205.925-15.591-18.152c7.039 1.336 12.778.19 19.508-1.862l9.92 2.968 2.413.791c2.704 1.02 5.78.74 8.638.742l12.52-.085c-1.656 3.393-2.612 6.517-2.284 10.336-.104 1.213-.23 2.41-.171 3.63.262 1.134.515 2.485.307 3.642l-.005 1.628-.236.87c-5.673 3.231-12.19 4.496-17.947 7.712-1.26.705-2.794 1.492-3.78 2.56l-13.292-14.78Z"/><path fill="#FFE300" d="m415.193 188.879 2.413.791c2.704 1.02 5.78.74 8.638.742l12.52-.085c-1.656 3.393-2.612 6.517-2.284 10.336-.104 1.213-.23 2.41-.171 3.63-5.63-4.358-10.918-9.146-16.897-13.048-1.348-.88-2.817-1.574-4.22-2.366Z"/><path fill="#9A3103" d="M401.356 205.925c11.894.08 23.622-1.303 35.26 2.01l-.005 1.628-.236.87c-5.673 3.231-12.19 4.496-17.947 7.712-1.26.705-2.794 1.492-3.78 2.56l-13.292-14.78ZM56.038 178.725c3.425 3.9 7.116 7.235 11.31 10.294l10.902 8.454c3.057 2.537 6.244 5.232 8.816 8.267l.189.094c-.807 1.507-2.04 2.733-3.156 4.014l-4.085 4.902c-3.567 4.53-6.83 9.405-9.9 14.285-12.672-.545-24.89 4.933-37.437.502l5.783-18.192 10.783-22.31c1.778-3.222 3.997-7.892 6.795-10.31Z"/><path fill="#B33307" d="M56.038 178.725c3.425 3.9 7.116 7.235 11.31 10.294l10.902 8.454c3.057 2.537 6.244 5.232 8.816 8.267-.566.065-1.165.086-1.695.295-.507.2-.985.018-1.49.236-1.226.527-3.496.092-4.95.354-11.423 2.052-22.854 4.186-34.485 4.578-1.719.058-4.43-.386-5.986.142l10.783-22.31c1.778-3.222 3.997-7.892 6.795-10.31Z"/><path fill="#C33B02" d="M56.038 178.725c3.425 3.9 7.116 7.235 11.31 10.294-2.576.577-5.35.247-7.973.225-3.379-.028-6.765.139-10.132-.21 1.778-3.22 3.997-7.89 6.795-10.31Z"/><path fill="#F86801" d="M307.99 330.9c-1.38.067-2.658.75-3.92 1.283-2.664 1.124-5.281 2.519-8.155 3.023-2.793.49-5.725.426-8.555.464-4.508.06-8.974.086-13.447.749l-20.52-24.194 31.986-24.212 23.214 9.121c1.23.454 2.527 1.315 3.792 1.581.654.138.766-.038 1.296-.384.545 1.091 1.213 2.251 1.288 3.49.373 6.11-2.254 12.912-3.823 18.742-.808 3.002-1.443 6.104-2.383 9.062-.187.586-.217.95-.773 1.275Z"/><path fill="#FFF9CD" d="M305.275 297.125c.66-.082 1.176-.147 1.73.317.75.627.803 3.952.995 5.081l-9.987 11.102c-.399.31-.166.194-.716.314-.735-1.062-1.697-2.35-1.852-3.654-.38-3.196 5.387-7.796 7.32-9.912.915-1.002 1.714-2.15 2.51-3.248ZM355.54 214.415l1.714-1.489c4.45 6.376 8.72 12.624 12.252 19.574 15.236 29.974 17.382 64.213 11.546 96.881-3.258 18.246-10.22 38.436-22.764 52.42-4.453 4.963-9.734 9.207-15.2 13-5.468 3.795-11.188 7.242-17.033 10.423-9.186 5-18.948 9.106-28.56 13.222-1.618.694-4.746 2.536-6.39 2.527 2.022-1.936 5.616-3.121 8.124-4.467 7.713-4.14 15.568-8.061 22.886-12.878l.135-.02c1.107-.511 2.185-1.436 3.186-2.148l5.591-4.01c3.243-2.344 6.577-4.678 9.605-7.294 4.784-4.133 9.102-8.878 13.2-13.681 2.002-2.347 4.132-4.727 5.812-7.317 3.157-4.868 5.568-10.243 7.336-15.757 2.84-8.865 4.71-18.014 4.985-27.342.239-8.146-.73-16.468-1.815-24.536-1.193-8.873-2.724-17.71-5.054-26.363-4.27-15.852-10.691-31.567-17.952-46.281l-3.677-6.816 1.989-.998c1.114-.836 2.343-1.476 3.56-2.144l6.525-4.506Z"/><path fill="#FD9413" d="M345.456 221.065c1.114-.836 2.343-1.476 3.56-2.144 1.02 1.398 1.504 2.843 2.196 4.402l3.07 6.802c3.607 7.866 7.163 15.937 9.974 24.125 4.647 13.534 7.594 28.3 8.828 42.546.41 4.734.969 9.79.542 14.53l-.281-.1c-.453-1.49-.434-3.191-.558-4.74l-.687-8.225-2.227-15.867c-.858-4.609-1.911-9.195-3.4-13.644l-7.407-19.155c-3.508-8.452-7.17-16.774-11.507-24.84-.534-.994-1.276-3.008-2.103-3.69Z"/><path fill="#9F62B8" d="M100.283 132.466c5.826 6.804 13.368 10.476 21.026 14.707l-.056.381c-.61 4.249-.666 8.887-.408 13.175.066 1.085.13 2.231.403 3.286.109.418.58 1.546.47 1.944-.1.363-1.5 1.604-1.813 1.94l-7.068 7.584-15.189 17.686-10.393 12.665-.189-.094c-2.572-3.035-5.76-5.73-8.816-8.267l-10.902-8.454c-4.194-3.059-7.885-6.394-11.31-10.294 3.46-5.494 7.571-10.413 11.754-15.363 6.377-7.548 13.13-14.598 20.475-21.213 3.853-3.47 7.66-6.844 12.016-9.683Z"/><path fill="#551830" d="M268.465 370.812c3.508-.017 7.244-1.144 10.66-1.904l14.617-3.398c4.193-1.15 30.47-9.67 32.653-8.787l-18.777 33.451-20.423 30.822.166.378-.08.224c-.446.738-1.95 2.12-2.808 2.256l-34.46 2.896L256.01 405l-.197-.187c-.15 1.213-.668 2.339-1 3.5-.14.491-.084.817-.313 1.313-.419.908-.535 2.092-.813 3.062-.247.866-.64 1.754-.874 2.625-.128.476-.008.593-.278 1.093-.194.36-.365.668-.346 1.094l.061.375c-.347.45-.473.71-.515 1.266-.082 1.062-.648 2.147-.922 3.172l-.063.687c-.103.29-.338.522-.437.813-.19.557.058.988-.246 1.597-.238.475-.176.188-.278.7l-.039.265c-.535.003-.525.07-1-.25l.25-1c.137-.366.32-.717.311-1.125l-.06-.374.372-.251-.123-.375c.337-.505.24-.237.312-.878.042-.375.072-.628.187-1l.126-.372c.104-.364.111-.495.32-.844.24-.405.161-.45.116-.906l.188-.312c.058-.173.218-.794.25-1l.001-.313c.1-.395.32-.686.311-1.125l-.06-.375.372-.25-.123-.375.249-.312c.002-.43.16-.548.25-.94l.062-.498.312-.374-.062-.626.312-.374-.123-.376.249-.312c.052-.366.197-.66.25-1l.001-.312.187-.438c.251-.77.7-1.416.624-2.188.143-.238.237-.356.312-.625l.188-.875.312-.374-.123-.376.249-.312c.07-.49.022-.328.152-.72l.098-.28.5-1.5c.14-.38.312-.774.312-1.188l-.06-.375.354-.257-.25-.93c.274-1.865 1.077-3.822 1.627-5.633 1.563-5.149 3.174-10.447 5.413-15.347l.216-.194c2.176-1.836 3.61-4.78 4.417-7.483.331-.009.621-.125.937-.22Z"/><path fill="#49296F" d="M375.318 368.003c4.986-9.824 8.05-20.247 10.356-30.993 4.389-20.457 5.682-42.491 3.132-63.295-1.804-14.725-5.704-29.816-12.148-43.192-2.508-5.207-5.172-10.348-8.222-15.26l-5.473-8.13c-.307-.489-1.212-1.654-1.218-2.223-.023-2.083.831-4.635 1.157-6.728a92.022 92.022 0 0 0 1.103-12.66c5.51 2.232 11.146 5.877 15.807 9.571 8.5 6.74 15.944 15.01 23.136 23.095 4.034 4.534 8.26 8.996 11.328 14.256 1.073-.005 1.998.043 3.038.317l-3.405.1a5.215 5.215 0 0 0-2.193.41c-1.318.57-3.357.582-4.804.701l-11.768-.333c6.978 9.246 13.33 18.908 18.812 29.111l3.913 7.8c.58 1.266 1.377 4.412 2.436 5.161.215.597.37.877.847 1.3-.18.252-.412.475-.54.758-.15.331.002 1.698 0 2.114l-.081 7.902-.503 7.624c-.747 6.765-2.026 13.46-3.444 20.11-2.56 12.004-6.06 23.58-11.718 34.5-.384.74-2.122 4.503-2.711 4.763-.355.024-.619.07-.908.297-1.811 1.417-3.426 3.043-5.318 4.375-4.087 2.879-8.75 5.094-13.429 6.82-2.254.83-4.77 1.73-7.182 1.729Z"/><defs><linearGradient id="j" x1="184.239" x2="100.007" y1="418.394" y2="378.443" gradientUnits="userSpaceOnUse"><stop offset="0" stop-color="#7ED7EB"/><stop offset="1" stop-color="#53F7FE"/></linearGradient></defs><path fill="url(#j)" d="m193.11 253.667 3.167 4.067 23.231 15.784c-9.887 8.925-18.052 20.58-26.27 31.047-14.498 18.468-29.154 37.22-42.088 56.829-.657.995-.96 2.282-2.275 2.254l-1.407-.135.096.706.752.843-.097.469-1.191-.673-.338.561 1.745.968c-.028 1.817-1.747 4.264-2.519 5.917l-4.83 11.28c-3.364 8.66-6.137 17.623-8.562 26.585-3.866 14.286-6.319 28.842-7.966 43.541-2.582 23.037-2.866 46.651.788 69.597 1.693 10.63 4.459 20.917 7.542 31.211 1.881 6.279 3.725 12.427 6.562 18.36.974 2.036 1.886 4.284 3.42 5.974.328.362.41.403.753.656l-.055.81c-1.957-1.336-3.875-3.034-5.337-4.898-7.495-6.56-14.68-14.371-20.728-22.285l-.069-.032c-3.724-3.934-6.827-9.134-9.771-13.682-5.093-7.865-9.918-16.444-13.342-25.19-7.263-18.547-10.088-39.422-9.418-59.28.917-27.16 5.745-53.169 15.834-78.443 3.652-9.147 7.971-18.575 13.209-26.933 3.542-5.653 7.879-10.704 11.922-15.99l18.021-23.776 28.859-34.635c6.512-7.316 13.21-14.819 20.362-21.507Z" transform="scale(.66667)"/><path fill="#6A4455" d="M111.437 193.042c-.057 1.247.028 2.727.89 3.708l-.148.215c-.182.282-.298.541-.428.848l-.114.263c-.128.353-.072.277-.019.745-.697.74-1.26 1.422-2.12 1.928-.582.343-.831.908-1.5 1.25-.717.367-1.198 1.308-2 1.75-.492.271-.662.721-1.25 1l-.498.374-.298.227c-.654.524-1.113.893-1.337 1.734-.47.38-.78.563-1.366.721-.346-.258-.5-.34-.686-.742-1.227 1.323-2.498 2.69-3.5 4.19-.311.466-.541.725-.995 1.061-1.05.775-1.737 2.02-3.036 2.399l18.405-21.67Z"/><path fill="#89435C" d="M111.618 198.82c1.445-1.477 2.808-3.063 4.692-3.975l.448-.224c1.677-.827 3.27-1.15 5.098-1.393-1.101 1.551-2.333 2.781-3.725 4.065-.76.703-2.14 1.652-2.54 2.603L98.822 211.46c-3.992 2.931-7.559 6.358-11.334 9.551.649-1.205 4.497-5.915 5.544-6.297 1.299-.378 1.985-1.624 3.036-2.399.454-.336.684-.595.995-1.06 1.002-1.501 2.273-2.868 3.5-4.191.185.402.34.484.686.742.585-.158.896-.342 1.366-.72.224-.842.683-1.21 1.337-1.735l.298-.227.499-.374c.587-.279.757-.729 1.25-1 .801-.442 1.282-1.383 2-1.75.668-.342.917-.907 1.5-1.25.858-.506 1.422-1.188 2.12-1.928Z"/><defs><linearGradient id="k" x1="111.67" x2="99.723" y1="398.938" y2="394.215" gradientUnits="userSpaceOnUse"><stop offset="0" stop-color="#28171E"/><stop offset="1" stop-color="#262C50"/></linearGradient></defs><path fill="url(#k)" d="m97.83 402.574 21.457-55.197c2.743 1.953 5.639 4.505 8.745 5.804l.329.13.324.383c-.25.659-.37 1.009-.395 1.727l-.604.36.382.366c.479.503.626.854.85 1.493l-.433-.216c-2.751-1.42-5.382-4.183-8.131-5.258-8.985 16.842-15.417 35.149-21.401 53.218-2.53 9.489-4.896 19.015-6.363 28.736-.538 3.567-1.248 7.125-1.071 10.743l-.594.505c-.223-3.245.141-6.399.386-9.635.84-11.108 3.531-22.432 6.518-33.159Z" transform="scale(.66667)"/><path fill="#63FDF9" d="M65.968 270.256c3.99-12.046 8.278-24.25 14.268-35.479 1.833.717 3.587 2.56 5.42 3.506l.29.144c.894.604 1.937 1.298 3.004 1.527-2.453 2.778-4.125 5.69-6.014 8.861-5.845 9.81-10.223 20.215-14.585 30.736l-4.028 10.243c-1.206 3.147-2.488 6.395-3.157 9.708l-.153-2.927c-.118-2.412.355-4.784.714-7.162.978-6.48 2.554-12.83 4.241-19.157Z"/><defs><linearGradient id="l" x1="144.968" x2="203.747" y1="302.238" y2="320.035" gradientUnits="userSpaceOnUse"><stop offset="0" stop-color="#944040"/><stop offset="1" stop-color="#B05854"/></linearGradient></defs><path fill="url(#l)" d="m196.277 257.734 23.231 15.784c-9.887 8.925-18.052 20.58-26.27 31.047-14.498 18.468-29.154 37.22-42.088 56.829-.657.995-.96 2.282-2.275 2.254l-1.407-.135.096.706.752.843-.097.469-1.191-.673-.338.561c-4.287-1.456-8.807-4.998-13.265-5.488-1.6-.343-3.165-1.384-4.507-2.291-.224-.639-.371-.99-.85-1.493l-.382-.366.604-.36c.025-.718.145-1.068.395-1.727l-.324-.383 25.672-32.152 12.116-13.279c2.355-2.491 5.514-5.083 7.238-8.036.6-1.426 2.668-2.85 3.809-3.904 2.088-1.926 3.936-3.771 5.588-6.098-2.741.363-5.131.849-7.647 2.09l-.672.335c-2.826 1.368-4.871 3.747-7.038 5.964-.08-.702-.164-.587.029-1.117l.171-.395c.194-.46.369-.849.642-1.271l.221-.323c-1.292-1.472-1.42-3.692-1.334-5.562l29.121-31.829Z" transform="scale(.66667)"/><path fill="#3D070D" d="m85.79 235.796 8.907 4.43c1.121.575 2.758 1.097 3.603 2.033l.012.083.064.47.501.563-.064.312-.794-.448-.226.374c-2.858-.97-5.871-3.332-8.843-3.659-1.067-.229-2.11-.923-3.005-1.527-.149-.426-.247-.66-.566-.996l-.255-.244.403-.24c.016-.478.096-.712.263-1.15Z"/><path fill="#964140" d="M88.95 239.954c2.972.327 5.985 2.688 8.843 3.659l1.164.645c-.019 1.211-1.165 2.843-1.68 3.945l-3.22 7.52c-2.242 5.773-4.091 11.748-5.708 17.723-2.577 9.524-4.212 19.228-5.31 29.027-1.722 15.358-1.911 31.101.525 46.399 1.129 7.086 2.973 13.944 5.028 20.807 1.254 4.186 2.483 8.285 4.375 12.24.649 1.357 1.257 2.856 2.28 3.983.218.24.273.268.502.437l-.037.54c-1.305-.89-2.583-2.023-3.558-3.265-4.997-4.374-9.787-9.581-13.819-14.857.617.24.905.41 1.32.919l.158.2.064-.626c-.104-.528-.376-1.154-.52-1.696-2.391-3.824-4.906-7.51-7.021-11.506-7.582-14.317-12.363-30.14-11.971-46.432.082-3.404.168-6.759.801-10.114.669-3.313 1.95-6.56 3.157-9.708l4.028-10.243c4.362-10.52 8.74-20.926 14.585-30.736 1.89-3.17 3.56-6.083 6.014-8.86Z"/><path fill="#52C1E4" d="M79.357 367.554c2.652 3.398 5.082 6.907 7.961 10.133l3.728 4.101c.279.318.926.92 1.072 1.272.07.17.024.369.036.554-4.997-4.374-9.787-9.581-13.819-14.857.617.24.905.41 1.32.919l.158.2.064-.626c-.104-.528-.376-1.154-.52-1.696Z"/><path fill="#FD9413" d="M326.49 224.545c.92-.416 2.246-.23 3.26-.282l6.376-.56c2.5-.29 4.967-.802 7.34-1.64l3.678 6.816c7.26 14.714 13.683 30.43 17.952 46.281 2.33 8.653 3.86 17.49 5.054 26.363 1.084 8.068 2.054 16.39 1.815 24.536-.274 9.328-2.145 18.477-4.985 27.342-1.768 5.514-4.18 10.89-7.336 15.757-1.68 2.59-3.81 4.97-5.812 7.317-4.098 4.803-8.416 9.548-13.2 13.681-3.028 2.616-6.362 4.95-9.605 7.294l-5.59 4.01c-1.002.712-2.08 1.637-3.187 2.148l-.135.02c-1.065.036-2.199.738-3.155 1.186l-5.825 2.736-18.816 8.754 10.326-14.088 8.701-13.108c9.59-14.511 18.263-29.115 24.39-45.474 5.44-14.527 8.7-30.396 10.036-45.842-4.48-3.337-8.698-7.819-12.766-11.661-.008-2.37-.312-4.707-.507-7.065l-2.408-19.482-5.602-35.04Z"/><path fill="#E7C5DF" d="M128.339 142.41c.112-.935.28-2.12.875-2.882 1-1.28 3.448-2.393 4.807-3.37l5.657-4.394 2.24 1.332 5.82 2.989c.332.151 1.125.606 1.453.573 2.465 1.564 5.558 2.583 8.272 3.687l21.49 8.067c46.077 16.147 94.542 26.237 143.172 30.373l31.377 1.624c1.034.013 3.616-.202 4.378.38-.644 1.778-.79 3.766-1.106 5.63l-1.787 10.312-1.892 9.915c-.385 1.921-.972 3.903-1.137 5.855.128.963.072 1.066.792 1.782.702.1 1.279.09 1.988.09l.803.042-6.525 4.506c-1.217.668-2.446 1.308-3.56 2.144l-1.99.998c-2.373.838-4.84 1.35-7.34 1.64l-6.376.56c-1.014.052-2.34-.134-3.26.282-.24-.452-.349-.542-.74-.84-.922.013-1.851-.128-2.655.34l-1.104.357c-2.896-.214-5.836-.089-8.74-.163l-13.122-.712-43.424-4.233-7.08-.803c-1.458-.19-2.962-.303-4.267-1.02-.526-.684-1.183-.882-1.983-1.072l-.689.631-13.46-2.751c-13.186-3.197-26.047-7.45-38.861-11.864l-.082-.199-2.284-.949c-.814-.245-1.676-.596-2.453-.946l-.92-.394-2.345-.914c-6.698-2.249-13.15-5.526-19.53-8.544-5.042-2.385-10.368-4.609-15.174-7.428-.418-.337-.752-.476-1.238-.696l-15.488-10.522-2.11-2.712.082-.16c.704-.848.79-1.38.993-2.482-1.25-1.538-2.528-3.52-2.817-5.51l-.044-.334c-.264-1.906-.106-3.847-.008-5.762.213-4.18.766-8.319 1.392-12.454Z"/><path fill="#351A47" d="M243.21 208.7c-.917-1.767-1.85-3.542-2.443-5.45-2.25-7.252-1.525-16.387.742-23.538l1.482-4.625c.22-.69.41-1.676.818-2.258l-.986 8.074c-.868 9.99-.444 19.79 4.86 28.574l-.563.244c-1.335-.128-2.902-.083-3.91-1.02Z"/><path fill="#FFFEFE" d="M353.502 180.409c1.034.013 3.616-.202 4.378.38-.644 1.778-.79 3.766-1.106 5.63l-1.787 10.312-1.892 9.915c-.385 1.921-.972 3.903-1.137 5.855-2.066 2.25-19.13 3.316-22.9 3.478l-40.39-1.232c.485-.156.963-.33 1.478-.33l.354.022.75.061c.408.09.53.2.988.2l1.762-.011c.724.074 1.552-.068 2.25.061.344.064.514.257.897.263.828.014 1.928-.179 2.708.081l.208.093c.512-.11.982-.252 1.424-.55 1.24-.838.278-2.57.574-3.92l.073-.289c-1.559-1.001-3.084-.665-4.917-.67l-6.514-.055c.4-.349 9.206-.345 10.685-.384 15.85-.42 31.603-2.159 47.212-4.913l3.24-23.78 1.662-.217Z"/><path fill="#C993C2" d="M128.339 142.41c.112-.935.28-2.12.875-2.882 1-1.28 3.448-2.393 4.807-3.37l5.657-4.394 2.24 1.332-.15.39c.568.419.7.747.931 1.42 1.241 3.606 1.738 7.43 2.452 11.165 1.968 10.314 4.756 21.521 11.968 29.55 2.042 2.272 4.47 3.916 6.938 5.677 1.077.77 2.438 1.551 3.326 2.53-1.89-.537-3.694-1.591-5.48-2.415l-17.952-9.244c-3.206-1.727-6.635-3.168-9.598-5.294l-.272-1.644c.012.964.191 1.32-.456 2.066l-.454.096c-.572.126-1.004.352-1.476.698l-1.058-.958-.82-.664c-1.252-1.538-2.529-3.52-2.818-5.51l-.044-.334c-.264-1.906-.106-3.847-.008-5.762.213-4.18.766-8.319 1.392-12.454Z"/><path fill="#9BEEFB" d="m133.339 144.033.89.43a136.086 136.086 0 0 0-.148 20.768c.012.964.191 1.32-.456 2.066l-.454.096c-.572.126-1.004.352-1.476.698l-1.058-.958.63-.6c.49-.61-.04-14.276-.067-16.39.151-1.89-.247-4.006.175-5.84.635-.182 1.308-.208 1.964-.27Z"/><path fill="#63FDF9" d="M128.339 142.41c.112-.935.28-2.12.875-2.882 1-1.28 3.448-2.393 4.807-3.37l5.657-4.394 2.24 1.332-.15.39c-1.827 1.017-3.346 2.569-5.016 3.827-.318.544-.719.93-.613 1.558.26 1.532-1.774 3.884-1.91 5.592l-.89-.43c-.656.062-1.329.088-1.964.27-.422 1.834-.024 3.95-.175 5.84-.519-1.529-.286-3.874-.319-5.518-.518-.55-1.077-1.05-1.864-1.162l-.37.018-.308-1.072Z"/><path fill="#8C88B5" d="M136.752 137.313c-.318.544-.719.93-.613 1.558.26 1.532-1.774 3.884-1.91 5.592l-.89-.43c-.995-.958-1.648-1.506-1.872-2.908.674-1.333 3.967-2.93 5.285-3.812Z"/><path fill="#53F5FC" d="m128.339 142.41.308 1.071.37-.018c.787.112 1.346.612 1.864 1.162.033 1.644-.2 3.99.32 5.517.026 2.115.556 15.781.066 16.39l-.63.601-.82-.664c-1.252-1.538-2.529-3.52-2.818-5.51l-.044-.334c-.264-1.906-.106-3.847-.008-5.762.213-4.18.766-8.319 1.392-12.454Z"/><defs><linearGradient id="m" x1="358.717" x2="363.957" y1="326.899" y2="265.68" gradientUnits="userSpaceOnUse"><stop offset="0" stop-color="#B5402F"/><stop offset="1" stop-color="#642752"/></linearGradient></defs><path fill="url(#m)" d="m194.724 249.704 1.231.996 1.588 1.436c10.63 8.399 23.462 14.934 35.64 20.753l22.206 10.175c27.934 11.38 57.468 19.531 86.926 25.851l16.462 3.376c1.617.326 3.628 1.137 5.253 1.071.44-.017.364-.053.785-.312 1.512 1.407 3.862 1.339 5.865 1.532l.843-.367c3.39 2.473 54.822 8.367 61.102 7.972l.377-.067 60.586 1.848c5.653-.242 31.249-1.843 34.348-5.216.192 1.444.108 1.599 1.189 2.673 1.052.15 1.918.135 2.981.133l1.205.064-9.787 6.759c-1.826 1.002-3.67 1.963-5.341 3.217l-2.983 1.496c-3.561 1.258-7.261 2.024-11.012 2.461l-9.563.839c-1.521.079-3.509-.201-4.891.423-.359-.677-.522-.813-1.109-1.26-1.383.02-2.777-.191-3.983.51l-1.655.536c-4.344-.321-8.755-.133-13.112-.244l-19.681-1.068-65.137-6.35-10.619-1.205c-2.188-.285-4.443-.454-6.401-1.529-.789-1.027-1.775-1.324-2.975-1.609l-1.033.947-20.189-4.127c-19.78-4.795-39.072-11.174-58.293-17.795l-.123-.299-3.426-1.423c-1.22-.368-2.513-.895-3.679-1.42l-1.381-.59-3.516-1.372c-10.048-3.373-19.726-8.288-29.297-12.816-7.562-3.577-15.55-6.913-22.76-11.142-.626-.505-1.128-.713-1.857-1.043l-23.231-15.784-3.167-4.067.124-.24c1.057-1.273 1.186-2.072 1.49-3.723Z" transform="scale(.66667)"/><defs><linearGradient id="n" x1="411.389" x2="462.957" y1="476.467" y2="656.164" gradientUnits="userSpaceOnUse"><stop offset="0" stop-color="#300835"/><stop offset="1" stop-color="#292A65"/></linearGradient></defs><path fill="url(#n)" d="m625.971 349.141 12.85 2.59 23.502 4.509c3.573.691 7.513 1.116 10.943 2.308 4.556.561 9.215 1.875 13.636 3.116 15.716 4.411 28.105 11.27 38.228 24.306 12.492 16.088 20.692 39.953 20.417 60.407 1.056 6.313.024 14.463-.853 20.8l-1.414 9.198c-2.89 13.592-8.18 27.338-15.287 39.295-.564 1.978-1.955 3.814-3.058 5.544-4.38 6.876-9.351 12.62-16.56 16.594-9.452 5.21-20.006 8.88-30.004 12.919l-40.168 17.354c-5.669 2.618-11.001 6.16-16.465 9.192l-25.099 12.486c-4.677 2.172-9.293 4.562-14.177 6.24-8.04 2.763-17.758 2.884-26.228 3.473-3.273.227-8.448-.04-11.397 1.326-3.046 1.41-6.271 4.652-8.942 6.761l-17.978 14.005a353.148 353.148 0 0 1-39.533 25.742c-31.509 17.649-67.239 23.586-102.762 26.333-45.683 3.533-92.628 1.185-136.763-11.856-28.801-8.51-56.875-20.322-81.123-38.345-3.995-2.97-8.701-6.295-11.983-10.056l1.12-.444c-2.014-2.882-4.543-5.262-6.986-7.772-5.954-6.123-13.225-12.875-17.531-20.309-1.154-1.992-2.972-4.302-3.014-6.597 7.896 6.862 15.861 13.913 25.22 18.737v-.372c-.828-.438-1.605-.862-2.349-1.436-.963-.742-2.053-1.14-3.088-1.751-2.17-1.283-4.418-3.101-6.375-4.688l-.545-.435c-.346-.284-.611-.659-.957-.943l-.386-.166c-.814-.391-1.104-1.145-1.916-1.535-.65-.312-.909-.745-1.353-1.306.244-.624.34-.654.22-1.315-.269-1.485.351-2.757.999-4.05a56.9 56.9 0 0 0 5.344 4.594l1.111.951c1.987 1.667 8.999 7.514 11.276 7.402 1.385.21 3.342 1.867 4.571 2.639l6.993 3.953c12.763 6.741 25.555 13.811 38.778 19.614 26.93 11.819 55.717 20.537 84.819 24.959 14.707 2.235 29.525 3.301 44.358 4.233 19.727 1.239 39.585 1.486 59.314.209 12.708-.822 25.715-1.4 38.206-4.004 13.878-2.893 27.689-6.826 40.89-12.006 12.899-5.062 25.569-11.768 37.458-18.855 16.928-10.09 33.068-21.411 45.858-36.607 4.429-5.262 7.921-11.08 11.3-17.045 1.187-2.094 2.104-4.43 3.454-6.414l.435-.619c3.617.003 7.392-1.347 10.773-2.594 7.019-2.589 14.013-5.911 20.143-10.23 2.838-1.998 5.26-4.437 7.977-6.562.434-.339.829-.41 1.362-.446.883-.39 3.491-6.034 4.066-7.144 8.488-16.38 13.737-33.744 17.577-51.75 2.128-9.976 4.046-20.017 5.167-30.165l.754-11.435.123-11.854c.001-.623-.226-2.674-.002-3.171.192-.424.54-.758.81-1.137-.714-.634-.947-1.054-1.27-1.949-1.589-1.124-2.784-5.843-3.654-7.742l-5.869-11.7c-8.222-15.305-17.752-29.798-28.218-43.666l17.651.499c2.171-.178 5.23-.198 7.206-1.051a7.822 7.822 0 0 1 3.29-.616l5.108-.15Z" transform="scale(.66667)"/><path fill="#FD9413" d="m442.812 322.283 20.048-1.039c-3.582 6.697-7.52 11.44-14.304 15.02-1.191-.952-2.21-3.842-3.004-5.239-1.584-2.786-3.532-5.515-4.898-8.4.69-.268 1.428-.28 2.158-.342Z"/><path fill="#52C1E4" d="m468.118 287.693.316-.236.166.303c.28.496.116.229.418.625.236.307.218.481.357.82l.362.674.435.796c.724 1.316 1.48 3.877 1.605 5.342.043.501-.015.224.19.66.239.505.059.741.096 1.26l.09.361c.267 1.164.12 2.575.118 3.771-.005 2.368.252 5.144-.27 7.432-.113.492-.163 1.013-.052 1.508l.428.065c.418-1.067.594-1.672 1.551-2.33.989-.679.55-1.322 1.072-2.244.246-.434.25-.593.182-1.078a2.47 2.47 0 0 1 .007-.89c.21-1.282.017-3.129-.001-4.47l-.31-.187.065-.308c.097-.59.09-1.21-.1-1.778-.25-.749-.072-1.506-.343-2.289l-.43-2.11c-.068-.413-.205-.743-.32-1.14l-.05-.25c-.094-.374-.312-.675-.511-1l.027-.285c-.001-.562-.236-.845-.466-1.34l-.192-.456c-.364-.824-.73-1.777-1.37-2.419l-.062-.5c-.484-.485-.498-.431-.5-1.11.462.433.638.535.876 1.109l.388.751c.484.932.958 1.826 1.282 2.827 1.878 5.796 2.672 10.865 2.285 16.967l-.689 6.156c-1.64 7.212-4.007 14.156-8.805 19.945-1.218 1.47-2.67 2.65-3.93 4.056-10.027 7.693-24.646 12.374-37.366 10.701-2.377-.312-6.02-.863-7.94-2.367-.22-.523-.22-.262-.014-.78 2.44.104 4.963 1.017 7.46 1.222 9.773.804 20.831-1.584 29.469-6.153 8.372-4.43 13.157-11.119 15.906-20.074 2.184-7.116 3.394-16.529 1.684-23.872-.646-2.77-1.791-5.182-3.114-7.685Z"/><defs><linearGradient id="o" x1="576.679" x2="624.381" y1="491.737" y2="498.52" gradientUnits="userSpaceOnUse"><stop offset="0" stop-color="#533282"/><stop offset="1" stop-color="#595DBD"/></linearGradient></defs><path fill="url(#o)" d="M631.727 415.516c.32.395 1.02 1.046 1.204 1.484.721 1.719.389 4.832.383 6.723-.031 9.409-.756 18.915-1.723 28.275L618.27 517.8l-.268.586c-1.333 2.953-2.316 6.116-3.556 9.124-5.279 12.8-10.806 25.712-20.648 35.764-3.773 3.852-7.861 7.201-12.96 9.133-6.16 2.333-11.396 2.285-17.748.929 4.586-1.944 9.238-4.098 13.31-7.004 11.649-8.312 19.816-21.955 26.832-34.16.883-.39 3.491-6.034 4.066-7.144 8.488-16.38 13.737-33.744 17.577-51.75 2.128-9.976 4.046-20.017 5.167-30.165l.754-11.435.123-11.854c.001-.623-.226-2.674-.002-3.171.192-.424.54-.758.81-1.137Z" transform="scale(.66667)"/><path fill="#551830" d="m448.556 336.264-.004.054c-.44.305-.844.54-1.34.743-2.626 1.073-5.406 1.643-8.185 2.155-5.569 1.026-11.805 1.782-17.141-.507-.516-1.825 1.312-8.218 1.76-10.334 1.424-6.738 3.167-13.62 3.982-20.46l12.393 14.097c.853.3 1.891.237 2.791.271-.73.062-1.468.074-2.158.342 1.366 2.885 3.314 5.614 4.898 8.4.794 1.397 1.813 4.287 3.004 5.24Z"/><path fill="#802016" d="m429.316 281.69 13.726.361c3.234.1 6.562.104 9.765.604 4.278.667 8.105 3.957 10.554 7.415 1.155 1.631 3.514 4.84 3.514 6.893l-.833.092-37.384.376.658-15.74Z"/><defs><linearGradient id="p" x1="645.446" x2="682.931" y1="490.284" y2="364.635" gradientUnits="userSpaceOnUse"><stop offset="0" stop-color="#096C98"/><stop offset="1" stop-color="#08AFD0"/></linearGradient></defs><path fill="url(#p)" d="m625.971 349.141 12.85 2.59 23.502 4.509c3.573.691 7.513 1.116 10.943 2.308 4.556.561 9.215 1.875 13.636 3.116 15.716 4.411 28.105 11.27 38.228 24.306 12.492 16.088 20.692 39.953 20.417 60.407 1.056 6.313.024 14.463-.853 20.8l-1.414 9.198c-2.89 13.592-8.18 27.338-15.287 39.295l-.093-1.15.819-1.426.656-1.219c1.349-2.109 2.154-4.454 3.34-6.656.392-.728.308-.641.226-1.407l.747-.562c.141-.734.486-1.2.75-1.875.239-.613.699-1.276.843-1.852.383-1.531 1.476-2.972 1.781-4.523l.096-.75.28-.375.187-.563.281-.656c-.861.226-1.31.024-2.095-.295-.966-.394-2.017-.724-2.897-1.291l-.927-.617c-.84-.28-1.828-.363-2.724-.688l-.383-.144c-.651.159-1.222.345-1.896.217l-2.737-.652c-1.315-.259-2.384-.709-3.762-.697a12.725 12.725 0 0 1-3.278-.384c-1.627-.408-1.902-.508-3.445-.017-1.491-.339-1.948-.557-3.312.155l-.856-.411-2.696.228c-1.186 1.407-1.926 3.453-2.809 5.085-.635 1.175-1.558 2.117-2.212 3.263-1.027 1.797-3.12 4.465-4.691 5.854-1.291 1.14-2.077 2.205-3.805 2.703l-.332.086c1.891-2.109 4.068-3.879 5.895-6.083 7.197-8.684 10.747-19.1 13.208-29.918l1.033-9.234c.581-9.153-.611-16.757-3.427-25.45-.487-1.502-1.198-2.843-1.923-4.241l-.583-1.127c-.357-.861-.62-1.014-1.314-1.663.004 1.018.025.937.75 1.665l.095.75c.96.963 1.508 2.393 2.054 3.628l.288.684c.345.743.697 1.167.698 2.01l-.04.428c.298.487.625.939.766 1.5l.076.375c.172.595.377 1.09.48 1.711l.645 3.164c.406 1.174.14 2.31.515 3.433.284.853.294 1.781.149 2.667l-.098.462.465.282c.027 2.011.316 4.781.002 6.703-.087.534-.086.806-.011 1.336.103.728.097.966-.272 1.617-.784 1.383-.125 2.348-1.608 3.367-1.436.986-1.7 1.893-2.327 3.494l-.642-.097c-.167-.743-.091-1.524.078-2.263.783-3.432.398-7.595.405-11.147.004-1.795.223-3.911-.178-5.657l-.134-.541c-.056-.779.214-1.133-.144-1.891-.308-.653-.22-.238-.285-.989-.188-2.198-1.322-6.04-2.408-8.014l-.652-1.194-.543-1.01c-.208-.509-.181-.77-.535-1.231-.454-.594-.208-.193-.628-.937l-.248-.455-.475.354-4.588-5.496c-11.208-11.745-27.254-10.715-42.26-11.365l-24.871-1.111c-1.589-1.124-2.784-5.843-3.654-7.742l-5.869-11.7c-8.222-15.305-17.752-29.798-28.218-43.666l17.651.499c2.171-.178 5.23-.198 7.206-1.051a7.822 7.822 0 0 1 3.29-.616l5.108-.15Z" transform="scale(.66667)"/><path fill="#52C1E4" d="m495.214 294.683.08.208c.55 1.475-.038 3.033 1.334 3.984l.025-.275.122-.954.257-.061c.704 4.208.016 9.642-.57 13.866l-.678-.248c-.387-2.013-.026-4.498-.074-6.572l-.496-9.948Z"/><path fill="#377FAF" d="m417.314 232.76 8.567 1.727-.354.06c-1.015.158-1.573.221-2.526-.174-.702.252-.265.371-.653.64-.136.094-1.12.106-1.348.114l1.179.342c.407.105.328.064.82.108.73.064.92.238 1.528.581l.843.405c-1.425.23-3.63-.446-5.134-.644-4.466-.586-8.97-.696-13.324-1.947 1.447-.119 3.486-.132 4.804-.7a5.215 5.215 0 0 1 2.193-.411l3.405-.1Z"/><defs><linearGradient id="q" x1="674.049" x2="717.952" y1="410.394" y2="376.706" gradientUnits="userSpaceOnUse"><stop offset="0" stop-color="#20BCE3"/><stop offset="1" stop-color="#BFDEFF"/></linearGradient></defs><path fill="url(#q)" d="m638.055 354.844-1.265-.607c-.912-.515-1.198-.776-2.291-.872-.739-.066-.621-.004-1.231-.162l-1.768-.512c.343-.013 1.818-.031 2.021-.171.583-.404-.073-.582.98-.961 1.429.593 2.267.498 3.789.261l.531-.089 23.502 4.509c3.573.691 7.513 1.116 10.943 2.308 4.556.561 9.215 1.875 13.636 3.116 15.716 4.411 28.105 11.27 38.228 24.306 12.492 16.088 20.692 39.953 20.417 60.407l-.385.092-.183 1.431-.038.412c-2.058-1.426-1.175-3.763-1.999-5.976l-.121-.311c-2.114-15.416-6.934-30.848-14.72-44.366-4.889-8.489-11.488-16.88-19.704-22.364-10.652-7.111-23.707-10.039-35.904-13.309-4.193-.185-8.944-1.897-13.023-2.906l-17.162-3.616c-1.419-.231-2.81-.798-4.253-.62Z" transform="scale(.66667)"/><path fill="#DA8451" d="M146.339 182.345c.486.22.82.36 1.238.696 4.806 2.82 10.132 5.043 15.173 7.428 6.38 3.018 12.833 6.295 19.531 8.544l2.344.914.921.394c.777.35 1.64.701 2.453.946l2.284.95.082.198c12.814 4.414 25.675 8.667 38.862 11.864l13.46 2.751.688-.631c.8.19 1.457.388 1.983 1.072 1.305.717 2.809.83 4.267 1.02l7.08.803 43.424 4.233 13.121.712c2.905.074 5.845-.05 8.741.163-.324.94-.036 2.123.087 3.098l1.045 7.396 5.434 37.386 1.252 11.968.516.54-.194.08c-3.994 1.707-7.857 4.15-11.759 6.103-1.095.548-2.636 1.556-3.836 1.716l-9.716-41.064-.238.172c-3.128 2.198-7.283 3.483-10.811 4.958l-20.02 8.247-21.05 8.518c-5.656 2.335-11.47 5.093-17.392 6.665l9.823 31.546 7.146 22.861c.674 1.946 1.037 4.46 2.07 6.189.915-.383 2.03-.299 3.014-.323l6.014-.04c9.165.032 18.589-.282 27.67 1.05 3.019-1.164 5.728-3.488 8.463-5.22 2.795-1.77 5.86-3.343 8.481-5.348.556-.325.586-.689.773-1.275.94-2.958 1.575-6.06 2.383-9.062 1.569-5.83 4.196-12.633 3.823-18.742-.075-1.239-.743-2.399-1.288-3.49 2.028-2.516 6.228-4.13 9.047-5.646 2.614-1.406 5.296-3.09 8.055-4.164l.68-.2 4.605 3.916c-.06.565-.033 1.21-.34 1.693a44.882 44.882 0 0 1 3.647 3.273c.72.717 1.363 1.593 2.173 2.2-.191 4.104-.911 8.182-1.553 12.236-2.175 13.73-5.87 27.621-11.523 40.361-.673 1.517-1.227 3.32-2.077 4.723-2.182-.882-28.46 7.637-32.653 8.787l-14.617 3.398c-3.416.76-7.152 1.887-10.66 1.904-.316.094-.606.21-.937.219-.807 2.703-2.24 5.647-4.417 7.483l-.216.194c-2.239 4.9-3.85 10.198-5.413 15.347-.55 1.81-1.353 3.768-1.628 5.633l-4.575 15.016c-1.879-.366-3.86.059-5.748.22-5.556.473-11.234 1.228-16.808 1.3-1.344.017-3.013.26-4.179-.447l-1.84 6.167c-.445 1.349-1.068 2.842-1.245 4.247-.914-.303-1.402-.418-2.347-.19-2.028.28-4.673-.297-6.737-.49l-20.734-2.286-2.247-.414 1.21-11.184-43.26-11.604c.044.613.32 2.127.098 2.637l-.073.24c-.216.732-.2.982-.119 1.726.085.777-.2 1.45.25 2.124l-.069.266c-.116.592.15 1.01-.054 1.61l.373.249-.061.375.061.625.027.426c.058.752-.024.047.162.7l.058.335c.088.494.026.26.253.79h-1.5c-.016-.768-.021-1.28-.25-2l-.031-.633-.256-3.17c-.019-.427 0-.27-.213-.697l.035-.286c.046-.473.022-.681-.224-1.09l.004-.336-.065-1.04-.063-.828-.185 2.103.258 2.746c-.065.647-.018 1.328-.015 1.98l-.37.287-11.884-7.503c-2.17-1.366-4.946-3.667-7.506-4.093.445 2.398 1.255 4.503 1.998 6.807-.735-.17-1.268-.348-1.932-.703l-16.688-8.898-5.09-2.835c-.778-.455-1.504-1.155-2.359-1.42-2.625-.811-3.134-2.137-4.81-4.044l-.222-.247-.382.4-.384-.41-.367.123c-.229-.169-.284-.196-.502-.437-1.023-1.127-1.631-2.626-2.28-3.983-1.892-3.955-3.121-8.054-4.375-12.24-2.055-6.863-3.9-13.72-5.028-20.807-2.436-15.298-2.247-31.04-.525-46.399 1.098-9.799 2.733-19.503 5.31-29.027 1.617-5.975 3.466-11.95 5.708-17.723l3.22-7.52c.515-1.102 1.661-2.734 1.68-3.945l-1.164-.645.226-.374.794.448.064-.312-.501-.562-.064-.47.938.09c.877.018 1.079-.84 1.517-1.504 8.622-13.072 18.393-25.574 28.058-37.886 5.48-6.978 10.922-14.748 17.514-20.698Z"/><path fill="#FFF9CD" d="m330.783 288.52.68-.2 4.605 3.917c-.06.565-.033 1.21-.34 1.693l-.171-.118c-1.308-.914-3.756-2.543-4.528-3.937-.15-.273-.184-1.018-.246-1.354Z"/><path fill="#3D070D" d="M267.219 369.618c.62-3.456 1.17-6.634 2.633-9.856l-1.387 11.05c-.316.094-.606.21-.937.219l-.31-1.413Z"/><path fill="#FFF9CD" d="m249.62 331.722.357-.381c1.24.94 1.178 2.455 2.301 3.251.674 1.946 1.037 4.46 2.07 6.189l-.054.3c-.686.095-1.023.223-1.669-.053-1.518-2.707-2.194-6.31-3.006-9.306Z"/><path fill="#3D070D" d="m164.867 203.125.402.047c-7.148 6.84-15.517 12.457-23.53 18.203l-.454-.024c2.064-2.15 4.642-3.967 6.965-5.844 5.407-4.369 10.748-8.64 16.617-12.382Z"/><path fill="#FFBD6E" d="m245.132 311.73 7.146 22.862c-1.123-.796-1.062-2.311-2.301-3.251l-.358.381c-1.424-3.043-1.94-6.96-2.834-10.222-.7-2.555-1.775-5.251-2.153-7.875-.13-.904-.063-1.194.5-1.894Z"/><path fill="#9BEEFB" d="m123.379 281.503.648-.003c1.972 3.076 5.394 5.746 8.11 8.17 2.267 2.026 4.597 4.387 7.236 5.92 3.59 2.084 24.74 10.2 25.636 11.807-.497.305-.93.246-1.488.172-3.49-.467-6.726-2.494-10.158-3.266-1.239-.616-2.646-.989-3.94-1.494-3.856-1.504-8.087-3.144-11.462-5.59-2.534-1.838-4.86-4.075-7.144-6.214-2.674-2.504-6.81-5.718-7.438-9.502Z"/><path d="m242.686 217.03.689-.631c.8.19 1.457.388 1.983 1.072-3.733 6.878-8.44 13.5-12.933 19.906-5.888 8.397-11.766 16.646-18.524 24.376.21-1.966.988-3.596 1.927-5.3 2.898-5.264 6.706-10.246 10.122-15.19l16.736-24.233Z"/><path fill="#3D070D" d="m123.595 396.576-3.682-18.305c-1.99-12.24-2.592-24.86-1.923-37.233.27-4.987.603-9.994 1.52-14.913.97-5.21 2.563-10.213 3.985-15.305.79-2.829 1.058-5.8 1.977-8.57l.046 4.747c-.547 3.488-1.434 6.972-2.385 10.368-1.094 3.908-2.612 8.567-2.1 12.654-.572 8.806-1.21 17.552-1.02 26.39.3 13.845 2.651 27.743 5.972 41.157.445 2.398 1.255 4.503 1.998 6.807-.735-.17-1.268-.348-1.932-.703-.283-1.22-.925-2.406-1.327-3.606-.371-1.106-.543-2.495-1.129-3.488Z"/><path fill="#1C0610" d="M146.339 182.345c.486.22.82.36 1.238.696-7.398 8.14-13.786 17.062-20.58 25.691l-16.483 22.018c-3.11 4.333-6.473 8.687-9.061 13.347-2.439 4.39-4.169 9.438-5.908 14.148-8.745 23.678-12.642 48.684-11.424 73.916.5 10.381 2.052 20.837 4.527 30.927 1.254 5.112 2.65 10.33 4.597 15.228.806 2.026 1.768 4.695 3.113 6.412l.524 1.498-.382.4-.384-.41-.367.123c-.229-.169-.284-.196-.502-.437-1.023-1.127-1.631-2.626-2.28-3.983-1.892-3.955-3.121-8.054-4.375-12.24-2.055-6.863-3.9-13.72-5.028-20.807-2.436-15.298-2.247-31.04-.525-46.399 1.098-9.799 2.733-19.503 5.31-29.027 1.617-5.975 3.466-11.95 5.708-17.723l3.22-7.52c.515-1.102 1.661-2.734 1.68-3.945l-1.164-.645.226-.374.794.448.064-.312-.501-.562-.064-.47.938.09c.877.018 1.079-.84 1.517-1.504 8.622-13.072 18.393-25.574 28.058-37.886 5.48-6.978 10.922-14.748 17.514-20.698Z"/><path d="M205.13 287.324c1.861 1.44 4.249 2.36 6.4 3.301l12.904 5.25c-.072 2.22.71 4.59 1.325 6.71l2.832 9.358 4.798 15.123c-4.686-2.542-10.639-2.987-15.114-5.82l4.062-10.39 1.206-3.385-18.239 11.972-18.357-7.468c1.827-1.382 3.166-3.445 4.587-5.23 4.871-6.12 9.9-12.52 13.595-19.42Z"/><path fill="#802016" d="M125.518 306.997c1.437 2.63 3.595 5.024 5.571 7.264l6.866 7.73c1.995 2.232 4.096 5.203 6.536 6.935l9.442 8.506.093-5.584c.493 1.61.317 3.54.179 5.21l.304-.098c.07-1.216-.292-6.657.241-7.335-.018.825-.033 1.345.189 2.125l.018.624.293.376c-.59.737-.489.773-.419 1.669l.42.456c-.067.385-.074.556-.312.875 0 .635.155.78-.312 1.25l.07.469c.056.415.061.633-.072 1.031l-.117.375c-.192.575-.251.787-.758 1.125l-.269-.25c-.349-.305-.64-.452-1.059-.634l-.387.246 1.396 1.157c-.11 1.336-.81 2.883-1.198 4.179l-1.638 6.363-2.844 13.486-1.006 6.223-.528-.147-.73-3.235c-.053.65-.127 1.318-.028 1.966.264 1.716.186 3.41.157 5.143-.986-.504-2.589-3.965-3.153-4.972l-9.368-17.172-6.196-12.864-4.045-7.358c-.48-.785-.895-1.805-1.821-2.112-.512-4.087 1.006-8.746 2.1-12.654.951-3.396 1.838-6.88 2.385-10.368Z"/><path fill="#DA8451" d="M145.486 367.388c-.019-1.628-.46-3.418-.793-5.015-.906-4.345-2.308-8.573-3.376-12.881-1.706-6.884-3.004-14.335-3.582-21.409 2.28 1.25 4.23 3.306 6.23 4.968l8.07 6.31 1.396 1.158c-.11 1.336-.81 2.883-1.198 4.179l-1.638 6.363-2.844 13.486-1.006 6.223-.528-.147-.73-3.235Z"/><path fill="#C33B02" d="M121.033 330.02c.926.306 1.342 1.326 1.821 2.11l4.045 7.359 6.196 12.864 9.368 17.172c.564 1.007 2.167 4.468 3.153 4.972.03-1.733.107-3.427-.157-5.143-.099-.648-.025-1.316.027-1.966l.73 3.235.53.147c.015 2.66-1.13 5.37-1.484 8.047-.81 6.111-.712 12.5-.475 18.649.078 2.012.028 4.798.715 6.683l.258 2.746c-.065.647-.018 1.328-.015 1.98l-.37.287-11.884-7.503c-2.17-1.366-4.946-3.667-7.506-4.093-3.32-13.414-5.672-27.312-5.972-41.158-.19-8.837.448-17.583 1.02-26.389Z"/><defs><linearGradient id="r" x1="241.528" x2="274.119" y1="608.488" y2="539.595" gradientUnits="userSpaceOnUse"><stop offset="0" stop-color="#C03000"/><stop offset="1" stop-color="#DD4801"/></linearGradient></defs><path fill="url(#r)" d="m231.039 497.772.025-7.676.465-4.632c.694 5.256.977 10.652 2.628 15.721 3.393 5.356 7.998 9.669 12.862 13.684 8.034 6.632 16.561 11.837 25.735 16.705 3.998 2.122 9.544 4.147 12.959 7.04 2.396 1.145 4.894 2.418 6.981 4.076l1.244.498.382.964-1.531 2.638-.033-.009-.43 1.365 2.612.315c1.292 2.149-2.316 21.076-2.964 25.305-.111.723-.818 4.062-.582 4.604l-5.485 39.07-64.892-17.406c.067.92.48 3.19.148 3.956l-.109.359c-.324 1.099-.301 1.474-.179 2.589.127 1.166-.299 2.176.375 3.187l-.103.398c-.175.889.224 1.517-.081 2.415l.559.374-.092.563.092.937.041.639c.087 1.128-.036.07.242 1.049l.087.504c.133.74.04.391.38 1.184h-2.25c-.024-1.152-.032-1.92-.375-3l-.047-.949-.384-4.756c-.028-.639 0-.405-.319-1.045l.052-.428c.069-.71.033-1.022-.335-1.635l.006-.504-.098-1.559-.094-1.243-.278 3.154c-1.031-2.827-.956-7.007-1.073-10.025-.355-9.224-.501-18.806.713-27.973.531-4.016 2.248-8.08 2.225-12.071l1.508-9.334 4.266-20.229 2.458-9.545c.582-1.943 1.63-4.264 1.797-6.268l-2.094-1.736.58-.369c.627.273 1.065.494 1.589.951l.403.376c.76-.507.849-.825 1.137-1.688l.176-.562c.199-.598.192-.925.107-1.547l-.104-.703c.7-.705.466-.923.467-1.875.357-.479.368-.736.467-1.313l-.628-.684c-.105-1.344-.256-1.398.628-2.503l-.44-.564-.027-.936c-.333-1.17-.31-1.95-.283-3.187-.799 1.017-.257 9.178-.362 11.001l-.456.148c.208-2.505.471-5.401-.268-7.815Z" transform="scale(.66667)"/><defs><linearGradient id="s" x1="274.541" x2="282.561" y1="566.324" y2="572.522" gradientUnits="userSpaceOnUse"><stop offset="0" stop-color="#410100"/><stop offset="1" stop-color="#5D1205"/></linearGradient></defs><path fill="url(#s)" d="m289.591 546.061 1.971-.526c.635.435.834.539 1.194 1.246l-.43 1.365c-7.407 10.115-13.829 21.376-19.235 32.685-2.787 5.832-5.144 11.893-8.227 17.581.325-6.691 3.444-11.979 5.367-18.209 5.222-11.897 12.161-23.342 19.36-34.142Z" transform="scale(.66667)"/><path fill="#781801" d="m154.026 331.848.017-5.117.31-3.088c.462 3.504.651 7.101 1.752 10.48-.64.96-.5 1.797-.732 2.877-.339 1.57-.902 3.158-1.162 4.725-.248 1.503-.242 3.025-.512 4.531-.235 1.306-.203 2.899.175 4.133.197.642.271 1.94.251 2.611l-.248.25c-.093.346-.12.648-.188 1l-.09.289c-.123.405-.17.794-.224 1.211l-.248.25.123.626-.373.5.09.5-.072.273c-.099.421-.025.72.05 1.139l-2.644 11.874c-1.352 5.584-2.792 11.024-3.208 16.782-.297 4.1.027 8.235.25 12.329.045.613.32 2.127.1 2.637l-.074.24c-.216.732-.2.982-.119 1.726.085.777-.2 1.45.25 2.124l-.069.266c-.116.592.15 1.01-.054 1.61l.373.249-.061.375.061.625.027.426c.058.752-.024.047.162.7l.058.335c.088.494.026.26.253.79h-1.5c-.016-.768-.021-1.28-.25-2l-.031-.633-.256-3.17c-.019-.427 0-.27-.213-.697l.035-.286c.046-.473.022-.681-.224-1.09l.004-.336-.065-1.04-.063-.828-.185 2.103c-.687-1.885-.637-4.671-.715-6.683-.237-6.15-.334-12.538.475-18.65.354-2.676 1.499-5.386 1.483-8.046l1.006-6.223 2.844-13.486 1.638-6.363c.388-1.296 1.087-2.843 1.198-4.18l-1.396-1.156.387-.246c.418.182.71.329 1.06.634l.268.25c.507-.338.566-.55.758-1.125l.117-.375c.133-.398.128-.616.072-1.031l-.07-.469c.467-.47.311-.615.312-1.25.238-.32.245-.49.311-.875l-.419-.456c-.07-.896-.17-.932.42-1.669l-.294-.376-.018-.624c-.222-.78-.207-1.3-.189-2.125-.533.678-.171 6.12-.241 7.335l-.304.098c.138-1.67.314-3.6-.179-5.21Z"/><path fill="#9A3103" d="M156.105 334.124c2.262 3.57 5.332 6.446 8.574 9.122 5.356 4.422 11.041 7.892 17.157 11.137 2.665 1.415 6.363 2.765 8.64 4.693 1.597.764 3.262 1.612 4.653 2.718l.83.332.254.642-1.02 1.759-.022-.006c-.24-.471-.373-.54-.796-.83l-1.314.35c-4.8 7.2-9.426 14.83-12.907 22.761l-.41-.072c-.547-.472-.418-.83-.485-1.52-.137.517-.088.688-.509 1.042-1.147-.602-13.3-22.173-15.187-25.282-2.334-3.847-4.834-8.012-7.737-11.452-1.247 3-1.755 5.984-2.726 9.04l-.156.48c-.074-.418-.148-.718-.049-1.14l.072-.272-.09-.5.373-.5-.123-.626.248-.25c.053-.417.101-.806.223-1.211l.09-.289c.07-.352.096-.654.19-1l.247-.25c.02-.672-.054-1.97-.25-2.611-.379-1.234-.41-2.827-.176-4.133.27-1.506.264-3.028.512-4.531.26-1.567.823-3.154 1.162-4.725.232-1.08.091-1.918.732-2.876Z"/><path fill="#3D070D" d="M190.475 359.076c1.598.764 3.263 1.612 4.654 2.718l.83.332.254.642-1.02 1.759-.022-.006c-.24-.471-.373-.54-.796-.83l-1.314.35c-.84-1.14-3.902-2.037-5.306-2.677.58-.13.868-.027 1.414.194l.456.192c.451.16.623.184 1.055.466.373.243.74.47 1.195.534l.312.002.313.126.377-.378.624-.748.374-.252-1.625-1.125-1.629-.8-.424-.183.278-.316Z"/><path fill="#F86801" d="M179.26 385.21c-3.903-9.766-4.37-20.454-6.998-30.544l10.862 4.792c1.371.586 2.767 1.395 4.2 1.792l.431.114c1.404.64 4.465 1.536 5.306 2.677-4.8 7.2-9.426 14.83-12.907 22.761l-.41-.072c-.547-.472-.418-.83-.485-1.52Z"/><path fill="#C33B02" d="M195.13 361.794c1.915-2.195 3.443-4.996 4.84-7.544.64-1.17 1.205-2.586 2.08-3.592-.437 3.056-1.764 6.317-2.518 9.352l.037.987c1.674 1.48 38.338 8.732 43.267 9.787.325-1.59.057-3.121-.14-4.71l1.458 2.663c2.343.402 4.801.285 7.175.312 5.122.057 10.455-.115 15.534.528l.356.04.31 1.414c-.808 2.703-2.242 5.647-4.418 7.483l-.216.194c-2.239 4.9-3.85 10.198-5.413 15.347-.55 1.81-1.353 3.768-1.628 5.633l-4.575 15.016c-1.879-.366-3.86.059-5.748.22-5.556.473-11.234 1.228-16.808 1.3-1.344.017-3.013.26-4.179-.447l-1.84 6.167c-.445 1.349-1.068 2.842-1.245 4.247-.914-.303-1.402-.418-2.347-.19-2.028.28-4.673-.297-6.737-.49l-20.734-2.286-2.247-.414 1.21-11.184 3.657-26.047c-.157-.361.314-2.587.388-3.07.432-2.818 2.838-15.436 1.976-16.87l-1.74-.21.286-.91.022.007 1.02-1.759-.254-.642-.83-.332Z"/><path fill="#B33307" d="M193.377 410.262c2.985.448 6.262.184 9.283.18l15.263.24c1.654.067 3.592-.156 5.148.379L219.112 426c-2.028.28-4.673-.297-6.737-.49l-20.734-2.286 1.736-12.963Z"/><path fill="#781801" d="M195.13 361.794c1.915-2.195 3.443-4.996 4.84-7.544.64-1.17 1.205-2.586 2.08-3.592-.437 3.056-1.764 6.317-2.518 9.352l.037.987c1.674 1.48 38.338 8.732 43.267 9.787-.453.636-.951 1.563-1.58 2.018l-10.576 15.78c-.642-.034-.723.036-1.178-.402l-.63.26c-.647-.046-1.34-.12-1.847-.565-1.422-1.245-2.72-2.893-4.06-4.253-5.806-5.891-11.278-12.192-17.496-17.642l-.835.067c-1.068 1.89-1.687 4.147-2.335 6.212l-4.163 14.907-4.759 23.096-1.736 12.963-2.247-.414 1.21-11.184 3.657-26.047c-.157-.361.314-2.587.388-3.07.432-2.818 2.838-15.436 1.976-16.87l-1.74-.21.286-.91.022.007 1.02-1.759-.254-.642-.83-.332Z"/><path fill="#B33307" d="M205.47 365.98c1.085-.686 3.12-.342 4.39-.09 2.127.422 4.287 1.118 6.39 1.673 2.293.604 5.771 1.083 7.527 2.758l17.48 2.48-10.577 15.782c-.642-.035-.723.035-1.178-.403l-.63.26c-.647-.046-1.34-.12-1.847-.565-1.422-1.245-2.72-2.893-4.06-4.253-5.806-5.891-11.278-12.192-17.496-17.642Z"/><path fill="#DA8451" d="m223.777 370.32 17.48 2.482-10.577 15.78c-.642-.034-.723.036-1.178-.402-2.299-4.732-3.528-9.878-5.08-14.878-.177-.571-.84-1.82-.854-2.322-.006-.23.14-.44.209-.66Z"/><path fill="#B33307" d="M242.836 370.784c.325-1.59.057-3.121-.14-4.71l1.458 2.663c2.343.402 4.801.285 7.175.312 5.122.057 10.455-.115 15.534.528l.356.04.31 1.414c-.808 2.703-2.242 5.647-4.418 7.483l-.216.194c-2.239 4.9-3.85 10.198-5.413 15.347-.55 1.81-1.353 3.768-1.628 5.633l-4.575 15.016c-1.879-.366-3.86.059-5.748.22-5.556.473-11.234 1.228-16.808 1.3-1.344.017-3.013.26-4.179-.447l-1.84 6.167c-.445 1.349-1.068 2.842-1.245 4.247-.914-.303-1.402-.418-2.347-.19l3.959-14.94c1.663-7.746 4.446-15.25 7.61-22.478l10.575-15.781c.629-.455 1.127-1.382 1.58-2.018Z"/><defs><linearGradient id="t" x1="341.821" x2="350.663" y1="593.657" y2="596.853" gradientUnits="userSpaceOnUse"><stop offset="0" stop-color="#500500"/><stop offset="1" stop-color="#330303"/></linearGradient></defs><path fill="url(#t)" d="M364.254 556.176c.488-2.385.085-4.682-.211-7.066l2.188 3.995c.046 2.035.093 3.101-.925 4.908-.602 1.07-.992 2.184-1.288 3.369-5.564 8.174-11.834 16.22-16.024 25.223-5.41 11.625-7.398 24.852-11.178 37.06l-2.761 9.25c-.666 2.024-1.601 4.263-1.866 6.371-1.372-.455-2.103-.627-3.521-.285l5.938-22.41c2.495-11.619 6.67-22.874 11.414-33.717l15.864-23.672c.943-.682 1.69-2.072 2.37-3.026Z" transform="scale(.66667)"/><path fill="#802016" d="M244.154 368.737c2.343.402 4.801.285 7.175.312 5.122.057 10.455-.115 15.534.528l.356.04.31 1.414c-.808 2.703-2.242 5.647-4.418 7.483l-.216.194c-.019-.33-.076-.525-.18-.833l-.63-.224c-4.666-1.195-15.19 6.31-19.14 8.79l.197-1.04.093-.45c.381-1.923.906-8.96-.31-10.436l-.246-.26c.197-.79.457-1.533.858-2.246.68-1.205.648-1.915.617-3.272Z"/><path d="M150.05 228.12c6.542-4.564 13.99-9.533 19.006-15.78 1.591-1.981 2.906-4.265 4.319-6.38l.181.29-3.539 5.96c2.01 3.023 4.417 5.669 6.81 8.387l9.758 11.165 9.884 11.841c1.407 1.672 2.83 3.722 4.476 5.14l9 11.1c-3.925 5.582-8.892 10.53-13.598 15.454l-14.668 15.381-7.884 7.687-5.98 6.474c-.767.835-1.726 2.264-2.806 2.558-.896-1.608-22.047-9.723-25.636-11.807-2.639-1.533-4.969-3.894-7.237-5.92-2.715-2.424-6.137-5.094-8.11-8.17l-.647.003c.095-3.85.882-8.123 2.015-11.818 1.375-6.546 3.094-13.14 5.426-19.413 1.763-4.743 4.253-9.467 5.303-14.413-1.608-1.467-3.887-1.966-5.528-3.654l8.448 3.531c3.42-2.833 7.601-4.722 11.007-7.617Z"/><path fill="#397A8E" d="m126.024 269.45 1.509-4.976 1.12.393-1.558 4.941c-.21.671-.366 1.613-.712 2.203-.543-1.076-.476-1.342-.359-2.56Z"/><path fill="#7A9FCB" d="M126.024 269.45c-.117 1.22-.184 1.485.36 2.56l-2.357 9.49-.648.003c.095-3.85.882-8.123 2.015-11.818l.63-.235Z"/><path fill="#FFF9CD" d="M178.287 285.728c-.877-1.857-.667-4.401-.863-6.419-.224-2.312-.737-4.744-.623-7.059l.377.003c1.019 4.346 1.747 8.692 1.967 13.156-.556.34-.266.245-.858.32Z"/><path fill="#377FAF" d="m137.475 236.735.35.644-9.172 27.488-1.12-.393 6.553-18.849c.909-2.36 1.411-7.343 3.389-8.89Z"/><path fill="#9BEEFB" d="m136.123 235.859 1.352.876c-1.978 1.547-2.48 6.53-3.389 8.89l-6.553 18.85-1.509 4.975-.63.235c1.375-6.546 3.094-13.14 5.426-19.413 1.763-4.743 4.253-9.467 5.303-14.413Z"/><path fill="#F86801" d="M178.287 285.728c-1.656.696-4.167.659-5.982.844l-12.095 1.24c-4.563.504-9.17 1.217-13.66 2.175-.568-.22-.927-1.079-1.267-1.599l-3.244-4.774c-2.888-4.035-6.477-7.493-9.956-11.009l12.644-28.6 12.725 5.12 10.298 3.813c1.026.437 2.457.937 3.273 1.703.87.816 1.395 2.178 1.892 3.24 2.104 4.502 3.35 9.497 4.263 14.372l-.377-.003c-.114 2.315.4 4.747.623 7.06.196 2.017-.014 4.56.863 6.418Z"/><path fill="#FFF9CD" d="m170.562 256.125.467.025.55 1.207c1.236 3.231-.658 7.371-1.962 10.358-.549 1.258-1.92 4.74-3.242 5.258l-.924-.842c-1.182-1.585-2.077-3.277-2.996-5.024 2.15-3.93 5.6-6.863 7.92-10.672l.187-.31Z"/></svg>