<svg xmlns="http://www.w3.org/2000/svg" width="512" height="512"><defs><linearGradient id="a" x1="-46.507" x2="814.132" y1="705.391" y2="62.234" gradientUnits="userSpaceOnUse"><stop offset="0" stop-color="#060037"/><stop offset="1" stop-color="#121C6A"/></linearGradient></defs><path fill="url(#a)" d="M0 0h768v768H0V0Z" transform="scale(.66667)"/><path fill="#221A22" d="m275.216 324.543 3.027-21.882c.21 1.982-.297 3.464-.33 5.34-.014.774.154 1.594.21 2.374l-.25.25v.75l-.5.25c0 .59-.174 1.327.25 1.75l-.498.502.248.373-.18.317c-.432.794-.128 1.096-.32 1.808-.046.17-.323.206-.373.375-.063.213.086.896.125 1.127.38.476.48.49.564 1.123.296-.423.312-.643.436-1.123l.125-.377.048-.297c.08-.39.239-.626.452-.953l-.123-.375.27-.312c.265-.325.33-.538.396-.944.093-.567.18-.652.457-1.119l.227-.465c.246-.49.093-.325.458-.586l.207.067-1.837 4.859c-.684 1.95-1.336 6.058-3.089 7.168Z"/><path fill="#4ADDDA" d="M136.183 60.58c-.892-.407-1.786-.897-2.392-1.691-.475-.624-.758-1.282-.62-2.075.186-1.082 1.012-1.968 1.928-2.515.754-.45 1.926-.454 2.743-.189 1.4.455 2.051 1.656 2.652 2.897-.344 1.337-.386 1.622-1.625 2.364l-2.686 1.21ZM289.349 14.125c.854-.16 1.717-.248 2.526.116.814.366 1.488 1.19 1.756 2.031.257.81.202 1.819-.229 2.561-.501.863-1.333 1.446-2.277 1.704a4.35 4.35 0 0 1-1.75-.045c-.994-.227-1.883-.937-2.367-1.83a2.597 2.597 0 0 1-.153-2.204c.461-1.186 1.406-1.79 2.494-2.333Z"/><path fill="#B6BA86" d="M443.224 277.625a4.746 4.746 0 0 1 1.816.103c.97.234 1.769 1.135 2.274 1.957.559.906.674 1.914.353 2.934-.361 1.15-1.279 1.81-2.292 2.355-.605.079-1.27.151-1.875.017-.98-.22-1.786-1.099-2.235-1.956-.583-1.112-.62-2.18-.18-3.35.407-1.08 1.107-1.628 2.14-2.06Z"/><path fill="#D7FE27" d="M388.7 384.126c.694-.098 1.37-.201 2.053.013 1.317.413 2.253 1.498 2.777 2.744.373.887.394 2.471.01 3.368-.56 1.313-1.602 1.774-2.838 2.293-.478.012-.98.028-1.452-.058-1.183-.216-2.16-1.016-2.785-2.015-.675-1.08-.766-2.48-.383-3.69.412-1.303 1.439-2.086 2.619-2.655Z"/><path fill="#2D1056" d="M273.79 338.538c3.49-1.738 6.085-5.052 9.738-6.563 2.453-1.015 5.12-1.364 7.722-1.79l11.779-1.916 18.173-4.432-.002.433-.45.105-.365.186c-.708.352-1.347.192-2.01.44-.165.06-.208.316-.375.372-.728.242-.548-.266-1.125.5-.488-.194-.725-.352-1.25-.123-.232.101-.578.467-.75.623l-.375-.062c-.924-.062-1.618.14-2.25.812l-.399-.066c-.708-.099-.958.006-1.602.192l-.624.124c-.48.118-.332.077-.688.255-.469.235-.928.189-1.437.183l-.377.314c-.617.461-1.386.124-2.123.186-.515.044-.814.34-1.25.562-.469.238-.561.254-1.086.184-1.04-.138-1.771.158-2.708.574-.936.418-1.967.25-2.956.18-.494-.035-.585.086-1 .312-.351.191-.254.101-.625.127-.5.035-.707.095-1.125.373l-.262-.122c-.409-.164-.743-.172-1.175-.188l-.438.56-.375-.062c-.663.413-1.136.154-1.75.562l-.262-.07c-.43-.084-.753-.009-1.175.071l-.313.249c-.507.001-.624-.122-1 .25l-.465-.043c-.464-.037-.662.023-1.098.169l-.437.124-.317.132c-.404.162-.222.117-.683.12l-.25.248c-.457.036-.67-.058-1 .27-.297.296-.425.241-.75.418-.613.334-1.353.867-1.937 1.252l-.278.28c-.338.336-.386.3-.785.469-1.27.538-1.857 1.81-3.001 2.437l-.374.374-.375.003-.285.3c-.418.418-.233.278-.778.512-.55.765-.052 1.212-.314 1.937-.16.443-.389-.003-.33.707.036.442-.034.694-.169 1.106l.499.187c0 .333.105.684 0 1-.25.75-.568.104-.373 1.25.208.168.387.38.625.503.887.457 6.84-.012 8.125-.002l.25-.248.313.03c1.33.109 2.745.122 4.062-.03 2.2-.254 4.57.084 6.766.132l9.984-.132c3.54 0 7.271.436 10.812.089 2.304-.225 4.86.026 7.188.033 3.265.01 6.942-.577 10.15-.053.406.066.7.005 1.1-.037.98-.103 2.09-.094 3.071.002.746.074 1.198-.226 1.804.277l3.125-.061h1.5l.375.065c.782.075 1.54-.051 2.317.133.489-.174.403-.202.912-.074.821.204 2.683.114 3.574.066 1.312-.07 2.271.096 3.284.968l.1.505c-.956-.791-2.061-.847-3.285-.963-2.388-.226-4.848-.086-7.248-.1l-13.165-.053-37.604.087-7.402.47-7.008.074c-1.003.002-2.39.17-3.35-.018-.528-.102-1.034-.672-1.414-1.03l.474-.39.355-6.83Z"/><defs><linearGradient id="b" x1="589.601" x2="584.993" y1="155.91" y2="65.424" gradientUnits="userSpaceOnUse"><stop offset="0" stop-color="#AFC2B6"/><stop offset="1" stop-color="#00E9F1"/></linearGradient></defs><path fill="url(#b)" d="M529.748 68.762c.646.497.534.512 1.425.6 4.343.433 8.472 1.832 12.657 3.014 17.066 4.82 35.646 11.52 50.056 22.05 16.983 10.803 33.716 23.243 47.842 37.642l2.867 2.791c-2.085 3.962-3.503 7.474-3.99 11.953-.265 2.448-.228 4.773-.878 7.172l-7.099-7.65c-.292-.032-2.423-2.291-2.763-2.616l-7.445-6.877-28.081-23.017-9.787-7.037c-14.457-9.86-29.375-19.935-45.504-26.875-2.107-.907-5.238-2.646-7.461-2.278-1.079-2.52-2.244-6.116-1.839-8.872Z" transform="scale(.66667)"/><path fill="#2D1056" d="M347.5 458.875c1.398-.255 3.445.02 4.919.029l16.933.279 61.776.072 23.755-.255c1.893-.005 5.14-.448 6.884.126l.27 8.5-.911.165-25.582.106-48.422-.135-26.88.122c-4.254.036-8.903.472-13.116.016l-.498-2.15c.578-.583.25-5.263.25-6.375l.622-.5Z"/><path fill="#D7FE27" d="m291.875 174.995.944.972c1.743 2.674 2.736 4.59 2.737 7.85l-10.311 71.775-1.736 10.105-3.642 25.943c-.485 3.507-1.592 7.493-1.624 11.02l-3.027 21.883c-.915 4.316-1.55 9.578-1.426 13.995l-.355 6.83-.474.39c-1.697-.304-3.693-.152-5.429-.185l-.088-1.25 4.4-39.077c.339-1.749.423-3.592.6-5.366.167-1.67.465-3.358.458-5.038l3.763-27.925c.632-4.77 1.682-9.826 1.53-14.65l.154-.41c.498-1.264.542-2.634.764-3.97l1.144-7.788c1.326-5.217 1.246-10.972 2.192-16.293l9.426-48.81Z"/><defs><linearGradient id="c" x1="338.783" x2="371.751" y1="226.3" y2="99.566" gradientUnits="userSpaceOnUse"><stop offset="0" stop-color="#5DFF16"/><stop offset="1" stop-color="#DAFF48"/></linearGradient></defs><path fill="url(#c)" d="m350.722 145.451-.061-.529c.11-2.165 1.813-5.633 2.526-7.82l9.211-28.457c.693-2.42.897-5.769 2.581-7.714.475-.549.472-2.717.553-3.534l4.262 45.356c.736 4.782.491 10.063.327 14.899-.667 19.679-4.001 42.239-15.879 58.489l-10.035 11.715c-2.077-.611-4.227-2.058-6.15-3.073-4.705-2.484-9.389-5.114-14.324-7.114.338-.402.579-1.677.755-2.231l1.727-4.756 15.555-39.552c2.31-6.168 4.836-12.475 6.476-18.855l2.476-6.824Z" transform="scale(.66667)"/><path fill="#2D1056" d="m155.555 369.158.57 14.468c.576.386.966.314 1.625.313l.328.003c1.759 0 5.202.34 6.797-.208l1.035.532.03.228 25.566 81.943.194.952c-4.173.475-8.848.055-13.073.049l-29.504-.134-52.756-.045-49.322.027c-.504-.943-.056-7.511-.04-9.046l94.704.248c1.024.02 2.902-.304 3.791.012 1.526.543 4.318.31 6 .189h30c1.5.117 3.117.142 4.625.061.671-.036 1.548.1 2.126-.187v-.314c-.122-.677-.186-.063-.07-.772.088-.535-.21-1.007-.492-1.477-.216-.36-.256-.44-.312-.874-.07-.556-.114-.906-.38-1.4-.256-.474-.312-.766-.313-1.32l.003-.282c-.384-.528-.588-.745-.537-1.428l.037-.383c-.226-.404-.433-.775-.58-1.217l-.418-1.346.061-.375-.373-.375c-.373-.484-.222-.861-.19-1.437-.27-.474-.528-.878-.56-1.437-.019-.351-.035-.541-.127-.876-.308-.311-.413-.564-.499-1.001l-.062-.499-.188-.251c-.062-.501-.012-.38-.144-.733l-.356-1.017c-.117-.487-.076-.58-.38-1.037-.34-.51-.242-.738-.246-1.34-.28-.432-.524-.858-.624-1.373-.116-.599-.132-.811-.449-1.343-.228-.382-.175-.472-.175-.906l-.25-.375.123-.375-.499-.501c-.182-.31-.124-.439-.07-.772.08-.482-.004-.533-.18-.977-.384-.195-.173-.076-.624-.375.03-.669.124-1.375-.18-1.993-.226-.46-.187-.274-.28-.75l-.04-.257-.25-.25c.115-.954-.316-.567-.5-1.25-.076-.284.082-.583.123-.875-.236-.336-.475-.618-.576-1.024l-.047-.226c-.293-.595-.236-.46-.127-1.124l-.155-.141c-.928-.935-.41-.967-.595-1.985-.013-.074-.343-.287-.373-.374-.078-.238 0-.5 0-.751-.53-.531-.024-.364-.127-.875-.02-.1-.561-.783-.623-.874l.123-.5-.373-.251.123-.625-.373-.375c.268-.819-.15-.336-.376-.876-.002-.006-.123-.993-.124-.999l-.376-.251-.374-.999c.331-.334.284-.43.373-.875l-.375-.002c-.394-.6-.563-.935-.444-1.661l.07-.337a7.108 7.108 0 0 0-.647-.976c-.353-.442-.195-.847-.165-1.399l-.438-.001a4.477 4.477 0 0 0-.256-.975l-.118-.274.312-.5c-.218-.435-.096-.322-.45-.588L171.5 405c-.122-.37-.323-.787-.25-1.186.17-.927.131.357.124-.69l-.748-1.373.248-.25-.125-.75-.499-.501c-.182-.31-.124-.439-.07-.772.063-.385.052-.63-.18-.977l-.25-.251-.124-.499-.25-.375.123-.5-.499-.126-.124-.499c-.342-.676-.032-1.062-.25-1.624-.338-.88-.527-.556-.377-1.626-.19-.413-.359-.75-.646-1.11-.34-.425-.227-.604-.227-1.14a4.478 4.478 0 0 1-.57-.883l-.18-.367-.25-.374.312-.376-.189-.25-.373-.25c-.348-.35-.25-.568-.25-1l.31-.374-.686-.627-.124-.374-.25-.625-.002-.377c-.758-.044-1.508.03-2.25 0l-4.625-.061a17.896 17.896 0 0 0-2.375.06l-.562-.684c-.1-.742-.236-1.438-.124-2.188.183-1.238-.204-2.513-.004-3.74.246-1.508.045-3.232.004-4.76-.022-.834.128-1.674 0-2.5-.109-.702.12-1.187.366-1.842Z"/><path fill="#AA9C90" d="M429.73 89.906c11.524 11.438 21.322 24.39 29.812 38.217 1.064 1.731 3.058 4.277 3.586 6.168 1.99 2.757 3.55 6.072 5.15 9.08 5.954 11.193 10.856 22.762 15.139 34.692.593 1.653 1.948 4.423 2 6.128 2.243 5.745 3.495 12.194 4.797 18.207 1.58 7.303 3.113 14.459 4.084 21.88 1.838 14.04 2.014 28.359 1.828 42.497-.325-1.256-.134-2.868-.134-4.166l.004-7.708c.002-.85.223-2.198-.246-2.9.004-2.15.122-4.366-.061-6.5-.063-.74.006-1.143-.189-1.876-.294-1.108.404-2.645-.25-3.625 0-1.087.298-3.679-.25-4.5 0-.728.152-1.649-.25-2.25 0-.916.242-2.511-.25-3.25a9.55 9.55 0 0 0-.25-2.125c-.187-.836.258-1.614-.25-2.375-.02-.656-.102-1.004-.25-1.625-.188-.788.238-1.394-.25-2.125l-.062-1.187-.438.31-.374-.25c-.564 0-.634.076-1.126-.248l-.437.062h-.75l-.187-.314-.563.564-.188-.314-.562.314-.187-.314-.563.314-.188-.314-.562.314-.19-.312c-.322.324-.397.536-.865.578-.417.038-.628.154-1.01.296-.536.2-.89.145-1.435.188-.535.044-.86.463-1.313.686l-.242.055c-.335.084-.496.23-.758.445l-.377-.248-.373.375.055.21c.15.603.189 1.112.23 1.724.033.49.016.03.215.69.264.877-.306 1.79.25 2.626.018.731.054 1.18.25 1.875.28.994-.354 2.218.25 3.125.016.806.04 1.358.25 2.125.288 1.051-.38 2.431.25 3.375 0 .916-.242 2.511.25 3.25v6.153c0 .73-.16 1.482.25 2.097v11.375h-.13l-.89-23.272c-.082-3.81-.706-7.759-1.125-11.554-1.01-9.127-2.186-18.19-4.071-27.182l-2.852-11.7c-4.917-16.862-12.256-33.329-20.911-48.582-1.448-2.698-3.319-5.272-4.995-7.835-6.608-10.106-13.596-19.481-21.541-28.594.433-1.6.409-3.15.585-4.781.325-2.986 1.27-5.328 2.66-7.969Z"/><defs><linearGradient id="d" x1="309.767" x2="298.051" y1="234.517" y2="73.576" gradientUnits="userSpaceOnUse"><stop offset="0" stop-color="#B3FF0B"/><stop offset="1" stop-color="#FFFFD0"/></linearGradient></defs><path fill="url(#d)" d="m232.561 78.355 14.307 12.68 31.664 30.939c6.656 7.12 12.968 14.246 18.512 22.288 2.125 3.082 4.517 6.211 6.247 9.53 10.015-21.847 26.489-41.294 46.186-55.052 5.367-3.75 11.435-6.503 16.787-10.258l-.732 8.915c-.081.817-.078 2.985-.553 3.534-1.684 1.945-1.888 5.294-2.581 7.714l-9.211 28.457c-.713 2.187-2.416 5.655-2.526 7.82l.061.529-2.476 6.824c-1.64 6.38-4.166 12.687-6.476 18.855l-15.555 39.552-1.727 4.756c-.176.554-.417 1.829-.755 2.231-3.61-1.29-6.904-2.514-10.703-3.167l3.285 5.152a69.226 69.226 0 0 1 1.462 13.662l-.711.872c-.351-.051-.558-.063-.884-.166-2.279-.725-5.502-3.253-7.557-4.637-20.65-13.91-29.437-39.396-40.73-60.507l-1.487-3.667-1.695-3.581-21.075-46.091-6.45-13.134c-.603-1.222-1.088-2.949-1.917-3.996-.619-.783-1.454-1.242-2.303-1.736l-.475-12.11c-.099-1.869-.603-4.445.068-6.208Z" transform="scale(.66667)"/><path fill="#12FABC" d="m401.214 178.447 3.528-.004c-1.592 6.318-3.566 12.636-6.11 18.641-.481 1.137-.982 2.804-1.757 3.719-.878 2.252-2.075 4.386-3.234 6.502-3.327 6.076-7.755 12.512-12.87 17.25l-6.58 6.061c-6.942 5.003-13.76 9.543-21.54 13.201-10.734 5.048-22.959 8.046-34.618 10.123l-13.892 2.503c-3.182.572-6.36.991-9.476 1.898-2.195.638-4.14 1.68-5.916 3.118-1.467 1.19-3.506 3.75-5.24 4.238l1.736-10.105 1.954-2.178c2.692-4.202 4.564-9.059 7-13.437 3.542-6.369 8.175-12.414 12.928-17.92 2.626-3.043 5.326-6.134 8.291-8.85 10.171-10.252 21.836-18.04 35.117-23.738 3.673-1.576 7.617-3.212 11.517-4.135 3.184-1.27 6.82-1.998 10.164-2.763 9.604-2.198 19.145-3.71 28.998-4.124Z"/><defs><linearGradient id="e" x1="504.014" x2="486.275" y1="367.331" y2="315.533" gradientUnits="userSpaceOnUse"><stop offset="0" stop-color="#00A681"/><stop offset="1" stop-color="#04F7CB"/></linearGradient></defs><path fill="url(#e)" d="M488.158 337.272c.591-.542 1.134-1.042 1.803-1.488l.539-.343 1.875-1.125c.738-.448 1.426-.61 2.191-.986 1.091-.535 2.242-.962 3.282-1.592 3.681-2.227 7.787-3.939 11.617-5.902 17.786-9.113 35.994-18.051 55.012-24.25l-4.786 2.726c-.55.375-1.01.716-1.633.966l-.433.163-1.5.75-2.625 1.5c-1.072.626-2.364.993-3.338 1.75-2.252 1.751-4.766 3.031-7.222 4.465l-50.87 29.086-32.981 23.401L447 376.669l-2.135 1.993c-.663.649.138-.13-.867.461-.849.5-1.294 1.349-2.25 1.875-.654.36-1.137 1.072-1.875 1.5l-1.875 1.783-.936-.09c-.594.685-.775 1.006-1.218 1.778l-2.719 2.719.187.937 1.313.563-.656.189-1.407 1.498-.468.002-.656.564-.921-.17c-1.446-2.86-.726-4.181-.074-7.17l.321-.96c.44-1.35.335-2.649.034-4.02 4.038-6.303 6.847-13.588 10.5-20.156 5.313-9.553 12.263-18.621 19.392-26.88 3.939-4.564 7.989-9.2 12.437-13.276l-.223.453c-1.656 3.308-4.75 4.849-6.587 7.822-.84 1.361-2.881 2.432-3.172 3.98-.145.776-.447 1.186-.889 1.816l.01.353c.018.928.043 1.504-.457 2.33l.381.745.419.121c.486.154.855.341 1.291.594 1.989-.105 2.764.671 4.48 1.462l1.204.567c1.554.76 2.955 2.526 3.78 3.966l1.195 1.544.566-.371c2.831-1.833 5.755-3.882 8.719-5.439.768-.403 1.483-1.051 2.25-1.5.755-.443 1.18-.797 2.064-.98Z" transform="scale(.66667)"/><path fill="#201C6C" d="M352.99 114.248c2.329 1.137 4.412 2.682 6.568 4.113 14.584 9.68 27.03 23.327 35.134 38.877 3.099 5.947 5.419 12.631 7.626 18.959.19.544.286 1.111.377 1.678-.321.478-.93.451-1.48.572-9.854.414-19.395 1.926-28.999 4.124-3.344.765-6.98 1.493-10.164 2.763-3.9.923-7.844 2.56-11.517 4.135-13.281 5.698-24.946 13.486-35.117 23.737-2.965 2.717-5.665 5.808-8.291 8.85-4.753 5.507-9.386 11.552-12.928 17.92-2.436 4.38-4.308 9.236-7 13.438l-1.954 2.178 10.311-71.775.319-2.104.5-.2.926.618 5.594 5.631c1.26-.32 2.507-1.071 3.658-1.67 3.222-1.681 6.26-3.726 9.158-5.913 10.138-7.65 19.033-17.78 25.09-28.985 3.019-5.583 5.267-11.423 7.3-17.423 2.139-6.306 3.961-12.92 4.89-19.523Z"/><defs><linearGradient id="f" x1="444.899" x2="577.947" y1="533.752" y2="360.874" gradientUnits="userSpaceOnUse"><stop offset="0" stop-color="#85C200"/><stop offset="1" stop-color="#00C1A4"/></linearGradient></defs><path fill="url(#f)" d="M477.349 407.033c2.242-1.747 5.14-3.022 7.678-4.312 35.844-18.21 76.769-17.903 115.348-10.56 9.262 1.762 18.414 3.786 27.378 6.728l-5.799 7.022c-3.244 5.227-7.692 9.819-11.967 14.208-18.003 18.476-39.087 31.974-62.437 42.841l-11.038 4.88c-1.142.456-2.486 1.183-3.666 1.469l-.332.015c-4.584 2.085-9.516 3.689-14.282 5.319l-26.356 8.152c-1.389.39-4.42 1.699-5.764 1.588l-4.309 1.372-27.26 6.648-17.668 2.875c-3.904.638-7.903 1.162-11.583 2.684-5.479 2.266-9.372 7.237-14.607 9.845-.186-6.626.767-14.518 2.139-20.993 2.63-1.664 3.607-7.826 4.633-10.752l2.756-7.288c4.637-9.535 10.136-17.989 16.631-26.351 2.666-3.433 5.347-7.013 8.511-9.999l.013-.123c1.906-2.419 4.292-4.496 6.542-6.594 5.162-4.815 10.541-9.239 16.382-13.215 2.85-1.94 5.878-4.109 9.057-5.459Z" transform="scale(.66667)"/><path fill="#07B14F" d="M414.636 270.607c-2.162 3.485-5.128 6.546-7.978 9.472-12.002 12.318-26.058 21.316-41.624 28.561l-7.36 3.253c-.76.304-1.656.79-2.443.98l-.221.01-.116-.216c.225-.32.333-.422.708-.578l1.148-.462.625-.25c.528-.125.654-.056 1.14-.38l.36-.247c.56-.2.748-.407 1.25-.623.427-.182.419.093 1.003-.252l.624-.374 2.75-1.25 1.5-.75 5.25-2.5 3.874-2.124.374-.188.252-.188.374-.124.374-.25c.45-.258.774-.344 1.126-.75l-.37-.015c-.507-.13-.4-.345-1.05-.31-1.148.063-2.416.625-3.562.842-3.452.653-7.213 1.321-10.702 1.653l-5.315.576c-2.02.374-4.283.13-6.243.616-1.858.462-4.594.128-6.577.23-3.901.2-7.56.691-11.377 1.498l-.77.166c-.503.14-.68.26-1.223.221a5.835 5.835 0 0 0-1.187.023l-.25.248-.5.002c-.376.372-.493.25-1 .25l-.25.248c-.437.002-.86.018-1.25.252l-.313.25c-.404.054-.784.107-1.175.225-.406.123-.145.118-.64-.014-.227-.525-.43-.964-.446-1.549-.018-.675-.593-.782-.755-1.454.436-.76.985-1.918 1.64-2.494.597-.524 1.691-.818 2.424-1.155 1.288-.592 2.53-1.273 3.618-2.188l.171-.147 29-11.31 1.85-.646c.47-.14.57-.104 1.014-.396.41-.27.279-.248.738-.372.346-.093.669-.135 1.016-.25l.733-.25c.347-.093.67-.135 1.017-.25.462-.155.896-.25 1.36-.376l1.623-.374 3.01-.75a10.63 10.63 0 0 1 1.49-.377l.625-.123c.538-.254.407-.25 1-.25l.128-.252-.837-.085-.121-.463.956-.192c.774-.166 2.367-.507 3.124-.384.029.004.836.384.876.393.258.063 1.102-.153 1.374-.215 2.746-.619 5.539-1.568 8.246-2.368l12.768-3.98 7.612-3.065c1.816-.828 3.59-1.85 5.51-2.409Z"/><path fill="#0CFE92" d="m210.877 146.436-2.19-3.435c2.532.436 4.728 1.252 7.135 2.112 3.29 1.333 6.413 3.086 9.55 4.742 1.281.677 2.715 1.642 4.1 2.05 4.033 1.862 8.11 4.705 11.667 7.365 12.122 8.57 23.19 21.37 30.24 34.43 4.573 8.47 7.905 17.724 10.27 27.036l.8 3.07c-.946 5.321-.866 11.076-2.192 16.293l-1.144 7.788c-.222 1.336-.266 2.706-.764 3.97l-.154.41c.152 4.824-.898 9.88-1.53 14.65l-3.763 27.925c-.804-.972-1.235-2.62-1.753-3.792-1.649-7.088-4.486-14.578-8.446-20.685-13.162-20.294-36.32-34.31-59.725-39.292 1.713-7.486 1.67-14.618.37-22.162-.334-1.934-.593-4.016-1.253-5.864-.488-2.078-.493-4.33-.626-6.456l-.492-12.553-1.249-19.2c4.233 1.9 8.685 3.587 13.28 4.323.039-4.544-.926-9.052-1.157-13.617a46.151 46.151 0 0 0-.974-9.108Z"/><path fill="#89FB1C" d="M271.867 244.911c1.057-.842 2.195-.358 3.258-1.51-.155-.778-.65-1.282-1.103-1.904l-3.661-4.876-8.892-12.37.125-.17c1.403 1.256 2.408 3.3 3.575 4.804l7.894 10.491c.396.572.914 1.11 1.262 1.697.606 1.026 1.43 1.992 2.14 2.956l-.27.798-.487-.007-.083-.57-1.625.875c.406.34.67.572.967 1.017.637.956 1.726 1.623 2.236 2.64.235.468.064.259.484.594.542-.589.688-.59.69-1.376.445-.536.296-.588.25-1.25l.248-.373c-.008-.486-.03-.842.126-1.314.194-.582.187-.876.125-1.5l-.535-.12a2.948 2.948 0 0 0-.737-.947l-.353-.309v-.312l-.319-.223c-.098-.4-.14-.492-.453-.779l-.274-.248c-.283-.379-.952-1.117-1.116-1.515-.184-.448-.574-.527-.745-.982-.142-.377-.029-.191-.375-.538l-.282-.277c-.606-.924-1.402-2.085-2.137-2.932a8.5 8.5 0 0 1-.719-.962l-1.144-1.606-.187-.438-.313-.25a1.963 1.963 0 0 0-.418-.797c-.646-.808-1.2-1.713-1.769-2.578l-.5-.75-.563-.687c-.606-1.028-1.402-2.03-2.062-3.063-.434-.68-1.092-1.233-1.438-1.937-.337-.689-.917-1.072-1.25-1.75l-.187-.438-.313-.25c-.099-.332-.174-.496-.403-.764-.36-.424-.139-.122-.469-.586l-.19-.275c-.247-.343-.208-.46-.25-.873l7.204 9.988c1.804 2.664 3.555 5.712 5.694 8.1l.478.534c.348.586.806.808 1.168 1.338.582.851-.115.092.471.701 1.464 1.523 2.697 3.203 3.868 4.957.251-.824.1-1.924.1-2.8.003-2.178-.133-4.47.127-6.628.075-.618-.004-1.37.234-1.943.185-.445.235-.9.31-1.375l.094-2.249c.442-.689.142-1.002.761-1.715l.367-.034 1.126-1.5c-.293-.736-.094-1.033-.15-1.75-.042-.506.03-.743.171-1.265l.8 3.07c-.945 5.321-.865 11.076-2.191 16.293l-1.144 7.788c-.222 1.336-.266 2.706-.764 3.97l-.154.41-.078-.28c-.994-3.419-3.243-5.424-6.25-7.076Z"/><path fill="#A1FFA7" d="m210.877 146.436-2.19-3.435c2.532.436 4.728 1.252 7.135 2.112 3.29 1.333 6.413 3.086 9.55 4.742 1.281.677 2.715 1.642 4.1 2.05 4.033 1.862 8.11 4.705 11.667 7.365l-.153 1.355c-1.222 1.852-11.567 5.366-14.026 6.178-1.31-1.113-2.543-3.222-3.565-4.646-3.762-5.243-7.303-11.344-12.265-15.512l-.253-.209Z"/><path fill="#201C6C" d="M202.095 203.047c-.488-2.078-.493-4.33-.626-6.456l-.492-12.553-1.249-19.2c4.233 1.9 8.685 3.587 13.28 4.323.951 22.727 10.813 45.128 27.527 60.618 6.037 5.594 13.701 10.752 21.715 12.97 3.172.876 6.453 1.237 9.617 2.162 3.007 1.652 5.256 3.657 6.25 7.075l.078.28c.152 4.825-.898 9.881-1.53 14.651l-3.763 27.925c-.804-.972-1.235-2.62-1.753-3.792-1.649-7.088-4.486-14.578-8.446-20.685-13.162-20.294-36.32-34.31-59.725-39.292 1.713-7.486 1.67-14.618.37-22.162-.334-1.934-.593-4.016-1.253-5.864Z"/><defs><linearGradient id="g" x1="381.015" x2="382.122" y1="578.282" y2="517.196" gradientUnits="userSpaceOnUse"><stop offset="0" stop-color="#34180A"/><stop offset="1" stop-color="#080037"/></linearGradient></defs><path fill="url(#g)" d="M285.52 517.401c6.489.882 12.893.921 19.428 1.022l31.994.114 43.038.029c1.479.39 4.057.055 5.667.051 5.184-.014 10.489.167 15.651-.258 2.604.049 5.598-.178 8.143.279.57.536 1.329 1.39 2.121 1.544 1.441.281 3.521.029 5.025.026l10.512-.11 11.104-.705 56.406-.131 19.747.079c3.6.021 7.289-.188 10.872.15 1.835.174 3.493.258 4.927 1.445 1.078 5.54.361 12.463.157 18.126l-.624 35.063c-.861.869-1.333 1.371-2.626 1.5l-.468.002-1.125.375c-1.574.524-4.914.383-6.657.373l-.562-.092c-.624-.058-1.168.047-1.781.094-1.007.077-.119-.043-1.219-.186-.99-.128-2.319.053-3.375-.003l-.187-.747-32.182.391c-5.86.042-12.075-.616-17.79.853l-.228.004-55.199-.186-28.864-.005-128.516.242-.044-.342-1.553-.797c-2.392.822-7.557.312-10.195.312l-.492-.005c-.988.001-1.574.109-2.439-.469l-.854-21.702c-.603-4.644-.142-9.883-.215-14.598l-.373-12.231c-.004-1.306-.229-3.367.276-4.551.469-1.099 1.783-3.334 2.839-3.911.23-.126 1.423-.02 1.749-.021l6.517.033 24.563-.287 11.69-.009c1.372-.009 3.339.233 4.543-.411l.599-.35Z" transform="scale(.66667)"/><path fill="#4E3A01" d="m165.91 384.266 11.41-.14c-.43-.251-.199-.166-.697-.251l.172-.864c-.652-.81-.128-1.226-.624-2.02.184-1.504 1.222-2.85 1.93-4.173.588-1.101.781-2.26 1.41-3.326.391-.662.493-1.426.89-2.108.847-1.454 1.884-2.876 2.405-4.478.133-.407.323-.684.572-1.027.244-.107.762-.253.947-.414.52-.454.794-1.605 1.176-2.213.938-1.493 1.991-2.817 2.724-4.444l-10.44-.083-.035-.127 131.115.054c-4.568.48-9.55.158-14.162.137-.952-.004-2.697-.251-3.555-.024-.311.083-.859.55-1.153.738v.244c1.007.9 2.188 2.195 3.602 2.24l.17.203c.43.514.83.934 1.358 1.342 1.058.818 2.036 1.69 2.912 2.678.3.339.64.608.938.976 1.566 1.936 3.294 3.692 4.808 5.686 1.465 1.93 2.59 4.135 4.26 5.898.87.918 1.486 2.17 1.392 3.473-.02.265-.087.454-.16.7-.978.67-2.275.198-3.275.746l-.373.186c.445.217.863.28 1.34.375.376.076.245.05.692.21l-36.8-.124-19.242-.004-85.678.162-.029-.228Z"/><path fill="#12FABC" d="M302.09 69.807c.427-1.341 1.163-2.662 1.784-3.931 8.923-18.236 22.61-36.835 42.55-43.645l6.742 23.61c-.27 1.838.506 4.235 1.226 5.915.549 2.243 1.096 4.783 1.19 7.088.53 1.887.593 4.152.708 6.11l.197 14.074-3.496 35.22c-.929 6.603-2.751 13.217-4.89 19.523-2.033 6-4.281 11.84-7.3 17.423-6.057 11.204-14.952 21.334-25.09 28.985-2.898 2.187-5.936 4.232-9.158 5.912-1.15.6-2.399 1.35-3.658 1.671l-5.594-5.631-.926-.618-.5.2-.319 2.104c-.001-3.26-.994-5.176-2.737-7.85l-.944-.972c-9.012-11.408-14.946-25.372-18.825-39.276-1.63-5.84-3.04-11.908-3.561-17.963-2.576-15.89-4.403-32.137-3.726-48.255l.714-29.105c-.028-1.492-.027-3.006-.16-4.492-.058-.632-.43-2.044-.212-2.6l13.398 14.61c4.374 5.171 8.164 10.696 11.52 16.577.606 1.064 2.218 3.334 2.353 4.502 1.845 2.987 3.585 6.504 4.764 9.812 1.593-2.794 2.335-6.136 3.95-8.998Z"/><defs><linearGradient id="h" x1="467.872" x2="482.574" y1="179.292" y2="183.791" gradientUnits="userSpaceOnUse"><stop offset="0" stop-color="#02EA7F"/><stop offset="1" stop-color="#00C5C0"/></linearGradient></defs><path fill="url(#h)" d="M441.691 260.511c.537.843.988 1.251.997 2.279l.937.651c1.248-.644 2.042-2.199 2.805-3.343.498-.749.287-.414.671-1.183.289-.577.529-.82.947-1.29 1.307-1.468 1.933-3.391 2.95-5.053.302-.493.514-.95.738-1.478l2.626-5.844 8.02-19.49 17.836-49.871 14.272-51.119c1.171-4.442 1.878-9.191 3.22-13.553.431-1.398.448-2.903.763-4.342l.272-1.903c.307-2.852 1.141-5.601 1.54-8.41.2-1.405.095-2.533.485-3.937.359-1.289-.038-2.83.873-3.914.36 1.702.233 2.624-.077 4.289-.228 1.226-.005 1.901-.38 3.094l-.05.685c-.057.752-.144 1.022-.511 1.659l.184.75-.368.562c-.002.828.23 1.264-.375 1.875-.002.828.23 1.264-.375 1.875-.001.837.229 1.64-.375 2.25-.002.828.23 1.264-.375 1.875-.002.928.154 1.454-.375 2.25-.003 1.331.082 2.232-.38 3.469l-.041.955c-.036 7.795-2.022 16.391-3.528 24.048-6.412 32.596-16.177 64.143-28.181 95.081l-7.512 18.321c-3.266 7.624-6.71 15.158-12.642 21.129l-.331.318-1.389-.926-.75.3-.478 3.156c-.002-4.891-1.491-7.765-4.106-11.776l.944.248.453.364c.624-.411.87-.728 1.316-1.312-.5-.765-.346-1.462-.283-2.33l.033-.409Z" transform="scale(.66667)"/><defs><linearGradient id="i" x1="409.27" x2="460.914" y1="239.331" y2="174.674" gradientUnits="userSpaceOnUse"><stop offset="0" stop-color="#00B161"/><stop offset="1" stop-color="#00D694"/></linearGradient></defs><path fill="url(#i)" d="m436.264 154.035.462.071c.609.085.363.082.899.019l.094-1.333c.329 1.957-.002 3.969-.03 5.947l.036 11.957 1.02 49.373.441 18.505c.101 5.429-.097 11.102 1.043 16.426l1.462 5.511-.033.409c-.063.868-.217 1.565.283 2.33-.446.584-.692.901-1.316 1.312l-.453-.364-.944-.248-1.415-1.457c-13.518-17.112-22.419-38.058-28.238-58.915-2.445-8.761-4.561-17.861-5.342-26.944l.116.047c.848.565 1.513 1.205 1.847 2.175.882 2.56 2.761 4.981 4.347 7.164l9.241 11.715c-.91 1.444-2.744 4.013-2.911 5.703-.217 2.196 2.336 5.446 3.599 7.219l.338.468c2.26 3.165 5.097 6.512 8.158 8.904l2.897 2.486c-.019-22.626.15-45.841 4.006-68.186l.393-.294Z" transform="scale(.66667)"/><defs><linearGradient id="j" x1="407.347" x2="446.035" y1="46.698" y2="148.335" gradientUnits="userSpaceOnUse"><stop offset="0" stop-color="#CCFFB4"/><stop offset="1" stop-color="#49FFBE"/></linearGradient></defs><path fill="url(#j)" d="M399.716 60.593c-.043-2.236-.041-4.509-.242-6.738-.086-.947-.643-3.066-.317-3.898l20.098 21.913c6.561 7.757 12.246 16.046 17.279 24.866.91 1.596 3.327 5.001 3.53 6.753 2.767 4.481 5.377 9.757 7.146 14.718-2.873 7.47-6.053 14.449-8.153 22.224-.288 1.066-1.103 3.036-.96 4.098-1.085 2.827-1.653 6.03-2.411 8.977l-15.077-43.369-2.612-7.341c-.934-4.175-3.217-8.385-4.848-12.35l-9.625-24.073c-.541-1.449-1.87-2.778-2.15-4.23-.291-1.51-.151-2.471-1.06-3.832l-.598 2.282Z" transform="scale(.66667)"/><defs><linearGradient id="k" x1="273.713" x2="490.284" y1="544.157" y2="708.367" gradientUnits="userSpaceOnUse"><stop offset="0" stop-color="#ff0"/><stop offset="1" stop-color="#C7199A"/></linearGradient></defs><path fill="url(#k)" d="m377.425 576.498 28.864.005 55.199.186.228-.004 64.277.831-40.795 138.564-142.646-.254c-1.281.236-2.954.046-4.272.047l-8.403.008-37.608.231-4.719-15.029-.291-1.428-38.35-122.915 128.516-.242Z" transform="scale(.66667)"/><path fill="#201C6C" d="m140.494 57.007.129.993c1.062.02 1.965-.58 2.877-1.036 3.027-1.514 6.164-3.155 9.284-4.444.915-.378 1.331-.665 2.257-.283-.448 1.175-.112 2.893-.046 4.138l.317 8.073c.566.33 1.123.636 1.535 1.158.553.698.876 1.85 1.278 2.664l4.3 8.756 14.05 30.727 1.13 2.388.992 2.444c7.528 14.074 13.386 31.065 27.153 40.338 1.37.923 3.519 2.608 5.038 3.092.217.068.355.076.59.11l.473-.58c.231 4.564 1.196 9.072 1.157 13.616-4.595-.736-9.047-2.422-13.28-4.322l1.25 19.2.491 12.552c.133 2.125.138 4.378.626 6.456.66 1.848.92 3.93 1.252 5.864 1.302 7.544 1.344 14.676-.369 22.162 23.404 4.981 46.563 18.998 59.725 39.292 3.96 6.107 6.797 13.597 8.446 20.685.518 1.171.95 2.82 1.753 3.792.007 1.68-.29 3.367-.457 5.038-.178 1.774-.262 3.617-.6 5.366l-4.4 39.076.087 1.25c-3.441.284-6.978.164-10.434.173-1.073.003-2.792.226-3.778-.034l-28.692-.02-21.33-.075c-4.356-.068-8.625-.094-12.951-.682l-.4.234c-.802.429-2.114.268-3.028.274l-7.794.006-16.375.19-4.345-.021c-.217 0-1.012-.07-1.166.014-.704.385-1.58 1.875-1.892 2.607-.337.79-.187 2.164-.184 3.034l.248 8.154c.05 3.144-.258 6.636.144 9.732-.247.655-.475 1.14-.366 1.842.128.826-.022 1.666 0 2.5.041 1.528.242 3.252-.004 4.76-.2 1.227.187 2.502.004 3.74-.112.75.023 1.446.124 2.188l.562.685c.827-.08 1.548-.086 2.375-.061l4.625.06c.742.032 1.492-.043 2.25 0l.002.378.25.625.124.374.686.627-.31.374c0 .432-.098.65.25 1l.373.25.189.25-.312.376.25.374.18.367c.17.342.332.59.57.883 0 .536-.114.715.227 1.14.287.36.455.697.646 1.11-.15 1.07.039.747.377 1.626.218.562-.092.948.25 1.624l.124.499.5.126-.124.5.25.375.124.499.25.251c.232.347.243.592.18.977-.054.333-.112.463.07.772l.5.501.124.75-.248.25.748 1.373c.007 1.047.046-.237-.124.69-.073.399.128.817.25 1.186l.238.163c.354.266.232.153.45.588l-.312.5.118.274c.133.333.197.624.256.975l.438.001c-.03.552-.188.957.165 1.399.254.317.447.625.646.976l-.069.337c-.119.726.05 1.06.444 1.66l.375.003c-.089.445-.042.541-.373.875l.374.999.376.251c.001.006.122.993.124.999.225.54.644.057.376.876l.373.375-.123.625.373.25-.123.5c.062.092.602.775.623.875.103.51-.404.344.127.875 0 .25-.078.513 0 .75.03.088.36.3.373.375.185 1.018-.333 1.05.595 1.985l.155.14c-.109.665-.166.53.127 1.125l.047.226c.1.406.34.688.576 1.024-.04.292-.2.59-.123.875.184.683.615.296.5 1.25l.25.25.04.257c.093.476.054.29.28.75.304.618.21 1.324.18 1.993.451.3.24.18.623.375.177.444.26.495.181.977-.054.333-.112.463.07.772l.5.501-.124.375.25.375c0 .434-.053.524.175.906.317.532.333.744.45 1.343.1.515.343.94.623 1.374.004.6-.094.83.245 1.339.305.457.264.55.381 1.037l.356 1.017c.132.353.082.232.144.733l.188.251.062.499c.086.437.191.69.5 1.001.091.335.107.525.126.876.032.559.29.963.56 1.437-.032.576-.183.953.19 1.437l.373.375-.061.375.418 1.346c.147.442.354.813.58 1.217l-.037.383c-.05.683.153.9.537 1.428l-.003.282c.001.554.057.846.313 1.32.266.494.31.844.38 1.4.056.434.096.515.312.874.282.47.58.942.492 1.477-.116.709-.052.095.07.772v.314c-.578.288-1.455.151-2.126.187-1.508.08-3.125.056-4.625-.061h-30c-1.682.121-4.474.354-6-.189-.89-.316-2.767.008-3.79-.012l-.586-.3c-1.273-.926-2.75-1.565-4.262-2.07-.321-.106-.61-.258-.925-.366-.728-.252-.158.022-.793-.296l-1.895-.954-1.875-.804-8.437-4.196-.438-.25-1.882-.945-.367-.18-.751-.375c-.76-.31-1.278-.867-2-1.25-.394-.21-.758-.374-1.132-.624l-2.867-1.75c-1.9-1.357-4.08-2.388-6-3.75l-.501-.376c-.5-.24-.576-.48-1-.75-1.498-.954.444.5-.593-.282l-3.157-2.218-1.148-.898c-1.277-.851-2.396-1.783-3.601-2.726-1.14-.892-2.613-1.778-3.547-2.876l-.204-.25c-.523-.174-.288-.04-.741-.46-.975-.908-2.197-1.574-3.082-2.57l-.177-.22c-.486-.162-.296-.038-.664-.406l-2.371-2.062-.527-.532c-1.27-.897-2.368-2.094-3.438-3.25-.437-.145-.572-.286-.89-.606l-.188-.19-.672-.704c-1.009-1.68-2.898-2.9-4.156-4.473l-11.344-12.216c-.75-1.254-2.086-2.277-2.75-3.561-.374-.723.215-.045-.485-.735-.258-.255-.4-.397-.593-.718-1.04-1.73-2.996-3.258-3.922-5.047-.297-.574.05-.202-.288-.565-.511-.55-1.119-1.132-1.461-1.812-.806-1.6-2.283-3.412-3.377-4.875-.358-.478-.569-1.044-.945-1.484-.238-.278-.14-.116-.304-.446a5.61 5.61 0 0 0-.501-.82c-.991-1.358-1.711-2.95-2.701-4.27-.848-1.132-1.569-2.724-2.307-3.977-3.053-5.185-5.908-10.505-8.403-15.983-4.173-9.16-8.058-18.344-11.12-27.953-7.707-24.18-10.972-50.238-10.87-75.57l.517-15.092c.131-2.538.106-5.272.478-7.78.711-4.784.667-9.746 1.56-14.492.335-1.778.304-4.937 1.172-6.432 1.09-7.578 3.19-15.125 5.406-22.436 5.866-19.36 13.715-37.456 24.211-54.738l5.262-8.54 15.458-21.028c1.788-2.5 3.993-4.871 5.99-7.209 4.305-5.036 8.65-9.904 13.645-14.272 1.572-1.68 3.406-3.18 5.13-4.704 5.005-4.425 10.291-8.44 15.714-12.335 1.237-.89 3.553-2.936 4.99-3.201.708-.13 1.986.116 2.75.177 4.375.352 9.03 1.885 13.393 1.163l.314-.055c1.6-.762 3.307-1.878 4.721-2.942l2.686-1.21c1.24-.742 1.281-1.027 1.625-2.364Z"/><path fill="#689700" d="M257.245 328.41c1.282 1.86 2.324 3.911 3.276 5.956 1.405 3.258 2.394 7.322 4.901 9.897.837.189 1.23.432 2.022.06l.088 1.25c-3.441.283-6.978.163-10.434.172-1.073.003-2.792.226-3.778-.034l.215-.26 6.868-.02.038-1.17c-.202-1.243-.74-2.41-.98-3.635-.229-1.172-.188-2.515-.244-3.716l-2.47-7.16c.198-.337.306-.587.408-.972l.09-.368Z"/><path fill="#699800" d="M259.217 336.91c.896 1.943 1.497 3.909 1.674 6.05.898.96 2.18 1.494 3.151 2.388l-3.639.083.038-1.17c-.202-1.243-.74-2.41-.98-3.635-.229-1.172-.188-2.515-.244-3.716Z"/><path fill="#699800" d="M260.521 334.366c1.405 3.258 2.394 7.322 4.901 9.897-.58.372-.505.35-1.17.236-.725-.123-1.077-.308-1.603-.846-1.227-1.256-2.738-5.3-2.634-7.023l.018-.255c.046-.755.222-1.311.488-2.01Z"/><path fill="#89FB1C" d="M79.513 131.762c.707-.037 1.628-.147 2.307.037.824.224 1.878 1.36 2.296 2.075.606 1.038.719 2.231.38 3.376-.538 1.822-1.44 2.658-3.061 3.552-.786.069-1.501.097-2.256-.17-1.152-.409-2.188-1.435-2.639-2.569-.445-1.117-.448-2.999.08-4.098.576-1.202 1.719-1.737 2.893-2.203Z"/><path fill="#7A8BA9" d="M54.078 124.986c1.466.283 2.59 1.438 3.426 2.63 1.546 2.205 2.47 4.798 4.119 6.928-.743 1.721-1.878 3.245-2.81 4.865l-6.94 12.446a210.332 210.332 0 0 0-18.348 50.944c-.584 2.657-1.486 5.584-1.65 8.276-.2-.85-.152-1.394.125-2.2l.125-.625.066-.3c.086-.429.05-.258.086-.743.041-.534-.007-.296.223-.832l-.122-.75c.376-.379.353-.232.392-.816.053-.796-.02-.209.23-.934l.125-.625.309-1.574c.139-.695-.034.163.253-.739.164-.514.122-1.006.313-1.562l.25-1.25c-.806-.446-1.976-.268-2.877-.25l-.373.248-.501.126-.265.07c-.733.145-1.346-.12-1.984.304l-.344-.035c-.409-.033-.736-.075-1.093.16l-.25-.185-.064.436c-.339 0-.127.016-.626-.124l-.124.374c-.42.102-.79.131-1.218.148-.514.02-.745.136-1.218.29l-.314.062-.374.124-.375-.25-.5.377c-.064.766-.259.75-.5 1.375-.13.338.046.932-.063 1.312-.228.8-.42 1.662-.687 2.438l-.125.625-.066.3c-.086.429-.05.258-.086.743-.052.675.02.126-.223.832l-.125.625-.066.285c-.079.392-.067.756-.094 1.15-.028.42-.025.156-.215.69l-.12.524-.18-.198c1.09-7.578 3.19-15.125 5.405-22.436 5.866-19.36 13.715-37.456 24.211-54.738l5.262-8.54Z"/><defs><linearGradient id="l" x1="121.43" x2="154.069" y1="208.742" y2="84.136" gradientUnits="userSpaceOnUse"><stop offset="0" stop-color="#FFFF4B"/><stop offset="1" stop-color="#1BA2FD"/></linearGradient></defs><path fill="url(#l)" d="M133.757 123.717c2.357-2.521 5.108-4.771 7.694-7.056 7.508-6.637 15.437-12.661 23.571-18.503 1.856-1.333 5.33-4.403 7.486-4.801 1.062-.196 2.978.174 4.125.266 6.562.528 13.543 2.827 20.089 1.745l.471-.084c-.941 2.111-10.73 7.538-13.439 9.368-7.711 5.207-14.981 10.991-22.019 17.072l-10.204 9.312c-1.111 1.058-3.055 3.466-4.335 4.089L119 165.688l-17.909 23.359c-2.926 3.936-6.582 8.348-8.657 12.769-2.472-3.195-3.86-7.085-6.178-10.392-1.254-1.788-2.94-3.52-5.14-3.945l23.188-31.541c2.682-3.751 5.989-7.306 8.986-10.813 6.457-7.554 12.974-14.856 20.467-21.408Z" transform="scale(.66667)"/><defs><linearGradient id="m" x1="243.715" x2="293.508" y1="286.866" y2="114.239" gradientUnits="userSpaceOnUse"><stop offset="0" stop-color="#6FFF00"/><stop offset="1" stop-color="#C4FF65"/></linearGradient></defs><path fill="url(#m)" d="M232.968 96.673c.849.494 1.684.953 2.303 1.736.829 1.047 1.314 2.774 1.917 3.996l6.45 13.134 21.075 46.091 1.695 3.581 1.487 3.667c11.293 21.111 20.08 46.597 40.73 60.507 2.055 1.384 5.278 3.912 7.557 4.637.326.103.533.115.884.166l.711-.872c.346 6.847 1.793 13.609 1.735 20.425-6.892-1.103-13.57-3.633-19.92-6.483l1.874 28.799.738 18.829c.199 3.188.206 6.568.939 9.685l-.151-.173c-2.477-2.497-3.683-6.865-5.209-10.023-1.386-2.87-3.261-5.305-3.672-8.52l-2.83-43.361-12.6-7.96c-10.729-7.377-19.942-16.977-26.343-28.342-3.499-6.213-6.036-12.943-8.241-19.704-1.549-4.75-3.059-9.609-3.98-14.523-2.09-6.833-2.942-14.406-3.779-21.492l-2.531-27.661-.839-26.14Z" transform="scale(.66667)"/><path fill="#89FB1C" d="m134.304 302.856-.763-.981c.757-.818 5.478-1.014 6.812-1.209 13.116-1.917 26.203-3.683 39.465-4.2 8.562-.333 17.114.084 25.557 1.617 10.613 1.927 21.021 5.946 30.448 11.156 4.95 2.736 9.733 5.824 13.883 9.69 3.006 2.8 5.307 6.061 7.539 9.481l-.09.368c-.102.385-.21.635-.409.972l2.47 7.16c.057 1.2.016 2.544.245 3.716.24 1.226.778 2.392.98 3.636l-.564.17c-1.244-1.313-2.09-3.045-3.635-4.074-1.868-1.243-3.43-3.051-5.201-4.423l-8.854-6.184-7.018-3.462-.419-.162c-.337-.14-.65-.313-1-.42l-10.25-3.434c-6.506-1.87-13.181-3.244-19.837-4.458-18.376-3.348-36.99-4.416-55.013-9.684-3.42-1-7.185-2.036-10.4-3.577-.685-.329-1.707-.5-2.289-.908l-.21-.163c-.47-.233-.949-.349-1.447-.627Z"/><path fill="#60D901" d="M134.304 302.856c.498.278.976.394 1.447.627l.21.163c.582.408 1.604.58 2.29.908 3.214 1.54 6.98 2.577 10.4 3.577 18.021 5.268 36.636 6.336 55.012 9.684 6.656 1.214 13.331 2.587 19.837 4.458l10.25 3.434c.35.107.663.28 1 .42l.419.162 7.018 3.462 8.854 6.184c1.772 1.372 3.333 3.18 5.201 4.423 1.545 1.029 2.391 2.76 3.635 4.074l.564-.17-.038 1.169-6.868.02-.215.26-28.692-.02-21.33-.075c-4.356-.068-8.625-.094-12.951-.682-4.607-1.106-8.892-3.292-13.048-5.51-11.448-6.11-23.107-14.125-31.924-23.712-.88-1.16-2.208-2.227-3.235-3.287-2.853-2.947-5.688-6.063-7.836-9.569Z"/><path fill="#07B14F" d="M145.375 315.712c1.052-.131 1.662-.14 2.65.221 4.818 1.758 9.907 2.848 14.6 4.914 6.502 2.86 12.566 6.69 18.881 9.938 8.073 4.15 16.727 7.462 25.382 10.179l8.539 2.707c1.464.45 3.287.681 4.448 1.72l4.753.3-21.33-.075c-4.356-.068-8.625-.094-12.951-.682-4.607-1.106-8.892-3.292-13.048-5.51-11.448-6.11-23.107-14.125-31.924-23.712Z"/><defs><linearGradient id="n" x1="273.656" x2="220.109" y1="357.531" y2="214.488" gradientUnits="userSpaceOnUse"><stop offset="0" stop-color="#009427"/><stop offset="1" stop-color="#46FFA9"/></linearGradient></defs><path fill="url(#n)" d="m177.832 232.837-.82-1.837.363-.512c4.722-.158 9.654.458 14.311 1.196 6.492.778 13.036 2.176 19.407 3.623 17.75 4.03 34.942 10.104 50.235 20.177 3.109 1.892 6.466 3.938 9.094 6.484 2.824 1.868 5.382 4.237 7.92 6.477 3.486 3.077 6.95 6.173 9.929 9.757 1.937 2.33 3.533 5.837 5.84 7.653.411 3.215 2.286 5.65 3.672 8.52 1.526 3.158 2.732 7.526 5.209 10.023l.151.173c.989 2.772 1.378 5.895 1.878 8.795 1.952 11.317 2.016 22.015-.554 33.243l-3.32-.444c-2.88-.839-6.037-1.215-8.997-1.712-7.207-.748-13.913-.403-21.125.327-5.223 1.015-11.048 2.489-16.312 2.905-1.638-2.092-4.351-3.621-6.483-5.216l-10.604-8.343c-18.466-15.516-30.971-35.64-40.102-57.775-.636-.826-1.038-2.152-1.482-3.119l-3.06-6.586-11.519-24.392c-1.316-3.083-2.858-6.145-3.631-9.417Z" transform="scale(.66667)"/><path fill="#0CFE92" d="M124.755 161.713c1.71-.41 3.498.022 5.12-.84l-.062.333.543.113-.221.505-.76.053-.312.5-.312-.376-.233.063c-1.041.21-2.287.087-3.354.088l-.409-.439Z"/><path fill="#07B14F" d="M118.555 155.225c1.187.762 1.7 2.164 2.747 2.84l3.453 3.648.41.44 8.544 8.534 4.208 3.702c5.656 5.214 12.06 9.493 17.966 14.397 10.298 8.551 20.11 17.813 29.394 27.453 3.596 3.735 7.964 7.85 10.493 12.386l.002.75-1.005.26c-4.805-.498-9.276-.268-14.084.218-3.482.677-7.365 1.66-10.874 1.937-1.092-1.395-2.9-2.414-4.322-3.477l-7.07-5.562c-12.31-10.344-20.647-23.76-26.734-38.517-.424-.55-.692-1.435-.988-2.08l-2.04-4.39-7.68-16.261c-.877-2.056-1.905-4.097-2.42-6.278Z"/><defs><linearGradient id="o" x1="286.692" x2="201.933" y1="294.093" y2="304.782" gradientUnits="userSpaceOnUse"><stop offset="0" stop-color="#008A41"/><stop offset="1" stop-color="#01C162"/></linearGradient></defs><path fill="url(#o)" d="M201.448 263.289c.136-1.438-2.414-2.351-2.814-3.78-.286-1.022-1.367-2.114-2.099-2.886l-.48-.498.11-.481c1.579-.068 2.869-.033 4.398.386l6.312 5.554c8.484 7.821 18.09 14.239 26.949 21.595 15.447 12.827 30.165 26.72 44.091 41.179 5.395 5.603 11.947 11.774 15.74 18.58l.003 1.124-1.508.391c-7.207-.748-13.913-.403-21.125.327l-.608-.291.145-.423 1.313.092c1.493-.201 2.755-.43 4.313-.467l.374-.375 2.063.092c.675.028 1.593.235 2.25 0 1.303-.467 3.992-.593 5.344-.142.576.192.195.152.908.153l.498-.011.563.092.003-.75c-1.945-3.162-5.224-5.699-7.8-8.363-14.908-15.418-30.852-30.515-47.358-44.235l-14.538-11.944c-1.434-1.193-3.501-2.555-4.745-3.892l-.191-.378c-.599-.228-.806-.421-1.274-.89-.836-.838-1.724-1.554-2.662-2.277l-.561-.021-7.614-7.461Z" transform="scale(.66667)"/><defs><linearGradient id="p" x1="315.799" x2="322.827" y1="450.99" y2="346.237" gradientUnits="userSpaceOnUse"><stop offset="0" stop-color="#48D300"/><stop offset="1" stop-color="#A3FF2C"/></linearGradient></defs><path fill="url(#p)" d="M271.025 344.78c7.212-.73 13.918-1.075 21.125-.327 2.96.497 6.117.873 8.997 1.712l3.32.444c35.106 7.472 69.844 28.498 89.587 58.939 5.941 9.16 10.196 20.395 12.67 31.027.776 1.757 1.423 4.23 2.629 5.688.011 2.52-.436 5.051-.686 7.557-.266 2.661-.393 5.426-.901 8.049-3.29-4.133-5.561-9.585-10.122-12.523-2.258-1.454-5.051-1.949-7.641-2.477l-11.628-2.191-24-4.537-16.207-3.663c-14.06-.328-28.993-3.435-42.035-8.652-5.613-2.246-11.055-4.999-15.986-8.512-12.942-9.219-23.343-21.241-32.986-33.752-6.033-7.826-12.149-16.346-16.066-25.45-.699-.884-1.285-1.345-1.407-2.481 2.699-1.255 6.144-1.647 9.059-2.287l15.966-3.659c5.264-.416 11.089-1.89 16.312-2.905Z" transform="scale(.66667)"/><defs><linearGradient id="q" x1="301.392" x2="273.339" y1="368.099" y2="410.691" gradientUnits="userSpaceOnUse"><stop offset="0" stop-color="#25D900"/><stop offset="1" stop-color="#00A356"/></linearGradient></defs><path fill="url(#q)" d="M231.095 356.112c6.447 4.288 14.153 8.312 21.721 10.107 2.031 1.006 4.361 1.566 6.524 2.232l11.174 3.492 51.068 16.763c9.116 3.224 17.86 7.146 26.586 11.285 1.863.884 5.177 2.047 6.544 3.415-1.477-.335-2.857-1.171-4.254-1.76-2.88-1.215-5.558-2.99-8.478-4.082l-3.052-1.407c-.74 1.209-1.475 2.471-2.459 3.499.498.236.935.415 1.46.573.813.245 1.522.8 2.223 1.268-2.735-.715-5.505-2.188-8.15-3.232l-16.053-6.033-33.689-10.486-33.602-11.733c7.732 8.192 16.212 15.474 24.905 22.604 13.233 10.855 27.358 21.153 42.303 29.536 4.345 2.438 8.87 4.72 13.469 6.639 2.941 1.227 6.1 2.018 8.833 3.686-14.06-.328-28.993-3.435-42.035-8.652-5.613-2.246-11.055-4.999-15.986-8.512-12.942-9.219-23.343-21.241-32.986-33.752-6.033-7.826-12.149-16.346-16.066-25.45Z" transform="scale(.66667)"/></svg>