<svg xmlns="http://www.w3.org/2000/svg" width="512" height="512"><path fill="#130730" d="M0 0h512v512H0V0Z"/><path fill="#F3E861" d="m239.038 243.743.445-.993c.37-.644.55-1.004 1.267-1.179l.902.625c-.062 1.086-.236 1.628.326 2.588h-.986l-.47-.408c-.693-.089-.97-.149-1.484-.633Z"/><path fill="#FFC468" d="m237.903 246.533 1.135-2.79c.513.484.79.544 1.485.633l.47.407-.678 1.957-1.404 1.687c-.719-.01-1.46-.142-2.176-.23.534-.304.563-.45.852-1.005l.316-.659Z"/><path fill="#49105F" d="M230.053 244.32c1.697-.572 3.598-.457 5.305.029l.297.374c.687.86 1.125 1.546 2.248 1.81l-.316.66-7.534-2.872Z"/><path fill="#893394" d="M95.346 194.742c1.524.14 2.75.007 3.88 1.09l.03.231c.26 1.906.755 3.378.728 5.346l.026.835c-.55-1.863-1.386-2.167-2.486-3.619-.832-1.098-1.425-2.676-2.178-3.883Z"/><path fill="#FEEDBA" d="m440.954 123.375.747-.08c.88-.04 1.31.237 1.925.826.275.804.216 1.3.074 2.13-.504.766-.723.978-1.574 1.321-.271.078-.304.106-.63.093-.806-.03-1.401-.402-1.904-.99-.263-.846-.331-1.304-.138-2.175.477-.679.726-.829 1.5-1.125Z"/><path fill="#D4CDD4" d="m197.963 268.625.202-.026c.903-.034 1.485.287 2.12.888.37 1.068.376 1.207.09 2.3-.636.737-1.06 1.06-2 1.334l-.192.006c-1.056-.095-1.316-.41-2.058-1.114-.238-1.026-.228-1.268.055-2.284.677-.692.86-.823 1.783-1.104ZM270.133 236.375l.467-.026a2.586 2.586 0 0 1 2.107 1.026c.464.596.573 1.533.371 2.25-.223.791-.805.998-1.453 1.378-.337.037-.78.118-1.125.066-.781-.118-1.354-.803-1.739-1.444-.355-.592-.352-1.292-.099-1.92.284-.704.811-1.038 1.47-1.33Z"/><path fill="#DD4E81" d="M95.346 194.742c-.398-.597-.585-.722-.55-1.456 1.172-.479 3.268-.205 4.572-.181.306-.95.575-1.872 1.1-2.73h.367l.788 1.286c0 1.01-.126 1.933.25 2.84.184.446.04 1.112.17 1.6-.388-.418-.294-.259-.53-.698l-.14-.278c-.35-.062-.765-.179-1.122-.124-.514.08-.72.462-1.026.832-1.129-1.084-2.355-.952-3.879-1.09Z"/><path fill="#FEEDBA" d="M71.932 135.125c.38-.058.67-.048 1.057.01.758.113 1.281.6 1.688 1.215.346.524.457 1.31.272 1.93-.288.957-1.013 1.128-1.824 1.447-.43.003-.512.028-.918-.054-.874-.177-1.4-.63-1.877-1.352-.454-.686-.428-1.166-.282-1.946.61-.768.932-.997 1.884-1.25Z"/><path fill="#BC80CA" d="M180.048 182.625c.65-.002 1.273.033 1.903.204.83.226 1.51.687 1.897 1.472.216.437.026.995-.17 1.424-.401.885-1.288 1.258-2.12 1.63-.567.04-1.145.086-1.697-.077-.755-.223-1.672-.899-1.947-1.653-.23-.633-.195-1.26.157-1.84.466-.767 1.152-.989 1.977-1.16Z"/><path fill="#FB436A" d="M99.225 195.833c.306-.37.512-.752 1.026-.832.357-.055.771.062 1.122.124l.14.278c.236.44.142.28.53.698.044.682-.002 1.052.33 1.65.45.808.661 1.914.86 2.817-.514.633-1.032 1.186-1.015 2.057.006.314.144.707.227 1-.837.951-1.992 2.135-3.097 2.76.475-1.43.611-2.642.662-4.14l-.026-.836c.027-1.968-.467-3.44-.729-5.346l-.03-.23Z"/><defs><linearGradient id="a" x1="343.818" x2="350.651" y1="367.183" y2="373.89" gradientUnits="userSpaceOnUse"><stop offset="0" stop-color="#C3167E"/><stop offset="1" stop-color="#ED329B"/></linearGradient></defs><path fill="url(#a)" d="M347.558 376.991c-2.175-3.288-3.713-6.634-4.768-10.429l.522-.539 1.768.458 11.301 4.307c-.434.831-.478 1.052-1.279 1.507-1.823.343-2.816 1.203-4.162 2.425-1.09.784-2.182 1.67-3.382 2.271Z" transform="scale(.66667)"/><path fill="#DD4E81" d="m407.733 194.025-.224.261c-.982 1.12-1.672 2.429-2.42 3.711-1.78-3.852-5.077-7.148-7.343-10.802l5.552 1.234 1.527-2.178-.04 2.37-.083.322c-.16.52-.406.861-.705 1.307.11 1.836.27 3.387.939 5.125l.314.151c.19-.3.373-.58.518-.905.812-.476.983-.576 1.965-.596Z"/><path fill="#F53AB0" d="M101.623 191.661c.22.421.408 1.106.884 1.228 2.258.578 4.93-.048 7.306.432l.66.443-4.658 4.047c-.779.844-1.686 2.07-2.582 2.757-.199-.903-.41-2.009-.86-2.818-.332-.597-.286-.967-.33-1.65-.13-.487.014-1.153-.17-1.6-.376-.906-.25-1.829-.25-2.839Z"/><path fill="#651B7E" d="m109.813 193.321.66.443-4.658 4.047c-.64-.899-.802-2.21-1.055-3.275 1.721-.168 3.675-.133 5.053-1.215Z"/><path fill="#F53AB0" d="M404.825 186.25c.442-.645.716-1.027 1.45-1.376.875.797 1.018 2.671 1.09 3.816 2.195-.497 4.255-.745 6.503-.833l-4.11 3.805.292.346c.666.825 1.07 1.974 1.499 2.94l-3.816-.923c-.982.02-1.153.12-1.965.596-.145.325-.328.604-.518.905l-.314-.151c-.67-1.738-.83-3.289-.94-5.125.3-.446.546-.788.706-1.307l.082-.322.04-2.37Z"/><path fill="#FFE4EB" d="M404.784 188.62c.226-.678.425-1.24.842-1.834.426.281.306.095.415.61.141.671-.132 1.74.054 2.271.12.345.77.738.967 1.083.732 1.272-.602 2.87-1.294 3.871-.145.325-.328.604-.518.905l-.314-.151c-.67-1.738-.83-3.289-.94-5.125.3-.446.546-.788.706-1.307l.082-.322Z"/><path fill="#FFC0BA" d="M154.32 218.137c-.011-1.01.052-1.692.487-2.61l.402-.01c.404.798.477 1.408.534 2.295l.284.122c.79.207 1.747-.201 2.51-.431 1.846-.558 3.66-1.138 5.545-1.558-1.56 1.315-3.381 2.21-5.041 3.38l-.124.49.346.435c-.222.774-.31 1.131.068 1.875l.9 1.404-.042 1.096c-.762.698-2.22.586-3.21.603l-.729-.198c-.176.377-.383 1.15-.76 1.318-.483.215-.979.135-1.49.1l-.699-.69c-.437-2.076-2.09-3.747-3.718-5.007l-.236-.266c1.12-1.465 3.651-1.06 4.973-2.348Z"/><path fill="#FFE4EB" d="M154.32 218.137c-.011-1.01.052-1.692.487-2.61l.402-.01c.404.798.477 1.408.534 2.295l-.08.568c.817.686 1.755.181 2.214.87 0 .61.01 1.187.088 1.793.145 1.124-.17 2.402-.34 3.522l-.5.264a6.076 6.076 0 0 1-1.125-.702c-.787.787.137 1.232-1.249 1.624l-.378.124-.75-.75.126-.376c.164-.542.133-1.066.124-1.624-.453-.364-.87-.593-1.374-.87l-.626-.38.127-.252.39.004c.699-.038 1.098-.312 1.527-.849.256-.321.196-.193.192-.563-.007-.638.158-1.018.226-1.57l-.015-.508Z"/><path fill="#F3E861" d="M182.441 119.845c-.698-6.948.13-14.533 1.16-21.41.184.418.403 1.193.676 1.53.384.474 1.342 1.004 1.848 1.386 2.035 1.537 4.248 3.217 6.625 4.191.529.217 1.119.483 1.695.458l-7.244 8.673c-1.484 1.743-2.937 3.786-4.76 5.172Z"/><defs><linearGradient id="b" x1="651.818" x2="697.463" y1="444.769" y2="424.261" gradientUnits="userSpaceOnUse"><stop offset="0" stop-color="#00CF89"/><stop offset="1" stop-color="#21E8ED"/></linearGradient></defs><path fill="url(#b)" d="m685.397 425.32 10.261-7.572-4.187 9.781c-2.004.534-3.49 2.098-5.16 3.267l-31.725 20.197c-1.295-2.467.296-9.803.87-12.714 10.42-3.398 20.359-7.623 29.941-12.959Z" transform="scale(.66667)"/><path fill="#3EF6D8" d="M31.572 113.881c.947 1.358 1.497 3.216 2.474 4.44.877 1.098 5.55 1.418 7.005 1.582-1.53 1.816-3.616 3.462-5.345 5.126l1.054 7.81c-1.723-.954-5.134-3.338-6.941-3.138-1.769 1.117-3.476 2.208-5.426 2.993-.457-1.851.248-5.276.695-7.173l.082-.336c-.286-.428-.133-.282-.532-.572-1.887-1.372-3.546-2.994-5.249-4.584l9.082-1.309c1.375-1.225 2.254-3.233 3.101-4.839ZM451.304 222.92c1.278 3.327 2.046 6.918 3.98 9.945 1.463.936 3.353 1.263 5.025 1.651l8.735 1.772c-.484.485-2.064.83-2.75 1.108l-8.316 3.43c-.483.195-1.921.59-2.268.909-.447.411-.787 2.466-.982 3.14-.643 2.23-1.364 5.058-2.563 7.028l-.481-.778-1.112-2.22-3.048-5.694c-.156-.287-.612-1.374-.84-1.54-.565-.413-2.33-.67-3.124-.935l-11.146-3.882 14.174-3.886 4.63-9.813.086-.234Z"/><path fill="#F3E861" d="m468.788 146.847 4.772 14.901c1.513.196 3.156.066 4.69.089l9.106.204c-2.316 2.938-4.772 5.92-7.53 8.451 2.784 2.414 5.03 5.908 7.33 8.806l-14.06-.327c-1.074 4.75-3.413 9.178-5.696 13.438l-.383.07-.391-.814c-1.778-4.273-4.406-9.156-4.96-13.743l-.031-.298-13.657-.339 6.786-8.452.11-.175 1.124-.216.026-.317c-2.733-2.44-5.044-5.622-7.336-8.48l14.02 1.258.292.054 5.788-14.11ZM56.318 149.359l5.436 14.658 12.727.496c-2.509 2.6-4.72 6.317-7.725 8.287l-.248.157 7.692 8.45-13.254-.594-.422-.04c-2.15 5.24-3.788 10.427-6.635 15.392-1.226-5.334-3.665-10.197-4.638-15.659l-14.11-.063-.345.031c2.013-1.885 3.55-4.161 5.355-6.232 1.022-1.173 2.219-2.205 3.376-3.241-2.723-2.569-4.704-5.606-6.99-8.545l13.052.582 6.73-13.68ZM80.047 60.508l5.678 14.347 13.774-.096c-3.041 2.423-5.112 5.637-7.802 8.38l-.214.214c3.209 2.414 5.296 5.893 7.573 9.134l-13.343-.253-.42-.052c-.455 1.12-.686 2.37-1.074 3.523-.881 2.628-1.86 5.218-3.053 7.722-.499 1.045-1.027 2.307-1.771 3.198l-.324-.25c-1.819-4.445-4.256-9.253-5.12-13.982l-.044-.255-15.174-.105 9.294-9.844-6.774-8.109 13.334.768 5.46-14.34ZM446.857 58.125l.479.002c1.35 2.682 2.316 5.534 3.266 8.376.74 2.21 1.569 4.503 1.756 6.84l.02.31c1.452.245 3.2.052 4.686.033l9.208-.227-7.144 8.194 8.312 9.785-7.17-.405c-2.388-.037-4.86.088-7.212-.342l-.337-.064c-1.34 5.066-2.945 9.876-5.94 14.231l-.53.585-.376-.268c-1.988-4.882-4.292-10.183-4.981-15.424l-14.218-.298c1.863-1.806 3.452-3.76 5.144-5.712.812-.936 1.68-2.093 2.704-2.8l.425-.28-7.509-8.39c4.172.75 8.452.232 12.596.914l.244.044 6.577-15.104Z"/><defs><linearGradient id="c" x1="317.096" x2="273.529" y1="545.876" y2="519.124" gradientUnits="userSpaceOnUse"><stop offset="0" stop-color="#00BB3D"/><stop offset="1" stop-color="#DFF145"/></linearGradient></defs><path fill="url(#c)" d="M290.204 508.133c6.321-1.535 13.535.024 19.065 3.35 5.669 3.409 10.074 8.453 11.592 15.008 1.583 6.838.237 13.602-3.464 19.503-2.634 4.2-7.205 7.237-11.772 8.986-1.631.624-3.299.991-4.806 1.908-2.106.69-4.615.447-6.819.515-.815.025-2.047.28-2.796.082l-5.266-1.385c-6.515-2.476-10.766-7.773-13.589-13.93l-.131-.296c-2.908-7.244-2.193-14.178.581-21.285 3.561-5.421 7.183-8.745 13.042-11.543l4.363-.913Z" transform="scale(.66667)"/><path fill="#F6F1D7" d="M190.138 346.626c.477-.108.997-.206 1.487-.128.916.148 1.842.792 2.264 1.627.352.697.447 1.746.174 2.48-.359.961-1.033 1.397-1.938 1.767-.472.07-.939.155-1.417.09-.837-.114-1.631-.588-2.099-1.3-.378-.577-.537-1.64-.34-2.306.332-1.116.904-1.634 1.87-2.23Z"/><defs><linearGradient id="d" x1="565.506" x2="535.434" y1="750.865" y2="673.483" gradientUnits="userSpaceOnUse"><stop offset="0" stop-color="#5B51DE"/><stop offset="1" stop-color="#7891F4"/></linearGradient></defs><path fill="url(#d)" d="M539.245 670.893c3.587 3.297 6.396 7.396 9.199 11.357.64.903 2.875 4.833 3.656 5.2 9.498 15.69 21.928 31.455 36.457 42.779 2.1 1.638 4.3 3.267 6.568 4.667 1.475.91 3.138 1.617 4.525 2.651l-3.937 2.6c-2.555.91-5.246 2.003-7.935 2.396-10.945 1.601-21.469-.308-32.075-3.012-12.778-3.257-27.757-9.148-37.129-18.771-2.861-2.937-5.029-6.323-7.132-9.821 10.317-7.411 16.414-19.081 22.175-30.084 1.739-3.319 3.295-7.019 5.628-9.962Z" transform="scale(.66667)"/><path fill="#854EC5" d="m92.221 458.498.429.574c2.98 6.134 14.03 32.702 19.725 34.666.336.116.306.1.6.137l-.144.532c-2.542.61-5.064 1.553-7.667 1.853-6.673.768-14.585-1.575-20.914-3.503-6.785-2.066-13.914-4.711-19.81-8.706-9.007-6.103-15.107-15.463-20.129-24.92.357-.245.626-.453 1.064-.532 1.242-.223 2.741-.113 4.006-.126l7.99.016 27.222.27c1.545.014 6.526.557 7.628-.26Z"/><path fill="#35164B" d="M341.025 440.683c-3.67 6.869-7.9 13.327-12.44 19.645-6.338 8.818-13.24 17.538-22.119 23.934-3.383 2.436-7.008 4.58-11.015 5.824-5.874 1.823-12.464 1.919-18.565 1.968-5.52.044-10.961.057-16.405-.971-1.24-.235-3.092-.474-4.169-1.095-.179-.103-.27-.191-.437-.326.67-.372 1.414-.606 2.132-.872l.376.05c1.46-.088 4.187-1.66 5.617-2.344 8.523-4.078 16.321-10.335 22.622-17.356l8.27-9.722c2.33-.915 3.182-4.112 4.119-6.254 1.624-.12 3.148-.634 4.738-.963 4.53-.937 8.992-2.723 13.377-4.178l14.257-4.479 5.373-1.77c1.396-.484 2.774-1.104 4.269-1.091Z"/><path fill="#49105F" d="m173.36 430.875 1.385.134.175.205.071.305c3.144 6.8 6.99 13.325 10.58 19.901 1.383 2.536 3.265 5.339 4.25 8.028l4.002 7.296c-1.603 2.207-3.054 4.46-4.832 6.542-9.002 10.538-21.554 19.22-35.428 21.46-5.104.825-10.287 1.045-15.446 1.237-7.699.286-16.237.515-23.71-1.704 1.154-.963 3.29-1.467 4.697-2.065 2.393-1.016 4.7-2.08 6.944-3.403 4.614-2.719 8.66-6.551 12.299-10.447 3.434-3.677 6.78-7.431 9.665-11.563 1.648-2.36 3.036-4.874 4.527-7.332l.152.035 5.014-7.148c4.854-7.262 9.752-15.028 15.655-21.481Z"/><path fill="#651B7E" d="m173.36 430.875 1.385.134.175.205.071.305c3.144 6.8 6.99 13.325 10.58 19.901 1.383 2.536 3.265 5.339 4.25 8.028-1.548.5-3.223.329-4.832.36l-9.586.103-14.144.019c-2.678-.005-5.985.268-8.568-.426l5.014-7.148c4.854-7.262 9.752-15.028 15.655-21.481Z"/><path fill="#BC80CA" d="m211.94 431.45.171.038 12.661 22.197c1.187 1.944 2.343 4.36 3.791 6.073 2.116 3.545 4.536 6.944 7.032 10.234 5.644 7.438 12.78 15.306 21.8 18.48.398.14.244.07.612.318-.718.266-1.462.5-2.132.872-2.4 1.004-4.774 2.085-7.32 2.669-6.402 1.467-13.13-.02-19.398-1.495-6.396-1.505-12.939-3.63-18.605-7.02-6.917-4.138-12.513-10.254-16.729-17.072l-4.003-7.296c-.984-2.69-2.866-5.492-4.25-8.028-3.59-6.576-7.435-13.101-10.579-19.901 3.778-.389 7.704-.007 11.5-.011l25.45-.058Z"/><path fill="#2F2FB2" d="m439.056 432.452 47.707.298c-2.971 6.148-6.512 12.034-9.846 17.993-3.34 5.972-6.62 12.225-10.463 17.883-4.115 6.056-8.982 11.417-14.666 16.033-4.058 3.296-8.376 6.04-13.336 7.775-7.31 2.557-15.496 3.123-23.188 3.156-6.225.026-12.17-.154-18.122-2.158l2.625-1.734c2.999-1.962 5.731-4.823 8.167-7.45 7.23-7.8 12.538-15.964 17.548-25.306.125-.552.7-1.38.97-1.901l2.709-5.17c3.391-6.432 6.939-12.772 9.895-19.419Z"/><path fill="#854EC5" d="M359.497 447.262c3.694-4.388 5.752-10.59 8.535-15.58 6.097.728 12.656.294 18.817.322l34.831.157c5.765.03 11.664-.21 17.41.131l-.034.16c-2.956 6.647-6.504 12.987-9.895 19.42l-2.709 5.169c-.27.522-.845 1.35-.97 1.901-5.01 9.342-10.317 17.506-17.548 25.307-2.436 2.626-5.168 5.487-8.167 7.45-.925-.69-2.033-1.161-3.017-1.768-1.512-.933-2.978-2.02-4.378-3.111-9.686-7.55-17.973-18.06-24.305-28.52-.52-.244-2.01-2.864-2.437-3.466-1.87-2.641-3.742-5.374-6.133-7.572Z"/><path fill="#5244D8" d="m368.067 458.3 57.415.642c-5.01 9.342-10.317 17.506-17.548 25.307-2.436 2.626-5.168 5.487-8.167 7.45-.925-.69-2.033-1.161-3.017-1.768-1.512-.933-2.978-2.02-4.378-3.111-9.686-7.55-17.973-18.06-24.305-28.52Z"/><defs><linearGradient id="e" x1="92.936" x2="25.971" y1="449.411" y2="342.993" gradientUnits="userSpaceOnUse"><stop offset="0" stop-color="#A4DB2D"/><stop offset="1" stop-color="#FFFF70"/></linearGradient></defs><path fill="url(#e)" d="M37.455 428.495c-2.54-7.879-4.167-16.109-5.608-24.25-2.138-12.087-3.571-24.323-3.232-36.62.259-9.382 1.459-18.567 2.304-27.897l20.772 8.135c13.642 5.702 24.713 13.178 35.806 22.845l24.213 24.764-5.48 12.087c-1.43 4.392-3.678 8.733-5.575 12.955-8.956 19.93-20.723 39.565-40.882 49.759l-4.921 2.141c-6.731-13.962-13.192-28.97-17.397-43.919Z" transform="scale(.66667)"/><defs><linearGradient id="f" x1="76.974" x2="131.179" y1="408.113" y2="553.08" gradientUnits="userSpaceOnUse"><stop offset="0" stop-color="#99B800"/><stop offset="1" stop-color="#046E11"/></linearGradient></defs><path fill="url(#f)" d="m111.71 395.472 10.548 9.589.168 1.341.946 6.085c1.721 7.912 4.453 15.64 6.926 23.343.479 1.49 1.052 4.59 1.919 5.79l4.4 15.527 4.585 18.318 13.495 69.362c-25.609-6.093-50.301-16.772-70.322-34.111-3.65-3.16-7.718-6.651-10.639-10.492-2.25-2.035-4.135-4.591-6.012-6.979-5.008-6.37-9.549-13.428-12.872-20.831l4.92-2.141c20.16-10.194 31.927-29.829 40.883-49.759 1.897-4.222 4.145-8.563 5.575-12.955l5.48-12.087Z" transform="scale(.66667)"/><path fill="#49105F" d="m351.738 384.499 2.274.365c2.136 1.514 4.024 3.282 5.96 5.039.45.409 1.54 1.164 1.816 1.667l-.028.446c-.12 2.687 1.296 4.988.682 7.794-.621 2.832-2.016 5.413-3.388 7.942l-5.427 9.766c-4.136 7.742-7.972 15.699-12.602 23.165-1.495-.013-2.873.607-4.269 1.09l-5.373 1.771-14.257 4.479c-4.385 1.455-8.848 3.241-13.377 4.178-1.59.329-3.114.843-4.738.963l3.768-10.622c-2.375-3.64-5.058-7.166-6.992-11.058-.17-3.886.522-7.924.984-11.787.878-7.331 1.568-14.884 3.894-21.931 1.601-4.837 5.054-9.224 8.18-13.17l13.681.09 18.094.024c3.67.006 7.472.218 11.118-.211Z"/><path fill="#651B7E" d="m308.844 384.596 13.682.09c-.186 1.607-1.04 2.839-1.826 4.216-1.072 1.879-2.171 3.772-3.104 5.724-1.067 2.232-1.98 4.574-2.766 6.92l-8.053 27.204c-1.174 4.298-1.9 9.504-3.869 13.485l-.129.307c-2.375-3.64-5.058-7.166-6.992-11.058-.17-3.886.522-7.924.984-11.787.878-7.331 1.568-14.884 3.894-21.931 1.601-4.837 5.054-9.224 8.18-13.17Z"/><path fill="#893394" d="M295.787 431.484c1.934 3.892 4.617 7.419 6.992 11.058l-3.768 10.622c-.937 2.142-1.788 5.339-4.118 6.254l-8.27 9.722c-6.302 7.02-14.1 13.278-22.623 17.356-1.43.684-4.157 2.256-5.617 2.344l-.376-.05c-.368-.247-.214-.178-.613-.318-9.02-3.174-16.155-11.042-21.8-18.48-2.495-3.29-4.915-6.69-7.03-10.234-1.449-1.714-2.605-4.13-3.792-6.073l-12.66-22.197 83.675-.004Z"/><path fill="#651B7E" d="M228.563 459.758c1.164-.807 43.814-.317 49.086-.323l10.556-.023c2.221-.016 4.472-.164 6.688.006l-8.27 9.722c-6.302 7.02-14.1 13.278-22.623 17.356-1.43.684-4.157 2.256-5.617 2.344l-.376-.05c-.368-.247-.214-.178-.613-.318-9.02-3.174-16.155-11.042-21.8-18.48-2.495-3.29-4.915-6.69-7.03-10.234Z"/><path fill="#893394" d="m79.123 430.438 30.768.067 38.248.215 17.023.03c2.62.002 5.635-.294 8.198.125-5.903 6.453-10.8 14.22-15.655 21.481l-5.014 7.148-.152-.035c-1.49 2.458-2.879 4.973-4.527 7.332-2.885 4.132-6.23 7.886-9.665 11.563-3.639 3.896-7.685 7.728-12.299 10.447-2.244 1.323-4.55 2.387-6.944 3.403-1.408.598-3.543 1.102-4.698 2.065l-1.575.128.144-.532c-.294-.037-.264-.021-.6-.137-5.696-1.964-16.745-28.532-19.725-34.666l-.429-.574-13.098-28.06Z"/><path fill="#651B7E" d="m92.65 459.072 43.376.199 10.952-.006c1.71-.002 3.93-.26 5.56.204-1.49 2.458-2.878 4.973-4.526 7.332-2.885 4.132-6.23 7.886-9.665 11.563-3.639 3.896-7.685 7.728-12.299 10.447-2.244 1.323-4.55 2.387-6.944 3.403-1.408.598-3.543 1.102-4.698 2.065l-1.575.128.144-.532c-.294-.037-.264-.021-.6-.137-5.696-1.964-16.745-28.532-19.725-34.666Z"/><defs><linearGradient id="g" x1="206.87" x2="137.503" y1="383.647" y2="319.141" gradientUnits="userSpaceOnUse"><stop offset="0" stop-color="#A9CF16"/><stop offset="1" stop-color="#FFFF84"/></linearGradient></defs><path fill="url(#g)" d="M165.709 290.646c2.68-2.327 5.374-4.928 8.368-6.837 7.645-4.875 17.246-6.24 25.855-8.62l-3.718 47.874-1.346 20.902-1.869 27.632-2.325 29.564-.311 3.469c-5.234-.059-10.407-.017-15.613.596-1.841.217-3.919.322-5.69.868-.028-2.332.555-5.516.026-7.745l-2.975-.115-19.504 2.677-19.593 4.325-3.72.764c-.544.091-.35.046-.868.402l-.168-1.341-10.548-9.589-24.213-24.764c6.612-3.132 13.654-4.581 20.796-5.973 4.312-.841 8.984-2.086 13.353-.999 3.801-20.993 12.935-38.499 27.376-54.158 1.658-.938 3.39-2.714 4.645-4.14-.124-.44-.331-1.029-.34-1.5-.026-1.307.751-2.136 1.523-3.086 1.343-1.032 2.704-2.87 3.873-4.136l6.986-6.07Z" transform="scale(.66667)"/><path fill="#FBF3BD" d="M113.45 265.11c4.63-.252 8.957.16 13.399 1.536l.267.795-.207 2.312c-3.49-.039-6.938-.01-10.409.398-1.227.144-2.613.214-3.793.578-.019-1.554.37-3.677.017-5.163l-1.983-.077 2.708-.38Z"/><path fill="#35164B" d="M58.331 247.139c4.408-2.088 9.103-3.054 13.864-3.982 2.875-.56 5.99-1.39 8.902-.666-.86 6.488-1.253 12.798-.726 19.343.221 2.737.801 5.475 1.134 8.207l-7.032-6.393-16.142-16.51Z"/><defs><linearGradient id="h" x1="198.691" x2="153.966" y1="365.443" y2="325.762" gradientUnits="userSpaceOnUse"><stop offset="0" stop-color="#BCE058"/><stop offset="1" stop-color="#FF9"/></linearGradient></defs><path fill="url(#h)" d="M171.202 313.459c.293-1.64 1.532-3.439 2.325-4.922 3.855-7.209 9.048-13.746 14.269-20.02 1.594-1.916 4.622-4.433 5.331-6.798.604-.461 1.275-.733 2.061-.653.367.038.78.231 1.121.372l-.371.38c-.459.542-12.566 34.171-12.498 34.766l-1.45 4.121c-1.772 5.918-4.088 11.665-5.652 17.647-4.949 18.928-6.875 39.259-6.951 58.773l.787.539-4.063.57-19.504 2.677c-1.128-10.236-.361-21.6 2.094-31.591 1.626-6.62 4.093-13.047 6.198-19.525 1.123-1.536 1.349-3.432 2.024-5.17l3.745-9.373 10.534-21.793Z" transform="scale(.66667)"/><path fill="#1A6718" d="M124.561 373.446c-.193-1.07.208-2.246.496-3.276 1.08-3.86 3.014-7.657 4.917-11.17 3.877-7.156 8.446-13.567 13.34-20.04 7.089-9.375 14.971-20.146 25.466-25.912 5.385-2.959 10.968-2.272 16.668-.538 5.615 1.709 9.692 5.24 12.374 10.444.705 1.367 1.576 3.145 1.696 4.696.285 3.663-3.233 7.439-6.007 9.388-.938.659-2.604 1.254-2.95 2.326-3.906 1.866-6.32 4.082-8.695 7.696-1.85 4.738-2.326 9.36-.387 14.19l.087.197c1.882 4.105 4.716 7.636 9.06 9.287l3.51.923c-4.108 3.556-5.945 7.63-7.817 12.63l-9.954-.057c-2.742-.066-5.714-.452-8.406.078l-43.902-.03c-.198-3.29-.198-6.757-.8-9.991.818-.117.773-.192 1.304-.841Z"/><path fill="#FBF3BD" d="m178.97 318.125 1.405-.236c.564.17.94.33 1.374.74.55.524.964 1.272.862 2.058-.122.951-.83 1.446-1.552 1.938l-.734.25c-.954-.123-1.652-.332-2.296-1.093-.53-.625-.635-1.093-.488-1.907.146-.8.81-1.31 1.43-1.75ZM161.005 328.625c.57.005 1.153.01 1.71.144.904.22 1.638.722 2.074 1.56.342.658.426 1.83.138 2.514-.454 1.08-1.272 1.595-2.302 2.025-.63.079-1.222.149-1.819-.12-.77-.346-1.438-1.091-1.74-1.875-.338-.877-.438-2.155.06-2.994.493-.832 1.027-.984 1.88-1.254Z"/><path fill="#12062B" d="M124.561 373.446c3.907-1.606 8.286-2.566 12.314-3.93 12.678-4.292 25.33-9.227 36.592-16.521 2.554-1.653 5.292-3.367 7.445-5.53.315-.317.528-.298.954-.405-1.85 4.738-2.326 9.36-.387 14.19l.087.197c1.882 4.105 4.716 7.636 9.06 9.287l3.51.923c-4.108 3.556-5.945 7.63-7.817 12.63l-9.954-.057c-2.742-.066-5.714-.452-8.406.078l-43.902-.03c-.198-3.29-.198-6.757-.8-9.991.818-.117.773-.192 1.304-.841Z"/><defs><linearGradient id="i" x1="426.043" x2="403.292" y1="280.785" y2="153.447" gradientUnits="userSpaceOnUse"><stop offset="0" stop-color="#4B0A5D"/><stop offset="1" stop-color="#96257A"/></linearGradient></defs><path fill="url(#i)" d="M489.832 136.4c1.746 2.86 2.657 6.668 3.702 9.85 5.827 17.741 6.983 36.823 2.601 55.003-6.676 27.695-26.851 54.727-51.189 69.503-8.446 5.128-17.269 9.374-26.821 12.032-11.066 3.08-23.079 4.182-34.536 4.232-9.689.042-19.53-.691-28.972-2.998-4.624-1.13-9.086-2.671-13.526-4.372-3.211-1.229-6.737-2.564-9.297-4.913 20.636-5.264 39.975-15.063 57.892-26.423 13.878-8.799 27.39-18.844 39.364-30.119 14.111-13.287 26.746-28.289 37.921-44.108 5.631-7.972 11.162-16.291 16.021-24.751 2.265-3.945 3.932-8.85 6.514-12.489l.326-.447Z" transform="scale(.66667)"/><defs><linearGradient id="j" x1="80.763" x2="55.842" y1="656.665" y2="584.679" gradientUnits="userSpaceOnUse"><stop offset="0" stop-color="#F4A2AB"/><stop offset="1" stop-color="#FFECB6"/></linearGradient></defs><path fill="url(#j)" d="M19.19 596.51c-.054-.445-.107-.729-.072-1.199.303-4.095 3.676-8.365 6.477-11.134 3.035-2.999 7.17-6.291 11.355-7.432 2.605-.711 5.674-.405 8.363-.391l13.466.1 49.246.166c-4.928 5.333-8.89 12.16-10.526 19.279l.03 1.085 20.839 48.557.317.116 19.647 42.09c-1.654 1.226-9.125.412-11.442.39l-40.833-.404-11.985-.024c-1.897.019-4.146-.146-6.01.189-.657.119-1.06.431-1.595.799l-23.753-42.618c-7.998-16.499-17.64-32.142-23.523-49.569Z" transform="scale(.66667)"/><path fill="#FEEDBA" d="M12.794 397.674c-.037-.297-.072-.486-.049-.8.202-2.73 2.45-5.576 4.319-7.422 2.022-2 4.779-4.194 7.57-4.955 1.736-.474 3.782-.27 5.575-.26l8.977.066 32.83.11c-3.285 3.556-5.926 8.107-7.017 12.853-1.074.288-2.205.012-3.314.003l-7.524-.01-21.88.06c-6.478-.013-13.026-.148-19.487.355Z"/><defs><linearGradient id="k" x1="112.543" x2="71.195" y1="701.739" y2="630.617" gradientUnits="userSpaceOnUse"><stop offset="0" stop-color="#9B55B9"/><stop offset="1" stop-color="#C88BC6"/></linearGradient></defs><path fill="url(#k)" d="m118.368 645.541.317.116 19.647 42.09c-1.654 1.226-9.125.412-11.442.39l-40.833-.404-11.985-.024c-1.897.019-4.146-.146-6.01.189-.657.119-1.06.431-1.595.799l-23.753-42.618 75.654-.538Z" transform="scale(.66667)"/><path fill="#FB436A" d="M268.723 47.012c5.363.762 10.707 1.741 15.85 3.484 13.202 4.475 24.6 13.274 32.896 24.393 3.597 4.82 6.846 10.442 9.086 16.044l-.218.298c-1.72 2.426-2.832 5.696-4.342 8.326-3.24 5.64-6.927 11.186-10.68 16.501-7.45 10.546-15.874 20.547-25.282 29.405-7.982 7.517-16.99 14.214-26.242 20.08-11.945 7.573-24.838 14.106-38.595 17.615-5.93-3.822-12.018-7.789-17.07-12.746-2.967-2.91-5.494-6.17-7.956-9.502 1.767-.223 3.669-.09 5.455-.145 3.481-.107 6.936-.368 10.375-.938 10.837-1.799 21.373-6.084 30.95-11.388 7.19-3.982 14.036-8.607 19.9-14.407 12.226-12.093 20.606-26.61 20.675-44.237.051-12.889-4.276-31.87-13.704-41.3-.356-.357-.655-.657-.9-1.103l-.198-.38Z"/><path fill="#DD4E81" d="M167.96 384.308c2.69-.53 5.663-.144 8.405-.078l9.954.056 9.11.024c-1.55 2.25-2.83 4.82-3.962 7.306-.672 1.474-1.366 2.852-1.376 4.512.706 1.298 1.646 2.114 2.895 2.879.913-.372 2-.55 2.957-.78 3.076 4.05 4.982 9.405 7.103 14.023l8.894 19.2-25.45.058c-3.795.004-7.72-.378-11.499.01l-.07-.304-.176-.205-1.385-.134c-2.563-.419-5.577-.123-8.198-.125l-17.023-.03-38.248-.215-30.768-.067-.211-.077-13.893-32.371-.02-.724c1.091-4.746 3.732-9.297 7.018-12.852l-32.831-.111 71.682.043c2.61.225 5.481.203 8.09-.072l1.168.05 3.931-.045 43.902.03Z"/><path fill="#FB436A" d="m118.957 384.274 1.17.05 3.93-.045 43.902.03c-3.838 3.027-8.524 7.29-8.969 12.567l.017.876-.052.189c-2.314-.523-5.122-.225-7.5-.215l-13.072.01-47.455-.042-15.907.034c-3.126.006-6.297.118-9.414-.097l-.588.359-.02-.724c1.091-4.746 3.732-9.297 7.018-12.852l-32.831-.111 71.682.043c2.61.225 5.481.203 8.09-.072Z"/><path fill="#FEEDBA" d="M167.96 384.308c2.69-.53 5.663-.144 8.405-.078l9.954.056 9.11.024c-1.55 2.25-2.83 4.82-3.962 7.306-.672 1.474-1.366 2.852-1.376 4.512.706 1.298 1.646 2.114 2.895 2.879.913-.372 2-.55 2.957-.78 3.076 4.05 4.982 9.405 7.103 14.023l8.894 19.2-25.45.058c-3.795.004-7.72-.378-11.499.01l-.07-.304-.176-.205c-.786-2.943-3.294-6.112-4.748-8.828-4.119-7.695-8.543-15.87-11.042-24.24l.052-.189-.017-.876c.445-5.278 5.131-9.54 8.97-12.568Z"/><path fill="#FBF3BD" d="M167.96 384.308c2.69-.53 5.663-.144 8.405-.078l9.954.056 9.11.024c-1.55 2.25-2.83 4.82-3.962 7.306-.672 1.474-1.366 2.852-1.376 4.512l-.216.885c-1.994.664-4.729.39-6.84.44l-18.358.142c-1.69.009-4.057-.273-5.67.157l-.017-.876c.445-5.278 5.131-9.54 8.97-12.568Z"/><path fill="#FCA99E" d="M195.943 398.227c3.076 4.05 4.982 9.405 7.103 14.023l8.894 19.2-25.45.058c-3.795.004-7.72-.378-11.499.01l-.07-.304c2.545-.002 6.186.44 8.596-.146 1.45-6.126 3.406-12.343 5.49-18.284 1.401-3.998 3.084-7.954 4.1-12.074.17-.69.136-1.044-.12-1.703.912-.372 2-.55 2.956-.78Z"/><path fill="#35164B" d="M457.54 287.197c1.114-.779 2.105-1.822 3.44-2.178l-3.13 7.638c1.837 1.968 1.484 6.54 1.836 9.21 2.894 21.988 3.143 44.08 3.92 66.212l.21 12.343-.37.416c-2.714-3.014-6.161-5.422-9.962-6.876-5.32-2.033-11.551-2.588-17.192-3.067-14.958-1.27-30.266-1.028-45.2.441l-13.388 1.402c-1.825.186-4.248.732-6.041.388-.213-.621-.093-.893.033-1.526.032-2.36.648-5.16.079-7.446-.315-.39-.393-1.011-.524-1.495L369.539 359c-.883-1.641-1.948-2.997-3.131-4.436l.812.246.342.442.869 1.082.192.292c.855-.682 1.807-2.104 2.701-2.521l.302-.105.002-1.5c.44-.444.249-1.374.25-2 .426-.431.249-1.848.25-2.5.512-.518.064-.912.25-1.5.068-.215.504-.647.66-.846.71-4 1.395-7.948 2.636-11.828a63.076 63.076 0 0 1 2.034-5.53c.468-1.095 1.283-2.349 1.403-3.525 2.003-2.882 4-5.617 6.47-8.128 10.82-11.003 24.983-16.772 39.44-21.268l11.22-3.138.73-.05c-.383 1.94-1.443 6.83-.58 8.475l21.15-13.465Z"/><defs><linearGradient id="l" x1="635.035" x2="612.704" y1="535.679" y2="448.763" gradientUnits="userSpaceOnUse"><stop offset="0" stop-color="#007249"/><stop offset="1" stop-color="#00B188"/></linearGradient></defs><path fill="url(#l)" d="M686.311 430.796c1.67-1.169 3.156-2.733 5.16-3.267l-4.697 11.457c-8.528 17.818-20.061 34.063-34.462 47.642-16.97 16.004-37.296 28.89-56.333 42.301l-38.436 28.47c.048-3.539.973-7.739.119-11.168-.472-.585-.589-1.517-.786-2.243l-2.568-5.488c-1.325-2.462-2.922-4.496-4.697-6.655l1.218.369.513.663 1.304 1.624.288.437c1.282-1.022 2.711-3.155 4.052-3.781l.452-.157.003-2.25c.66-.667.374-2.062.375-3 .64-.647.374-2.772.375-3.75.769-.777.097-1.368.375-2.25.102-.323.756-.971.99-1.27 1.066-5.999 2.093-11.921 3.955-17.741.897-2.802 1.895-5.588 3.05-8.294.702-1.644 1.925-3.524 2.105-5.289 3.004-4.323 6.001-8.425 9.705-12.192 16.23-16.504 37.475-25.157 59.16-31.902l16.829-4.707 1.096-.076c-.574 2.911-2.165 10.247-.87 12.714l31.725-20.197Z" transform="scale(.66667)"/><path fill="#15CA62" d="m436.24 292.237.73-.05c-.382 1.94-1.442 6.83-.58 8.475l-13.436 8.483c-3.832 2.548-7.385 5.915-10.954 8.848l-17.61 15.81c-3.877 3.753-7.803 7.478-11.13 11.747-4.404 5.648-7.932 11.767-10.885 18.264-.373-.441-.312-.553-.385-1.104l-.74-.051L369.54 359c-.883-1.641-1.948-2.997-3.131-4.436l.812.246.342.442.869 1.082.192.292c.855-.682 1.807-2.104 2.701-2.521l.302-.105.002-1.5c.44-.444.249-1.374.25-2 .426-.431.249-1.848.25-2.5.512-.518.064-.912.25-1.5.068-.215.504-.647.66-.846.71-4 1.395-7.948 2.636-11.828a63.076 63.076 0 0 1 2.034-5.53c.468-1.095 1.283-2.349 1.403-3.525 2.003-2.882 4-5.617 6.47-8.128 10.82-11.003 24.983-16.772 39.44-21.268l11.22-3.138Z"/><path fill="#00865D" d="m366.408 354.564.812.246.342.442.869 1.082.192.292c.855-.682 1.807-2.104 2.701-2.521l.302-.105.002-1.5c.44-.444.249-1.374.25-2 .426-.431.249-1.848.25-2.5.512-.518.064-.912.25-1.5.068-.215.504-.647.66-.846-.634 5.708-1.253 11.299-1.048 17.056l-.74-.051L369.54 359c-.883-1.641-1.948-2.997-3.131-4.436Z"/><defs><linearGradient id="m" x1="594.654" x2="533.504" y1="521.614" y2="326.547" gradientUnits="userSpaceOnUse"><stop offset="0" stop-color="#006A54"/><stop offset="1" stop-color="#00E481"/></linearGradient></defs><path fill="url(#m)" d="M527.284 351.671c2.135-6.303 4.493-12.376 7.572-18.279 3.401-6.517 7.729-12.732 9.875-19.809 1.183-3.901 1.313-8.201 1.559-12.252 10.098 3.371 20.176 6.77 28.238 14.044 3.635 3.281 6.515 7.091 9.443 10.984 19.812 2.788 38.369 9.821 54.119 22.259 2.716 2.144 6.192 4.739 8.343 7.467l.802 1.29.205.332c3.521 6.011 7.938 71.154 6.92 80.648l-16.829 4.707c-21.685 6.745-42.93 15.398-59.16 31.902-3.704 3.767-6.701 7.869-9.705 12.192-.18 1.765-1.403 3.645-2.105 5.289-1.155 2.706-2.153 5.492-3.05 8.294-1.862 5.82-2.889 11.742-3.955 17.741-.234.299-.888.947-.99 1.27-.278.882.394 1.473-.375 2.25-.001.978.265 3.103-.375 3.75-.001.938.285 2.333-.375 3l-.003 2.25-.452.157c-1.341.626-2.77 2.759-4.052 3.781l-.288-.437-1.304-1.624-.513-.663-1.218-.369-.299-.18.192-.314c.369-.865.074-2.14-.004-3.057l-.657-8.013c-1.178-17.866.703-35.915-.809-53.768-.602-7.109-1.487-14.453-3.77-21.237-4.583-13.62-14.297-25.146-18.886-38.696l-.143-.437c-6.26-17.915-3.794-36.79 2.049-54.472Z" transform="scale(.66667)"/><path fill="#3EF6D8" d="M351.523 234.447c1.423-4.202 2.995-8.25 5.048-12.186 2.267-4.344 5.153-8.488 6.583-13.206.789-2.6.876-5.467 1.04-8.168 6.732 2.248 13.45 4.514 18.825 9.363 2.423 2.187 4.343 4.727 6.295 7.323 8.254 12.911 12.522 26.083 11.503 41.522-3.627-4.153-7.85-7.762-11.413-11.916-2.307-2.69-4.302-5.83-5.986-8.944-2.598-4.803-4.474-9.977-6.308-15.109-1.832-5.124-3.517-10.017-6.653-14.541.523 1.568 1.113 3.192 1.418 4.82 2.125 11.358-2.6 24.147-7.643 34.196-2.798 5.574-6.331 10.516-9.56 15.822l-2.652 4.622c-.47.87-1.031 2.166-1.863 2.717-4.173-11.943-2.53-24.527 1.366-36.315Z"/><path fill="#35164B" d="M389.314 217.573c13.208 1.858 25.58 6.547 36.08 14.84 1.81 1.428 4.128 3.158 5.562 4.977l.534.86.137.221c2.347 4.008 5.292 47.436 4.613 53.766l-11.22 3.138c-14.456 4.496-28.62 10.265-39.44 21.268-2.468 2.511-4.466 5.246-6.47 8.128-.287-1.972 1.146-5.05 1.88-6.936l6.706-15.576 3.938-9.476 5.622-15.198c1.882-5.813 3.47-12.346 3.56-18.49 1.02-15.439-3.248-28.61-11.502-41.522Z"/><defs><linearGradient id="n" x1="218.769" x2="238.668" y1="310.851" y2="571.958" gradientUnits="userSpaceOnUse"><stop offset="0" stop-color="#A78100"/><stop offset="1" stop-color="#006912"/></linearGradient></defs><path fill="url(#n)" d="m238.561 328.988.423.406c2.334.323 34.889-20.718 39.299-23.411l-2.353 22.754c.416 4.778-.747 10.384-1.189 15.216-2.833 30.932-9.521 61.072-21.443 89.821-2.415 5.824-4.968 12.398-8.245 17.767-.679 2.259-2.158 4.426-3.288 6.501-6.818 12.521-16.107 24.273-26.386 34.124-3.994 3.827-8.156 7.59-13.067 10.221l-3.845 1.785c-2.882 1.242-6.255 1.877-9.29 2.749-2.41 17.841-5.941 36.459-4.291 54.509.903 4.851.903 10.053 1.2 14.988l-5.897.067-1.753-.075a65.583 65.583 0 0 1-12.134.109l-10.888-29.715-.717-1.977-13.495-69.362-4.585-18.318-4.4-15.527c-.867-1.2-1.44-4.3-1.919-5.79-2.473-7.703-5.205-15.431-6.926-23.343l-.946-6.085c.518-.356.324-.311.868-.402l3.72-.764 19.593-4.325 19.504-2.677 2.975.115c.529 2.229-.054 5.413-.026 7.745 1.771-.546 3.849-.651 5.69-.868 5.206-.613 10.379-.655 15.613-.596l.311-3.469 2.325-29.564 1.869-27.632 26.527-9.595 1.73-.685c1.128-.746 1.029-1.35 1.249-2.559 2.442 1.891 4.922 4.397 5.578 7.51l1.048 1.035c.767.054 1.511.173 2.234-.149.567-.253.877-1.412 1.141-1.977l1.094.297c1.483-.026 3.672.143 4.815-.904l.063-1.644-1.351-2.106c-.566-1.116-.434-1.652-.102-2.813l-.518-.653.185-.734Z" transform="scale(.66667)"/><path fill="#FCA99E" d="M160.231 223.53c.3.666.463.798.205 1.517-.284.79-.862 1.555-1.33 2.252l-.731.278c-.696-.566-1.024-1.545-1.396-2.349.99-.017 2.448.095 3.21-.603l.042-1.096Z"/><defs><linearGradient id="o" x1="203.806" x2="215.008" y1="376.41" y2="329.217" gradientUnits="userSpaceOnUse"><stop offset="0" stop-color="#1A0829"/><stop offset="1" stop-color="#501C62"/></linearGradient></defs><path fill="url(#o)" d="M224.374 331.126c2.442 1.891 4.922 4.397 5.578 7.51-.411 1.072-.693 1.927-1.566 2.726l-15.389 14.367c-2.397 1.499-4.593 3.959-6.673 5.897l-13.012 12.537-.313-2.566 1.869-27.632 26.527-9.595 1.73-.685c1.128-.746 1.029-1.35 1.249-2.559Z" transform="scale(.66667)"/><defs><linearGradient id="p" x1="194.991" x2="169.682" y1="518.709" y2="522.683" gradientUnits="userSpaceOnUse"><stop offset="0" stop-color="#2B4F00"/><stop offset="1" stop-color="#160521"/></linearGradient></defs><path fill="url(#p)" d="m184.654 444.997.216.728c.407 1.603-.574 3.183-.732 4.781-.183 1.847-.707 4.186-1.248 5.961-.606 1.994-.74 4.331-1.093 6.391-.278 1.627-1.036 3.322-.757 4.986l.438.13c1.243.383 1.581.596 2.541 1.422l1.071.562c.582.293.231.116.95.596.553.37.814.446 1.46.512l.75-.816-.184-.562.559-.376-.092-.562.169-.346c.422-.954.546-2.001.675-3.027l.373-.377c.178-.941.124-1.308.75-2.062l-.064-.411c-.059-.606.064-.905.255-1.465l.186-.56.373-.377-.184-.563.375-.562.186-.748.375-1.125.17-.557c.243-.73.158-.466.55-1.196.359-.671.206-.831.403-1.436l.283-.563.094-.748c.231-1.558 1.082-2.964 1.5-4.5.322-1.183.284-1.386 1.193-2.328.386-.4.612-.835.861-1.326.345 1.802-1.262 4.794-1.727 6.611-.269 1.051-.661 2.204-1.2 3.146-1.129.966-1.907 4.799-2.442 6.421-7.243 21.957-11.143 45.631-12.91 68.65-.837 10.909-.983 21.91-.165 32.824l1.577 14.36-1.753-.075c-1.508-3.852-2.118-8.561-2.78-12.656l-3.213-28.377c.202-10.418.3-20.576 1.391-30.963.97-9.237 2.93-18.3 4.656-27.414l6.164-32.003Z" transform="scale(.66667)"/><defs><linearGradient id="q" x1="209.8" x2="105.44" y1="504.304" y2="457.653" gradientUnits="userSpaceOnUse"><stop offset="0" stop-color="#47A91A"/><stop offset="1" stop-color="#BEE442"/></linearGradient></defs><path fill="url(#q)" d="m166.111 398.234 2.975.115c.529 2.229-.054 5.413-.026 7.745 1.771-.546 3.849-.651 5.69-.868 5.206-.613 10.379-.655 15.613-.596l-5.709 40.367L178.49 477c-1.726 9.114-3.686 18.177-4.656 27.414-1.091 10.387-1.189 20.545-1.391 30.963l3.213 28.377c.662 4.095 1.272 8.804 2.78 12.656a65.583 65.583 0 0 1-12.134.109l-10.888-29.715-.717-1.977-13.495-69.362-4.585-18.318-4.4-15.527c-.867-1.2-1.44-4.3-1.919-5.79-2.473-7.703-5.205-15.431-6.926-23.343l-.946-6.085c.518-.356.324-.311.868-.402l3.72-.764 19.593-4.325 19.504-2.677Z" transform="scale(.66667)"/><path fill="#F3E861" d="m82.248 274.991 1.494-.205c.31 1.8 1.051 3.48 1.542 5.235l4.282 15.33c.483.944.621 2.137.853 3.168l1.201 5.356-.542.89-2.933-10.352c-.578-.8-.96-2.866-1.28-3.86-1.648-5.135-3.47-10.287-4.617-15.562Z"/><path fill="#F6F1D7" d="m110.74 265.49 1.984.076c.353 1.486-.036 3.609-.017 5.163-2.752.713-5.793.895-8.622 1.304l-12.738 1.89c-2.438.292-5.258.212-7.605.863l-1.494.205-.63-4.056c.345-.238.215-.208.578-.268l2.48-.51 13.062-2.883 13.003-1.785Z"/><path fill="#BC80CA" d="M336.8 345.824c3.552-1.093 8.868-.554 12.469.379 2.542.239 5.174 1.037 7.561 1.915l4.363 2.254c.97.56 1.947 1.306 2.979 1.723l2.036 2.349.2.12c1.183 1.439 2.248 2.795 3.13 4.436l1.713 3.659c.131.484.21 1.105.524 1.495.57 2.286-.047 5.086-.08 7.446-.125.633-.245.905-.032 1.526 1.793.344 4.216-.202 6.04-.388l13.39-1.402c14.933-1.47 30.241-1.711 45.2-.441 5.64.48 11.871 1.034 17.19 3.067 3.802 1.454 7.25 3.862 9.963 6.876.614 1.063 1.454 2.229 1.806 3.402l16.618.079c1.946.01 4.824-.348 6.675.15 3.428.92 7.822 4.426 10.26 6.915 1.911 1.953 3.09 4.139 3.817 6.759-.291 1.822-.616 3.546-1.3 5.265-2.204 5.535-5.55 10.84-8.214 16.184-2.124 4.262-3.857 9.134-6.345 13.158l-47.707-.298.034-.16c-5.746-.342-11.645-.102-17.41-.131l-34.831-.157c-6.161-.028-12.72.406-18.817-.322 2.703-5.788 5.697-11.562 6.298-18.03.593-6.39-1.565-10.792-5.557-15.624l-6.985-6.458c-.276-.503-1.365-1.258-1.816-1.667-1.936-1.757-3.824-3.525-5.96-5.04l-2.274-.364c-1.38-1.127-3.307-1.55-4.904-2.353-3.722-1.324-8.025-3.22-11.115-5.697-1.595-1.28-2.964-2.864-4.48-4.237-2.062-2.432-3.185-5.65-4.07-8.663l-.448-2.559.514-.991.254-.624c.33-.54.456-.695.58-1.367l.01-.12.084-.914c.164-1.07.624-1.595 1.462-2.228.956.056 1.111.214 1.876.738l.297.074c1.225.14 1.893-.406 2.855-1.055l-1.027-1.562c-.264-.565-.202-1.243.014-1.81.59-1.548 1.57-2.505 3.07-3.177-.142-.621-.117-.483-.584-.818l.438-.801.386.078-.15-.59Z"/><path fill="#7989DA" d="m465.252 384.24 16.618.079c1.946.01 4.824-.348 6.675.15 3.428.92 7.822 4.426 10.26 6.915 1.911 1.953 3.09 4.139 3.817 6.759l-49.082.135c-.038-2.502-.216-4.902-.648-7.368-.114-.652-1.452-6.206-1.701-6.32-.72-.327-5.45-.012-6.59-.012l-27.635-.022-5.882-.005c-.705 0-1.693.179-2.272-.228l56.44-.083Z"/><path fill="#02AA61" d="M371.775 364.154c.57 2.286-.047 5.086-.08 7.446-.125.633-.245.905-.032 1.526 1.793.344 4.216-.202 6.04-.388l13.39-1.402c14.933-1.47 30.241-1.711 45.2-.441 5.64.48 11.871 1.034 17.19 3.067 3.802 1.454 7.25 3.862 9.963 6.876.614 1.063 1.454 2.229 1.806 3.402l-56.44.083-38.981.14-10.073.171c-1.898.035-3.87-.048-5.746.23l-2.274-.365c-1.38-1.127-3.307-1.55-4.904-2.353l.123-.408.555.276c.36.116.544.062.892.274l.26.168.462.172c.593.266 1.187.604 1.874.56l.375-.06c.398.262.267.23.649.325l.226.047.313.688h2.187c.392-.234.193-.167.586-.231l.414.232c1.636.014 3.57.116 5.126-.376v-.375c.702-.758 1.366-1.51 2.25-2.06.372-.233.67-.41 1.016-.696l.358-.304c1.77-1.336 5.258-3.4 5.822-5.643l.056-.235c.306-.61.5-.852.569-1.562l.053-.563c.233-1.373-.108-2.91.284-4.215.356-1.18.317-2.744.49-4.006Z"/><path fill="#15CA62" d="M336.8 345.824c3.552-1.093 8.868-.554 12.469.379 2.542.239 5.174 1.037 7.561 1.915l4.363 2.254c.97.56 1.947 1.306 2.979 1.723l2.036 2.349.2.12c1.183 1.439 2.248 2.795 3.13 4.436l1.713 3.659c.131.484.21 1.105.524 1.495-.174 1.262-.135 2.826-.49 4.006-.393 1.305-.052 2.842-.285 4.215l-.053.563c-.069.71-.263.952-.57 1.562l-.055.235c-.564 2.244-4.052 4.307-5.822 5.643l-.358.304c-.345.287-.644.463-1.016.696-.884.55-1.548 1.302-2.25 2.06v.375c-1.555.492-3.49.39-5.126.376l-.414-.232c-.393.064-.194-.003-.586.232l-2.187-.001-.313-.688-.226-.047c-.382-.095-.251-.063-.65-.325l-.374.06c-.687.044-1.281-.294-1.874-.56l-.462-.172-.26-.168c-.348-.212-.531-.158-.892-.274l-.555-.276-.123.408c-3.722-1.324-8.025-3.22-11.115-5.697-1.595-1.28-2.964-2.864-4.48-4.237-2.062-2.432-3.185-5.65-4.07-8.663l-.448-2.559.514-.991.254-.624c.33-.54.456-.695.58-1.367l.01-.12.084-.914c.164-1.07.624-1.595 1.462-2.228.956.056 1.111.214 1.876.738l.297.074c1.225.14 1.893-.406 2.855-1.055l-1.027-1.562c-.264-.565-.202-1.243.014-1.81.59-1.548 1.57-2.505 3.07-3.177-.142-.621-.117-.483-.584-.818l.438-.801.386.078-.15-.59Z"/><path fill="#F6F1D7" d="M336.71 347.954c1.385-.042 2.824.058 3.9 1.049.678.625.966 1.22.997 2.153.03.93-.44 1.793-.85 2.598-1.201.778-3.152 1.678-4.631 1.428-.396-.068-.751-.29-1.096-.478l-.377-.201-1.027-1.562c-.264-.565-.202-1.243.014-1.81.59-1.548 1.57-2.505 3.07-3.177Z"/><path fill="#3DD043" d="M342.792 350.5c.535 1.22-.172 2.016.02 3.308.166 1.128-.03 1.474-.438 2.458l-.046.514-.205.346c-.123.326-.087.688-.249 1.062l.168.238c-1.378 1.076-2.831 1.71-4.416 2.414l-.251-.217c-.77.227-.668.55-1.25.942-.028.02-.82.236-.863.26-.168.092-.222.327-.387.427-1.334.81-3.576.686-5.068.906-.928.136-1.682.42-2.638.39l-.448-2.558.514-.991.254-.624c.33-.54.456-.695.58-1.367l.01-.12.084-.914c.164-1.07.624-1.595 1.462-2.228.956.056 1.111.214 1.876.738l.297.074c1.225.14 1.893-.406 2.855-1.055l.377.2c.345.19.7.411 1.096.479 1.479.25 3.43-.65 4.63-1.428.638-.098.934-.478 1.424-.88l.198-.874c.258-.595.336-.838.414-1.5Z"/><path fill="#97E427" d="m334.653 354.503.377.2c.345.19.7.411 1.096.479 1.479.25 3.43-.65 4.63-1.428-.131.674-.765 1.529-1.381 1.869l-.376.126-.453.205c-.697.309-1.283.42-2.034.432-.83.012-1.87.94-2.706 1.206-1.105.352-1.534 1.556-2.668 1.904.409-.492.691-.891.964-1.48-.04-.963-.245-1.64-.6-2.532l.296.074c1.225.14 1.893-.406 2.855-1.055Z"/><path fill="#F6F1D7" d="m328.069 358.008.01-.12.084-.914c.164-1.07.624-1.595 1.462-2.228.956.056 1.111.214 1.876.738.356.892.56 1.569.601 2.532-.273.589-.555.988-.964 1.48-.633.202-1.11.24-1.763.255-.77-.43-.96-.98-1.306-1.743Z"/><path fill="#4282B9" d="m453.54 398.278 49.082-.135c-.291 1.822-.616 3.546-1.3 5.265-2.204 5.535-5.55 10.84-8.214 16.184-2.124 4.262-3.857 9.134-6.345 13.158l-47.707-.298.034-.16 14.244-33.982.206-.032Z"/><path fill="#AC76D5" d="m368.773 398.028 27.713-.117 37.22.195 12.007.022c2.406-.022 5.27-.32 7.621.182l-14.244 33.982c-5.746-.342-11.645-.102-17.41-.131l-34.831-.157c-6.161-.028-12.72.406-18.817-.322 2.703-5.788 5.697-11.562 6.298-18.03.593-6.39-1.565-10.792-5.557-15.624Z"/><path fill="#FE773E" d="M232.86 49.351c3.743-1.158 8.015-1.811 11.902-2.285 7.927-.966 16.04-1.167 23.96-.054l.199.38c.245.446.544.746.9 1.102 9.428 9.432 13.755 28.412 13.704 41.301-.069 17.627-8.449 32.144-20.674 44.237-5.865 5.8-12.712 10.425-19.9 14.407-9.578 5.304-20.114 9.59-30.95 11.388-3.44.57-6.895.831-10.376.938-1.786.054-3.688-.078-5.455.145-7.743-9.76-11.823-21.775-13.16-34.055-.257-2.354-.57-4.636-.569-7.01 1.823-1.386 3.276-3.429 4.76-5.172l7.244-8.673c-.576.025-1.166-.241-1.695-.458-2.377-.974-4.59-2.654-6.625-4.191-.506-.382-1.464-.912-1.848-1.386-.273-.337-.492-1.112-.676-1.53 1.67-7.688 4.558-14.952 8.89-21.546 9.452-14.39 23.481-24.033 40.37-27.538Z"/><defs><linearGradient id="r" x1="356.977" x2="303.48" y1="151.606" y2="98.473" gradientUnits="userSpaceOnUse"><stop offset="0" stop-color="#FAD06B"/><stop offset="1" stop-color="#FBF791"/></linearGradient></defs><path fill="url(#r)" d="M275.401 147.652c2.504-11.532 6.838-22.427 13.336-32.319 14.177-21.586 35.221-36.05 60.554-41.306l.515.385c.972.674 2.133.668 3.257.892a21.28 21.28 0 0 1 4.65 1.504c10.654 4.834 18.699 15.412 21.431 26.704 2.591 10.711.854 21.369-4.957 30.717-8.805 14.164-25.414 22.67-41.257 26.271-9.725 2.21-20.411 2.017-30.176.117-2.997-.583-5.906-1.667-8.903-2.187-1.143-.198-1.297-.195-2.184.57-.864.037-1.749-.362-2.542-.687-3.565-1.461-6.885-3.981-9.937-6.287-.76-.573-2.197-1.368-2.773-2.079-.409-.505-.737-1.667-1.014-2.295Z" transform="scale(.66667)"/><path fill="#FEEDBA" d="M222.879 63.568c.898-.037 2.081-.21 2.948.006.721.18 1.401 1.018 1.686 1.681.615 1.426.261 4.024-.396 5.404-.974 2.047-2.699 3.134-4.76 3.87-.382.136-.726.261-1.086.45-.792.416-1.469.765-2.382.37-.422-.183-.595-.423-1.078-.506l-.277-.028-.284-.44c-.51-.171-.825-.196-1.35-.22-.74-.033-1.539 1.429-2.079 1.915-1.436 1.293-2.53 2.895-3.706 4.416-3.969 5.137-7.11 10.818-10.372 16.418l-1.618 2.456-.186-.36c.261-.35.185-.146.188-.625-.53.26-.628.178-1.194.123-.284-.317-.562-.613-.698-1.026-1.442-4.352 1.734-10.39 3.878-14.09 3.422-5.902 8.845-10.667 14.2-14.79 2.69-2.072 5.222-4.136 8.566-5.024Z"/><defs><linearGradient id="s" x1="513.679" x2="300.675" y1="594.755" y2="441.825" gradientUnits="userSpaceOnUse"><stop offset="0" stop-color="#007916"/><stop offset="1" stop-color="#96EB41"/></linearGradient></defs><path fill="url(#s)" d="m420.818 380.931 28.244-9.834c2.503-.924 5.154-1.414 7.688-2.249 3.197-1.055 6.693-1.453 9.842-2.528l13.97-3.467 9.188-2.239 9.633-2.344c9.134-1.801 19.097-3.588 27.901-6.599-5.843 17.682-8.309 36.557-2.049 54.472l.143.437c4.589 13.55 14.303 25.076 18.886 38.696 2.283 6.784 3.168 14.128 3.77 21.237 1.512 17.853-.369 35.902.809 53.768l.657 8.013c.078.917.373 2.192.004 3.057l-.192.314-3.055-3.523c-1.548-.625-3.013-1.745-4.468-2.585l-6.544-3.381c-3.581-1.317-7.529-2.514-11.342-2.872-5.401-1.4-13.376-2.208-18.704-.569l.226.884-.58-.117-.657 1.201c.701.503.664.296.876 1.228-2.249 1.007-3.718 2.443-4.604 4.765-.325.851-.417 1.867-.022 2.715l1.541 2.343c-1.443.973-2.445 1.792-4.282 1.583l-.445-.112c-1.148-.786-1.381-1.022-2.814-1.107-1.258.95-1.948 1.737-2.193 3.343l-.128 1.372-.014.178c-.186 1.009-.375 1.241-.869 2.051l-.382.936-.77 1.487.672 3.838c1.327 4.519 3.012 9.346 6.103 12.995 2.275 2.059 4.329 4.436 6.721 6.355 4.635 3.716 11.09 6.559 16.672 8.545 2.396 1.205 5.286 1.84 7.356 3.53-5.469.643-11.172.325-16.676.316l-27.141-.036-20.523-.135c-4.688 5.92-9.867 12.5-12.269 19.755-3.488 10.571-4.524 21.9-5.84 32.897-.694 5.794-1.731 11.851-1.477 17.68l-125.513.006-.257-.057-13.341-28.799c-3.182-6.928-6.04-14.959-10.654-21.035-1.436.346-3.067.612-4.436 1.17-1.873-1.147-3.283-2.372-4.342-4.319.014-2.49 1.056-4.557 2.063-6.767 1.698-3.728 3.617-7.585 5.942-10.96l-13.664-.035c2.809-7.499 5.564-13.61 11.726-18.944.749.198 1.981-.057 2.796-.082 2.204-.068 4.713.175 6.819-.515l30.205-.979c.062-4.944.898-9.978 1.572-14.872l4.804-27.372-2.647-1.242c-7.358-2.287-13.828-8.619-17.315-15.314-3.946-7.575-5.406-17.361-2.72-25.547 2.535-7.726 8.875-14.223 16.021-17.884 9.438-4.835 21.07-5.686 31.121-2.485a9.896 9.896 0 0 1 1.7.439c6.602 2.406 12.465 6.492 16.47 12.346 1.735 2.535 3.006 5.396 4.321 8.163l-.326-23.599-10.136-.188c-8.662-.819-19.942-4.766-25.653-11.647-4.016-3.367-6.812-8.593-8.554-13.463-1.138-2.806-1.847-6.174-2.153-9.183-1.035-10.17.818-19.387 5.107-28.599 1.398-3.003 2.832-5.884 4.922-8.471 1.2-.601 2.292-1.487 3.382-2.271 1.346-1.222 2.339-2.082 4.162-2.425 1.073.132 2.186.331 3.265.345l2.105-2.53 1.016-2.935 1.479.001c-.843-1.44-.582-2.253-.489-3.882 5.04.552 10.23.063 15.31.35 1.327.075 3.378-.051 4.594.418 5.591.174 11.808.944 17.09 2.836 6.256 1.236 12.986 5.263 17.397 9.84.76.789 2.101 1.923 2.613 2.868l.132.392 1.204.933Z" transform="scale(.66667)"/><path fill="#F6F1D7" d="M214.02 313.783c.56.516 1.18 1.042 1.621 1.67.607.862 1.076 2.007 2.11 2.422l.124.374-1.652.87c-.809.33-1.482.5-2.348.606-.597-.368-.602-.484-.746-1.185-.352-1.719-.02-3.28.89-4.757Z"/><path fill="#FFD08F" d="M241.978 244.784c.85.475 1.776.88 2.287 1.75.437 1.507-.374 3.769-1.003 5.148-1.079-.324-1.79-1.635-2.543-2.432-.668-.706-.825-.771-1.808-.823l1.404-1.687.677-1.957.986.001Z"/><path fill="#FEEDBA" d="M241.978 244.784c.85.475 1.776.88 2.287 1.75l-.152.629c-1.048.317-2.286.206-3.378.212l-.42-.635.677-1.957.986.001Z"/><path fill="#FBF3BD" d="M219.485 319.26c.938.654 1.561 1.205 1.74 2.385.202 1.337-.138 2.937-.98 4.012-.536.685-1.27 1.02-2.12 1.086-1.136.088-2.054-.105-2.91-.88-.877-.795-1.205-1.857-1.206-3.012 0-.869.26-1.45.884-2.082.442-.447.9-.833 1.478-1.087l.142-.041c.983-.358 1.935-.34 2.972-.38Z"/><path fill="#FEEDBA" d="m214.02 313.783.277-.328c.311-.38.455-.726.63-1.178.32-.827.598-1.628 1.448-2.018 1.522-.7 5.112.142 6.822.37-.66 2.235-1.326 4.4-2.346 6.504-.358.74-1.118 1.42-1.366 2.128-1.037.04-1.989.022-2.972.38l-.142.041-.148-.563 1.652-.87-.124-.374c-1.034-.415-1.503-1.56-2.11-2.423-.44-.627-1.06-1.153-1.622-1.67Z"/><path fill="#12062B" d="M274.125 358.944c2.322 4.39 4.758 8.126 9.208 10.63-1.266.362-2.892.128-4.21.132-2.41.006-5.01.238-7.395-.08l-.037-.883c.943-3.218 1.27-6.65 2.434-9.799Z"/><path fill="#02AA61" d="m279.743 253.332.802.622c.848 1.484 1.818 2.965 2.525 4.519 2.572 5.651 3.69 13.025 2.047 19.061-2.05 7.54-6.638 12.829-13.405 16.623-2.85 1.6-5.659 2.634-8.757 3.632.514 4.82.587 9.647.67 14.49.04 2.342.27 4.952-.096 7.26-.057-.697-.056-1.436-.278-2.102-.139-.417-.122-.498-.062-.937.102-.742-.056-1.391-.062-2.125l.123-3.375c-.626-.94-.253-4.47-.311-5.75l-.062-2.375-.25-.25.096-3.336.027-.289-.373-.375c-.04-.455-.025-.613.188-1.038.248-.499.434-.413.936-.586l.562-.188.687-.124c.356-.154.593-.326 1.001-.438.357-.097.533-.136.882-.312.375-.187.342-.202.742-.312.45-.123.71-.162 1.126-.404.464-.272.976-.349 1.4-.664l.226-.184.373-.186.251-.188c.412-.2.687-.18 1.077-.493.446-.357.891-.775 1.423-1.007.581-.252.93-.683 1.5-1h.374l.626-.75h.374l2.392-2.519.234-.23 1.374-1.252.002-.375.31-.249c.91-1.137-.5.307.451-.65.463-.465.031-.473.24-.85.35-.637.655-.507.873-1.375l.436-.125.252-.626c-.069-.42-.03-.594.062-.999h.438l.186-.374-.498-.252c.39-.39.25-.595.25-1.125.392-.395.306-.713.373-1.25l-.373-.375c.384-.384.23-.847.623-1.375-.319-.4-.2-.189-.373-.625.16-.76-.096-1.404.124-2.124l.126-.376c.138-.53.204-.885.5-1.375.34-.56.25-.857.25-1.5.403-.407.25-.942.25-1.5L285 269l.001-.313-.124-.437.373-.625-.373-.25v-1.25l-.25-.25c.01-.372.02-.71-.055-1.079l-.07-.297-.125-.499c-.289-.55-.248-.394-.188-1l-.312-.375v-.5l-.25-.25v-.5l-.25-.25c-.055-.29-.1-.75-.25-1l-.25-.25c-.172-1.012-.724-1.768-1.126-2.688l-.124-.312-.25-.25-.188-.375-.188-.313-.124-.312c-.5-.8-.797-1.375-1.134-2.293Z"/><path fill="#F6F1D7" d="M233.96 249.813c.897-.814 1.56-1.388 2.775-1.616.715.088 1.457.22 2.176.23.983.052 1.14.117 1.808.823.754.797 1.464 2.108 2.543 2.432 1.155.353 2.196.864 3.113 1.653l-.074.44-.676.442c-1.056.084-1.283.084-2.233-.365l-.327.148-.266 4.73c-1.268-.921-2.398-1.843-3.38-3.077l-.186-.238c-1.092.871-2.5 2.202-3.858 2.564l-.406-.354c-.083-1.832.487-3.62.834-5.414-.514-.912-1.148-1.624-1.843-2.398Z"/><path fill="#130730" d="M235.601 342.87c.41-.057.424.022.774.208.086 2.328.487 4.649.786 6.958.856 6.616 2.14 12.988 3.7 19.47l-7.346.194-5.646.299c.985-3.759 1.298-7.646 1.7-11.499l1.684-15.517 4.348-.113ZM255.503 330.813l-3.566 38.466-4.498.067-.496-3.666-4.533-24.176-.087-.296c5.94-2.11 10.284-4.586 13.18-10.395Z"/><path fill="#FB436A" d="m248.904 384.218 59.94.378c-3.125 3.946-6.578 8.333-8.18 13.17l-75.185-.082-18.528.058c-3.57.015-7.456-.255-10.978.329l-.03.156c-.957.23-2.044.408-2.957.78-1.249-.765-2.189-1.581-2.895-2.88.01-1.66.704-3.037 1.376-4.51 1.132-2.486 2.411-5.057 3.961-7.307l53.476-.092Z"/><path fill="#3DD043" d="M284.528 331.598c.471.313 1.159.895 1.68 1.057 1.603 1.055 3.465 1.608 5.247 2.287l5.234.28c1.002-.047 2.497-.288 3.432.062 1.266.476 3.186.12 4.585.347 1.076-.638 2.865-.923 4.08-1.308 3.82 1.587 7.565 3.006 11.28 4.875l13.874 7.462 2.86-.836.15.589-.386-.078-.438.8c.467.336.442.198.584.82-1.5.67-2.48 1.628-3.07 3.176-.216.567-.278 1.245-.014 1.81l1.027 1.562c-.962.649-1.63 1.195-2.855 1.055l-.297-.074c-.765-.524-.92-.682-1.876-.738-.838.633-1.298 1.158-1.462 2.228l-.085.915-.01.119c-.123.672-.25.827-.579 1.367l-.254.624-.514.991.448 2.559c.885 3.013 2.008 6.23 4.07 8.663-1.667.132-3.826-.67-5.523-.932-2.275-.35-4.603-.537-6.897-.707-4.41-.326-9.284.561-13.59-.224-2.272.619-4.566 1.057-6.915 1.248-4.276.349-9.623-.02-13.63-1.62-.373-.148-.639-.259-1.041-.347l-.31-.055c-4.45-2.505-6.886-6.241-9.208-10.63l.06-1.05-.34-3.252c-.402-5.602 2.112-10.383 5.688-14.5.161-.956 1.052-1.877 1.555-2.72l3.44-5.825Z"/><path fill="#130730" d="M284.528 331.598c.471.313 1.159.895 1.68 1.057 1.603 1.055 3.465 1.608 5.247 2.287-4.634.655-8.246 2.314-11.922 5.202.161-.957 1.052-1.878 1.555-2.722l3.44-5.824Z"/><path fill="#12062B" d="M308.785 334.323c3.821 1.587 7.566 3.006 11.28 4.875l13.875 7.462 2.86-.836.15.589-.386-.078-.438.8c.467.336.442.198.584.82-1.5.67-2.48 1.628-3.07 3.176-.216.567-.278 1.245-.014 1.81l1.027 1.562c-.962.649-1.63 1.195-2.855 1.055l-.297-.074c-.765-.524-.92-.682-1.876-.738-.838.633-1.298 1.158-1.462 2.228l-.085.915-.01.119c-.123.672-.25.827-.579 1.367l-.254.624-.514.991.448 2.559c.885 3.013 2.008 6.23 4.07 8.663-1.667.132-3.826-.67-5.523-.932-2.275-.35-4.603-.537-6.897-.707-4.41-.326-9.284.561-13.59-.224l2.021-1.07c4.31-2.547 7.253-7.579 8.497-12.323 1.314-5.005.83-10.463-1.893-14.907-2.037-3.325-5.433-5.455-9.148-6.418 1.076-.638 2.865-.923 4.08-1.308Z"/><path fill="#94D01F" d="m333.94 346.66 2.86-.836.15.589-.386-.078-.438.8c.467.336.442.198.584.82-1.5.67-2.48 1.628-3.07 3.176-.216.567-.278 1.245-.014 1.81l1.027 1.562c-.962.649-1.63 1.195-2.855 1.055l-.297-.074c-.765-.524-.92-.682-1.876-.738-.838.633-1.298 1.158-1.462 2.228l-.085.915-.01.119c-.123.672-.25.827-.579 1.367l-.254.624-.514.991c-.166-1.778-.229-3.546.106-5.312.786-4.145 3.747-6.82 7.113-9.018Z"/><path fill="#DD4E81" d="m195.943 398.227.03-.156c3.522-.584 7.407-.314 10.978-.329l18.528-.058 75.186.082c-2.326 7.047-3.016 14.6-3.894 21.93-.462 3.864-1.154 7.902-.984 11.788l-83.676.004-.17-.038-8.895-19.2c-2.121-4.618-4.027-9.972-7.103-14.023Z"/><path fill="#35164B" d="m280.545 253.954 18.83-6.556c1.668-.616 3.436-.943 5.125-1.5 2.131-.703 4.462-.968 6.561-1.685l9.314-2.31 6.125-1.494 6.422-1.562c6.09-1.2 12.732-2.392 18.6-4.4-3.894 11.788-5.538 24.372-1.365 36.315l.095.291c3.06 9.034 9.536 16.718 12.59 25.798 1.523 4.522 2.113 9.418 2.514 14.158 1.008 11.902-.246 23.935.54 35.845l.438 5.342c.052.612.248 1.462.002 2.038l-.128.21-2.036-2.35c-1.032-.416-2.01-1.162-2.98-1.722l-4.362-2.254c-2.387-.878-5.02-1.676-7.561-1.915-3.6-.933-8.917-1.472-12.47-.38l-2.86.837-13.874-7.462c-3.714-1.87-7.459-3.288-11.28-4.875-1.214.385-3.003.67-4.079 1.308-1.399-.227-3.32.13-4.585-.347-.935-.35-2.43-.11-3.432-.061l-5.234-.28c-1.782-.68-3.644-1.233-5.247-2.288-.521-.162-1.209-.744-1.68-1.057-.69-.913-2.891-3.333-3.936-3.564-6.217 7.553-8.876 18.147-11.69 27.329-1.147 3.74-2.507 7.615-3.295 11.447l-.757 2.908-5.218-.291 3.897-49.889c.365-2.307.136-4.917.096-7.26-.083-4.842-.156-9.669-.67-14.489 3.098-.998 5.907-2.033 8.757-3.632 6.767-3.794 11.354-9.084 13.405-16.623 1.642-6.036.525-13.41-2.047-19.061-.707-1.554-1.677-3.035-2.525-4.519Z"/><defs><linearGradient id="t" x1="469.053" x2="493.988" y1="510.476" y2="423.829" gradientUnits="userSpaceOnUse"><stop offset="0" stop-color="#18C531"/><stop offset="1" stop-color="#00E9C7"/></linearGradient></defs><path fill="url(#t)" d="M418.344 454.056c.859-2.121 2.188-4.032 3.689-5.746 7.213-8.237 17.948-11.826 28.564-12.594-.366-9.559-2.252-17.339-6.062-26.086l7.342 2.515.401.111c8.613 2.17 17.081 4.334 25.394 7.508 5.155 1.968 10.041 4.475 15.013 6.85 9.256 4.016 18.795 10.847 25.126 18.695 5.441 6.743 9.362 14.654 12.539 22.679 5.986 15.117 8.936 31.33 12.522 47.127.982 4.324 2.69 8.688 3.385 13.027-1.548-.625-3.013-1.745-4.468-2.585l-6.544-3.381c-3.581-1.317-7.529-2.514-11.342-2.872-5.401-1.4-13.376-2.208-18.704-.569l-4.29 1.255-20.811-11.194c-5.571-2.803-11.189-4.932-16.92-7.312-1.822.578-4.505 1.005-6.119 1.962-2.098-.34-4.979.194-6.878-.52-1.402-.526-3.644-.164-5.147-.092l-7.851-.421c-2.674-1.019-5.467-1.849-7.871-3.43-.782-.244-1.813-1.117-2.52-1.586-1.035-1.37-4.337-5-5.904-5.346-2.057-2.059-3.627-6.145-4.434-8.899-2.543-8.671-2.513-21.03 1.89-29.096Z" transform="scale(.66667)"/><path fill="#15CA62" d="m321.26 304.994 1.059 1.977c-.108.354-.259.564-.138.921 1.606 4.756.305 11.166-1.926 15.508-2.489 4.843-6.765 8.316-11.473 10.904l.003.019c-1.214.385-3.003.67-4.079 1.308-1.399-.227-3.32.13-4.585-.347-.935-.35-2.43-.11-3.432-.061l-5.234-.28c-1.782-.68-3.644-1.233-5.247-2.288l.703.067c.45.031.776.031 1.183.283.401.25.645.425 1.118.535.506.119.28.024.653.193.648.294 1.065.39 1.783.396l.227-.001.375.247c.604-.016 1.246-.101 1.813.125.58.232 1.564.238 2.187.189l.375-.061c.446.002.688.148 1.172.069l.328-.07.5.373c1.664-.364 3.78-.13 5.5-.122l.864-.907c.472-.441 1.082-.762 1.745-.692l.243.043c.63-.032.853-.626 1.176-1.083.67.162 1.18.03 1.834-.11.507-.602.912-.994 1.701-1.168.963-.212 1.905-1.114 2.59-1.813l.432-.422c1.386-.74 3.322-2.235 4.041-3.663l.126-.313.248-.373c.333-.558.693-1.104.95-1.703.238-.553.104-.313.418-.853l.196-.32c-.084-.51.03-.576.312-1 .447-.67.415-1.376.626-2.126.11-.385.196-.584.23-1.004l.02-.37c.486-.732.31-1.648.312-2.5v-.75c-.02-.336-.068-.592-.035-.93.035-.353.068-.716.035-1.07-.066-.706.082-1.592-.062-2.25l-.17-.416-.08-.46c-.336-.854.001-.328-.048-1-.032-.444-.574-1.038-.674-1.5-.056-.264.078-.84.105-1.13Z"/><path fill="#97E427" d="M301.519 274.837c5.742 1.447 11.387 2.89 16.93 5.006 3.436 1.312 6.693 2.983 10.008 4.566l.004.238c.074 1.567 1.446 2.971 2.028 4.478.97 2.518 1.428 5.05 1.535 7.741l-5.778-2.805c-6.826-5.112-15.273-8.246-21.481-14.229-1.446-1.393-3.204-2.926-3.246-4.995Z"/><path fill="#02AA61" d="M328.457 284.41c6.17 2.677 12.53 7.23 16.75 12.463 3.628 4.495 6.242 9.77 8.36 15.12 3.99 10.077 5.957 20.886 8.348 31.417.655 2.883 1.793 5.792 2.257 8.685-1.032-.417-2.01-1.163-2.98-1.723l-4.362-2.254c-.61-.713-1.384-1.27-1.972-2.01-1.605-2.017-2.876-4.504-4.22-6.71-3.07-5.038-6.774-10.062-11.388-13.801-.68-.552-1.206-1.126-1.774-1.788 1.374.542 2.16 1.46 3.256 2.38 4.525 3.798 7.772 8.761 10.83 13.749 1.452 2.366 2.619 4.792 4.624 6.746l-.896-2.265c-.266-.67-.681-1.233-.912-1.919l-1-2.5-.25-.75-1.25-3.25-1.896-4.732-.104-.268-.5-1.5-.171-.415-.08-.46c-.099-.253-.283-.469-.369-.726-.134-.404-.324-.756-.468-1.15-.216-.59-.341-1.066-.662-1.624l-.421-.75c-.21-.634-.736-1.542-.803-2.148-.136-1.232-1.018-2.844-1.54-3.977-2.76-5.993-6.162-11.634-10.794-16.374l-4.49-4.39c-1.113-1.033-2.342-1.966-3.206-3.229l-.128-.196 5.778 2.805c-.107-2.691-.565-5.223-1.535-7.74-.582-1.508-1.954-2.912-2.028-4.479l-.004-.238Z"/><path fill="#00865D" d="m308.785 334.323-.003-.019c4.708-2.588 8.984-6.061 11.473-10.904 2.231-4.342 3.532-10.752 1.926-15.508-.12-.357.03-.567.138-.921 3.987 6.453 9.43 11.918 15.157 16.838.568.662 1.094 1.236 1.774 1.788 4.614 3.74 8.318 8.763 11.389 13.802 1.343 2.205 2.614 4.692 4.219 6.71.588.74 1.362 1.296 1.972 2.009-2.387-.878-5.02-1.676-7.561-1.915-3.6-.933-8.917-1.472-12.47-.38l-2.86.837-13.874-7.462c-3.714-1.87-7.459-3.288-11.28-4.875Z"/></svg>