<svg xmlns="http://www.w3.org/2000/svg" width="512" height="512"><path fill="#001A33" d="M342.519 28.497c13.463-.172 18.13-.337 18.242 14.767l.05 7.892c3.133.434 6.666.087 9.858.09l21.585.004-.006-8.603c.009-4.826.471-11.252 5.868-13.238l.509-.18c2.674-1.171 5.756-.724 8.608-.731l20.601-.01c11.362.02 11.913 3.589 12.353 14.341l.523 7.492 18.51.131c9.317.019 14.768.402 22.713 6.377l1.287.978c7.1 5.627 11.658 14.213 12.689 23.17l.252 354.548c-.003 4.55.227 9.33-.298 13.852-1.869 16.121-14.074 28.542-30.172 30.743-4.282.586-8.807.358-13.12.362l-328.196-.003-66.344.005c-7.139-.002-12.39.22-19.156-2.246-12.587-4.587-21.475-16.263-22.87-29.62-.693-6.633-.3-13.608-.303-20.283L15.7 91.589c.007-19.159 8.263-38.33 29.675-40.897 3.947-.473 8.018-.281 11.988-.265l14.751.056c1.59-5.91-3.018-16.416 4.648-20.929l.314-.179c2.744-1.606 6.935-.879 9.982-.884l22.245.01c4.373.012 7.152.156 9.884 4.216l.267.401c1.387 2.058 1.052 5.842 1.064 8.275l.01 9.757 31.721.101v-9.61c.011-4.67.155-9.188 4.774-11.818l.353-.195c4.249-2.422 14.527-1.121 19.445-1.127 7.503-.008 16.566-2.345 21.52 3.647l.285.352c2.4 2.887 1.908 6.5 1.923 10.006l.016 8.745 31.53-.001c.411-1.231.356-2.577.39-3.866l.011-7.085c-.064-10.402 4.795-11.772 14.601-11.796l20.96-.003c5.471.013 10.441.439 12.192 6.867l.101.383c.607 2.15.468 4.336.472 6.55l.051 8.949h31.362c.066-16.037-1.781-22.704 15.55-22.744l14.735-.008Z"/><path fill="#00466D" d="m410.644 45.532 4.855 1.485c.984 10.433.486 26.331-1.953 36.108-.198.604-.162.942-.796 1.192-3.692 1.46-2.622-4.215-2.618-6.034l.512-32.75ZM328.815 47.302l4.158 1.28c2.139.602 4.701.088 6.898-.117l.349 35.725-10.252.034c-.651-.955-.452-3.32-.467-4.513l-.134-11.586c-.052-2.104-.421-4.18-.483-6.27l-.069-14.553ZM90.158 46.047l10.383.445.78 37.514-10.86.095c-.496-4.124-.178-8.563-.178-12.721l-.125-25.333ZM249.138 45.888c3.974.365 7.117.776 11.289.61.282.996.128 2.294.131 3.327l.019 34.466-10.587-.077c-.648-.774-.755-34.298-.852-38.326ZM169.431 46.653c3.779 1.093 6.985 1.304 11.055.811l.695 36.752-11.576-.016-.174-37.547Z"/><path fill="#FB3C4F" d="m440.971 66.13 17.12.21c2.395.01 5.185-.181 7.534.302 15.58 3.205 14.603 19.258 14.615 31.35l-.001 23.477-448.28.446.036-21.83c.006-5.214-.101-10.39.396-15.585 1.594-16.675 14.288-17.081 27.595-17.117 4.198-.012 8.41-.23 12.597.146.407 6.937-.864 23.4.874 29.098l.577 1.248c1.853 3.551 9.366 2.624 12.533 2.626l22.794-.032c3.33-.017 9.744.405 10.93-3.724l.084-.321c.706-2.662.221-6.407.212-9.207l-.062-19.21 32.297.044c.517 6.28.13 12.908.168 19.228.078 12.828 1.406 13.013 15.266 13.204l15.672.042c13.486 0 16.831 1.385 16.681-13.826l-.075-18.802 30.168.854c2.422.236 1.845.386 1.851 2.818l.036 14.57c.039 10.256.077 13.838 11.601 14.278l18.658.087c4.103.008 8.836.521 12.83-.258 6.956-1.357 5.184-7.921 5.143-13.152l-.048-19.503c1.296.398 2.805.31 4.155.327l7.73.026c6.829.016 13.714-.151 20.518.506.483 5.322.071 11.032.079 16.394.018 11.476-.304 14.894 12.558 15.553l16.251.083c3.963-.001 8.361.337 12.267-.235 8.312-1.219 6.486-9.124 6.455-15.351l.083-17.423 27.521.666c.492.036 4.449.277 4.616.46.192.21-.367 23.874.341 26.678.878 3.471 5.114 5.048 8.298 5.177l29.467.057c2.415-.01 5.658.431 7.5-1.497 3.015-3.155 2.343-14.25 2.35-18.538l.009-14.344Z"/><path fill="#fff" d="m31.965 138.025 448.011.251-.032 295.098c-.016 9.092 1.015 18.097-5.463 25.451-2.027 1.832-4.086 3.176-6.692 4.056l-.414.138c-2.497.852-4.762.922-7.375.932l-396.37.043c-5.08-.002-10.386.298-15.438-.237-7.97-.845-15.107-8.983-16.007-16.728-.448-3.849-.237-7.862-.235-11.736l.015-297.268Z"/><path fill="#CED9DD" d="m385.457 421.789 3.727-3.61c2.631.515 5.427.295 8.079.289l9.31.316c2.105.091 8.475.937 9.804.841l.07-.946 3.708 3.849c-4.349.778-9.402.044-13.841-.008l-12.133-.087c-2.849-.017-5.989.228-8.724-.644Z"/><path fill="#00466D" d="M84.516 416.603c3.211 1.08 8.431 1.145 11.7.146-.939 4.537-.692 9.762-.601 14.445-2.94-1.194-7.628-.539-10.56-.136 1.614-7.824-.055-8.046-.51-13.944l-.03-.511Z"/><path fill="#001A33" d="M401.018 382.086c12.15.679 14.581 15.074 3.217 17.689-13.921.022-14.996-16.314-3.217-17.689ZM97.81 201.534c4.917-.336 10.326 4.722 11.521 9.167 1.177 4.378-3.416 9.815-7.488 10.779-11.641-.867-16.077-14.799-4.032-19.946ZM438.108 166.304c15.221-1.487 20.091 14.469 5.765 17.586-15.018 3.347-21.832-14.336-5.765-17.586ZM85.055 431.058c-5.19.712-11.175 2.133-16.336.732-14.144-3.84-5.208-22.213 15.797-15.187l.03.511c.454 5.898 2.123 6.12.509 13.944ZM66.832 175.298c4.97-.485 6.825 1.815 10.451 4.946 5.562 4.802 12.373 10.3 16.267 16.593-1.639 3.607-4.354 5.637-7.62 7.683l-.698.333c-1.694.719-2.665.826-4.38.072-7.457-3.278-30.714-23.229-14.02-29.627ZM114.65 218.249c4.846 1.12 8.936 5.664 12.58 8.793l6.888 6.103c7.554 7.007 7.513 12.817-2.504 16.96-6.399 1.79-17.574-12.991-20.739-17.288-5.155-6.998-5.75-10.648 3.775-14.568ZM369.815 353.293c1.328-.195 2.799-.25 4.098.14 4.237 1.27 20.271 16.863 22.462 21.028 2.28 4.333-2.27 7.285-5.685 8.874-7.348 2.316-11.147-3.922-16.049-8.476-4.287-3.984-13.427-9.697-10.344-16.7 1.157-2.626 2.878-3.876 5.518-4.866ZM431.899 351.768l1.351-.055c4.83.288 8.439 6.59 7.918 10.981-2.581 4.369-19.207 20.667-23.512 22.558-4.892-.02-10.821-6.113-9.11-11.002.728-2.082 2.351-3.814 3.858-5.375l7.313-6.997c3.761-3.519 7.52-7.838 12.182-10.11ZM416.447 418.679c-3.84-4.065-8.258-8.511-8.993-14.297 1.114-3.37 4.473-6.331 7.948-7.19 2.607 1.02 4.738 2.796 6.854 4.589l9.994 9.349c2.597 2.473 6.782 5.621 8.234 8.89 2.485 5.596-4.177 13.165-9.952 10.488-3.765-1.746-7.436-5.099-10.377-7.98l-3.708-3.849ZM83.625 215.293c4.187-.203 9.122 3.838 10.112 7.794l.065.288c.596 2.469-1.613 4.395-3.16 6.024l-6.733 6.673c-3.878 3.941-8.62 10.551-13.823 12.641-4.048.985-8.61-1.461-9.879-5.484-1.584-5.027 2.582-8.867 5.83-12.058l6.383-6.382c3.477-3.612 6.267-7.863 11.205-9.496ZM129.585 173.274c8.098-.332 12.371 8.575 6.707 14.772-2.659 2.909-5.884 5.303-8.727 8.031-3.078 2.953-8.93 11.028-13.44 11.221l-.773-.199c-3.42-1.17-10.006-7.695-8.105-11.849.738-1.613 2.304-3.052 3.562-4.269l10.021-8.853c3.37-3.113 6.338-7.198 10.755-8.854ZM70.132 303.821l22.113-.039c1.139.016 2.537-.036 3.625.336l.255.093c9.259 3.205 6.737 14.784-.454 16.164l-1.845.247-15.329-.09c-3.496-.013-9.5.67-12.486-1.119-8.409-5.039-4.241-14.401 4.12-15.592ZM369.376 208.336c5.664-.43 17.702-.504 23.055.148l.444.058c1.086.122 1.789.246 2.754.798l1.122.634c8.025 4.787 3.714 13.694-4.188 15.258-4.627.385-9.397.188-14.042.194-6.745.01-16.926.759-17.926-8.347-.606-5.518 3.949-8.186 8.781-8.743ZM81.089 345.857l14.06-.005c5.26.342 11.023 9.83 4.436 14.774l-.337.249c-2.442 1.87-5.784 1.626-8.732 1.645l-8.637.023-9.397-.004c-4.127-.014-11.828-2.621-11.917-7.289-.145-7.689 7.093-9.354 13.134-9.378l7.39-.015ZM427.749 279.816l9.753-.02c5.824-.003 12.819-.499 14.225 6.856l.06.348c1.882 10.221-10.269 9.779-16.475 9.781l-12.409-.006c-1.861-.003-4.165.218-5.986-.202-6.929-1.596-8.13-9.15-3.199-14.19 3.431-3.507 9.498-2.548 14.031-2.567ZM421.807 239.136l15.107.04c5.642-.036 13.675-.768 14.351 7.699.531 6.651-5.704 8.842-11.134 9.064l-14.567-.069c-2.747-.005-6.784.497-9.278-.522l-.286-.122c-9.115-3.761-8.288-15.695 3.67-16.248.688-.032 1.534-.207 2.137.158ZM385.457 421.789c-4.466 4.393-11.484 12.075-18.374 7.7-7.957-5.053-2.323-11.594 2.581-16.206l7.426-6.925c2.806-2.702 5.445-5.783 8.512-8.187 5.934-4.652 12.89 3.237 12.714 6.707-.271 5.359-5.59 9.851-9.132 13.301l-3.727 3.61ZM117.792 378.325l24.257-.113c12.501.014 14.077 15.516 2.763 16.514l-19.125-.021c-3.176-.003-6.723.293-9.853-.221-10.943-1.798-7.728-14.684 1.958-16.159ZM395.568 166.691c5.851-.062 12.254-1.248 16.798 3.221 4.899 4.818 1.661 12.03-4.82 13.23-1.525.282-3.3.114-4.856.103l-39.128-.034-6.583.004c-17.257-.031-14.934-14.698-4.792-16.26 4.559-.703 9.773-.249 14.414-.253l28.967-.011ZM96.215 416.698c1.858-.282 3.742-.582 5.618-.639l67.211-.028c3.37-.013 7.613-.519 10.831.404l.354.096c3.983 1.13 6.99 5.464 5.826 9.594l-.08.29c-2.332 7.983-11.99 6.072-18.292 6.045l-65.058-.155c-2.418-.127-4.835-.556-7.205-1.034.104-4.76-.143-9.985.795-14.573Z"/><path fill="#001A33" d="m302.874 165.794.774-.026c7.577-.072 8.737 6.944 8.656 12.576l-.16 44.31c1.792.326 3.927.122 5.757.126l12.35-.046c1.96-.015 4.214-.267 6.087.37l1.119.406c2.254.859 4.758 2.651 5.711 4.922l.127.318c.719 1.752.46 3.877.454 5.75l-.069 36.362 31.883-.208c1.386-.012 2.947-.148 4.312.087 7.666 1.32 8.264 15.519-1.372 16.932-4.046.594-8.379-.303-12.439-.416l-22.391-.121.09 31.963 33.281-.003c16.97-.015 12.36 16.056 3.706 17.1-3.308.398-7.14-.136-10.514-.151l-26.425-.13c-.255.456-.146 1.136-.145 1.664l.081 29.328c.043 2.642.411 5.513.114 8.117-1.031 9.05-10.896 8.893-17.316 8.8-4.668-.067-9.464 0-14.104-.553l-.369 25.241 17.762-.081c2.355-.026 5.198-.36 7.512.05 9.97 1.767 7.924 16.053-3.486 16.212l-21.702.049c-16.402.018-16.515.223-16.472-18.283l-.017-22.569c-1.021-.204-2.221-.09-3.267-.091l-28.01-.095.065 45.675c.026 1.694.216 3.577-.028 5.246-1.381 9.442-14.403 10.03-16.502.324-.325-1.501-.153-3.279-.152-4.82l.031-46.194-31.244-.111c-.28.82-.174 1.766-.179 2.629l.021 44.23c.039 5.198-.823 8.003-5.833 10.732-8.417 2.436-10.67-5.97-10.631-12.293l.06-44.851c-2.14-.603-4.946-.417-7.174-.431l-12.608-.083c-1.961-.069-4.702-.137-6.438-1.103l-.28-.163c-7.543-4.074-5.49-14.42-5.494-21.51l-.001-25.372-22.803.001c-3.463-.002-7.763.442-11.152-.229-9.271-1.835-9.447-16.385 3.167-16.289l30.736.08.083-31.966-31.101.096c-4.659-.007-10.826-2.325-10.603-7.89.303-7.573 6.064-8.724 12.09-8.716l8.079.029c7.13.028 14.387-.243 21.498.193.21-3.545.026-7.197.018-10.752l-.047-19.323c-.083-16.995 1.971-18.097 17.905-18.05l14.112-.011.046-31.035c-4.774-1.43-22.479 1.414-26.281-1.021-8.414-5.39-6.018-15.317 3.333-16.051 4.169-.327 8.564-.037 12.753-.046l12.859-.025c2.289 0 5.419-.36 7.566.465l.362.15c5.685 2.304 5.753 4.435 5.745 9.663l-.091 37.958 31.541.064-.058-44.455c-.006-1.472-.165-3.111.139-4.548l.065-.276c2.2-9.633 14.236-9.501 16.561.104.311 1.284-.036 3.141-.082 4.487l-.017 44.578 31.198.074c.22-1.058.101-2.249.099-3.334l-.023-32.963c-.005-8.021-2.394-17.43 7.172-20.777Z"/><path fill="#32FAE2" d="m305.85 239.163 21.948.036.023 128.212-143.395-.106-.026-10.726 42.119-.072c5.24-.122 10.444-1.018 15.682-1.009l36.491-.062c9.044.013 18.296.47 27.277-.706l-.119-115.567Z"/><path fill="#fff" d="m184.415 356.621-.006-117.416 121.21.035.35 115.49c-8.981 1.176-18.233.719-27.277.706l-36.491.062c-5.238-.009-10.442.887-15.682 1.009l-42.104.114Z"/><path fill="#001A33" d="M254.898 251.057c7.898-.386 9.553 5.832 12.878 11.68l17.915 30.504c2.69 4.475 5.412 8.772 7.003 13.78-1.242 2.517-3.203 4.595-5.054 6.674l-5.826 6.861c-5.749 7.241-16.36 24.619-24.655 28.305-6.547 1.435-16.354-14.816-20.225-19.552l-8.878-10.805c-5.648-6.747-11.214-9.486-6.634-17.932 4.137-7.628 9.18-14.848 13.649-22.297l9.817-16.409c2.643-4.294 4.794-9.267 10.01-10.809Z"/><path fill="#00D84A" d="M240.429 307.842c-.781-.959-1.727-1.932-2.324-3.011 2.605-5.781 5.928-11.096 9.261-16.47l9.303-14.944 10.732 19.928c2.069 3.766 4.784 7.534 6.174 11.609l-17.198 23.194-2.982-4.264c-4.307-5.416-9.198-10.195-12.966-16.042Z"/><path fill="#00AE69" d="M240.429 307.842c4.444 1.511 14.111 11.554 12.966 16.042-4.307-5.416-9.198-10.195-12.966-16.042Z"/></svg>