<?xml version="1.0" encoding="utf-8" ?>
<svg xmlns="http://www.w3.org/2000/svg" xmlns:xlink="http://www.w3.org/1999/xlink" width="512" height="512">
	<path fill="#001A33" d="M342.519 28.4967C355.982 28.3246 360.649 28.1604 360.761 43.2643L360.811 51.1563C363.944 51.5901 367.477 51.2435 370.669 51.2453L392.254 51.2499L392.248 42.647C392.257 37.8214 392.719 31.3951 398.116 29.4085L398.625 29.2286C401.299 28.0579 404.381 28.5053 407.233 28.4977L427.834 28.4886C439.196 28.5084 439.747 32.077 440.187 42.8292L440.71 50.3214L459.22 50.4521C468.537 50.4705 473.988 50.8537 481.933 56.8286L483.22 57.8074C490.32 63.4343 494.878 72.0196 495.909 80.9766L496.161 435.525C496.158 440.075 496.388 444.855 495.863 449.377C493.994 465.498 481.789 477.919 465.691 480.12C461.409 480.706 456.884 480.478 452.571 480.482L124.375 480.479L58.0305 480.484C50.8922 480.482 45.6417 480.704 38.875 478.238C26.2884 473.651 17.3996 461.975 16.0046 448.618C15.3119 441.985 15.7054 435.01 15.7024 428.335L15.6991 91.5885C15.706 72.4304 23.9622 53.2597 45.3742 50.6921C49.3206 50.2189 53.3917 50.4106 57.3621 50.4267L72.1133 50.4831C73.7039 44.5734 69.095 34.0671 76.7615 29.554L77.0754 29.375C79.8191 27.7686 84.0101 28.4964 87.0568 28.4909L109.302 28.5005C113.675 28.5128 116.454 28.6571 119.186 32.7172L119.453 33.1184C120.84 35.1759 120.505 38.9603 120.517 41.3927L120.527 51.1498L152.248 51.2513L152.248 41.6406C152.259 36.9709 152.403 32.4525 157.022 29.823L157.375 29.6275C161.624 27.2064 171.902 28.5069 176.82 28.5014C184.323 28.493 193.386 26.1563 198.34 32.1484L198.625 32.5002C201.025 35.3871 200.533 39.0002 200.548 42.5056L200.564 51.2509L232.094 51.25C232.505 50.0188 232.45 48.6728 232.484 47.3836L232.495 40.2993C232.431 29.8968 237.29 28.5269 247.096 28.5025L268.056 28.5004C273.527 28.5128 278.497 28.939 280.248 35.3667L280.349 35.75C280.956 37.9001 280.817 40.0859 280.821 42.2997L280.872 51.2488L312.234 51.2499C312.3 35.2125 310.453 28.5447 327.784 28.505L342.519 28.4967Z"/>
	<path fill="#00466D" d="M410.644 45.5323L415.499 47.017C416.483 57.4502 415.985 73.348 413.546 83.125C413.348 83.7289 413.384 84.0668 412.75 84.3173C409.058 85.7769 410.128 80.1016 410.132 78.283L410.644 45.5323Z"/>
	<path fill="#00466D" d="M328.815 47.3022L332.973 48.5827C335.112 49.1837 337.674 48.6701 339.871 48.4652L340.22 84.19L329.968 84.224C329.317 83.2688 329.516 80.9037 329.501 79.7112L329.367 68.125C329.315 66.0211 328.946 63.9446 328.884 61.8548L328.815 47.3022Z"/>
	<path fill="#00466D" d="M90.1578 46.0469L100.541 46.4917L101.321 84.0064L90.461 84.1009C89.9649 79.9772 90.2833 75.5381 90.2825 71.3799L90.1578 46.0469Z"/>
	<path fill="#00466D" d="M249.138 45.8884C253.112 46.2531 256.255 46.6635 260.427 46.4981C260.709 47.494 260.555 48.7919 260.558 49.8254L260.577 84.2912L249.99 84.2141C249.342 83.4398 249.235 49.9155 249.138 45.8884Z"/>
	<path fill="#00466D" d="M169.431 46.6525C173.21 47.7459 176.416 47.9569 180.486 47.4641L181.181 84.2155L169.605 84.2L169.431 46.6525Z"/>
	<path fill="#FB3C4F" d="M440.971 66.1303L458.091 66.3399C460.486 66.3504 463.276 66.1588 465.625 66.6419C481.205 69.8465 480.228 85.9003 480.24 97.992L480.239 121.469L31.9596 121.915L31.9951 100.085C32.0005 94.8709 31.8939 89.6942 32.3907 84.5C33.9853 67.8254 46.6794 67.4188 59.9855 67.3826C64.1841 67.3711 68.3956 67.1532 72.5831 67.529C72.9901 74.4663 71.7193 90.9287 73.4572 96.6272L74.0342 97.875C75.8874 101.426 83.3999 100.499 86.5668 100.501L109.361 100.469C112.691 100.452 119.105 100.874 120.291 96.7447L120.375 96.4236C121.081 93.7624 120.596 90.0175 120.587 87.2167L120.525 68.0079L152.822 68.0509C153.339 74.3308 152.952 80.9591 152.99 87.2788C153.068 100.107 154.396 100.292 168.256 100.483L183.928 100.525C197.414 100.525 200.759 101.91 200.609 86.6991L200.534 67.8973L230.702 68.7511C233.124 68.987 232.547 69.1367 232.553 71.5688L232.589 86.1381C232.628 96.3948 232.666 99.9772 244.19 100.417L262.848 100.504C266.951 100.512 271.684 101.025 275.678 100.246C282.634 98.8887 280.862 92.3247 280.821 87.0939L280.773 67.5911C282.069 67.989 283.578 67.9019 284.928 67.9183L292.658 67.9439C299.487 67.9601 306.372 67.793 313.176 68.4502C313.659 73.7721 313.247 79.4824 313.255 84.8435C313.273 96.3203 312.951 99.738 325.813 100.397L342.064 100.48C346.027 100.479 350.425 100.817 354.331 100.245C362.643 99.0262 360.817 91.1214 360.786 84.8938L360.869 67.4708L388.39 68.1372C388.882 68.1726 392.839 68.4144 393.006 68.5961C393.198 68.8061 392.639 92.4713 393.347 95.2745C394.225 98.746 398.461 100.323 401.645 100.452L431.112 100.509C433.527 100.499 436.77 100.94 438.612 99.0122C441.627 95.8566 440.955 84.7621 440.962 80.4742L440.971 66.1303Z"/>
	<path fill="white" d="M31.9649 138.025L479.976 138.276L479.944 433.374C479.928 442.466 480.959 451.471 474.481 458.825C472.454 460.657 470.395 462.001 467.789 462.881L467.375 463.019C464.878 463.871 462.613 463.941 460 463.951L63.6297 463.994C58.5501 463.992 53.2437 464.292 48.1919 463.757C40.2224 462.912 33.0846 454.774 32.1846 447.029C31.7372 443.18 31.9476 439.167 31.9499 435.293L31.9649 138.025Z"/>
	<path fill="#CED9DD" d="M385.457 421.789L389.184 418.179C391.815 418.694 394.611 418.474 397.263 418.468L406.573 418.784C408.678 418.875 415.048 419.721 416.377 419.625L416.447 418.679L420.155 422.528C415.806 423.306 410.753 422.572 406.314 422.52L394.181 422.433C391.332 422.416 388.192 422.661 385.457 421.789Z"/>
	<path fill="#00466D" d="M84.5156 416.603C87.727 417.683 92.9473 417.748 96.2151 416.749C95.2773 421.286 95.5238 426.511 95.6149 431.194C92.6753 430 87.987 430.655 85.055 431.058C86.6687 423.234 85.0004 423.012 84.5459 417.114L84.5156 416.603Z"/>
	<path fill="#001A33" d="M401.018 382.086C413.168 382.765 415.599 397.16 404.235 399.775C390.314 399.797 389.239 383.461 401.018 382.086Z"/>
	<path fill="#001A33" d="M97.8107 201.534C102.727 201.198 108.136 206.256 109.331 210.701C110.508 215.079 105.915 220.516 101.843 221.48C90.2019 220.613 85.7659 206.681 97.8107 201.534Z"/>
	<path fill="#001A33" d="M438.108 166.304C453.329 164.817 458.199 180.773 443.873 183.89C428.855 187.237 422.041 169.554 438.108 166.304Z"/>
	<path fill="#001A33" d="M85.055 431.058C79.8645 431.77 73.8799 433.191 68.7188 431.79C54.5746 427.95 63.5105 409.577 84.5156 416.603L84.5459 417.114C85.0004 423.012 86.6687 423.234 85.055 431.058Z"/>
	<path fill="#001A33" d="M66.8318 175.298C71.8022 174.813 73.6573 177.113 77.2832 180.244C82.845 185.046 89.6555 190.544 93.5497 196.837C91.9111 200.444 89.1959 202.474 85.9294 204.52L85.2316 204.853C83.5385 205.572 82.567 205.679 80.8521 204.925C73.3954 201.647 50.1378 181.696 66.8318 175.298Z"/>
	<path fill="#001A33" d="M114.65 218.249C119.496 219.369 123.586 223.913 127.23 227.042L134.118 233.145C141.672 240.152 141.631 245.962 131.614 250.105C125.215 251.895 114.04 237.114 110.875 232.817C105.72 225.819 105.125 222.169 114.65 218.249Z"/>
	<path fill="#001A33" d="M369.815 353.293C371.143 353.098 372.614 353.043 373.913 353.433C378.15 354.703 394.184 370.296 396.375 374.461C398.655 378.794 394.105 381.746 390.69 383.335C383.342 385.651 379.543 379.413 374.641 374.859C370.354 370.875 361.214 365.162 364.297 358.159C365.454 355.533 367.175 354.283 369.815 353.293Z"/>
	<path fill="#001A33" d="M431.899 351.768L433.25 351.713C438.08 352.001 441.689 358.303 441.168 362.694C438.587 367.063 421.961 383.361 417.656 385.252C412.764 385.232 406.835 379.139 408.546 374.25C409.274 372.168 410.897 370.436 412.404 368.875L419.717 361.878C423.478 358.359 427.237 354.04 431.899 351.768Z"/>
	<path fill="#001A33" d="M416.447 418.679C412.607 414.614 408.189 410.168 407.454 404.382C408.568 401.012 411.927 398.051 415.402 397.192C418.009 398.212 420.14 399.988 422.256 401.781L432.25 411.13C434.847 413.603 439.032 416.751 440.484 420.02C442.969 425.616 436.307 433.185 430.532 430.508C426.767 428.762 423.096 425.409 420.155 422.528L416.447 418.679Z"/>
	<path fill="#001A33" d="M83.6253 215.293C87.812 215.09 92.7473 219.131 93.7369 223.087L93.8024 223.375C94.3984 225.844 92.189 227.77 90.6412 229.399L83.9093 236.072C80.0314 240.013 75.2893 246.623 70.0861 248.713C66.0384 249.698 61.4757 247.252 60.2074 243.229C58.6226 238.202 62.7893 234.362 66.0374 231.171L72.4203 224.789C75.8967 221.177 78.6868 216.926 83.6253 215.293Z"/>
	<path fill="#001A33" d="M129.585 173.274C137.683 172.942 141.956 181.849 136.292 188.046C133.633 190.955 130.408 193.349 127.565 196.077C124.487 199.03 118.635 207.105 114.125 207.298L113.352 207.099C109.932 205.929 103.346 199.404 105.247 195.25C105.985 193.637 107.551 192.198 108.809 190.981L118.83 182.128C122.2 179.015 125.168 174.93 129.585 173.274Z"/>
	<path fill="#001A33" d="M70.1317 303.821L92.2451 303.782C93.3836 303.798 94.7824 303.746 95.8702 304.118L96.125 304.211C105.384 307.416 102.862 318.995 95.6711 320.375L93.8263 320.622L78.4971 320.532C75.0013 320.519 68.9964 321.202 66.0115 319.413C57.6021 314.374 61.77 305.012 70.1317 303.821Z"/>
	<path fill="#001A33" d="M369.376 208.336C375.04 207.906 387.078 207.832 392.431 208.484L392.875 208.542C393.961 208.664 394.664 208.788 395.629 209.34L396.751 209.974C404.776 214.761 400.465 223.668 392.563 225.232C387.936 225.617 383.166 225.42 378.521 225.426C371.776 225.436 361.595 226.185 360.595 217.079C359.989 211.561 364.544 208.893 369.376 208.336Z"/>
	<path fill="#001A33" d="M81.089 345.857L95.1489 345.852C100.409 346.194 106.172 355.682 99.5846 360.626L99.2476 360.875C96.806 362.745 93.4641 362.501 90.5163 362.52L81.8787 362.543L72.4821 362.539C68.3552 362.525 60.6535 359.918 60.5652 355.25C60.4199 347.561 67.6582 345.896 73.699 345.872L81.089 345.857Z"/>
	<path fill="#001A33" d="M427.749 279.816L437.502 279.796C443.326 279.793 450.321 279.297 451.727 286.652L451.787 287C453.669 297.221 441.518 296.779 435.312 296.781L422.903 296.775C421.042 296.772 418.738 296.993 416.917 296.573C409.988 294.977 408.787 287.423 413.718 282.383C417.149 278.876 423.216 279.835 427.749 279.816Z"/>
	<path fill="#001A33" d="M421.807 239.136L436.914 239.176C442.556 239.14 450.589 238.408 451.265 246.875C451.796 253.526 445.561 255.717 440.131 255.939L425.564 255.87C422.817 255.865 418.78 256.367 416.286 255.348L416 255.226C406.885 251.465 407.712 239.531 419.67 238.978C420.358 238.946 421.204 238.771 421.807 239.136Z"/>
	<path fill="#001A33" d="M385.457 421.789C380.991 426.182 373.973 433.864 367.083 429.489C359.126 424.436 364.76 417.895 369.664 413.283L377.09 406.358C379.896 403.656 382.535 400.575 385.602 398.171C391.536 393.519 398.492 401.408 398.316 404.878C398.045 410.237 392.726 414.729 389.184 418.179L385.457 421.789Z"/>
	<path fill="#001A33" d="M117.792 378.325L142.049 378.212C154.55 378.226 156.126 393.728 144.812 394.726L125.687 394.705C122.511 394.702 118.964 394.998 115.834 394.484C104.891 392.686 108.106 379.8 117.792 378.325Z"/>
	<path fill="#001A33" d="M395.568 166.691C401.419 166.629 407.822 165.443 412.366 169.912C417.265 174.73 414.027 181.942 407.546 183.142C406.021 183.424 404.246 183.256 402.69 183.245L363.562 183.211L356.979 183.215C339.722 183.184 342.045 168.517 352.187 166.955C356.746 166.252 361.96 166.706 366.601 166.702L395.568 166.691Z"/>
	<path fill="#001A33" d="M96.2151 416.698C98.0734 416.416 99.9571 416.116 101.833 416.059L169.044 416.031C172.414 416.018 176.657 415.512 179.875 416.435L180.229 416.531C184.212 417.661 187.219 421.995 186.055 426.125L185.975 426.415C183.643 434.398 173.985 432.487 167.683 432.46L102.625 432.305C100.207 432.178 97.7904 431.749 95.4199 431.271C95.5238 426.511 95.2773 421.286 96.2151 416.698Z"/>
	<path fill="#001A33" d="M302.874 165.794L303.648 165.768C311.225 165.696 312.385 172.712 312.304 178.344L312.144 222.654C313.936 222.98 316.071 222.776 317.901 222.78L330.251 222.734C332.211 222.719 334.465 222.467 336.338 223.104L337.457 223.51C339.711 224.369 342.215 226.161 343.168 228.432L343.295 228.75C344.014 230.502 343.755 232.627 343.749 234.5L343.68 270.862L375.563 270.654C376.949 270.642 378.51 270.506 379.875 270.741C387.541 272.061 388.139 286.26 378.503 287.673C374.457 288.267 370.124 287.37 366.064 287.257L343.673 287.136L343.763 319.099L377.044 319.096C394.014 319.081 389.404 335.152 380.75 336.196C377.442 336.594 373.61 336.06 370.236 336.045L343.811 335.915C343.556 336.371 343.665 337.051 343.666 337.579L343.747 366.907C343.79 369.549 344.158 372.42 343.861 375.024C342.83 384.074 332.965 383.917 326.545 383.824C321.877 383.757 317.081 383.824 312.441 383.271L312.072 408.512L329.834 408.431C332.189 408.405 335.032 408.071 337.346 408.481C347.316 410.248 345.27 424.534 333.86 424.693L312.158 424.742C295.756 424.76 295.643 424.965 295.686 406.459L295.669 383.89C294.648 383.686 293.448 383.8 292.402 383.799L264.392 383.704L264.457 429.379C264.483 431.073 264.673 432.956 264.429 434.625C263.048 444.067 250.026 444.655 247.927 434.949C247.602 433.448 247.774 431.67 247.775 430.129L247.806 383.935L216.562 383.824C216.282 384.644 216.388 385.59 216.383 386.453L216.404 430.683C216.443 435.881 215.581 438.686 210.571 441.415C202.154 443.851 199.901 435.445 199.94 429.122L200 384.271C197.86 383.668 195.054 383.854 192.826 383.84L180.218 383.757C178.257 383.688 175.516 383.62 173.78 382.654L173.5 382.491C165.957 378.417 168.01 368.071 168.006 360.981L168.005 335.609L145.202 335.61C141.739 335.608 137.439 336.052 134.05 335.381C124.779 333.546 124.603 318.996 137.217 319.092L167.953 319.172L168.036 287.206L136.935 287.302C132.276 287.295 126.109 284.977 126.332 279.412C126.635 271.839 132.396 270.688 138.422 270.696L146.501 270.725C153.631 270.753 160.888 270.482 167.999 270.918C168.209 267.373 168.025 263.721 168.017 260.166L167.97 240.843C167.887 223.848 169.941 222.746 185.875 222.793L199.987 222.782L200.033 191.747C195.259 190.317 177.554 193.161 173.752 190.726C165.338 185.336 167.734 175.409 177.085 174.675C181.254 174.348 185.649 174.638 189.838 174.629L202.697 174.604C204.986 174.604 208.116 174.244 210.263 175.069L210.625 175.219C216.31 177.523 216.378 179.654 216.37 184.882L216.279 222.84L247.82 222.904L247.762 178.449C247.756 176.977 247.597 175.338 247.901 173.901L247.966 173.625C250.166 163.992 262.202 164.124 264.527 173.729C264.838 175.013 264.491 176.87 264.445 178.216L264.428 222.794L295.626 222.868C295.846 221.81 295.727 220.619 295.725 219.534L295.702 186.571C295.697 178.55 293.308 169.141 302.874 165.794Z"/>
	<path fill="#32FAE2" d="M305.85 239.163L327.798 239.199L327.821 367.411L184.426 367.305L184.4 356.579L226.519 356.507C231.759 356.385 236.963 355.489 242.201 355.498L278.692 355.436C287.736 355.449 296.988 355.906 305.969 354.73L305.85 239.163Z"/>
	<path fill="white" d="M184.415 356.621L184.409 239.205L305.619 239.24L305.969 354.73C296.988 355.906 287.736 355.449 278.692 355.436L242.201 355.498C236.963 355.489 231.759 356.385 226.519 356.507L184.415 356.621Z"/>
	<path fill="#001A33" d="M254.898 251.057C262.796 250.671 264.451 256.889 267.776 262.737L285.691 293.241C288.381 297.716 291.103 302.013 292.694 307.021C291.452 309.538 289.491 311.616 287.64 313.695L281.814 320.556C276.065 327.797 265.454 345.175 257.159 348.861C250.612 350.296 240.805 334.045 236.934 329.309L228.056 318.504C222.408 311.757 216.842 309.018 221.422 300.572C225.559 292.944 230.602 285.724 235.071 278.275L244.888 261.866C247.531 257.572 249.682 252.599 254.898 251.057Z"/>
	<path fill="#00D84A" d="M240.429 307.842C239.648 306.883 238.702 305.91 238.105 304.831C240.71 299.05 244.033 293.735 247.366 288.361L256.669 273.417L267.401 293.345C269.47 297.111 272.185 300.879 273.575 304.954L256.377 328.148L253.395 323.884C249.088 318.468 244.197 313.689 240.429 307.842Z"/>
	<path fill="#00AE69" d="M240.429 307.842C244.873 309.353 254.54 319.396 253.395 323.884C249.088 318.468 244.197 313.689 240.429 307.842Z"/>
</svg>
