<?xml version="1.0" encoding="utf-8" ?>
<svg xmlns="http://www.w3.org/2000/svg" xmlns:xlink="http://www.w3.org/1999/xlink" width="512" height="512">
	<defs>
		<linearGradient id="gradient_0" gradientUnits="userSpaceOnUse" x1="-46.50742" y1="705.39117" x2="814.13245" y2="62.233818">
			<stop offset="0" stop-color="#060037"/>
			<stop offset="1" stop-color="#121C6A"/>
		</linearGradient>
	</defs>
	<path fill="url(#gradient_0)" transform="scale(0.666667 0.666667)" d="M-0 -0L768 0L768 768L-0 768L0 -0Z"/>
	<path fill="#221A22" transform="scale(0.666667 0.666667)" d="M412.824 486.814L417.364 453.991C417.679 456.965 416.919 459.188 416.869 462C416.848 463.162 417.101 464.392 417.184 465.562L416.809 465.938L416.809 467.062L416.059 467.438C416.06 468.323 415.799 469.428 416.434 470.062L415.688 470.816L416.059 471.375L415.79 471.85C415.142 473.041 415.597 473.495 415.309 474.562C415.24 474.818 414.825 474.872 414.75 475.125C414.655 475.445 414.879 476.469 414.938 476.816C415.508 477.53 415.657 477.551 415.783 478.5C416.227 477.866 416.252 477.535 416.438 476.816L416.625 476.25L416.697 475.804C416.817 475.219 417.055 474.866 417.375 474.375L417.191 473.812L417.594 473.345C417.993 472.857 418.09 472.538 418.19 471.928C418.329 471.078 418.459 470.951 418.875 470.25L419.215 469.553C419.584 468.816 419.355 469.065 419.903 468.674L420.213 468.774L417.457 476.062C416.431 478.988 415.454 485.15 412.824 486.814Z"/>
	<path fill="#4ADDDA" transform="scale(0.666667 0.666667)" d="M204.275 90.8711C202.937 90.2599 201.596 89.5252 200.687 88.3331C199.974 87.3971 199.55 86.4111 199.756 85.2206C200.036 83.5982 201.274 82.2687 202.648 81.4479C203.78 80.7723 205.538 80.7672 206.763 81.1654C208.863 81.8479 209.84 83.6493 210.741 85.51C210.225 87.5158 210.162 87.9437 208.304 89.0562L204.275 90.8711Z"/>
	<path fill="#4ADDDA" transform="scale(0.666667 0.666667)" d="M434.023 21.1875C435.305 20.9467 436.599 20.8148 437.812 21.3609C439.033 21.9103 440.045 23.1471 440.446 24.4085C440.832 25.6228 440.749 27.1365 440.103 28.2495C439.351 29.5439 438.104 30.4189 436.688 30.8059C435.782 30.9554 434.964 30.9453 434.062 30.7387C432.571 30.3968 431.238 29.3319 430.512 27.9939C429.954 26.9647 429.855 25.7836 430.282 24.6871C430.974 22.9086 432.392 22.0031 434.023 21.1875Z"/>
	<path fill="#B6BA86" transform="scale(0.666667 0.666667)" d="M664.836 416.438C665.773 416.308 666.641 416.371 667.559 416.592C669.014 416.943 670.213 418.295 670.971 419.527C671.809 420.887 671.981 422.398 671.5 423.928C670.958 425.654 669.582 426.644 668.062 427.461C667.154 427.579 666.157 427.688 665.25 427.486C663.779 427.157 662.57 425.838 661.897 424.552C661.023 422.884 660.968 421.282 661.628 419.528C662.238 417.906 663.288 417.085 664.836 416.438Z"/>
	<path fill="#D7FE27" transform="scale(0.666667 0.666667)" d="M583.051 576.188C584.091 576.041 585.105 575.887 586.129 576.208C588.105 576.828 589.508 578.455 590.294 580.324C590.854 581.654 590.885 584.031 590.311 585.376C589.47 587.346 587.906 588.037 586.052 588.816C585.336 588.834 584.582 588.857 583.875 588.728C582.1 588.405 580.635 587.204 579.697 585.706C578.684 584.085 578.548 581.985 579.122 580.172C579.741 578.216 581.281 577.042 583.051 576.188Z"/>
	<path fill="#2D1056" transform="scale(0.666667 0.666667)" d="M410.685 507.807C415.92 505.199 419.813 500.228 425.292 497.962C428.972 496.44 432.971 495.916 436.875 495.278L454.543 492.403L481.803 485.755L481.8 486.405L481.125 486.562L480.578 486.841C479.516 487.369 478.557 487.129 477.562 487.5C477.315 487.592 477.251 487.975 477 488.059C475.908 488.423 476.178 487.66 475.312 488.809C474.58 488.519 474.225 488.281 473.438 488.625C473.09 488.777 472.571 489.326 472.312 489.559L471.75 489.467C470.364 489.373 469.323 489.675 468.375 490.684L467.777 490.586C466.715 490.437 466.339 490.595 465.373 490.873L464.438 491.059C463.717 491.237 463.94 491.175 463.406 491.442C462.702 491.794 462.014 491.725 461.25 491.717L460.684 492.188C459.759 492.879 458.605 492.374 457.5 492.467C456.728 492.532 456.279 492.976 455.625 493.309C454.922 493.667 454.783 493.691 453.996 493.586C452.437 493.378 451.339 493.822 449.934 494.447C448.53 495.073 446.984 494.822 445.5 494.717C444.759 494.664 444.622 494.845 444 495.184C443.473 495.471 443.619 495.336 443.062 495.375C442.313 495.428 442.002 495.517 441.375 495.934L440.982 495.752C440.369 495.506 439.868 495.494 439.219 495.469L438.562 496.309L438 496.217C437.005 496.836 436.296 496.447 435.375 497.059L434.982 496.955C434.336 496.829 433.853 496.941 433.219 497.061L432.75 497.434C431.989 497.436 431.814 497.251 431.25 497.809L430.553 497.745C429.856 497.689 429.559 497.779 428.906 497.998L428.25 498.184L427.775 498.383C427.169 498.625 427.442 498.558 426.75 498.562L426.375 498.934C425.689 498.989 425.37 498.848 424.875 499.34C424.429 499.783 424.238 499.701 423.75 499.967C422.83 500.467 421.721 501.267 420.844 501.844L420.428 502.264C419.921 502.768 419.848 502.714 419.25 502.967C417.346 503.774 416.465 505.684 414.748 506.623L414.188 507.184L413.625 507.188L413.197 507.639C412.57 508.266 412.848 508.056 412.031 508.406C411.205 509.554 411.952 510.224 411.559 511.312C411.319 511.976 410.976 511.307 411.064 512.373C411.118 513.036 411.014 513.414 410.811 514.031L411.559 514.312C411.559 514.812 411.717 515.338 411.559 515.812C411.184 516.937 410.708 515.968 411 517.688C411.312 517.939 411.581 518.258 411.938 518.441C413.268 519.127 422.196 518.424 424.125 518.438L424.5 518.066L424.969 518.112C426.965 518.275 429.087 518.294 431.062 518.066C434.362 517.686 437.917 518.193 441.212 518.265L456.188 518.066C461.498 518.066 467.094 518.721 472.406 518.2C475.862 517.862 479.694 518.239 483.188 518.25C488.085 518.266 493.6 517.384 498.412 518.17C499.021 518.269 499.461 518.177 500.062 518.114C501.532 517.96 503.197 517.974 504.669 518.118C505.787 518.228 506.466 517.779 507.375 518.533L512.062 518.441L514.312 518.441L514.875 518.539C516.047 518.651 517.185 518.462 518.35 518.738C519.083 518.478 518.954 518.436 519.718 518.627C520.95 518.934 523.743 518.798 525.079 518.726C527.047 518.621 528.486 518.87 530.005 520.178L530.155 520.936C528.721 519.749 527.063 519.665 525.228 519.491C521.645 519.153 517.956 519.362 514.356 519.341L494.609 519.262L438.203 519.393L427.099 520.098L416.587 520.208C415.083 520.211 413.003 520.463 411.562 520.182C410.77 520.028 410.011 519.174 409.441 518.638L410.153 518.051L410.685 507.807Z"/>
	<defs>
		<linearGradient id="gradient_1" gradientUnits="userSpaceOnUse" x1="589.60101" y1="155.90953" x2="584.99341" y2="65.424225">
			<stop offset="0" stop-color="#AFC2B6"/>
			<stop offset="1" stop-color="#00E9F1"/>
		</linearGradient>
	</defs>
	<path fill="url(#gradient_1)" transform="scale(0.666667 0.666667)" d="M529.748 68.7619C530.394 69.2586 530.282 69.2737 531.173 69.3624C535.516 69.7948 539.645 71.1943 543.83 72.3762C560.896 77.1952 579.476 83.8951 593.886 94.4268C610.869 105.229 627.602 117.669 641.728 132.068L644.595 134.859C642.51 138.821 641.092 142.333 640.605 146.812C640.34 149.26 640.377 151.585 639.727 153.984L632.628 146.334C632.336 146.302 630.205 144.043 629.865 143.718L622.42 136.841L594.339 113.824L584.552 106.787C570.095 96.9279 555.177 86.8522 539.048 79.9119C536.941 79.0051 533.81 77.2661 531.587 77.6336C530.508 75.1142 529.343 71.518 529.748 68.7619Z"/>
	<path fill="#2D1056" transform="scale(0.666667 0.666667)" d="M521.25 688.312C523.347 687.929 526.417 688.341 528.628 688.355L554.027 688.774L646.691 688.882L682.324 688.5C685.163 688.492 690.033 687.828 692.65 688.688L693.054 701.438L691.688 701.686L653.316 701.845L580.683 701.642L540.364 701.825C533.981 701.879 527.008 702.533 520.688 701.849L519.941 698.625C520.808 697.75 520.316 690.73 520.316 689.062L521.25 688.312Z"/>
	<path fill="#D7FE27" transform="scale(0.666667 0.666667)" d="M437.813 262.493L439.228 263.95C441.843 267.961 443.332 270.835 443.334 275.726L427.867 383.388L425.264 398.545L419.801 437.46C419.073 442.72 417.413 448.7 417.364 453.991L412.824 486.814C411.452 493.289 410.499 501.181 410.685 507.807L410.153 518.051L409.441 518.638C406.896 518.181 403.902 518.408 401.298 518.359L401.166 516.483L407.766 457.869C408.274 455.246 408.401 452.481 408.667 449.82C408.917 447.314 409.364 444.783 409.353 442.263L414.998 400.376C415.946 393.221 417.52 385.637 417.292 378.399L417.524 377.786C418.271 375.89 418.337 373.834 418.67 371.831L420.385 360.148C422.374 352.323 422.255 343.691 423.673 335.709L437.813 262.493Z"/>
	<defs>
		<linearGradient id="gradient_2" gradientUnits="userSpaceOnUse" x1="338.78262" y1="226.30026" x2="371.75134" y2="99.566269">
			<stop offset="0" stop-color="#5DFF16"/>
			<stop offset="1" stop-color="#DAFF48"/>
		</linearGradient>
	</defs>
	<path fill="url(#gradient_2)" transform="scale(0.666667 0.666667)" d="M350.722 145.451L350.661 144.922C350.771 142.757 352.474 139.289 353.187 137.102L362.398 108.645C363.091 106.225 363.295 102.876 364.979 100.931C365.454 100.382 365.451 98.2137 365.532 97.3968L369.794 142.753C370.53 147.535 370.285 152.816 370.121 157.652C369.454 177.331 366.12 199.891 354.242 216.141L344.207 227.856C342.13 227.245 339.98 225.798 338.057 224.783C333.352 222.299 328.668 219.669 323.733 217.669C324.071 217.267 324.312 215.992 324.488 215.438L326.215 210.682L341.77 171.13C344.08 164.962 346.606 158.655 348.246 152.275L350.722 145.451Z"/>
	<path fill="#2D1056" transform="scale(0.666667 0.666667)" d="M233.332 553.737L234.186 575.439C235.051 576.017 235.637 575.909 236.625 575.908L237.117 575.913C239.755 575.913 244.92 576.423 247.312 575.601L248.865 576.398L248.909 576.74L287.259 699.655L287.55 701.083C281.291 701.796 274.278 701.166 267.94 701.156L223.684 700.955L144.551 700.888L70.5671 700.928C69.8108 699.514 70.4828 689.662 70.5084 687.359L212.564 687.732C214.1 687.762 216.916 687.275 218.25 687.75C220.539 688.564 224.727 688.215 227.25 688.033L272.25 688.033C274.5 688.209 276.925 688.246 279.188 688.125C280.194 688.071 281.51 688.276 282.377 687.844L282.377 687.373C282.194 686.357 282.098 687.278 282.272 686.215C282.403 685.412 281.956 684.705 281.533 684C281.21 683.461 281.15 683.34 281.066 682.688C280.959 681.855 280.894 681.329 280.495 680.589C280.112 679.877 280.028 679.44 280.026 678.609L280.031 678.186C279.455 677.394 279.149 677.068 279.225 676.043L279.281 675.469C278.941 674.863 278.631 674.307 278.41 673.644L277.783 671.625L277.875 671.062L277.316 670.5C276.756 669.774 276.982 669.208 277.031 668.344C276.625 667.633 276.239 667.027 276.191 666.188C276.162 665.662 276.138 665.377 276 664.875C275.538 664.408 275.381 664.028 275.252 663.373L275.158 662.625L274.877 662.248C274.783 661.496 274.859 661.678 274.66 661.148L274.127 659.623C273.951 658.893 274.012 658.753 273.555 658.067C273.046 657.304 273.193 656.96 273.188 656.059C272.768 655.409 272.402 654.77 272.252 653.998C272.077 653.1 272.053 652.781 271.578 651.984C271.236 651.411 271.316 651.275 271.316 650.625L270.941 650.062L271.125 649.5L270.377 648.748C270.104 648.284 270.19 648.09 270.272 647.59C270.39 646.867 270.266 646.791 270 646.125C269.426 645.832 269.742 646.011 269.066 645.562C269.111 644.559 269.251 643.5 268.796 642.573C268.457 641.884 268.515 642.161 268.374 641.448L268.316 641.062L267.941 640.688C268.113 639.256 267.467 639.837 267.191 638.812C267.076 638.386 267.314 637.938 267.375 637.5C267.021 636.995 266.662 636.573 266.511 635.964L266.441 635.625C266.001 634.732 266.087 634.934 266.25 633.938L266.017 633.727C264.625 632.325 265.403 632.277 265.125 630.75C265.105 630.638 264.61 630.319 264.566 630.188C264.448 629.832 264.566 629.438 264.566 629.062C263.769 628.265 264.53 628.516 264.375 627.75C264.344 627.599 263.533 626.575 263.441 626.438L263.625 625.688L263.066 625.312L263.25 624.375L262.691 623.812C263.092 622.584 262.464 623.308 262.127 622.498C262.123 622.489 261.942 621.009 261.941 621L261.377 620.623L260.816 619.125C261.312 618.624 261.242 618.479 261.375 617.812L260.812 617.809C260.222 616.909 259.968 616.407 260.147 615.317L260.25 614.812C259.951 614.285 259.662 613.824 259.281 613.348C258.751 612.685 258.988 612.077 259.033 611.25L258.377 611.248C258.288 610.722 258.192 610.285 257.992 609.785L257.816 609.375L258.283 608.625C257.957 607.972 258.139 608.141 257.608 607.743L257.252 607.498C257.068 606.944 256.767 606.317 256.877 605.719C257.132 604.329 257.073 606.254 257.062 604.684L255.941 602.625L256.312 602.25L256.125 601.125L255.377 600.373C255.104 599.909 255.19 599.715 255.272 599.215C255.366 598.638 255.35 598.27 255 597.75L254.627 597.373L254.441 596.625L254.066 596.062L254.25 595.312L253.502 595.123L253.316 594.375C252.803 593.361 253.267 592.781 252.941 591.938C252.433 590.62 252.15 591.104 252.375 589.5C252.089 588.88 251.837 588.375 251.406 587.836C250.895 587.197 251.066 586.928 251.066 586.125C250.709 585.684 250.466 585.313 250.21 584.8L249.941 584.25L249.566 583.688L250.033 583.125L249.75 582.75L249.191 582.375C248.668 581.85 248.816 581.523 248.816 580.875L249.281 580.314L248.252 579.373L248.066 578.812L247.691 577.875L247.688 577.309C246.551 577.243 245.426 577.355 244.312 577.309L237.375 577.217C236.135 577.18 235.053 577.188 233.812 577.309L232.969 576.281C232.818 575.168 232.616 574.125 232.783 573C233.058 571.142 232.477 569.23 232.777 567.389C233.147 565.127 232.845 562.542 232.783 560.25C232.75 558.998 232.976 557.739 232.783 556.5C232.62 555.447 232.962 554.719 233.332 553.737Z"/>
	<path fill="#AA9C90" transform="scale(0.666667 0.666667)" d="M644.595 134.859C661.881 152.016 676.577 171.444 689.313 192.184C690.908 194.781 693.899 198.6 694.691 201.437C697.677 205.572 700.017 210.545 702.417 215.055C711.348 231.846 718.701 249.199 725.125 267.094C726.015 269.574 728.047 273.729 728.126 276.286C731.489 284.904 733.368 294.578 735.32 303.597C737.69 314.551 739.99 325.285 741.447 336.416C744.203 357.478 744.468 378.955 744.188 400.162C743.701 398.278 743.988 395.861 743.987 393.914L743.994 382.352C743.996 381.075 744.328 379.055 743.625 378C743.631 374.776 743.808 371.453 743.533 368.25C743.438 367.142 743.542 366.537 743.25 365.438C742.808 363.776 743.855 361.47 742.875 360C742.875 358.37 743.321 354.482 742.5 353.25C742.5 352.158 742.727 350.777 742.125 349.875C742.125 348.501 742.488 346.108 741.75 345C741.726 343.786 741.634 342.965 741.375 341.812C741.094 340.559 741.761 339.391 741 338.25C740.971 337.266 740.847 336.744 740.625 335.812C740.343 334.631 740.981 333.722 740.25 332.625L740.156 330.844L739.5 331.309L738.938 330.934C738.093 330.934 737.987 331.049 737.25 330.562L736.594 330.656L735.469 330.656L735.188 330.184L734.344 331.031L734.062 330.559L733.219 331.031L732.938 330.559L732.094 331.031L731.812 330.559L730.969 331.031L730.684 330.562C730.201 331.049 730.089 331.366 729.387 331.43C728.761 331.487 728.444 331.66 727.873 331.873C727.067 332.174 726.536 332.091 725.719 332.156C724.916 332.221 724.429 332.85 723.75 333.184L723.386 333.267C722.884 333.393 722.642 333.612 722.25 333.934L721.684 333.562L721.125 334.125L721.207 334.441C721.433 335.345 721.49 336.108 721.552 337.026C721.602 337.76 721.576 337.07 721.875 338.062C722.271 339.377 721.415 340.747 722.25 342C722.276 343.097 722.331 343.77 722.625 344.812C723.046 346.303 722.093 348.139 723 349.5C723.024 350.709 723.06 351.537 723.375 352.688C723.807 354.264 722.806 356.334 723.75 357.75C723.75 359.124 723.387 361.517 724.125 362.625L724.125 371.854C724.125 372.949 723.885 374.077 724.5 375L724.5 392.062L724.306 392.062L722.97 357.154C722.846 351.44 721.911 345.516 721.282 339.824C719.768 326.133 718.003 312.538 715.175 299.05L710.897 281.5C703.522 256.208 692.514 231.507 679.531 208.628C677.359 204.58 674.553 200.719 672.039 196.875C662.126 181.716 651.645 167.653 639.727 153.984C640.377 151.585 640.34 149.26 640.605 146.812C641.092 142.333 642.51 138.821 644.595 134.859Z"/>
	<defs>
		<linearGradient id="gradient_3" gradientUnits="userSpaceOnUse" x1="309.76691" y1="234.51746" x2="298.05078" y2="73.575775">
			<stop offset="0" stop-color="#B3FF0B"/>
			<stop offset="1" stop-color="#FFFFD0"/>
		</linearGradient>
	</defs>
	<path fill="url(#gradient_3)" transform="scale(0.666667 0.666667)" d="M232.561 78.3554L246.868 91.0358L278.532 121.974C285.188 129.094 291.5 136.22 297.044 144.262C299.169 147.344 301.561 150.473 303.291 153.792C313.306 131.945 329.78 112.498 349.477 98.7399C354.844 94.9905 360.912 92.2371 366.264 88.4823L365.532 97.3968C365.451 98.2137 365.454 100.382 364.979 100.931C363.295 102.876 363.091 106.225 362.398 108.645L353.187 137.102C352.474 139.289 350.771 142.757 350.661 144.922L350.722 145.451L348.246 152.275C346.606 158.655 344.08 164.962 341.77 171.13L326.215 210.682L324.488 215.438C324.312 215.992 324.071 217.267 323.733 217.669C320.123 216.379 316.829 215.155 313.03 214.502L316.315 219.654C317.266 224.23 317.732 228.642 317.777 233.316L317.066 234.188C316.715 234.137 316.508 234.125 316.182 234.022C313.903 233.297 310.68 230.769 308.625 229.385C287.975 215.475 279.188 189.989 267.895 168.878L266.408 165.211L264.713 161.63L243.638 115.539L237.188 102.405C236.585 101.183 236.1 99.4563 235.271 98.4089C234.652 97.6263 233.817 97.1668 232.968 96.6727L232.493 84.5625C232.394 82.6944 231.89 80.1183 232.561 78.3554Z"/>
	<path fill="#12FABC" transform="scale(0.666667 0.666667)" d="M601.821 267.67L607.113 267.665C604.725 277.141 601.764 286.618 597.948 295.626C597.226 297.331 596.475 299.832 595.312 301.204C593.995 304.582 592.199 307.783 590.461 310.957C585.471 320.071 578.829 329.726 571.156 336.832L561.285 345.924C550.873 353.428 540.647 360.238 528.976 365.726C512.875 373.297 494.538 377.795 477.05 380.91L456.212 384.664C451.439 385.523 446.671 386.151 441.998 387.511C438.705 388.469 435.787 390.031 433.124 392.189C430.923 393.973 427.865 397.814 425.264 398.545L427.867 383.388L430.798 380.121C434.836 373.818 437.645 366.533 441.298 359.965C446.611 350.412 453.561 341.344 460.69 333.085C464.629 328.521 468.679 323.885 473.127 319.809C488.384 304.433 505.88 292.751 525.802 284.204C531.312 281.84 537.227 279.386 543.078 278.001C547.854 276.096 553.307 275.004 558.324 273.856C572.73 270.56 587.041 268.291 601.821 267.67Z"/>
	<defs>
		<linearGradient id="gradient_4" gradientUnits="userSpaceOnUse" x1="504.01398" y1="367.3309" x2="486.2749" y2="315.53259">
			<stop offset="0" stop-color="#00A681"/>
			<stop offset="1" stop-color="#04F7CB"/>
		</linearGradient>
	</defs>
	<path fill="url(#gradient_4)" transform="scale(0.666667 0.666667)" d="M488.158 337.272C488.749 336.73 489.292 336.23 489.961 335.784L490.5 335.441L492.375 334.316C493.113 333.868 493.801 333.706 494.566 333.33C495.657 332.795 496.808 332.368 497.848 331.738C501.529 329.511 505.635 327.799 509.465 325.836C527.251 316.723 545.459 307.785 564.477 301.586L559.691 304.312C559.141 304.687 558.681 305.028 558.058 305.278L557.625 305.441L556.125 306.191L553.5 307.691C552.428 308.317 551.136 308.684 550.162 309.441C547.91 311.192 545.396 312.472 542.94 313.906L492.07 342.992L459.089 366.393L447 376.669L444.865 378.662C444.202 379.311 445.003 378.532 443.998 379.123C443.149 379.623 442.704 380.472 441.748 380.998C441.094 381.358 440.611 382.07 439.873 382.498L437.998 384.281L437.062 384.191C436.468 384.876 436.287 385.197 435.844 385.969L433.125 388.688L433.312 389.625L434.625 390.188L433.969 390.377L432.562 391.875L432.094 391.877L431.438 392.441L430.517 392.271C429.071 389.411 429.791 388.09 430.443 385.101L430.764 384.141C431.204 382.791 431.099 381.492 430.798 380.121C434.836 373.818 437.645 366.533 441.298 359.965C446.611 350.412 453.561 341.344 460.69 333.085C464.629 328.521 468.679 323.885 473.127 319.809L472.904 320.262C471.248 323.57 468.154 325.111 466.317 328.084C465.477 329.445 463.436 330.516 463.145 332.064C463 332.84 462.698 333.25 462.256 333.88L462.266 334.233C462.284 335.161 462.309 335.737 461.809 336.563L462.19 337.308L462.609 337.429C463.095 337.583 463.464 337.77 463.9 338.023C465.889 337.918 466.664 338.694 468.38 339.485L469.584 340.052C471.138 340.812 472.539 342.578 473.364 344.018L474.559 345.562L475.125 345.191C477.956 343.358 480.88 341.309 483.844 339.752C484.612 339.349 485.327 338.701 486.094 338.252C486.849 337.809 487.274 337.455 488.158 337.272Z"/>
	<path fill="#201C6C" transform="scale(0.666667 0.666667)" d="M529.486 171.372C532.978 173.077 536.102 175.395 539.336 177.541C561.213 192.062 579.882 212.532 592.037 235.857C596.686 244.778 600.166 254.804 603.477 264.295C603.762 265.111 603.905 265.962 604.042 266.812C603.56 267.53 602.648 267.489 601.821 267.67C587.041 268.291 572.73 270.56 558.324 273.856C553.307 275.004 547.854 276.096 543.078 278.001C537.227 279.386 531.312 281.84 525.802 284.204C505.88 292.751 488.384 304.433 473.127 319.809C468.679 323.885 464.629 328.521 460.69 333.085C453.561 341.344 446.611 350.412 441.298 359.965C437.645 366.533 434.836 373.818 430.798 380.121L427.867 383.388L443.334 275.726L443.812 272.57L444.562 272.27L445.951 273.196L454.342 281.643C456.231 281.162 458.103 280.036 459.829 279.137C464.663 276.616 469.219 273.549 473.566 270.268C488.774 258.792 502.115 243.597 511.201 226.791C515.729 218.417 519.101 209.657 522.152 200.657C525.359 191.198 528.093 181.276 529.486 171.372Z"/>
	<defs>
		<linearGradient id="gradient_5" gradientUnits="userSpaceOnUse" x1="444.89905" y1="533.75232" x2="577.94678" y2="360.87357">
			<stop offset="0" stop-color="#85C200"/>
			<stop offset="1" stop-color="#00C1A4"/>
		</linearGradient>
	</defs>
	<path fill="url(#gradient_5)" transform="scale(0.666667 0.666667)" d="M477.349 407.033C479.591 405.286 482.489 404.011 485.027 402.721C520.871 384.511 561.796 384.818 600.375 392.161C609.637 393.923 618.789 395.947 627.753 398.889L621.954 405.911C618.71 411.138 614.262 415.73 609.987 420.119C591.984 438.595 570.9 452.093 547.55 462.96L536.512 467.84C535.37 468.296 534.026 469.023 532.846 469.309L532.514 469.324C527.93 471.409 522.998 473.013 518.232 474.643L491.876 482.795C490.487 483.185 487.456 484.494 486.112 484.383L481.803 485.755L454.543 492.403L436.875 495.278C432.971 495.916 428.972 496.44 425.292 497.962C419.813 500.228 415.92 505.199 410.685 507.807C410.499 501.181 411.452 493.289 412.824 486.814C415.454 485.15 416.431 478.988 417.457 476.062L420.213 468.774C424.85 459.239 430.349 450.785 436.844 442.423C439.51 438.99 442.191 435.41 445.355 432.424L445.368 432.301C447.274 429.882 449.66 427.805 451.91 425.707C457.072 420.892 462.451 416.468 468.292 412.492C471.142 410.552 474.17 408.383 477.349 407.033Z"/>
	<path fill="#07B14F" transform="scale(0.666667 0.666667)" d="M621.954 405.911C618.71 411.138 614.262 415.73 609.987 420.119C591.984 438.595 570.9 452.093 547.55 462.96L536.512 467.84C535.37 468.296 534.026 469.023 532.846 469.309L532.514 469.324L532.341 469.001C532.678 468.519 532.84 468.367 533.402 468.133L535.125 467.441L536.062 467.066C536.854 466.878 537.043 466.981 537.773 466.494L538.312 466.125C539.152 465.824 539.434 465.514 540.188 465.191C540.828 464.917 540.815 465.33 541.691 464.812L542.627 464.252L546.752 462.377L549.002 461.252L556.877 457.502L562.688 454.316L563.25 454.033L563.627 453.752L564.188 453.566L564.75 453.191C565.425 452.803 565.911 452.675 566.438 452.066L565.883 452.043C565.123 451.849 565.283 451.526 564.31 451.579C562.587 451.673 560.684 452.515 558.965 452.841C553.787 453.821 548.146 454.823 542.912 455.321L534.94 456.184C531.911 456.746 528.515 456.378 525.576 457.109C522.788 457.802 518.684 457.301 515.71 457.453C509.858 457.752 504.37 458.49 498.645 459.7L497.49 459.949C496.735 460.158 496.47 460.34 495.655 460.281C495.012 460.234 494.515 460.242 493.875 460.316L493.5 460.688L492.75 460.691C492.186 461.249 492.011 461.064 491.25 461.066L490.875 461.438C490.219 461.441 489.586 461.464 489 461.816L488.531 462.189C487.925 462.272 487.355 462.351 486.768 462.528C486.159 462.712 486.55 462.705 485.807 462.507C485.468 461.719 485.163 461.061 485.139 460.184C485.112 459.171 484.249 459.01 484.006 458.003C484.661 456.862 485.484 455.125 486.467 454.261C487.362 453.475 489.003 453.034 490.103 452.529C492.035 451.641 493.897 450.619 495.53 449.247L495.786 449.027L539.286 432.06L542.062 431.092C542.765 430.882 542.917 430.936 543.581 430.499C544.197 430.094 544 430.127 544.688 429.941C545.207 429.801 545.692 429.738 546.213 429.564L547.312 429.191C547.832 429.051 548.317 428.988 548.838 428.814C549.531 428.583 550.181 428.441 550.877 428.252L553.312 427.691L557.826 426.564C558.569 426.317 559.292 426.139 560.062 426L561 425.816C561.806 425.434 561.61 425.441 562.5 425.441L562.691 425.062L561.436 424.935L561.254 424.241L562.688 423.953C563.85 423.704 566.239 423.192 567.375 423.376C567.418 423.382 568.629 423.952 568.688 423.966C569.075 424.06 570.342 423.736 570.75 423.644C574.869 422.715 579.058 421.292 583.119 420.092L602.27 414.121L613.688 409.524C616.412 408.282 619.075 406.748 621.954 405.911Z"/>
	<path fill="#0CFE92" transform="scale(0.666667 0.666667)" d="M316.315 219.654L313.03 214.502C316.829 215.155 320.123 216.379 323.733 217.669C328.668 219.669 333.352 222.299 338.057 224.783C339.98 225.798 342.13 227.245 344.207 227.856C350.258 230.651 356.372 234.915 361.709 238.905C379.891 251.76 396.492 270.96 407.068 290.55C413.928 303.256 418.926 317.136 422.472 331.104L423.673 335.709C422.255 343.691 422.374 352.323 420.385 360.148L418.67 371.831C418.337 373.834 418.271 375.89 417.524 377.786L417.292 378.399C417.52 385.637 415.946 393.221 414.998 400.376L409.353 442.263C408.147 440.805 407.5 438.332 406.724 436.575C404.25 425.943 399.995 414.708 394.054 405.548C374.311 375.107 339.573 354.081 304.467 346.609C307.037 335.381 306.973 324.683 305.021 313.366C304.521 310.466 304.132 307.343 303.143 304.571C302.41 301.454 302.403 298.074 302.204 294.886L301.466 276.057L299.592 247.258C305.942 250.108 312.62 252.638 319.512 253.741C319.57 246.925 318.123 240.163 317.777 233.316C317.732 228.642 317.266 224.23 316.315 219.654Z"/>
	<path fill="#89FB1C" transform="scale(0.666667 0.666667)" d="M407.8 367.367C409.386 366.103 411.093 366.83 412.688 365.1C412.455 363.935 411.712 363.179 411.033 362.246L405.541 354.932L392.203 336.375L392.391 336.12C394.495 338.005 396.003 341.072 397.754 343.328L409.594 359.064C410.189 359.922 410.966 360.728 411.488 361.61C412.397 363.148 413.632 364.598 414.698 366.043L414.292 367.241L413.562 367.23L413.438 366.375L411 367.688C411.609 368.198 412.006 368.545 412.451 369.213C413.406 370.647 415.039 371.648 415.804 373.173C416.157 373.875 415.9 373.561 416.531 374.064C417.343 373.181 417.562 373.178 417.566 372C418.233 371.196 418.009 371.118 417.941 370.125L418.312 369.566C418.301 368.836 418.266 368.302 418.502 367.594C418.793 366.721 418.782 366.28 418.689 365.344L417.887 365.163C417.579 364.565 417.28 364.186 416.781 363.744L416.252 363.281L416.25 362.812L415.773 362.478C415.626 361.878 415.562 361.74 415.094 361.31L414.683 360.938C414.258 360.369 413.254 359.262 413.008 358.665C412.732 357.993 412.147 357.874 411.891 357.192C411.678 356.627 411.848 356.905 411.328 356.385L410.906 355.969C409.997 354.583 408.802 352.842 407.7 351.572C407.293 351.103 406.961 350.648 406.622 350.128L404.906 347.719L404.625 347.062L404.156 346.686C404.003 346.17 403.872 345.921 403.529 345.492C402.56 344.28 401.729 342.923 400.875 341.625L400.125 340.5L399.281 339.469C398.372 337.927 397.177 336.423 396.188 334.875C395.537 333.856 394.549 333.025 394.031 331.969C393.525 330.936 392.655 330.361 392.156 329.344L391.875 328.688L391.406 328.311C391.257 327.815 391.144 327.568 390.801 327.166C390.26 326.53 390.593 326.984 390.098 326.287L389.812 325.875C389.442 325.36 389.501 325.184 389.438 324.566L400.243 339.548C402.95 343.544 405.576 348.115 408.785 351.697L409.502 352.498C410.023 353.378 410.71 353.71 411.253 354.505C412.126 355.782 411.081 354.643 411.96 355.557C414.156 357.841 416.006 360.361 417.762 362.993C418.139 361.757 417.912 360.107 417.913 358.793C417.916 355.526 417.712 352.086 418.103 348.851C418.215 347.923 418.097 346.796 418.454 345.936C418.731 345.269 418.806 344.585 418.919 343.873L419.059 340.5C419.722 339.467 419.273 338.997 420.201 337.928L420.752 337.877L422.441 335.625C422.001 334.523 422.3 334.077 422.214 333C422.153 332.243 422.261 331.887 422.472 331.104L423.673 335.709C422.255 343.691 422.374 352.323 420.385 360.148L418.67 371.831C418.337 373.834 418.271 375.89 417.524 377.786L417.292 378.399L417.175 377.979C415.684 372.852 412.311 369.845 407.8 367.367Z"/>
	<path fill="#A1FFA7" transform="scale(0.666667 0.666667)" d="M316.315 219.654L313.03 214.502C316.829 215.155 320.123 216.379 323.733 217.669C328.668 219.669 333.352 222.299 338.057 224.783C339.98 225.798 342.13 227.245 344.207 227.856C350.258 230.651 356.372 234.915 361.709 238.905L361.479 240.938C359.646 243.716 344.129 248.986 340.44 250.204C338.476 248.535 336.625 245.372 335.092 243.236C329.449 235.371 324.138 226.219 316.695 219.968L316.315 219.654Z"/>
	<path fill="#201C6C" transform="scale(0.666667 0.666667)" d="M303.143 304.571C302.41 301.454 302.403 298.074 302.204 294.886L301.466 276.057L299.592 247.258C305.942 250.108 312.62 252.638 319.512 253.741C320.939 287.832 335.731 321.433 360.802 344.668C369.858 353.06 381.354 360.797 393.375 364.122C398.133 365.438 403.054 365.979 407.8 367.367C412.311 369.845 415.684 372.852 417.175 377.979L417.292 378.399C417.52 385.637 415.946 393.221 414.998 400.376L409.353 442.263C408.147 440.805 407.5 438.332 406.724 436.575C404.25 425.943 399.995 414.708 394.054 405.548C374.311 375.107 339.573 354.081 304.467 346.609C307.037 335.381 306.973 324.683 305.021 313.366C304.521 310.466 304.132 307.343 303.143 304.571Z"/>
	<defs>
		<linearGradient id="gradient_6" gradientUnits="userSpaceOnUse" x1="381.01501" y1="578.28168" x2="382.1217" y2="517.1955">
			<stop offset="0" stop-color="#34180A"/>
			<stop offset="1" stop-color="#080037"/>
		</linearGradient>
	</defs>
	<path fill="url(#gradient_6)" transform="scale(0.666667 0.666667)" d="M285.52 517.401C292.009 518.283 298.413 518.322 304.948 518.423L336.942 518.537L379.98 518.566C381.459 518.956 384.037 518.621 385.647 518.617C390.831 518.603 396.136 518.784 401.298 518.359C403.902 518.408 406.896 518.181 409.441 518.638C410.011 519.174 410.77 520.028 411.562 520.182C413.003 520.463 415.083 520.211 416.587 520.208L427.099 520.098L438.203 519.393L494.609 519.262L514.356 519.341C517.956 519.362 521.645 519.153 525.228 519.491C527.063 519.665 528.721 519.749 530.155 520.936C531.233 526.476 530.516 533.399 530.312 539.062L529.688 574.125C528.827 574.994 528.355 575.496 527.062 575.625L526.594 575.627L525.469 576.002C523.895 576.526 520.555 576.385 518.812 576.375L518.25 576.283C517.626 576.225 517.082 576.33 516.469 576.377C515.462 576.454 516.35 576.334 515.25 576.191C514.26 576.063 512.931 576.244 511.875 576.188L511.688 575.441L479.506 575.832C473.646 575.874 467.431 575.216 461.716 576.685L461.488 576.689L406.289 576.503L377.425 576.498L248.909 576.74L248.865 576.398L247.312 575.601C244.92 576.423 239.755 575.913 237.117 575.913L236.625 575.908C235.637 575.909 235.051 576.017 234.186 575.439L233.332 553.737C232.729 549.093 233.19 543.854 233.117 539.139L232.744 526.908C232.74 525.602 232.515 523.541 233.02 522.357C233.489 521.258 234.803 519.023 235.859 518.446C236.089 518.32 237.282 518.426 237.608 518.425L244.125 518.458L268.688 518.171L280.378 518.162C281.75 518.153 283.717 518.395 284.921 517.751L285.52 517.401Z"/>
	<path fill="#4E3A01" transform="scale(0.666667 0.666667)" d="M248.865 576.398L265.979 576.188C265.335 575.812 265.682 575.939 264.934 575.812L265.192 574.516C264.214 573.302 265 572.677 264.257 571.486C264.533 569.23 266.09 567.211 267.15 565.227C268.033 563.575 268.323 561.837 269.267 560.237C269.853 559.244 270.006 558.098 270.601 557.076C271.872 554.894 273.428 552.762 274.209 550.358C274.408 549.748 274.694 549.333 275.067 548.818C275.433 548.658 276.21 548.439 276.487 548.197C277.267 547.516 277.679 545.789 278.252 544.877C279.658 542.638 281.238 540.652 282.337 538.211L266.677 538.087L266.625 537.896L463.298 537.978C456.446 538.698 448.973 538.214 442.054 538.183C440.626 538.177 438.009 537.806 436.722 538.147C436.255 538.271 435.434 538.972 434.993 539.254L434.991 539.62C436.503 540.969 438.275 542.913 440.396 542.98L440.649 543.285C441.294 544.055 441.895 544.685 442.687 545.298C444.275 546.525 445.742 547.833 447.055 549.315C447.506 549.823 448.015 550.226 448.462 550.778C450.812 553.682 453.403 556.317 455.675 559.308C457.872 562.203 459.559 565.51 462.063 568.154C463.368 569.531 464.293 571.41 464.152 573.364C464.123 573.762 464.022 574.045 463.912 574.413C462.446 575.419 460.5 574.711 459 575.533L458.441 575.812C459.108 576.137 459.735 576.231 460.451 576.375C461.014 576.488 460.818 576.449 461.488 576.689L406.289 576.503L377.425 576.498L248.909 576.74L248.865 576.398Z"/>
	<path fill="#12FABC" transform="scale(0.666667 0.666667)" d="M453.135 104.711C453.776 102.699 454.88 100.718 455.811 98.8134C469.195 71.4601 489.727 43.5615 519.637 33.3464L529.748 68.7619C529.343 71.518 530.508 75.1142 531.587 77.6336C532.411 80.998 533.231 84.8091 533.372 88.2659C534.167 91.0963 534.262 94.4937 534.434 97.4305L534.73 118.542L529.486 171.372C528.093 181.276 525.359 191.198 522.152 200.657C519.101 209.657 515.729 218.417 511.201 226.791C502.115 243.597 488.774 258.792 473.566 270.268C469.219 273.549 464.663 276.616 459.829 279.137C458.103 280.036 456.231 281.162 454.342 281.643L445.951 273.196L444.562 272.27L443.812 272.57L443.334 275.726C443.332 270.835 441.843 267.961 439.228 263.95L437.813 262.493C424.295 245.381 415.394 224.435 409.575 203.578C407.13 194.817 405.014 185.717 404.233 176.634C400.37 152.8 397.629 128.428 398.644 104.252L399.716 60.5934C399.673 58.3567 399.675 56.0844 399.474 53.8554C399.388 52.9084 398.831 50.7893 399.157 49.9569L419.255 71.8703C425.816 79.6274 431.501 87.9157 436.534 96.7358C437.444 98.3322 439.861 101.737 440.064 103.489C442.831 107.97 445.441 113.246 447.21 118.207C449.599 114.016 450.713 109.003 453.135 104.711Z"/>
	<defs>
		<linearGradient id="gradient_7" gradientUnits="userSpaceOnUse" x1="467.87158" y1="179.29158" x2="482.57367" y2="183.79077">
			<stop offset="0" stop-color="#02EA7F"/>
			<stop offset="1" stop-color="#00C5C0"/>
		</linearGradient>
	</defs>
	<path fill="url(#gradient_7)" transform="scale(0.666667 0.666667)" d="M441.691 260.511C442.228 261.354 442.679 261.762 442.688 262.79L443.625 263.441C444.873 262.797 445.667 261.242 446.43 260.098C446.928 259.349 446.717 259.684 447.101 258.915C447.39 258.338 447.63 258.095 448.048 257.625C449.355 256.157 449.981 254.234 450.998 252.572C451.3 252.079 451.512 251.622 451.736 251.094L454.362 245.25L462.382 225.76L480.218 175.889L494.49 124.77C495.661 120.328 496.368 115.579 497.71 111.217C498.141 109.819 498.158 108.314 498.473 106.875L498.745 104.972C499.052 102.12 499.886 99.3705 500.285 96.5625C500.485 95.1574 500.38 94.029 500.77 92.625C501.129 91.3362 500.732 89.7955 501.643 88.7112C502.003 90.4132 501.876 91.3345 501.566 93C501.338 94.2262 501.561 94.9011 501.186 96.0938L501.136 96.7793C501.079 97.5305 500.992 97.8006 500.625 98.4375L500.809 99.1875L500.441 99.75C500.439 100.578 500.671 101.014 500.066 101.625C500.064 102.453 500.296 102.889 499.691 103.5C499.69 104.337 499.92 105.14 499.316 105.75C499.314 106.578 499.546 107.014 498.941 107.625C498.939 108.553 499.095 109.079 498.566 109.875C498.563 111.206 498.648 112.107 498.186 113.344L498.145 114.299C498.109 122.094 496.123 130.69 494.617 138.347C488.205 170.943 478.44 202.49 466.436 233.428L458.924 251.749C455.658 259.373 452.214 266.907 446.282 272.878L445.951 273.196L444.562 272.27L443.812 272.57L443.334 275.726C443.332 270.835 441.843 267.961 439.228 263.95L440.172 264.198L440.625 264.562C441.249 264.151 441.495 263.834 441.941 263.25C441.441 262.485 441.595 261.788 441.658 260.92L441.691 260.511Z"/>
	<defs>
		<linearGradient id="gradient_8" gradientUnits="userSpaceOnUse" x1="409.27036" y1="239.33107" x2="460.9136" y2="174.67444">
			<stop offset="0" stop-color="#00B161"/>
			<stop offset="1" stop-color="#00D694"/>
		</linearGradient>
	</defs>
	<path fill="url(#gradient_8)" transform="scale(0.666667 0.666667)" d="M436.264 154.035L436.726 154.106C437.335 154.191 437.089 154.188 437.625 154.125L437.719 152.792C438.048 154.749 437.717 156.761 437.689 158.739L437.725 170.696L438.745 220.069L439.186 238.574C439.287 244.003 439.089 249.676 440.229 255L441.691 260.511L441.658 260.92C441.595 261.788 441.441 262.485 441.941 263.25C441.495 263.834 441.249 264.151 440.625 264.562L440.172 264.198L439.228 263.95L437.813 262.493C424.295 245.381 415.394 224.435 409.575 203.578C407.13 194.817 405.014 185.717 404.233 176.634L404.349 176.681C405.197 177.246 405.862 177.886 406.196 178.856C407.078 181.416 408.957 183.837 410.543 186.02L419.784 197.735C418.874 199.179 417.04 201.748 416.873 203.438C416.656 205.634 419.209 208.884 420.472 210.657L420.81 211.125C423.07 214.29 425.907 217.637 428.968 220.029L431.865 222.515C431.846 199.889 432.015 176.674 435.871 154.329L436.264 154.035Z"/>
	<defs>
		<linearGradient id="gradient_9" gradientUnits="userSpaceOnUse" x1="407.34695" y1="46.697754" x2="446.03494" y2="148.33507">
			<stop offset="0" stop-color="#CCFFB4"/>
			<stop offset="1" stop-color="#49FFBE"/>
		</linearGradient>
	</defs>
	<path fill="url(#gradient_9)" transform="scale(0.666667 0.666667)" d="M399.716 60.5934C399.673 58.3567 399.675 56.0844 399.474 53.8554C399.388 52.9084 398.831 50.7893 399.157 49.9569L419.255 71.8703C425.816 79.6274 431.501 87.9157 436.534 96.7358C437.444 98.3322 439.861 101.737 440.064 103.489C442.831 107.97 445.441 113.246 447.21 118.207C444.337 125.677 441.157 132.656 439.057 140.431C438.769 141.497 437.954 143.467 438.097 144.529C437.012 147.356 436.444 150.559 435.686 153.506L420.609 110.137L417.997 102.796C417.063 98.6206 414.78 94.4114 413.149 90.4459L403.524 66.3731C402.983 64.924 401.654 63.5948 401.374 62.1428C401.083 60.6327 401.223 59.6715 400.314 58.3106L399.716 60.5934Z"/>
	<defs>
		<linearGradient id="gradient_10" gradientUnits="userSpaceOnUse" x1="273.7132" y1="544.15662" x2="490.28378" y2="708.36652">
			<stop offset="0" stop-color="yellow"/>
			<stop offset="1" stop-color="#C7199A"/>
		</linearGradient>
	</defs>
	<path fill="url(#gradient_10)" transform="scale(0.666667 0.666667)" d="M377.425 576.498L406.289 576.503L461.488 576.689L461.716 576.685L525.993 577.516L485.198 716.08L342.552 715.826C341.271 716.062 339.598 715.872 338.28 715.873L329.877 715.881L292.269 716.112L287.55 701.083L287.259 699.655L248.909 576.74L377.425 576.498Z"/>
	<path fill="#201C6C" transform="scale(0.666667 0.666667)" d="M210.741 85.51L210.934 87C212.528 87.0295 213.882 86.1294 215.25 85.4454C219.791 83.1755 224.496 80.7129 229.176 78.7799C230.548 78.213 231.173 77.7828 232.561 78.3554C231.89 80.1183 232.394 82.6944 232.493 84.5625L232.968 96.6727C233.817 97.1668 234.652 97.6263 235.271 98.4089C236.1 99.4563 236.585 101.183 237.188 102.405L243.638 115.539L264.713 161.63L266.408 165.211L267.895 168.878C279.188 189.989 287.975 215.475 308.625 229.385C310.68 230.769 313.903 233.297 316.182 234.022C316.508 234.125 316.715 234.137 317.066 234.188L317.777 233.316C318.123 240.163 319.57 246.925 319.512 253.741C312.62 252.638 305.942 250.108 299.592 247.258L301.466 276.057L302.204 294.886C302.403 298.074 302.41 301.454 303.143 304.571C304.132 307.343 304.521 310.466 305.021 313.366C306.973 324.683 307.037 335.381 304.467 346.609C339.573 354.081 374.311 375.107 394.054 405.548C399.995 414.708 404.25 425.943 406.724 436.575C407.5 438.332 408.147 440.805 409.353 442.263C409.364 444.783 408.917 447.314 408.667 449.82C408.401 452.481 408.274 455.246 407.766 457.869L401.166 516.483L401.298 518.359C396.136 518.784 390.831 518.603 385.647 518.617C384.037 518.621 381.459 518.956 379.98 518.566L336.942 518.537L304.948 518.423C298.413 518.322 292.009 518.283 285.52 517.401L284.921 517.751C283.717 518.395 281.75 518.153 280.378 518.162L268.688 518.171L244.125 518.458L237.608 518.425C237.282 518.426 236.089 518.32 235.859 518.446C234.803 519.023 233.489 521.258 233.02 522.357C232.515 523.541 232.74 525.602 232.744 526.908L233.117 539.139C233.19 543.854 232.729 549.093 233.332 553.737C232.962 554.719 232.62 555.447 232.783 556.5C232.976 557.739 232.75 558.998 232.783 560.25C232.845 562.542 233.147 565.127 232.777 567.389C232.477 569.23 233.058 571.142 232.783 573C232.616 574.125 232.818 575.168 232.969 576.281L233.812 577.309C235.053 577.188 236.135 577.18 237.375 577.217L244.312 577.309C245.426 577.355 246.551 577.243 247.688 577.309L247.691 577.875L248.066 578.812L248.252 579.373L249.281 580.314L248.816 580.875C248.816 581.523 248.668 581.85 249.191 582.375L249.75 582.75L250.033 583.125L249.566 583.688L249.941 584.25L250.21 584.8C250.466 585.313 250.709 585.684 251.066 586.125C251.066 586.928 250.895 587.197 251.406 587.836C251.837 588.375 252.089 588.88 252.375 589.5C252.15 591.104 252.433 590.62 252.941 591.938C253.267 592.781 252.803 593.361 253.316 594.375L253.502 595.123L254.25 595.312L254.066 596.062L254.441 596.625L254.627 597.373L255 597.75C255.35 598.27 255.366 598.638 255.272 599.215C255.19 599.715 255.104 599.909 255.377 600.373L256.125 601.125L256.312 602.25L255.941 602.625L257.062 604.684C257.073 606.254 257.132 604.329 256.877 605.719C256.767 606.317 257.068 606.944 257.252 607.498L257.608 607.743C258.139 608.141 257.957 607.972 258.283 608.625L257.816 609.375L257.992 609.785C258.192 610.285 258.288 610.722 258.377 611.248L259.033 611.25C258.988 612.077 258.751 612.685 259.281 613.348C259.662 613.824 259.951 614.285 260.25 614.812L260.147 615.317C259.968 616.407 260.222 616.909 260.812 617.809L261.375 617.812C261.242 618.479 261.312 618.624 260.816 619.125L261.377 620.623L261.941 621C261.942 621.009 262.123 622.489 262.127 622.498C262.464 623.308 263.092 622.584 262.691 623.812L263.25 624.375L263.066 625.312L263.625 625.688L263.441 626.438C263.533 626.575 264.344 627.599 264.375 627.75C264.53 628.516 263.769 628.265 264.566 629.062C264.566 629.438 264.448 629.832 264.566 630.188C264.61 630.319 265.105 630.638 265.125 630.75C265.403 632.277 264.625 632.325 266.017 633.727L266.25 633.938C266.087 634.934 266.001 634.732 266.441 635.625L266.511 635.964C266.662 636.573 267.021 636.995 267.375 637.5C267.314 637.938 267.076 638.386 267.191 638.812C267.467 639.837 268.113 639.256 267.941 640.688L268.316 641.062L268.374 641.448C268.515 642.161 268.457 641.884 268.796 642.573C269.251 643.5 269.111 644.559 269.066 645.562C269.742 646.011 269.426 645.832 270 646.125C270.266 646.791 270.39 646.867 270.272 647.59C270.19 648.09 270.104 648.284 270.377 648.748L271.125 649.5L270.941 650.062L271.316 650.625C271.316 651.275 271.236 651.411 271.578 651.984C272.053 652.781 272.077 653.1 272.252 653.998C272.402 654.77 272.768 655.409 273.188 656.059C273.193 656.96 273.046 657.304 273.555 658.067C274.012 658.753 273.951 658.893 274.127 659.623L274.66 661.148C274.859 661.678 274.783 661.496 274.877 662.248L275.158 662.625L275.252 663.373C275.381 664.028 275.538 664.408 276 664.875C276.138 665.377 276.162 665.662 276.191 666.188C276.239 667.027 276.625 667.633 277.031 668.344C276.982 669.208 276.756 669.774 277.316 670.5L277.875 671.062L277.783 671.625L278.41 673.644C278.631 674.307 278.941 674.863 279.281 675.469L279.225 676.043C279.149 677.068 279.455 677.394 280.031 678.186L280.026 678.609C280.028 679.44 280.112 679.877 280.495 680.589C280.894 681.329 280.959 681.855 281.066 682.688C281.15 683.34 281.21 683.461 281.533 684C281.956 684.705 282.403 685.412 282.272 686.215C282.098 687.278 282.194 686.357 282.377 687.373L282.377 687.844C281.51 688.276 280.194 688.071 279.188 688.125C276.925 688.246 274.5 688.209 272.25 688.033L227.25 688.033C224.727 688.215 220.539 688.564 218.25 687.75C216.916 687.275 214.1 687.762 212.564 687.732L211.686 687.281C209.777 685.893 207.562 684.934 205.293 684.178C204.811 684.017 204.377 683.789 203.906 683.627C202.813 683.25 203.669 683.66 202.716 683.183L199.873 681.752L197.061 680.546L184.406 674.252L183.748 673.877L180.925 672.46L180.375 672.191L179.248 671.627C178.109 671.162 177.332 670.327 176.248 669.752C175.658 669.439 175.112 669.191 174.551 668.817L170.25 666.191C167.4 664.156 164.13 662.609 161.25 660.566L160.498 660.002C159.748 659.642 159.635 659.282 158.998 658.877C156.751 657.447 159.664 659.629 158.109 658.455L153.373 655.127L151.652 653.781C149.736 652.504 148.057 651.106 146.25 649.691C144.541 648.353 142.33 647.025 140.929 645.377L140.623 645.002C139.839 644.742 140.192 644.944 139.512 644.312C138.049 642.951 136.217 641.951 134.889 640.459L134.623 640.127C133.894 639.885 134.18 640.071 133.628 639.519L130.071 636.425L129.281 635.627C127.375 634.282 125.729 632.487 124.123 630.752C123.468 630.535 123.265 630.323 122.789 629.844L122.507 629.558L121.498 628.502C119.985 625.984 117.152 624.152 115.264 621.793L98.2481 603.469C97.1227 601.588 95.1201 600.053 94.1231 598.127C93.562 597.043 94.4457 598.06 93.3966 597.025C93.0086 596.643 92.7961 596.429 92.5071 595.948C90.9473 593.352 88.0123 591.061 86.6231 588.377C86.1781 587.517 86.6979 588.075 86.1918 587.53C85.4248 586.704 84.5137 585.832 84 584.812C82.7904 582.412 80.5753 579.694 78.9338 577.5C78.3969 576.783 78.081 575.934 77.5166 575.273C77.1604 574.856 77.3078 575.099 77.0609 574.605C76.8388 574.161 76.6025 573.778 76.3088 573.375C74.8226 571.338 73.7427 568.95 72.2577 566.969C70.9857 565.271 69.9047 562.884 68.798 561.004C64.2178 553.226 59.9358 545.246 56.1925 537.029C49.9341 523.291 44.1053 509.513 39.5123 495.101C27.9523 458.829 23.0553 419.743 23.2088 381.744L23.9832 359.108C24.1804 355.301 24.1421 351.2 24.7011 347.438C25.7672 340.261 25.701 332.818 27.0407 325.699C27.5426 323.032 27.4963 318.294 28.7988 316.051C30.4339 304.684 33.5838 293.364 36.907 282.397C45.7065 253.358 57.4798 226.213 73.2245 200.291L81.1166 187.479L104.304 155.938C106.986 152.187 110.293 148.632 113.29 145.125C119.747 137.571 126.264 130.269 133.757 123.717C136.114 121.196 138.865 118.946 141.451 116.661C148.959 110.024 156.888 104 165.022 98.158C166.878 96.8246 170.352 93.7546 172.508 93.3567C173.57 93.1609 175.486 93.5306 176.633 93.6229C183.195 94.1509 190.176 96.4499 196.722 95.3677L197.193 95.2842C199.593 94.1415 202.154 92.4675 204.275 90.8711L208.304 89.0562C210.162 87.9437 210.225 87.5158 210.741 85.51Z"/>
	<path fill="#689700" transform="scale(0.666667 0.666667)" d="M385.867 492.615C387.79 495.404 389.353 498.482 390.782 501.548C392.889 506.436 394.373 512.532 398.133 516.394C399.389 516.677 399.978 517.042 401.166 516.483L401.298 518.359C396.136 518.784 390.831 518.603 385.647 518.617C384.037 518.621 381.459 518.956 379.98 518.566L380.303 518.175L390.605 518.146L390.661 516.392C390.359 514.526 389.552 512.777 389.192 510.938C388.848 509.18 388.909 507.166 388.825 505.364L385.119 494.625C385.418 494.12 385.579 493.745 385.733 493.167L385.867 492.615Z"/>
	<path fill="#699800" transform="scale(0.666667 0.666667)" d="M388.825 505.364C390.169 508.279 391.071 511.228 391.336 514.439C392.683 515.881 394.606 516.68 396.063 518.022L390.605 518.146L390.661 516.392C390.359 514.526 389.552 512.777 389.192 510.938C388.848 509.18 388.909 507.166 388.825 505.364Z"/>
	<path fill="#699800" transform="scale(0.666667 0.666667)" d="M390.782 501.548C392.889 506.436 394.373 512.532 398.133 516.394C397.263 516.952 397.375 516.919 396.377 516.748C395.291 516.563 394.762 516.286 393.973 515.479C392.133 513.595 389.866 507.53 390.022 504.945L390.05 504.562C390.119 503.429 390.383 502.595 390.782 501.548Z"/>
	<path fill="#89FB1C" transform="scale(0.666667 0.666667)" d="M119.269 197.643C120.33 197.587 121.712 197.422 122.73 197.698C123.966 198.034 125.547 199.739 126.174 200.811C127.083 202.368 127.252 204.158 126.745 205.875C125.937 208.608 124.583 209.862 122.152 211.203C120.974 211.306 119.901 211.348 118.768 210.947C117.041 210.335 115.486 208.795 114.81 207.095C114.143 205.419 114.138 202.596 114.929 200.947C115.794 199.144 117.508 198.342 119.269 197.643Z"/>
	<path fill="#7A8BA9" transform="scale(0.666667 0.666667)" d="M81.1166 187.479C83.3158 187.904 85.0024 189.636 86.2559 191.424C88.5743 194.731 89.9618 198.621 92.4338 201.816C91.3198 204.398 89.617 206.683 88.2197 209.113L77.8081 227.782C65.4091 251.874 56.1006 277.736 50.2868 304.199C49.4114 308.184 48.0592 312.574 47.8125 316.613C47.5139 315.337 47.5845 314.521 48 313.312L48.1875 312.375L48.2871 311.924C48.4155 311.282 48.3601 311.538 48.416 310.811C48.4776 310.01 48.4055 310.366 48.75 309.562L48.5663 308.438C49.1309 307.869 49.0959 308.089 49.1543 307.213C49.2339 306.02 49.1259 306.9 49.5 305.812L49.6875 304.875L50.1504 302.514C50.3588 301.472 50.1005 302.758 50.5312 301.406C50.7772 300.634 50.7132 299.896 51 299.062L51.375 297.188C50.1661 296.518 48.4116 296.785 47.0588 296.812L46.5 297.184L45.7481 297.373L45.3507 297.478C44.2513 297.696 43.3318 297.298 42.375 297.934L41.8594 297.882C41.2455 297.832 40.7555 297.769 40.2188 298.123L39.8438 297.844L39.7481 298.498C39.2402 298.498 39.5584 298.523 38.8088 298.312L38.6231 298.873C37.9935 299.026 37.439 299.07 36.797 299.096C36.0261 299.126 35.6793 299.3 34.9688 299.531L34.4981 299.623L33.9375 299.809L33.375 299.434L32.625 300C32.5291 301.149 32.237 301.125 31.875 302.062C31.6793 302.569 31.9443 303.461 31.7812 304.031C31.4383 305.23 31.15 306.524 30.75 307.688L30.5625 308.625L30.4629 309.076C30.3345 309.718 30.3899 309.462 30.334 310.189C30.2561 311.202 30.3641 310.379 30 311.438L29.8125 312.375L29.7129 312.803C29.5955 313.39 29.6126 313.936 29.5726 314.526C29.5299 315.157 29.5357 314.762 29.25 315.562L29.0694 316.349L28.7988 316.051C30.4339 304.684 33.5838 293.364 36.907 282.397C45.7065 253.358 57.4798 226.213 73.2245 200.291L81.1166 187.479Z"/>
	<defs>
		<linearGradient id="gradient_11" gradientUnits="userSpaceOnUse" x1="121.4301" y1="208.74156" x2="154.06895" y2="84.13575">
			<stop offset="0" stop-color="#FFFF4B"/>
			<stop offset="1" stop-color="#1BA2FD"/>
		</linearGradient>
	</defs>
	<path fill="url(#gradient_11)" transform="scale(0.666667 0.666667)" d="M133.757 123.717C136.114 121.196 138.865 118.946 141.451 116.661C148.959 110.024 156.888 104 165.022 98.158C166.878 96.8246 170.352 93.7546 172.508 93.3567C173.57 93.1609 175.486 93.5306 176.633 93.6229C183.195 94.1509 190.176 96.4499 196.722 95.3677L197.193 95.2842C196.252 97.395 186.463 102.822 183.754 104.652C176.043 109.859 168.773 115.643 161.735 121.724L151.531 131.036C150.42 132.094 148.476 134.502 147.196 135.125L119 165.688L101.091 189.047C98.1648 192.983 94.5088 197.395 92.4338 201.816C89.9618 198.621 88.5743 194.731 86.2559 191.424C85.0024 189.636 83.3158 187.904 81.1166 187.479L104.304 155.938C106.986 152.187 110.293 148.632 113.29 145.125C119.747 137.571 126.264 130.269 133.757 123.717Z"/>
	<defs>
		<linearGradient id="gradient_12" gradientUnits="userSpaceOnUse" x1="243.71532" y1="286.86627" x2="293.50787" y2="114.23891">
			<stop offset="0" stop-color="#6FFF00"/>
			<stop offset="1" stop-color="#C4FF65"/>
		</linearGradient>
	</defs>
	<path fill="url(#gradient_12)" transform="scale(0.666667 0.666667)" d="M232.968 96.6727C233.817 97.1668 234.652 97.6263 235.271 98.4089C236.1 99.4563 236.585 101.183 237.188 102.405L243.638 115.539L264.713 161.63L266.408 165.211L267.895 168.878C279.188 189.989 287.975 215.475 308.625 229.385C310.68 230.769 313.903 233.297 316.182 234.022C316.508 234.125 316.715 234.137 317.066 234.188L317.777 233.316C318.123 240.163 319.57 246.925 319.512 253.741C312.62 252.638 305.942 250.108 299.592 247.258L301.466 276.057L302.204 294.886C302.403 298.074 302.41 301.454 303.143 304.571L302.992 304.398C300.515 301.901 299.309 297.533 297.783 294.375C296.397 291.505 294.522 289.07 294.111 285.855L291.281 242.494L278.681 234.534C267.952 227.157 258.739 217.557 252.338 206.192C248.839 199.979 246.302 193.249 244.097 186.488C242.548 181.738 241.038 176.879 240.117 171.965C238.027 165.132 237.175 157.559 236.338 150.473L233.807 122.812L232.968 96.6727Z"/>
	<path fill="#89FB1C" transform="scale(0.666667 0.666667)" d="M201.456 454.284L200.312 452.812C201.447 451.586 208.528 451.291 210.529 450.999C230.204 448.124 249.834 445.475 269.727 444.699C282.57 444.199 295.398 444.825 308.062 447.125C323.982 450.015 339.594 456.043 353.734 463.859C361.159 467.963 368.334 472.594 374.559 478.392C379.068 482.592 382.519 487.485 385.867 492.615L385.733 493.167C385.579 493.745 385.418 494.12 385.119 494.625L388.825 505.364C388.909 507.166 388.848 509.18 389.192 510.938C389.552 512.777 390.359 514.526 390.661 516.392L389.816 516.648C387.95 514.678 386.681 512.08 384.363 510.536C381.561 508.672 379.219 505.96 376.561 503.902L363.281 494.627L352.753 489.434L352.125 489.191C351.619 488.979 351.151 488.721 350.624 488.56L335.25 483.409C325.491 480.603 315.478 478.543 305.494 476.723C277.93 471.701 250.008 470.099 222.975 462.197C217.846 460.697 212.198 459.142 207.375 456.831C206.347 456.338 204.815 456.081 203.942 455.469L203.627 455.224C202.92 454.875 202.203 454.701 201.456 454.284Z"/>
	<path fill="#60D901" transform="scale(0.666667 0.666667)" d="M201.456 454.284C202.203 454.701 202.92 454.875 203.627 455.224L203.942 455.469C204.815 456.081 206.347 456.338 207.375 456.831C212.198 459.142 217.846 460.697 222.975 462.197C250.008 470.099 277.93 471.701 305.494 476.723C315.478 478.543 325.491 480.603 335.25 483.409L350.624 488.56C351.151 488.721 351.619 488.979 352.125 489.191L352.753 489.434L363.281 494.627L376.561 503.902C379.219 505.96 381.561 508.672 384.363 510.536C386.681 512.08 387.95 514.678 389.816 516.648L390.661 516.392L390.605 518.146L380.303 518.175L379.98 518.566L336.942 518.537L304.948 518.423C298.413 518.322 292.009 518.283 285.52 517.401C278.61 515.742 272.183 512.463 265.948 509.135C248.777 499.97 231.288 487.948 218.062 473.568C216.743 471.829 214.751 470.228 213.21 468.637C208.931 464.217 204.678 459.543 201.456 454.284Z"/>
	<path fill="#07B14F" transform="scale(0.666667 0.666667)" d="M218.062 473.568C219.64 473.371 220.555 473.359 222.037 473.9C229.265 476.537 236.898 478.172 243.938 481.27C253.69 485.561 262.786 491.306 272.259 496.177C284.368 502.402 297.349 507.37 310.332 511.445L323.14 515.506C325.337 516.181 328.071 516.528 329.812 518.086L336.942 518.537L304.948 518.423C298.413 518.322 292.009 518.283 285.52 517.401C278.61 515.742 272.183 512.463 265.948 509.135C248.777 499.97 231.288 487.948 218.062 473.568Z"/>
	<defs>
		<linearGradient id="gradient_13" gradientUnits="userSpaceOnUse" x1="273.65585" y1="357.53088" x2="220.10878" y2="214.48758">
			<stop offset="0" stop-color="#009427"/>
			<stop offset="1" stop-color="#46FFA9"/>
		</linearGradient>
	</defs>
	<path fill="url(#gradient_13)" transform="scale(0.666667 0.666667)" d="M177.832 232.837L177.012 231L177.375 230.488C182.097 230.33 187.029 230.946 191.686 231.684C198.178 232.462 204.722 233.86 211.093 235.307C228.843 239.337 246.035 245.411 261.328 255.484C264.437 257.376 267.794 259.422 270.422 261.968C273.246 263.836 275.804 266.205 278.342 268.445C281.828 271.522 285.292 274.618 288.271 278.202C290.208 280.532 291.804 284.039 294.111 285.855C294.522 289.07 296.397 291.505 297.783 294.375C299.309 297.533 300.515 301.901 302.992 304.398L303.143 304.571C304.132 307.343 304.521 310.466 305.021 313.366C306.973 324.683 307.037 335.381 304.467 346.609L301.147 346.165C298.267 345.326 295.11 344.95 292.15 344.453C284.943 343.705 278.237 344.05 271.025 344.78C265.802 345.795 259.977 347.269 254.713 347.685C253.075 345.593 250.362 344.064 248.23 342.469L237.626 334.126C219.16 318.61 206.655 298.486 197.524 276.351C196.888 275.525 196.486 274.199 196.042 273.232L192.982 266.646L181.463 242.254C180.147 239.171 178.605 236.109 177.832 232.837Z"/>
	<path fill="#0CFE92" transform="scale(0.666667 0.666667)" d="M187.133 242.57C189.696 241.955 192.379 242.602 194.812 241.309L194.719 241.809L195.534 241.979L195.202 242.736L194.062 242.816L193.594 243.564L193.127 243.002L192.777 243.096C191.215 243.41 189.347 243.226 187.746 243.228L187.133 242.57Z"/>
	<path fill="#07B14F" transform="scale(0.666667 0.666667)" d="M177.832 232.837C179.613 233.981 180.383 236.083 181.953 237.098L187.133 242.57L187.746 243.228L200.563 256.03L206.875 261.584C215.359 269.405 224.965 275.823 233.824 283.179C249.271 296.006 263.989 309.899 277.915 324.358C283.31 329.961 289.862 336.132 293.655 342.938L293.658 344.062L292.15 344.453C284.943 343.705 278.237 344.05 271.025 344.78C265.802 345.795 259.977 347.269 254.713 347.685C253.075 345.593 250.362 344.064 248.23 342.469L237.626 334.126C219.16 318.61 206.655 298.486 197.524 276.351C196.888 275.525 196.486 274.199 196.042 273.232L192.982 266.646L181.463 242.254C180.147 239.171 178.605 236.109 177.832 232.837Z"/>
	<defs>
		<linearGradient id="gradient_14" gradientUnits="userSpaceOnUse" x1="286.69202" y1="294.09335" x2="201.93297" y2="304.78165">
			<stop offset="0" stop-color="#008A41"/>
			<stop offset="1" stop-color="#01C162"/>
		</linearGradient>
	</defs>
	<path fill="url(#gradient_14)" transform="scale(0.666667 0.666667)" d="M201.448 263.289C201.584 261.851 199.034 260.938 198.634 259.509C198.348 258.487 197.267 257.395 196.535 256.623L196.055 256.125L196.165 255.644C197.744 255.576 199.034 255.611 200.563 256.03L206.875 261.584C215.359 269.405 224.965 275.823 233.824 283.179C249.271 296.006 263.989 309.899 277.915 324.358C283.31 329.961 289.862 336.132 293.655 342.938L293.658 344.062L292.15 344.453C284.943 343.705 278.237 344.05 271.025 344.78L270.417 344.489L270.562 344.066L271.875 344.158C273.368 343.957 274.63 343.728 276.188 343.691L276.562 343.316L278.625 343.408C279.3 343.436 280.218 343.643 280.875 343.408C282.178 342.941 284.867 342.815 286.219 343.266C286.795 343.458 286.414 343.418 287.127 343.419L287.625 343.408L288.188 343.5L288.191 342.75C286.246 339.588 282.967 337.051 280.391 334.387C265.483 318.969 249.539 303.872 233.033 290.152L218.495 278.208C217.061 277.015 214.994 275.653 213.75 274.316L213.559 273.938C212.96 273.71 212.753 273.517 212.285 273.048C211.449 272.21 210.561 271.494 209.623 270.771L209.062 270.75L201.448 263.289Z"/>
	<defs>
		<linearGradient id="gradient_15" gradientUnits="userSpaceOnUse" x1="315.79935" y1="450.98953" x2="322.82727" y2="346.23676">
			<stop offset="0" stop-color="#48D300"/>
			<stop offset="1" stop-color="#A3FF2C"/>
		</linearGradient>
	</defs>
	<path fill="url(#gradient_15)" transform="scale(0.666667 0.666667)" d="M271.025 344.78C278.237 344.05 284.943 343.705 292.15 344.453C295.11 344.95 298.267 345.326 301.147 346.165L304.467 346.609C339.573 354.081 374.311 375.107 394.054 405.548C399.995 414.708 404.25 425.943 406.724 436.575C407.5 438.332 408.147 440.805 409.353 442.263C409.364 444.783 408.917 447.314 408.667 449.82C408.401 452.481 408.274 455.246 407.766 457.869C404.476 453.736 402.205 448.284 397.644 445.346C395.386 443.892 392.593 443.397 390.003 442.869L378.375 440.678L354.375 436.141L338.168 432.478C324.108 432.15 309.175 429.043 296.133 423.826C290.52 421.58 285.078 418.827 280.147 415.314C267.205 406.095 256.804 394.073 247.161 381.562C241.128 373.736 235.012 365.216 231.095 356.112C230.396 355.228 229.81 354.767 229.688 353.631C232.387 352.376 235.832 351.984 238.747 351.344L254.713 347.685C259.977 347.269 265.802 345.795 271.025 344.78Z"/>
	<defs>
		<linearGradient id="gradient_16" gradientUnits="userSpaceOnUse" x1="301.39172" y1="368.09949" x2="273.33862" y2="410.69122">
			<stop offset="0" stop-color="#25D900"/>
			<stop offset="1" stop-color="#00A356"/>
		</linearGradient>
	</defs>
	<path fill="url(#gradient_16)" transform="scale(0.666667 0.666667)" d="M231.095 356.112C237.542 360.4 245.248 364.424 252.816 366.219C254.847 367.225 257.177 367.785 259.34 368.451L270.514 371.943L321.582 388.706C330.698 391.93 339.442 395.852 348.168 399.991C350.031 400.875 353.345 402.038 354.712 403.406C353.235 403.071 351.855 402.235 350.458 401.646C347.578 400.431 344.9 398.656 341.98 397.564L338.928 396.157C338.188 397.366 337.453 398.628 336.469 399.656C336.967 399.892 337.404 400.071 337.929 400.229C338.742 400.474 339.451 401.029 340.152 401.497C337.417 400.782 334.647 399.309 332.002 398.265L315.949 392.232L282.26 381.746L248.658 370.013C256.39 378.205 264.87 385.487 273.563 392.617C286.796 403.472 300.921 413.77 315.866 422.153C320.211 424.591 324.736 426.873 329.335 428.792C332.276 430.019 335.435 430.81 338.168 432.478C324.108 432.15 309.175 429.043 296.133 423.826C290.52 421.58 285.078 418.827 280.147 415.314C267.205 406.095 256.804 394.073 247.161 381.562C241.128 373.736 235.012 365.216 231.095 356.112Z"/>
</svg>
