<?xml version="1.0" encoding="utf-8" ?>
<svg xmlns="http://www.w3.org/2000/svg" xmlns:xlink="http://www.w3.org/1999/xlink" width="512" height="512">
	<path fill="#130730" transform="scale(0.666667 0.666667)" d="M-0 -0L768 0L768 768L-0 768L0 -0Z"/>
	<path fill="#F3E861" transform="scale(0.666667 0.666667)" d="M358.557 365.614L359.224 364.125C359.78 363.159 360.049 362.619 361.125 362.357L362.478 363.294C362.385 364.923 362.124 365.736 362.967 367.176L361.488 367.175L360.784 366.564C359.743 366.431 359.327 366.341 358.557 365.614Z"/>
	<path fill="#FFC468" transform="scale(0.666667 0.666667)" d="M356.855 369.8L358.557 365.614C359.327 366.341 359.743 366.431 360.784 366.564L361.488 367.175L360.472 370.11L358.367 372.64C357.288 372.626 356.175 372.427 355.102 372.295C355.903 371.84 355.947 371.619 356.381 370.788L356.855 369.8Z"/>
	<path fill="#49105F" transform="scale(0.666667 0.666667)" d="M345.08 366.481C347.625 365.622 350.476 365.794 353.037 366.523L353.482 367.084C354.513 368.373 355.17 369.403 356.855 369.8L356.381 370.788L345.08 366.481Z"/>
	<path fill="#893394" transform="scale(0.666667 0.666667)" d="M143.019 292.113C145.305 292.322 147.144 292.123 148.838 293.749L148.883 294.095C149.275 296.954 150.017 299.162 149.976 302.114L150.015 303.366C149.19 300.572 147.936 300.115 146.286 297.938C145.038 296.291 144.148 293.924 143.019 292.113Z"/>
	<path fill="#FEEDBA" transform="scale(0.666667 0.666667)" d="M661.431 185.062L662.551 184.942C663.87 184.881 664.516 185.298 665.438 186.182C665.851 187.387 665.763 188.132 665.549 189.375C664.793 190.525 664.465 190.844 663.188 191.358C662.782 191.475 662.733 191.517 662.244 191.498C661.034 191.451 660.142 190.895 659.388 190.012C658.993 188.743 658.891 188.056 659.18 186.75C659.896 185.732 660.269 185.507 661.431 185.062Z"/>
	<path fill="#D4CDD4" transform="scale(0.666667 0.666667)" d="M296.945 402.938L297.247 402.898C298.602 402.847 299.475 403.329 300.426 404.23C300.982 405.832 300.992 406.041 300.562 407.681C299.608 408.786 298.972 409.271 297.562 409.681L297.275 409.69C295.69 409.548 295.3 409.074 294.188 408.019C293.83 406.481 293.845 406.117 294.27 404.594C295.286 403.555 295.56 403.359 296.945 402.938Z"/>
	<path fill="#D4CDD4" transform="scale(0.666667 0.666667)" d="M405.199 354.562L405.9 354.523C407.168 354.51 408.284 355.066 409.06 356.062C409.757 356.957 409.92 358.362 409.617 359.438C409.282 360.624 408.41 360.935 407.438 361.505C406.932 361.56 406.268 361.681 405.75 361.603C404.578 361.426 403.719 360.399 403.142 359.438C402.609 358.549 402.613 357.5 402.993 356.558C403.419 355.501 404.21 355.001 405.199 354.562Z"/>
	<path fill="#DD4E81" transform="scale(0.666667 0.666667)" d="M143.019 292.113C142.422 291.217 142.142 291.03 142.193 289.929C143.952 289.211 147.096 289.622 149.052 289.657C149.511 288.233 149.915 286.85 150.702 285.562L151.252 285.562L152.434 287.492C152.435 289.007 152.246 290.391 152.809 291.75C153.086 292.42 152.868 293.419 153.064 294.151C152.482 293.525 152.623 293.763 152.269 293.105L152.059 292.688C151.533 292.594 150.912 292.419 150.377 292.502C149.606 292.621 149.296 293.195 148.838 293.749C147.144 292.123 145.305 292.322 143.019 292.113Z"/>
	<path fill="#FEEDBA" transform="scale(0.666667 0.666667)" d="M107.898 202.688C108.468 202.6 108.902 202.615 109.483 202.702C110.621 202.872 111.405 203.603 112.015 204.525C112.534 205.311 112.701 206.491 112.423 207.419C111.992 208.855 110.904 209.112 109.688 209.59C109.042 209.595 108.919 209.632 108.311 209.509C106.999 209.244 106.211 208.564 105.495 207.481C104.814 206.452 104.853 205.733 105.072 204.562C105.987 203.411 106.47 203.067 107.898 202.688Z"/>
	<path fill="#BC80CA" transform="scale(0.666667 0.666667)" d="M270.072 273.938C271.046 273.935 271.982 273.987 272.927 274.244C274.171 274.582 275.192 275.274 275.772 276.451C276.096 277.107 275.811 277.944 275.518 278.588C274.915 279.915 273.585 280.475 272.336 281.032C271.486 281.092 270.619 281.161 269.792 280.917C268.659 280.583 267.283 279.569 266.871 278.438C266.525 277.488 266.578 276.547 267.106 275.678C267.805 274.527 268.835 274.194 270.072 273.938Z"/>
	<path fill="#FB436A" transform="scale(0.666667 0.666667)" d="M148.838 293.749C149.296 293.195 149.606 292.621 150.377 292.502C150.912 292.419 151.533 292.594 152.059 292.688L152.269 293.105C152.623 293.763 152.482 293.525 153.064 294.151C153.13 295.174 153.061 295.729 153.559 296.625C154.233 297.839 154.551 299.497 154.85 300.852C154.078 301.802 153.301 302.631 153.327 303.938C153.336 304.409 153.543 304.998 153.667 305.438C152.412 306.864 150.68 308.64 149.022 309.578C149.734 307.433 149.939 305.615 150.015 303.366L149.976 302.114C150.017 299.162 149.275 296.954 148.883 294.095L148.838 293.749Z"/>
	<defs>
		<linearGradient id="gradient_0" gradientUnits="userSpaceOnUse" x1="343.81808" y1="367.18298" x2="350.65128" y2="373.89044">
			<stop offset="0" stop-color="#C3167E"/>
			<stop offset="1" stop-color="#ED329B"/>
		</linearGradient>
	</defs>
	<path fill="url(#gradient_0)" transform="scale(0.666667 0.666667)" d="M347.558 376.991C345.383 373.703 343.845 370.357 342.79 366.562L343.312 366.023L345.08 366.481L356.381 370.788C355.947 371.619 355.903 371.84 355.102 372.295C353.279 372.638 352.286 373.498 350.94 374.72C349.85 375.504 348.758 376.39 347.558 376.991Z"/>
	<path fill="#DD4E81" transform="scale(0.666667 0.666667)" d="M611.599 291.037L611.263 291.429C609.79 293.11 608.755 295.072 607.633 296.996C604.964 291.218 600.017 286.273 596.618 280.792L604.946 282.644L607.237 279.376L607.176 282.931L607.053 283.415C606.812 284.193 606.444 284.706 605.995 285.375C606.159 288.129 606.399 290.455 607.403 293.062L607.875 293.289C608.159 292.838 608.434 292.419 608.652 291.932C609.87 291.218 610.126 291.068 611.599 291.037Z"/>
	<path fill="#F53AB0" transform="scale(0.666667 0.666667)" d="M152.434 287.492C152.765 288.123 153.047 289.15 153.76 289.333C157.148 290.2 161.156 289.261 164.72 289.982L165.709 290.646L158.723 296.716C157.554 297.982 156.193 299.82 154.85 300.852C154.551 299.497 154.233 297.839 153.559 296.625C153.061 295.729 153.13 295.174 153.064 294.151C152.868 293.419 153.086 292.42 152.809 291.75C152.246 290.391 152.435 289.007 152.434 287.492Z"/>
	<path fill="#651B7E" transform="scale(0.666667 0.666667)" d="M164.72 289.982L165.709 290.646L158.723 296.716C157.763 295.368 157.52 293.401 157.14 291.804C159.722 291.552 162.652 291.605 164.72 289.982Z"/>
	<path fill="#F53AB0" transform="scale(0.666667 0.666667)" d="M607.237 279.376C607.9 278.407 608.311 277.835 609.413 277.311C610.724 278.506 610.939 281.318 611.047 283.035C614.339 282.289 617.43 281.917 620.801 281.786L614.637 287.493L615.075 288.012C616.073 289.25 616.679 290.973 617.323 292.423L611.599 291.037C610.126 291.068 609.87 291.218 608.652 291.932C608.434 292.419 608.159 292.838 607.875 293.289L607.403 293.062C606.399 290.455 606.159 288.129 605.995 285.375C606.444 284.706 606.812 284.193 607.053 283.415L607.176 282.931L607.237 279.376Z"/>
	<path fill="#FFE4EB" transform="scale(0.666667 0.666667)" d="M607.176 282.931C607.514 281.913 607.813 281.069 608.438 280.179C609.077 280.601 608.898 280.322 609.061 281.094C609.273 282.101 608.863 283.703 609.142 284.501C609.323 285.018 610.296 285.607 610.593 286.125C611.69 288.033 609.689 290.429 608.652 291.932C608.434 292.419 608.159 292.838 607.875 293.289L607.403 293.062C606.399 290.455 606.159 288.129 605.995 285.375C606.444 284.706 606.812 284.193 607.053 283.415L607.176 282.931Z"/>
	<path fill="#FFC0BA" transform="scale(0.666667 0.666667)" d="M231.48 327.205C231.463 325.691 231.558 324.668 232.21 323.29L232.814 323.275C233.419 324.473 233.529 325.388 233.615 326.718L234.04 326.901C235.226 327.211 236.661 326.599 237.805 326.254C240.575 325.418 243.295 324.548 246.123 323.917C243.784 325.89 241.051 327.232 238.561 328.988L238.376 329.722L238.894 330.375C238.562 331.536 238.43 332.072 238.996 333.188L240.347 335.294L240.284 336.938C239.141 337.985 236.952 337.816 235.469 337.842L234.375 337.545C234.111 338.11 233.801 339.269 233.234 339.522C232.511 339.844 231.767 339.725 231 339.671L229.952 338.636C229.296 335.523 226.816 333.017 224.374 331.126L224.02 330.728C225.699 328.53 229.497 329.136 231.48 327.205Z"/>
	<path fill="#FFE4EB" transform="scale(0.666667 0.666667)" d="M231.48 327.205C231.463 325.691 231.558 324.668 232.21 323.29L232.814 323.275C233.419 324.473 233.529 325.388 233.615 326.718L233.495 327.57C234.72 328.599 236.127 327.842 236.816 328.875C236.814 329.79 236.83 330.656 236.947 331.564C237.165 333.25 236.691 335.167 236.438 336.847L235.688 337.243C235.064 336.933 234.547 336.624 234 336.191C232.82 337.371 234.205 338.039 232.127 338.627L231.559 338.812L230.434 337.688L230.623 337.123C230.869 336.31 230.823 335.524 230.809 334.688C230.13 334.142 229.504 333.798 228.748 333.381L227.809 332.812L228 332.434L228.586 332.441C229.633 332.384 230.232 331.973 230.875 331.167C231.259 330.685 231.17 330.878 231.164 330.323C231.153 329.366 231.4 328.795 231.502 327.966L231.48 327.205Z"/>
	<path fill="#F3E861" transform="scale(0.666667 0.666667)" d="M273.662 179.767C272.615 169.346 273.856 157.968 275.401 147.652C275.678 148.28 276.006 149.442 276.415 149.947C276.991 150.658 278.428 151.453 279.188 152.026C282.24 154.332 285.56 156.852 289.125 158.313C289.918 158.638 290.803 159.037 291.667 159L280.801 172.009C278.575 174.624 276.396 177.689 273.662 179.767Z"/>
	<defs>
		<linearGradient id="gradient_1" gradientUnits="userSpaceOnUse" x1="651.81812" y1="444.76874" x2="697.46326" y2="424.26068">
			<stop offset="0" stop-color="#00CF89"/>
			<stop offset="1" stop-color="#21E8ED"/>
		</linearGradient>
	</defs>
	<path fill="url(#gradient_1)" transform="scale(0.666667 0.666667)" d="M685.397 425.32L695.658 417.748L691.471 427.529C689.467 428.063 687.981 429.627 686.311 430.796L654.586 450.993C653.291 448.526 654.882 441.19 655.456 438.279C665.876 434.881 675.815 430.656 685.397 425.32Z"/>
	<path fill="#3EF6D8" transform="scale(0.666667 0.666667)" d="M47.3584 170.822C48.7781 172.858 49.6031 175.645 51.0688 177.481C52.3842 179.129 59.3947 179.608 61.5771 179.855C59.2808 182.578 56.1531 185.048 53.5597 187.543L55.1405 199.259C52.555 197.828 47.4395 194.252 44.728 194.551C42.0755 196.227 39.5142 197.864 36.5901 199.041C35.9043 196.264 36.9619 191.127 37.6319 188.282L37.7544 187.777C37.326 187.136 37.5548 187.355 36.9568 186.92C34.127 184.862 31.6383 182.428 29.0842 180.043L42.7064 178.08C44.7696 176.243 46.0872 173.231 47.3584 170.822Z"/>
	<path fill="#3EF6D8" transform="scale(0.666667 0.666667)" d="M676.955 334.381C678.873 339.37 680.025 344.757 682.925 349.297C685.12 350.701 687.955 351.192 690.463 351.774L703.566 354.432C702.839 355.16 700.469 355.676 699.44 356.094L686.966 361.239C686.242 361.531 684.085 362.123 683.564 362.602C682.894 363.219 682.384 366.301 682.092 367.312C681.127 370.656 680.045 374.899 678.247 377.855L677.525 376.688L675.858 373.358L671.286 364.816C671.051 364.386 670.368 362.755 670.025 362.505C669.178 361.887 666.531 361.502 665.34 361.104L648.62 355.281L669.881 349.452L676.826 334.733L676.955 334.381Z"/>
	<path fill="#F3E861" transform="scale(0.666667 0.666667)" d="M703.181 220.271L710.339 242.622C712.609 242.916 715.073 242.721 717.375 242.755L731.033 243.061C727.559 247.469 723.875 251.942 719.738 255.738C723.914 259.359 727.285 264.6 730.735 268.947L709.645 268.457C708.033 275.58 704.524 282.224 701.1 288.614L700.525 288.718L699.938 287.497C697.271 281.088 693.329 273.764 692.5 266.883L692.452 266.436L671.967 265.928L682.145 253.25L682.312 252.987L683.996 252.663L684.035 252.188C679.936 248.528 676.47 243.755 673.032 239.468L694.063 241.354L694.5 241.435L703.181 220.271Z"/>
	<path fill="#F3E861" transform="scale(0.666667 0.666667)" d="M84.4775 224.038L92.6313 246.026L111.721 246.77C107.958 250.669 104.642 256.245 100.134 259.2L99.7619 259.435L111.3 272.109L91.4195 271.219L90.7853 271.16C87.5622 279.02 85.1046 286.8 80.8332 294.248C78.9951 286.247 75.3367 278.952 73.8772 270.759L52.7118 270.664L52.1936 270.711C55.2135 267.883 57.5182 264.469 60.2267 261.363C61.7602 259.604 63.5545 258.055 65.2907 256.501C61.2053 252.648 58.2344 248.093 54.8062 243.684L74.3834 244.557L84.4775 224.038Z"/>
	<path fill="#F3E861" transform="scale(0.666667 0.666667)" d="M120.07 90.7617L128.587 112.282L149.248 112.138C144.687 115.773 141.581 120.594 137.545 124.708L137.225 125.029C142.038 128.651 145.168 133.869 148.584 138.73L128.569 138.351L127.94 138.273C127.257 139.954 126.91 141.827 126.329 143.558C125.007 147.499 123.538 151.385 121.749 155.14C121.001 156.708 120.209 158.601 119.092 159.938L118.606 159.562C115.878 152.895 112.222 145.683 110.926 138.589L110.861 138.207L88.0994 138.049L102.04 123.283L91.8799 111.12L111.881 112.272L120.07 90.7617Z"/>
	<path fill="#F3E861" transform="scale(0.666667 0.666667)" d="M670.285 87.1875L671.003 87.19C673.028 91.2129 674.477 95.4917 675.903 99.7538C677.012 103.07 678.256 106.509 678.537 110.015L678.567 110.48C680.745 110.847 683.368 110.558 685.596 110.529L699.407 110.189L688.692 122.48L701.159 137.157L690.406 136.55C686.822 136.494 683.115 136.681 679.586 136.037L679.081 135.94C677.07 143.539 674.663 150.754 670.172 157.287L669.375 158.164L668.812 157.762C665.83 150.44 662.374 142.488 661.34 134.626L640.013 134.179C642.808 131.471 645.191 128.539 647.73 125.611C648.947 124.207 650.251 122.472 651.786 121.412L652.423 120.992L641.16 108.407C647.417 109.531 653.837 108.755 660.053 109.778L660.42 109.843L670.285 87.1875Z"/>
	<defs>
		<linearGradient id="gradient_2" gradientUnits="userSpaceOnUse" x1="317.09561" y1="545.8764" x2="273.52939" y2="519.1236">
			<stop offset="0" stop-color="#00BB3D"/>
			<stop offset="1" stop-color="#DFF145"/>
		</linearGradient>
	</defs>
	<path fill="url(#gradient_2)" transform="scale(0.666667 0.666667)" d="M290.204 508.133C296.525 506.598 303.739 508.157 309.269 511.483C314.938 514.892 319.343 519.936 320.861 526.491C322.444 533.329 321.098 540.093 317.397 545.994C314.763 550.194 310.192 553.231 305.625 554.98C303.994 555.604 302.326 555.971 300.819 556.888C298.713 557.578 296.204 557.335 294 557.403C293.185 557.428 291.953 557.683 291.204 557.485L285.938 556.1C279.423 553.624 275.172 548.327 272.349 542.17L272.218 541.874C269.31 534.63 270.025 527.696 272.799 520.589C276.36 515.168 279.982 511.844 285.841 509.046L290.204 508.133Z"/>
	<path fill="#F6F1D7" transform="scale(0.666667 0.666667)" d="M285.207 519.938C285.922 519.777 286.702 519.629 287.438 519.747C288.812 519.968 290.2 520.934 290.833 522.187C291.362 523.233 291.504 524.806 291.094 525.906C290.556 527.349 289.545 528.003 288.188 528.558C287.479 528.664 286.779 528.79 286.062 528.693C284.806 528.522 283.615 527.811 282.914 526.743C282.346 525.877 282.108 524.283 282.404 523.284C282.901 521.609 283.759 520.832 285.207 519.938Z"/>
	<defs>
		<linearGradient id="gradient_3" gradientUnits="userSpaceOnUse" x1="565.50629" y1="750.86475" x2="535.43402" y2="673.48297">
			<stop offset="0" stop-color="#5B51DE"/>
			<stop offset="1" stop-color="#7891F4"/>
		</linearGradient>
	</defs>
	<path fill="url(#gradient_3)" transform="scale(0.666667 0.666667)" d="M539.245 670.893C542.832 674.19 545.641 678.289 548.444 682.25C549.084 683.153 551.319 687.083 552.1 687.45C561.598 703.14 574.028 718.905 588.557 730.229C590.657 731.867 592.857 733.496 595.125 734.896C596.6 735.806 598.263 736.513 599.65 737.547L595.713 740.147C593.158 741.057 590.467 742.15 587.778 742.543C576.833 744.144 566.309 742.235 555.703 739.531C542.925 736.274 527.946 730.383 518.574 720.76C515.713 717.823 513.545 714.437 511.442 710.939C521.759 703.528 527.856 691.858 533.617 680.855C535.356 677.536 536.912 673.836 539.245 670.893Z"/>
	<path fill="#854EC5" transform="scale(0.666667 0.666667)" d="M138.332 687.747L138.975 688.607C143.445 697.809 160.019 737.661 168.562 740.607C169.066 740.78 169.021 740.756 169.462 740.812L169.246 741.61C165.434 742.524 161.65 743.939 157.746 744.389C147.736 745.542 135.869 742.027 126.375 739.135C116.198 736.036 105.504 732.068 96.6611 726.076C83.149 716.921 73.9997 702.882 66.4666 688.697C67.0026 688.329 67.4052 688.017 68.0625 687.898C69.9257 687.563 72.1747 687.728 74.0717 687.709L86.0567 687.733L126.89 688.137C129.207 688.159 136.678 688.973 138.332 687.747Z"/>
	<path fill="#35164B" transform="scale(0.666667 0.666667)" d="M511.537 661.024C506.031 671.327 499.688 681.014 492.876 690.492C483.37 703.718 473.017 716.799 459.699 726.393C454.625 730.047 449.187 733.263 443.177 735.129C434.366 737.863 424.48 738.007 415.329 738.081C407.05 738.147 398.887 738.166 390.722 736.624C388.861 736.272 386.084 735.913 384.468 734.982C384.2 734.827 384.062 734.695 383.812 734.492C384.818 733.934 385.933 733.583 387.01 733.185L387.574 733.259C389.765 733.128 393.855 730.769 396 729.743C408.785 723.627 420.482 714.241 429.933 703.709L442.339 689.127C445.834 687.754 447.111 682.958 448.516 679.745C450.953 679.565 453.239 678.794 455.623 678.301C462.417 676.896 469.112 674.217 475.689 672.034L497.074 665.316L505.134 662.66C507.228 661.934 509.294 661.004 511.537 661.024Z"/>
	<path fill="#49105F" transform="scale(0.666667 0.666667)" d="M260.04 646.312L262.117 646.513L262.38 646.821L262.487 647.278C267.203 657.478 272.97 667.265 278.355 677.13C280.431 680.934 283.254 685.138 284.73 689.172L290.735 700.115C288.33 703.426 286.154 706.807 283.487 709.929C269.983 725.736 251.156 738.76 230.344 742.12C222.689 743.356 214.914 743.686 207.175 743.974C195.627 744.403 182.82 744.747 171.609 741.418C173.341 739.973 176.544 739.218 178.656 738.321C182.246 736.796 185.706 735.2 189.072 733.216C195.993 729.138 202.062 723.389 207.52 717.546C212.672 712.03 217.691 706.399 222.018 700.201C224.49 696.662 226.572 692.89 228.808 689.203L229.036 689.256L236.558 678.534C243.839 667.641 251.186 655.991 260.04 646.312Z"/>
	<path fill="#651B7E" transform="scale(0.666667 0.666667)" d="M260.04 646.312L262.117 646.513L262.38 646.821L262.487 647.278C267.203 657.478 272.97 667.265 278.355 677.13C280.431 680.934 283.254 685.138 284.73 689.172C282.409 689.921 279.897 689.665 277.483 689.712L263.105 689.866L241.889 689.894C237.871 689.887 232.911 690.296 229.036 689.256L236.558 678.534C243.839 667.641 251.186 655.991 260.04 646.312Z"/>
	<path fill="#BC80CA" transform="scale(0.666667 0.666667)" d="M317.91 647.174L318.167 647.231L337.158 680.527C338.938 683.443 340.673 687.066 342.845 689.637C346.019 694.954 349.648 700.053 353.392 704.987C361.858 716.144 372.562 727.946 386.091 732.707C386.689 732.918 386.459 732.814 387.01 733.185C385.933 733.583 384.818 733.934 383.812 734.492C380.212 735.998 376.652 737.62 372.832 738.496C363.23 740.697 353.136 738.465 343.736 736.253C334.142 733.996 324.327 730.809 315.828 725.724C305.453 719.516 297.058 710.342 290.735 700.115L284.73 689.172C283.254 685.138 280.431 680.934 278.355 677.13C272.97 667.265 267.203 657.478 262.487 647.278C268.154 646.695 274.042 647.268 279.735 647.261L317.91 647.174Z"/>
	<path fill="#2F2FB2" transform="scale(0.666667 0.666667)" d="M658.584 648.678L730.144 649.125C725.687 658.347 720.376 667.176 715.375 676.114C710.364 685.072 705.446 694.451 699.681 702.938C693.508 712.022 686.208 720.064 677.681 726.988C671.594 731.932 665.117 736.049 657.678 738.651C646.714 742.486 634.433 743.335 622.896 743.384C613.558 743.423 604.64 743.153 595.713 740.147L599.65 737.547C604.148 734.603 608.247 730.312 611.9 726.373C622.747 714.672 630.708 702.425 638.222 688.413C638.41 687.585 639.273 686.344 639.678 685.561L643.741 677.807C648.828 668.158 654.149 658.648 658.584 648.678Z"/>
	<path fill="#854EC5" transform="scale(0.666667 0.666667)" d="M539.245 670.893C544.786 664.31 547.873 655.008 552.047 647.523C561.193 648.615 571.031 647.964 580.273 648.006L632.52 648.241C641.167 648.285 650.016 647.925 658.635 648.438L658.584 648.678C654.149 658.648 648.828 668.158 643.741 677.807L639.678 685.561C639.273 686.344 638.41 687.585 638.222 688.413C630.708 702.425 622.747 714.672 611.9 726.373C608.247 730.312 604.148 734.603 599.65 737.547C598.263 736.513 596.6 735.806 595.125 734.896C592.857 733.496 590.657 731.867 588.557 730.229C574.028 718.905 561.598 703.14 552.1 687.45C551.319 687.083 549.084 683.153 548.444 682.25C545.641 678.289 542.832 674.19 539.245 670.893Z"/>
	<path fill="#5244D8" transform="scale(0.666667 0.666667)" d="M552.1 687.45L638.222 688.413C630.708 702.425 622.747 714.672 611.9 726.373C608.247 730.312 604.148 734.603 599.65 737.547C598.263 736.513 596.6 735.806 595.125 734.896C592.857 733.496 590.657 731.867 588.557 730.229C574.028 718.905 561.598 703.14 552.1 687.45Z"/>
	<defs>
		<linearGradient id="gradient_4" gradientUnits="userSpaceOnUse" x1="92.935829" y1="449.41113" x2="25.970627" y2="342.99347">
			<stop offset="0" stop-color="#A4DB2D"/>
			<stop offset="1" stop-color="#FFFF70"/>
		</linearGradient>
	</defs>
	<path fill="url(#gradient_4)" transform="scale(0.666667 0.666667)" d="M37.4554 428.495C34.9145 420.616 33.2876 412.386 31.8473 404.245C29.709 392.158 28.2756 379.922 28.6148 367.625C28.8736 358.243 30.0736 349.058 30.919 339.728L51.6912 347.863C65.3327 353.565 76.4045 361.041 87.4972 370.708L111.71 395.472L106.23 407.559C104.8 411.951 102.552 416.292 100.655 420.514C91.6993 440.444 79.9324 460.079 59.7728 470.273L54.8518 472.414C48.1208 458.452 41.6602 443.444 37.4554 428.495Z"/>
	<defs>
		<linearGradient id="gradient_5" gradientUnits="userSpaceOnUse" x1="76.974335" y1="408.1127" x2="131.17882" y2="553.07977">
			<stop offset="0" stop-color="#99B800"/>
			<stop offset="1" stop-color="#046E11"/>
		</linearGradient>
	</defs>
	<path fill="url(#gradient_5)" transform="scale(0.666667 0.666667)" d="M111.71 395.472L122.258 405.061L122.426 406.402L123.372 412.487C125.093 420.399 127.825 428.127 130.298 435.83C130.777 437.32 131.35 440.42 132.217 441.62L136.617 457.147L141.202 475.465L154.697 544.827C129.088 538.734 104.396 528.055 84.375 510.716C80.7257 507.556 76.6574 504.065 73.7364 500.224C71.4851 498.189 69.6011 495.633 67.7242 493.245C62.7165 486.875 58.1751 479.817 54.8518 472.414L59.7728 470.273C79.9324 460.079 91.6993 440.444 100.655 420.514C102.552 416.292 104.8 411.951 106.23 407.559L111.71 395.472Z"/>
	<path fill="#49105F" transform="scale(0.666667 0.666667)" d="M527.606 576.748L531.018 577.295C534.222 579.567 537.054 582.219 539.958 584.854C540.634 585.467 542.267 586.6 542.681 587.355L542.639 588.023C542.459 592.054 544.584 595.506 543.662 599.715C542.731 603.963 540.639 607.834 538.581 611.627L530.44 626.276C524.236 637.89 518.482 649.825 511.537 661.024C509.294 661.004 507.228 661.934 505.134 662.66L497.074 665.316L475.689 672.034C469.112 674.217 462.417 676.896 455.623 678.301C453.239 678.794 450.953 679.565 448.516 679.745L454.169 663.812C450.606 658.354 446.581 653.064 443.68 647.225C443.426 641.396 444.463 635.339 445.157 629.545C446.473 618.548 447.509 607.219 450.997 596.648C453.399 589.393 458.578 582.813 463.266 576.893L483.789 577.028L510.93 577.064C516.434 577.073 522.137 577.391 527.606 576.748Z"/>
	<path fill="#651B7E" transform="scale(0.666667 0.666667)" d="M463.266 576.893L483.789 577.028C483.51 579.439 482.229 581.287 481.05 583.353C479.442 586.171 477.793 589.01 476.394 591.938C474.793 595.286 473.424 598.8 472.245 602.319L460.166 643.125C458.404 649.572 457.314 657.381 454.362 663.352L454.169 663.812C450.606 658.354 446.581 653.064 443.68 647.225C443.426 641.396 444.463 635.339 445.157 629.545C446.473 618.548 447.509 607.219 450.997 596.648C453.399 589.393 458.578 582.813 463.266 576.893Z"/>
	<path fill="#893394" transform="scale(0.666667 0.666667)" d="M443.68 647.225C446.581 653.064 450.606 658.354 454.169 663.812L448.516 679.745C447.111 682.958 445.834 687.754 442.339 689.127L429.933 703.709C420.482 714.241 408.785 723.627 396 729.743C393.855 730.769 389.765 733.128 387.574 733.259L387.01 733.185C386.459 732.814 386.689 732.918 386.091 732.707C372.562 727.946 361.858 716.144 353.392 704.987C349.648 700.053 346.019 694.954 342.845 689.637C340.673 687.066 338.938 683.443 337.158 680.527L318.167 647.231L443.68 647.225Z"/>
	<path fill="#651B7E" transform="scale(0.666667 0.666667)" d="M342.845 689.637C344.591 688.426 408.565 689.161 416.473 689.152L432.308 689.118C435.639 689.093 439.016 688.871 442.339 689.127L429.933 703.709C420.482 714.241 408.785 723.627 396 729.743C393.855 730.769 389.765 733.128 387.574 733.259L387.01 733.185C386.459 732.814 386.689 732.918 386.091 732.707C372.562 727.946 361.858 716.144 353.392 704.987C349.648 700.053 346.019 694.954 342.845 689.637Z"/>
	<path fill="#893394" transform="scale(0.666667 0.666667)" d="M118.685 645.657L164.836 645.757L222.209 646.08L247.743 646.124C251.674 646.128 256.195 645.684 260.04 646.312C251.186 655.991 243.839 667.641 236.558 678.534L229.036 689.256L228.808 689.203C226.572 692.89 224.49 696.662 222.018 700.201C217.691 706.399 212.672 712.03 207.52 717.546C202.062 723.389 195.993 729.138 189.072 733.216C185.706 735.2 182.246 736.796 178.656 738.321C176.544 739.218 173.341 739.973 171.609 741.418L169.246 741.61L169.462 740.812C169.021 740.756 169.066 740.78 168.562 740.607C160.019 737.661 143.445 697.809 138.975 688.607L138.332 687.747L118.685 645.657Z"/>
	<path fill="#651B7E" transform="scale(0.666667 0.666667)" d="M138.975 688.607L204.039 688.906L220.467 688.897C223.032 688.894 226.361 688.506 228.808 689.203C226.572 692.89 224.49 696.662 222.018 700.201C217.691 706.399 212.672 712.03 207.52 717.546C202.062 723.389 195.993 729.138 189.072 733.216C185.706 735.2 182.246 736.796 178.656 738.321C176.544 739.218 173.341 739.973 171.609 741.418L169.246 741.61L169.462 740.812C169.021 740.756 169.066 740.78 168.562 740.607C160.019 737.661 143.445 697.809 138.975 688.607Z"/>
	<defs>
		<linearGradient id="gradient_6" gradientUnits="userSpaceOnUse" x1="206.86969" y1="383.64688" x2="137.50304" y2="319.14069">
			<stop offset="0" stop-color="#A9CF16"/>
			<stop offset="1" stop-color="#FFFF84"/>
		</linearGradient>
	</defs>
	<path fill="url(#gradient_6)" transform="scale(0.666667 0.666667)" d="M165.709 290.646C168.389 288.319 171.083 285.718 174.077 283.809C181.722 278.934 191.323 277.569 199.932 275.189L196.214 323.063L194.868 343.965L192.999 371.597L190.674 401.161L190.363 404.63C185.129 404.571 179.956 404.613 174.75 405.226C172.909 405.443 170.831 405.548 169.06 406.094C169.032 403.762 169.615 400.578 169.086 398.349L166.111 398.234L146.607 400.911L127.014 405.236L123.294 406C122.75 406.091 122.944 406.046 122.426 406.402L122.258 405.061L111.71 395.472L87.4972 370.708C94.1092 367.576 101.151 366.127 108.293 364.735C112.605 363.894 117.277 362.649 121.646 363.736C125.447 342.743 134.581 325.237 149.022 309.578C150.68 308.64 152.412 306.864 153.667 305.438C153.543 304.998 153.336 304.409 153.327 303.938C153.301 302.631 154.078 301.802 154.85 300.852C156.193 299.82 157.554 297.982 158.723 296.716L165.709 290.646Z"/>
	<path fill="#FBF3BD" transform="scale(0.666667 0.666667)" d="M170.174 397.664C177.12 397.287 183.611 397.904 190.273 399.969L190.674 401.161L190.363 404.63C185.129 404.571 179.956 404.613 174.75 405.226C172.909 405.443 170.831 405.548 169.06 406.094C169.032 403.762 169.615 400.578 169.086 398.349L166.111 398.234L170.174 397.664Z"/>
	<path fill="#35164B" transform="scale(0.666667 0.666667)" d="M87.4972 370.708C94.1092 367.576 101.151 366.127 108.293 364.735C112.605 363.894 117.277 362.649 121.646 363.736C120.356 373.468 119.766 382.934 120.557 392.751C120.888 396.856 121.758 400.964 122.258 405.061L111.71 395.472L87.4972 370.708Z"/>
	<defs>
		<linearGradient id="gradient_7" gradientUnits="userSpaceOnUse" x1="198.69127" y1="365.44275" x2="153.96611" y2="325.76248">
			<stop offset="0" stop-color="#BCE058"/>
			<stop offset="1" stop-color="#FF9"/>
		</linearGradient>
	</defs>
	<path fill="url(#gradient_7)" transform="scale(0.666667 0.666667)" d="M171.202 313.459C171.495 311.819 172.734 310.02 173.527 308.537C177.382 301.328 182.575 294.791 187.796 288.517C189.39 286.601 192.418 284.084 193.127 281.719C193.731 281.258 194.402 280.986 195.188 281.066C195.555 281.104 195.968 281.297 196.309 281.438L195.938 281.818C195.479 282.36 183.372 315.989 183.44 316.584L181.99 320.705C180.218 326.623 177.902 332.37 176.338 338.352C171.389 357.28 169.463 377.611 169.387 397.125L170.174 397.664L166.111 398.234L146.607 400.911C145.479 390.675 146.246 379.311 148.701 369.32C150.327 362.7 152.794 356.273 154.899 349.795C156.022 348.259 156.248 346.363 156.923 344.625L160.668 335.252L171.202 313.459Z"/>
	<path fill="#1A6718" transform="scale(0.666667 0.666667)" d="M186.842 560.168C186.552 558.564 187.153 556.799 187.585 555.254C189.205 549.465 192.107 543.769 194.961 538.5C200.776 527.766 207.63 518.149 214.972 508.44C225.604 494.378 237.428 478.221 253.17 469.572C261.248 465.134 269.622 466.164 278.172 468.765C286.594 471.328 292.71 476.626 296.733 484.431C297.79 486.481 299.097 489.148 299.277 491.475C299.704 496.97 294.428 502.633 290.266 505.557C288.86 506.545 286.36 507.437 285.841 509.046C279.982 511.844 276.36 515.168 272.799 520.589C270.025 527.696 269.31 534.63 272.218 541.874L272.349 542.17C275.172 548.327 279.423 553.624 285.938 556.1L291.204 557.485C285.042 562.819 282.287 568.93 279.478 576.429L264.547 576.344C260.435 576.245 255.976 575.667 251.939 576.462L186.086 576.418C185.789 571.483 185.789 566.281 184.886 561.43C186.112 561.255 186.045 561.142 186.842 560.168Z"/>
	<path fill="#FBF3BD" transform="scale(0.666667 0.666667)" d="M268.455 477.188L270.562 476.834C271.408 477.087 271.972 477.327 272.623 477.944C273.449 478.729 274.069 479.851 273.917 481.03C273.734 482.457 272.672 483.199 271.589 483.938L270.488 484.312C269.057 484.128 268.009 483.814 267.043 482.673C266.249 481.736 266.091 481.033 266.312 479.812C266.53 478.613 267.525 477.847 268.455 477.188Z"/>
	<path fill="#FBF3BD" transform="scale(0.666667 0.666667)" d="M241.508 492.938C242.362 492.945 243.237 492.951 244.071 493.153C245.428 493.482 246.529 494.237 247.183 495.494C247.696 496.481 247.822 498.237 247.39 499.265C246.71 500.884 245.483 501.656 243.938 502.302C242.993 502.42 242.104 502.525 241.209 502.122C240.054 501.602 239.052 500.485 238.599 499.309C238.092 497.994 237.942 496.077 238.688 494.819C239.428 493.57 240.229 493.343 241.508 492.938Z"/>
	<path fill="#12062B" transform="scale(0.666667 0.666667)" d="M186.842 560.168C192.702 557.759 199.27 556.319 205.312 554.274C224.329 547.836 243.306 540.433 260.2 529.492C264.031 527.012 268.138 524.442 271.368 521.197C271.841 520.722 272.16 520.75 272.799 520.589C270.025 527.696 269.31 534.63 272.218 541.874L272.349 542.17C275.172 548.327 279.423 553.624 285.938 556.1L291.204 557.485C285.042 562.819 282.287 568.93 279.478 576.429L264.547 576.344C260.435 576.245 255.976 575.667 251.939 576.462L186.086 576.418C185.789 571.483 185.789 566.281 184.886 561.43C186.112 561.255 186.045 561.142 186.842 560.168Z"/>
	<defs>
		<linearGradient id="gradient_8" gradientUnits="userSpaceOnUse" x1="426.04346" y1="280.78525" x2="403.29239" y2="153.4471">
			<stop offset="0" stop-color="#4B0A5D"/>
			<stop offset="1" stop-color="#96257A"/>
		</linearGradient>
	</defs>
	<path fill="url(#gradient_8)" transform="scale(0.666667 0.666667)" d="M489.832 136.4C491.578 139.26 492.489 143.068 493.534 146.25C499.361 163.991 500.517 183.073 496.135 201.253C489.459 228.948 469.284 255.98 444.946 270.756C436.5 275.884 427.677 280.13 418.125 282.788C407.059 285.868 395.046 286.97 383.589 287.02C373.9 287.062 364.059 286.329 354.617 284.022C349.993 282.892 345.531 281.351 341.091 279.65C337.88 278.421 334.354 277.086 331.794 274.737C352.43 269.473 371.769 259.674 389.686 248.314C403.564 239.515 417.076 229.47 429.05 218.195C443.161 204.908 455.796 189.906 466.971 174.087C472.602 166.115 478.133 157.796 482.992 149.336C485.257 145.391 486.924 140.486 489.506 136.847L489.832 136.4Z"/>
	<defs>
		<linearGradient id="gradient_9" gradientUnits="userSpaceOnUse" x1="80.762733" y1="656.66516" x2="55.841667" y2="584.67853">
			<stop offset="0" stop-color="#F4A2AB"/>
			<stop offset="1" stop-color="#FFECB6"/>
		</linearGradient>
	</defs>
	<path fill="url(#gradient_9)" transform="scale(0.666667 0.666667)" d="M19.1907 596.51C19.1358 596.065 19.0831 595.781 19.1179 595.311C19.4207 591.216 22.7937 586.946 25.5953 584.177C28.6296 581.178 32.7644 577.886 36.9501 576.745C39.5552 576.034 42.624 576.34 45.3129 576.354L58.7786 576.454L108.025 576.62C103.097 581.953 99.1355 588.78 97.499 595.899L97.5281 596.984L118.368 645.541L118.685 645.657L138.332 687.747C136.678 688.973 129.207 688.159 126.89 688.137L86.0567 687.733L74.0717 687.709C72.1747 687.728 69.9257 687.563 68.0625 687.898C67.4052 688.017 67.0026 688.329 66.4666 688.697L42.7143 646.079C34.7158 629.58 25.0732 613.937 19.1907 596.51Z"/>
	<path fill="#FEEDBA" transform="scale(0.666667 0.666667)" d="M19.1907 596.51C19.1358 596.065 19.0831 595.781 19.1179 595.311C19.4207 591.216 22.7937 586.946 25.5953 584.177C28.6296 581.178 32.7644 577.886 36.9501 576.745C39.5552 576.034 42.624 576.34 45.3129 576.354L58.7786 576.454L108.025 576.62C103.097 581.953 99.1355 588.78 97.499 595.899C95.887 596.331 94.1913 595.916 92.5278 595.903L81.242 595.887L48.4226 595.978C38.7052 595.958 28.8828 595.756 19.1907 596.51Z"/>
	<defs>
		<linearGradient id="gradient_10" gradientUnits="userSpaceOnUse" x1="112.5433" y1="701.73865" x2="71.195366" y2="630.61682">
			<stop offset="0" stop-color="#9B55B9"/>
			<stop offset="1" stop-color="#C88BC6"/>
		</linearGradient>
	</defs>
	<path fill="url(#gradient_10)" transform="scale(0.666667 0.666667)" d="M118.368 645.541L118.685 645.657L138.332 687.747C136.678 688.973 129.207 688.159 126.89 688.137L86.0567 687.733L74.0717 687.709C72.1747 687.728 69.9257 687.563 68.0625 687.898C67.4052 688.017 67.0026 688.329 66.4666 688.697L42.7143 646.079L118.368 645.541Z"/>
	<path fill="#FB436A" transform="scale(0.666667 0.666667)" d="M403.084 70.5175C411.129 71.6615 419.145 73.1302 426.859 75.7444C446.662 82.4562 463.758 95.6556 476.203 112.333C481.599 119.563 486.473 127.996 489.832 136.4L489.506 136.847C486.924 140.486 485.257 145.391 482.992 149.336C478.133 157.796 472.602 166.115 466.971 174.087C455.796 189.906 443.161 204.908 429.05 218.195C417.076 229.47 403.564 239.515 389.686 248.314C371.769 259.674 352.43 269.473 331.794 274.737C322.9 269.004 313.767 263.054 306.188 255.618C301.739 251.254 297.948 246.364 294.255 241.365C296.905 241.03 299.758 241.229 302.438 241.147C307.659 240.987 312.842 240.596 318 239.74C334.256 237.042 350.059 230.614 364.425 222.658C375.209 216.686 385.479 209.748 394.276 201.048C412.614 182.909 425.184 161.133 425.288 134.693C425.364 115.359 418.873 86.8885 404.732 72.7414C404.197 72.2066 403.749 71.7571 403.381 71.0882L403.084 70.5175Z"/>
	<path fill="#DD4E81" transform="scale(0.666667 0.666667)" d="M251.939 576.462C255.976 575.667 260.435 576.245 264.547 576.344L279.478 576.429L293.142 576.464C290.817 579.839 288.898 583.696 287.2 587.424C286.193 589.634 285.151 591.701 285.137 594.191C286.196 596.138 287.606 597.363 289.479 598.51C290.848 597.952 292.479 597.686 293.915 597.34C298.529 603.416 301.387 611.447 304.569 618.375L317.91 647.174L279.735 647.261C274.042 647.268 268.154 646.695 262.487 647.278L262.38 646.821L262.117 646.513L260.04 646.312C256.195 645.684 251.674 646.128 247.743 646.124L222.209 646.08L164.836 645.757L118.685 645.657L118.368 645.541L97.5281 596.984L97.499 595.899C99.1355 588.78 103.097 581.953 108.025 576.62L58.7786 576.454L166.302 576.519C170.218 576.856 174.524 576.823 178.436 576.41L180.189 576.485L186.086 576.418L251.939 576.462Z"/>
	<path fill="#FB436A" transform="scale(0.666667 0.666667)" d="M178.436 576.41L180.189 576.485L186.086 576.418L251.939 576.462C246.182 581.003 239.153 587.397 238.485 595.313L238.51 596.628L238.433 596.911C234.961 596.126 230.749 596.574 227.182 596.589L207.575 596.605L136.392 596.541L112.531 596.592C107.843 596.601 103.086 596.769 98.4105 596.446L97.5281 596.984L97.499 595.899C99.1355 588.78 103.097 581.953 108.025 576.62L58.7786 576.454L166.302 576.519C170.218 576.856 174.524 576.823 178.436 576.41Z"/>
	<path fill="#FEEDBA" transform="scale(0.666667 0.666667)" d="M251.939 576.462C255.976 575.667 260.435 576.245 264.547 576.344L279.478 576.429L293.142 576.464C290.817 579.839 288.898 583.696 287.2 587.424C286.193 589.634 285.151 591.701 285.137 594.191C286.196 596.138 287.606 597.363 289.479 598.51C290.848 597.952 292.479 597.686 293.915 597.34C298.529 603.416 301.387 611.447 304.569 618.375L317.91 647.174L279.735 647.261C274.042 647.268 268.154 646.695 262.487 647.278L262.38 646.821L262.117 646.513C260.939 642.098 257.176 637.345 254.996 633.271C248.817 621.728 242.181 609.466 238.433 596.911L238.51 596.628L238.485 595.313C239.153 587.397 246.182 581.003 251.939 576.462Z"/>
	<path fill="#FBF3BD" transform="scale(0.666667 0.666667)" d="M251.939 576.462C255.976 575.667 260.435 576.245 264.547 576.344L279.478 576.429L293.142 576.464C290.817 579.839 288.898 583.696 287.2 587.424C286.193 589.634 285.151 591.701 285.137 594.191L284.812 595.519C281.821 596.515 277.719 596.103 274.553 596.179L247.016 596.392C244.479 596.405 240.93 595.983 238.51 596.628L238.485 595.313C239.153 587.397 246.182 581.003 251.939 576.462Z"/>
	<path fill="#FCA99E" transform="scale(0.666667 0.666667)" d="M293.915 597.34C298.529 603.416 301.387 611.447 304.569 618.375L317.91 647.174L279.735 647.261C274.042 647.268 268.154 646.695 262.487 647.278L262.38 646.821C266.199 646.818 271.66 647.482 275.276 646.602C277.45 637.413 280.384 628.087 283.509 619.176C285.612 613.178 288.137 607.244 289.661 601.064C289.915 600.031 289.864 599.498 289.479 598.51C290.848 597.952 292.479 597.686 293.915 597.34Z"/>
	<path fill="#35164B" transform="scale(0.666667 0.666667)" d="M686.311 430.796C687.981 429.627 689.467 428.063 691.471 427.529L686.774 438.986C689.53 441.938 689 448.795 689.528 452.799C693.87 485.783 694.243 518.919 695.41 552.118L695.724 570.633L695.169 571.257C691.098 566.736 685.927 563.123 680.225 560.943C672.246 557.893 662.899 557.061 654.438 556.342C632.001 554.437 609.038 554.8 586.639 557.004L566.555 559.107C563.818 559.385 560.183 560.204 557.494 559.688C557.175 558.757 557.354 558.349 557.543 557.399C557.591 553.86 558.516 549.66 557.662 546.231C557.19 545.646 557.073 544.714 556.876 543.988L554.308 538.5C552.983 536.038 551.386 534.004 549.611 531.845L550.829 532.214L551.342 532.877L552.646 534.501L552.934 534.938C554.216 533.916 555.645 531.783 556.986 531.157L557.438 531L557.441 528.75C558.101 528.083 557.815 526.688 557.816 525.75C558.456 525.103 558.19 522.978 558.191 522C558.96 521.223 558.288 520.632 558.566 519.75C558.668 519.427 559.322 518.779 559.556 518.48C560.622 512.481 561.649 506.559 563.511 500.739C564.408 497.937 565.406 495.151 566.561 492.445C567.263 490.801 568.486 488.921 568.666 487.156C571.67 482.833 574.667 478.731 578.371 474.964C594.601 458.46 615.846 449.807 637.531 443.062L654.36 438.355L655.456 438.279C654.882 441.19 653.291 448.526 654.586 450.993L686.311 430.796Z"/>
	<defs>
		<linearGradient id="gradient_11" gradientUnits="userSpaceOnUse" x1="635.03491" y1="535.67871" x2="612.70367" y2="448.76346">
			<stop offset="0" stop-color="#007249"/>
			<stop offset="1" stop-color="#00B188"/>
		</linearGradient>
	</defs>
	<path fill="url(#gradient_11)" transform="scale(0.666667 0.666667)" d="M686.311 430.796C687.981 429.627 689.467 428.063 691.471 427.529L686.774 438.986C678.246 456.804 666.713 473.049 652.312 486.628C635.342 502.632 615.016 515.518 595.979 528.929L557.543 557.399C557.591 553.86 558.516 549.66 557.662 546.231C557.19 545.646 557.073 544.714 556.876 543.988L554.308 538.5C552.983 536.038 551.386 534.004 549.611 531.845L550.829 532.214L551.342 532.877L552.646 534.501L552.934 534.938C554.216 533.916 555.645 531.783 556.986 531.157L557.438 531L557.441 528.75C558.101 528.083 557.815 526.688 557.816 525.75C558.456 525.103 558.19 522.978 558.191 522C558.96 521.223 558.288 520.632 558.566 519.75C558.668 519.427 559.322 518.779 559.556 518.48C560.622 512.481 561.649 506.559 563.511 500.739C564.408 497.937 565.406 495.151 566.561 492.445C567.263 490.801 568.486 488.921 568.666 487.156C571.67 482.833 574.667 478.731 578.371 474.964C594.601 458.46 615.846 449.807 637.531 443.062L654.36 438.355L655.456 438.279C654.882 441.19 653.291 448.526 654.586 450.993L686.311 430.796Z"/>
	<path fill="#15CA62" transform="scale(0.666667 0.666667)" d="M654.36 438.355L655.456 438.279C654.882 441.19 653.291 448.526 654.586 450.993L634.43 463.717C628.682 467.539 623.353 472.59 618 476.989L591.586 500.703C585.769 506.334 579.88 511.921 574.889 518.324C568.284 526.796 562.992 535.975 558.562 545.721C558.002 545.059 558.094 544.891 557.984 544.064L556.876 543.988L554.308 538.5C552.983 536.038 551.386 534.004 549.611 531.845L550.829 532.214L551.342 532.877L552.646 534.501L552.934 534.938C554.216 533.916 555.645 531.783 556.986 531.157L557.438 531L557.441 528.75C558.101 528.083 557.815 526.688 557.816 525.75C558.456 525.103 558.19 522.978 558.191 522C558.96 521.223 558.288 520.632 558.566 519.75C558.668 519.427 559.322 518.779 559.556 518.48C560.622 512.481 561.649 506.559 563.511 500.739C564.408 497.937 565.406 495.151 566.561 492.445C567.263 490.801 568.486 488.921 568.666 487.156C571.67 482.833 574.667 478.731 578.371 474.964C594.601 458.46 615.846 449.807 637.531 443.062L654.36 438.355Z"/>
	<path fill="#00865D" transform="scale(0.666667 0.666667)" d="M549.611 531.845L550.829 532.214L551.342 532.877L552.646 534.501L552.934 534.938C554.216 533.916 555.645 531.783 556.986 531.157L557.438 531L557.441 528.75C558.101 528.083 557.815 526.688 557.816 525.75C558.456 525.103 558.19 522.978 558.191 522C558.96 521.223 558.288 520.632 558.566 519.75C558.668 519.427 559.322 518.779 559.556 518.48C558.606 527.043 557.677 535.429 557.984 544.064L556.876 543.988L554.308 538.5C552.983 536.038 551.386 534.004 549.611 531.845Z"/>
	<defs>
		<linearGradient id="gradient_12" gradientUnits="userSpaceOnUse" x1="594.65442" y1="521.61365" x2="533.50409" y2="326.54663">
			<stop offset="0" stop-color="#006A54"/>
			<stop offset="1" stop-color="#00E481"/>
		</linearGradient>
	</defs>
	<path fill="url(#gradient_12)" transform="scale(0.666667 0.666667)" d="M527.284 351.671C529.419 345.368 531.777 339.295 534.856 333.392C538.257 326.875 542.585 320.66 544.731 313.583C545.914 309.682 546.044 305.382 546.29 301.331C556.388 304.702 566.466 308.101 574.528 315.375C578.163 318.656 581.043 322.466 583.971 326.359C603.783 329.147 622.34 336.18 638.09 348.618C640.806 350.762 644.282 353.357 646.433 356.085L647.235 357.375L647.44 357.707C650.961 363.718 655.378 428.861 654.36 438.355L637.531 443.062C615.846 449.807 594.601 458.46 578.371 474.964C574.667 478.731 571.67 482.833 568.666 487.156C568.486 488.921 567.263 490.801 566.561 492.445C565.406 495.151 564.408 497.937 563.511 500.739C561.649 506.559 560.622 512.481 559.556 518.48C559.322 518.779 558.668 519.427 558.566 519.75C558.288 520.632 558.96 521.223 558.191 522C558.19 522.978 558.456 525.103 557.816 525.75C557.815 526.688 558.101 528.083 557.441 528.75L557.438 531L556.986 531.157C555.645 531.783 554.216 533.916 552.934 534.938L552.646 534.501L551.342 532.877L550.829 532.214L549.611 531.845L549.312 531.665L549.504 531.351C549.873 530.486 549.578 529.211 549.5 528.294L548.843 520.281C547.665 502.415 549.546 484.366 548.034 466.513C547.432 459.404 546.547 452.06 544.264 445.276C539.681 431.656 529.967 420.13 525.378 406.58L525.235 406.143C518.975 388.228 521.441 369.353 527.284 351.671Z"/>
	<path fill="#3EF6D8" transform="scale(0.666667 0.666667)" d="M527.284 351.671C529.419 345.368 531.777 339.295 534.856 333.392C538.257 326.875 542.585 320.66 544.731 313.583C545.914 309.682 546.044 305.382 546.29 301.331C556.388 304.702 566.466 308.101 574.528 315.375C578.163 318.656 581.043 322.466 583.971 326.359C596.352 345.726 602.753 365.484 601.225 388.642C595.785 382.413 589.45 377 584.106 370.768C580.645 366.732 577.653 362.022 575.127 357.353C571.23 350.148 568.416 342.387 565.665 334.689C562.917 327.003 560.389 319.663 555.685 312.877C556.469 315.23 557.355 317.666 557.812 320.108C561 337.144 553.912 356.328 546.347 371.401C542.151 379.763 536.851 387.176 532.008 395.134L528.03 402.067C527.325 403.371 526.483 405.317 525.235 406.143C518.975 388.228 521.441 369.353 527.284 351.671Z"/>
	<path fill="#35164B" transform="scale(0.666667 0.666667)" d="M583.971 326.359C603.783 329.147 622.34 336.18 638.09 348.618C640.806 350.762 644.282 353.357 646.433 356.085L647.235 357.375L647.44 357.707C650.961 363.718 655.378 428.861 654.36 438.355L637.531 443.062C615.846 449.807 594.601 458.46 578.371 474.964C574.667 478.731 571.67 482.833 568.666 487.156C568.234 484.198 570.383 479.581 571.486 476.752L581.544 453.388L587.45 439.175L595.883 416.378C598.707 407.658 601.089 397.858 601.225 388.642C602.753 365.484 596.352 345.726 583.971 326.359Z"/>
	<defs>
		<linearGradient id="gradient_13" gradientUnits="userSpaceOnUse" x1="218.76909" y1="310.85083" x2="238.66777" y2="571.95764">
			<stop offset="0" stop-color="#A78100"/>
			<stop offset="1" stop-color="#006912"/>
		</linearGradient>
	</defs>
	<path fill="url(#gradient_13)" transform="scale(0.666667 0.666667)" d="M238.561 328.988L238.984 329.394C241.318 329.717 273.873 308.676 278.283 305.983L275.93 328.737C276.346 333.515 275.183 339.121 274.741 343.953C271.908 374.885 265.22 405.025 253.298 433.774C250.883 439.598 248.33 446.172 245.053 451.541C244.374 453.8 242.895 455.967 241.765 458.042C234.947 470.563 225.658 482.315 215.379 492.166C211.385 495.993 207.223 499.756 202.312 502.387L198.467 504.172C195.585 505.414 192.212 506.049 189.177 506.921C186.767 524.762 183.236 543.38 184.886 561.43C185.789 566.281 185.789 571.483 186.086 576.418L180.189 576.485L178.436 576.41C174.524 576.823 170.218 576.856 166.302 576.519L155.414 546.804L154.697 544.827L141.202 475.465L136.617 457.147L132.217 441.62C131.35 440.42 130.777 437.32 130.298 435.83C127.825 428.127 125.093 420.399 123.372 412.487L122.426 406.402C122.944 406.046 122.75 406.091 123.294 406L127.014 405.236L146.607 400.911L166.111 398.234L169.086 398.349C169.615 400.578 169.032 403.762 169.06 406.094C170.831 405.548 172.909 405.443 174.75 405.226C179.956 404.613 185.129 404.571 190.363 404.63L190.674 401.161L192.999 371.597L194.868 343.965L221.395 334.37L223.125 333.685C224.253 332.939 224.154 332.335 224.374 331.126C226.816 333.017 229.296 335.523 229.952 338.636L231 339.671C231.767 339.725 232.511 339.844 233.234 339.522C233.801 339.269 234.111 338.11 234.375 337.545L235.469 337.842C236.952 337.816 239.141 337.985 240.284 336.938L240.347 335.294L238.996 333.188C238.43 332.072 238.562 331.536 238.894 330.375L238.376 329.722L238.561 328.988Z"/>
	<path fill="#FCA99E" transform="scale(0.666667 0.666667)" d="M240.347 335.294C240.796 336.294 241.041 336.492 240.654 337.57C240.228 338.756 239.361 339.903 238.66 340.949L237.562 341.366C236.519 340.517 236.026 339.048 235.469 337.842C236.952 337.816 239.141 337.985 240.284 336.938L240.347 335.294Z"/>
	<defs>
		<linearGradient id="gradient_14" gradientUnits="userSpaceOnUse" x1="203.80568" y1="376.41022" x2="215.00769" y2="329.21719">
			<stop offset="0" stop-color="#1A0829"/>
			<stop offset="1" stop-color="#501C62"/>
		</linearGradient>
	</defs>
	<path fill="url(#gradient_14)" transform="scale(0.666667 0.666667)" d="M224.374 331.126C226.816 333.017 229.296 335.523 229.952 338.636C229.541 339.708 229.259 340.563 228.386 341.362L212.997 355.729C210.6 357.228 208.404 359.688 206.324 361.626L193.312 374.163L192.999 371.597L194.868 343.965L221.395 334.37L223.125 333.685C224.253 332.939 224.154 332.335 224.374 331.126Z"/>
	<defs>
		<linearGradient id="gradient_15" gradientUnits="userSpaceOnUse" x1="194.99088" y1="518.70874" x2="169.68204" y2="522.68256">
			<stop offset="0" stop-color="#2B4F00"/>
			<stop offset="1" stop-color="#160521"/>
		</linearGradient>
	</defs>
	<path fill="url(#gradient_15)" transform="scale(0.666667 0.666667)" d="M184.654 444.997L184.87 445.725C185.277 447.328 184.296 448.908 184.138 450.506C183.955 452.353 183.431 454.692 182.89 456.467C182.284 458.461 182.15 460.798 181.797 462.858C181.519 464.485 180.761 466.18 181.04 467.844L181.478 467.974C182.721 468.357 183.059 468.57 184.019 469.396L185.09 469.958C185.672 470.251 185.321 470.074 186.04 470.554C186.593 470.924 186.854 471 187.5 471.066L188.25 470.25L188.066 469.688L188.625 469.312L188.533 468.75L188.702 468.404C189.124 467.45 189.248 466.403 189.377 465.377L189.75 465C189.928 464.059 189.874 463.692 190.5 462.938L190.436 462.527C190.377 461.921 190.5 461.622 190.691 461.062L190.877 460.502L191.25 460.125L191.066 459.562L191.441 459L191.627 458.252L192.002 457.127L192.172 456.57C192.415 455.84 192.33 456.104 192.722 455.374C193.081 454.703 192.928 454.543 193.125 453.938L193.408 453.375L193.502 452.627C193.733 451.069 194.584 449.663 195.002 448.127C195.324 446.944 195.286 446.741 196.195 445.799C196.581 445.399 196.807 444.964 197.056 444.473C197.401 446.275 195.794 449.267 195.329 451.084C195.06 452.135 194.668 453.288 194.129 454.23C193 455.196 192.222 459.029 191.687 460.651C184.444 482.608 180.544 506.282 178.777 529.301C177.94 540.21 177.794 551.211 178.612 562.125L180.189 576.485L178.436 576.41C176.928 572.558 176.318 567.849 175.656 563.754L172.443 535.377C172.645 524.959 172.743 514.801 173.834 504.414C174.804 495.177 176.764 486.114 178.49 477L184.654 444.997Z"/>
	<defs>
		<linearGradient id="gradient_16" gradientUnits="userSpaceOnUse" x1="209.79979" y1="504.30429" x2="105.44045" y2="457.65302">
			<stop offset="0" stop-color="#47A91A"/>
			<stop offset="1" stop-color="#BEE442"/>
		</linearGradient>
	</defs>
	<path fill="url(#gradient_16)" transform="scale(0.666667 0.666667)" d="M166.111 398.234L169.086 398.349C169.615 400.578 169.032 403.762 169.06 406.094C170.831 405.548 172.909 405.443 174.75 405.226C179.956 404.613 185.129 404.571 190.363 404.63L184.654 444.997L178.49 477C176.764 486.114 174.804 495.177 173.834 504.414C172.743 514.801 172.645 524.959 172.443 535.377L175.656 563.754C176.318 567.849 176.928 572.558 178.436 576.41C174.524 576.823 170.218 576.856 166.302 576.519L155.414 546.804L154.697 544.827L141.202 475.465L136.617 457.147L132.217 441.62C131.35 440.42 130.777 437.32 130.298 435.83C127.825 428.127 125.093 420.399 123.372 412.487L122.426 406.402C122.944 406.046 122.75 406.091 123.294 406L127.014 405.236L146.607 400.911L166.111 398.234Z"/>
	<path fill="#F3E861" transform="scale(0.666667 0.666667)" d="M123.372 412.487L125.613 412.179C126.078 414.878 127.19 417.4 127.926 420.032L134.349 443.027C135.073 444.442 135.281 446.232 135.629 447.778L137.43 455.812L136.617 457.147L132.217 441.62C131.35 440.42 130.777 437.32 130.298 435.83C127.825 428.127 125.093 420.399 123.372 412.487Z"/>
	<path fill="#F6F1D7" transform="scale(0.666667 0.666667)" d="M166.111 398.234L169.086 398.349C169.615 400.578 169.032 403.762 169.06 406.094C164.932 407.163 160.371 407.436 156.128 408.049L137.02 410.884C133.364 411.322 129.133 411.202 125.613 412.179L123.372 412.487L122.426 406.402C122.944 406.046 122.75 406.091 123.294 406L127.014 405.236L146.607 400.911L166.111 398.234Z"/>
	<path fill="#BC80CA" transform="scale(0.666667 0.666667)" d="M505.199 518.735C510.527 517.096 518.502 517.904 523.903 519.304C527.716 519.662 531.664 520.859 535.245 522.176L541.789 525.557C543.244 526.397 544.709 527.517 546.257 528.142L549.312 531.665L549.611 531.845C551.386 534.004 552.983 536.038 554.308 538.5L556.876 543.988C557.073 544.714 557.19 545.646 557.662 546.231C558.516 549.66 557.591 553.86 557.543 557.399C557.354 558.349 557.175 558.757 557.494 559.688C560.183 560.204 563.818 559.385 566.555 559.107L586.639 557.004C609.038 554.8 632.001 554.437 654.438 556.342C662.899 557.061 672.246 557.893 680.225 560.943C685.927 563.123 691.098 566.736 695.169 571.257C696.089 572.851 697.35 574.6 697.877 576.359L722.805 576.478C725.724 576.492 730.041 575.956 732.817 576.702C737.959 578.083 744.55 583.342 748.206 587.075C751.074 590.005 752.841 593.284 753.933 597.214C753.496 599.947 753.009 602.533 751.982 605.112C748.677 613.414 743.659 621.371 739.662 629.388C736.475 635.78 733.876 643.089 730.144 649.125L658.584 648.678L658.635 648.438C650.016 647.925 641.167 648.285 632.52 648.241L580.273 648.006C571.031 647.964 561.193 648.615 552.047 647.523C556.102 638.84 560.593 630.179 561.494 620.478C562.384 610.893 559.147 604.289 553.159 597.042L542.681 587.355C542.267 586.6 540.634 585.467 539.958 584.854C537.054 582.219 534.222 579.567 531.018 577.295L527.606 576.748C525.536 575.058 522.646 574.423 520.25 573.218C514.668 571.232 508.213 568.389 503.578 564.673C501.186 562.754 499.132 560.377 496.857 558.318C493.766 554.669 492.081 549.842 490.754 545.323L490.082 541.485L490.852 539.998L491.234 539.062C491.728 538.252 491.917 538.02 492.103 537.011L492.117 536.833L492.245 535.461C492.49 533.855 493.18 533.068 494.438 532.118C495.871 532.203 496.104 532.439 497.252 533.225L497.697 533.337C499.534 533.546 500.536 532.727 501.979 531.754L500.438 529.411C500.043 528.563 500.135 527.547 500.46 526.696C501.346 524.374 502.815 522.938 505.064 521.931C504.852 520.999 504.889 521.206 504.188 520.703L504.845 519.502L505.425 519.619L505.199 518.735Z"/>
	<path fill="#7989DA" transform="scale(0.666667 0.666667)" d="M697.877 576.359L722.805 576.478C725.724 576.492 730.041 575.956 732.817 576.702C737.959 578.083 744.55 583.342 748.206 587.075C751.074 590.005 752.841 593.284 753.933 597.214L680.31 597.416C680.252 593.663 679.986 590.064 679.338 586.364C679.166 585.386 677.16 577.056 676.786 576.886C675.706 576.394 668.61 576.867 666.902 576.866L625.448 576.833L616.626 576.826C615.568 576.825 614.086 577.094 613.217 576.484L697.877 576.359Z"/>
	<path fill="#02AA61" transform="scale(0.666667 0.666667)" d="M557.662 546.231C558.516 549.66 557.591 553.86 557.543 557.399C557.354 558.349 557.175 558.757 557.494 559.688C560.183 560.204 563.818 559.385 566.555 559.107L586.639 557.004C609.038 554.8 632.001 554.437 654.438 556.342C662.899 557.061 672.246 557.893 680.225 560.943C685.927 563.123 691.098 566.736 695.169 571.257C696.089 572.851 697.35 574.6 697.877 576.359L613.217 576.484L554.746 576.693L539.636 576.951C536.79 577.003 533.832 576.879 531.018 577.295L527.606 576.748C525.536 575.058 522.646 574.423 520.25 573.218L520.435 572.607L521.267 573.021C521.809 573.194 522.083 573.114 522.606 573.432L522.996 573.683L523.688 573.941C524.578 574.341 525.469 574.847 526.5 574.783L527.062 574.691C527.659 575.085 527.463 575.036 528.035 575.179L528.375 575.25L528.844 576.281L532.125 576.283C532.712 575.931 532.414 576.031 533.003 575.935L533.625 576.283C536.078 576.304 538.981 576.457 541.314 575.719L541.314 575.156C542.366 574.02 543.362 572.893 544.688 572.066C545.247 571.717 545.695 571.453 546.212 571.022L546.75 570.566C549.404 568.562 554.636 565.468 555.483 562.102L555.566 561.75C556.025 560.834 556.317 560.471 556.42 559.406L556.5 558.562C556.849 556.502 556.337 554.197 556.926 552.239C557.459 550.47 557.401 548.124 557.662 546.231Z"/>
	<path fill="#15CA62" transform="scale(0.666667 0.666667)" d="M505.199 518.735C510.527 517.096 518.502 517.904 523.903 519.304C527.716 519.662 531.664 520.859 535.245 522.176L541.789 525.557C543.244 526.397 544.709 527.517 546.257 528.142L549.312 531.665L549.611 531.845C551.386 534.004 552.983 536.038 554.308 538.5L556.876 543.988C557.073 544.714 557.19 545.646 557.662 546.231C557.401 548.124 557.459 550.47 556.926 552.239C556.337 554.197 556.849 556.502 556.5 558.562L556.42 559.406C556.317 560.471 556.025 560.834 555.566 561.75L555.483 562.102C554.636 565.468 549.404 568.562 546.75 570.566L546.212 571.022C545.695 571.453 545.247 571.717 544.688 572.066C543.362 572.893 542.366 574.02 541.314 575.156L541.314 575.719C538.981 576.457 536.078 576.304 533.625 576.283L533.003 575.935C532.414 576.031 532.712 575.931 532.125 576.283L528.844 576.281L528.375 575.25L528.035 575.179C527.463 575.036 527.659 575.085 527.062 574.691L526.5 574.783C525.469 574.847 524.578 574.341 523.688 573.941L522.996 573.683L522.606 573.432C522.083 573.114 521.809 573.194 521.267 573.021L520.435 572.607L520.25 573.218C514.668 571.232 508.213 568.389 503.578 564.673C501.186 562.754 499.132 560.377 496.857 558.318C493.766 554.669 492.081 549.842 490.754 545.323L490.082 541.485L490.852 539.998L491.234 539.062C491.728 538.252 491.917 538.02 492.103 537.011L492.117 536.833L492.245 535.461C492.49 533.855 493.18 533.068 494.438 532.118C495.871 532.203 496.104 532.439 497.252 533.225L497.697 533.337C499.534 533.546 500.536 532.727 501.979 531.754L500.438 529.411C500.043 528.563 500.135 527.547 500.46 526.696C501.346 524.374 502.815 522.938 505.064 521.931C504.852 520.999 504.889 521.206 504.188 520.703L504.845 519.502L505.425 519.619L505.199 518.735Z"/>
	<path fill="#F6F1D7" transform="scale(0.666667 0.666667)" d="M505.064 521.931C507.142 521.867 509.301 522.017 510.914 523.504C511.931 524.442 512.364 525.334 512.41 526.734C512.456 528.128 511.75 529.423 511.134 530.631C509.333 531.797 506.407 533.148 504.188 532.772C503.594 532.671 503.062 532.339 502.544 532.055L501.979 531.754L500.438 529.411C500.043 528.563 500.135 527.547 500.46 526.696C501.346 524.374 502.815 522.938 505.064 521.931Z"/>
	<path fill="#3DD043" transform="scale(0.666667 0.666667)" d="M514.188 525.75C514.99 527.58 513.93 528.774 514.217 530.711C514.467 532.404 514.172 532.923 513.56 534.398L513.492 535.169L513.184 535.688C512.999 536.177 513.054 536.721 512.811 537.281L513.063 537.638C510.995 539.252 508.816 540.204 506.438 541.259L506.062 540.934C504.907 541.274 505.06 541.759 504.188 542.347C504.145 542.376 502.956 542.701 502.893 542.736C502.641 542.875 502.559 543.227 502.312 543.377C500.311 544.593 496.948 544.407 494.71 544.736C493.318 544.94 492.187 545.367 490.754 545.323L490.082 541.485L490.852 539.998L491.234 539.062C491.728 538.252 491.917 538.02 492.103 537.011L492.117 536.833L492.245 535.461C492.49 533.855 493.18 533.068 494.438 532.118C495.871 532.203 496.104 532.439 497.252 533.225L497.697 533.337C499.534 533.546 500.536 532.727 501.979 531.754L502.544 532.055C503.062 532.339 503.594 532.671 504.188 532.772C506.407 533.148 509.333 531.797 511.134 530.631C512.091 530.484 512.535 529.914 513.269 529.312L513.566 528C513.954 527.107 514.07 526.743 514.188 525.75Z"/>
	<path fill="#97E427" transform="scale(0.666667 0.666667)" d="M501.979 531.754L502.544 532.055C503.062 532.339 503.594 532.671 504.188 532.772C506.407 533.148 509.333 531.797 511.134 530.631C510.937 531.641 509.986 532.924 509.062 533.434L508.498 533.623L507.818 533.931C506.773 534.394 505.894 534.562 504.767 534.579C503.522 534.597 501.964 535.989 500.709 536.388C499.051 536.915 498.408 538.721 496.707 539.244C497.32 538.505 497.744 537.907 498.153 537.024C498.092 535.579 497.785 534.564 497.252 533.225L497.697 533.337C499.534 533.546 500.536 532.727 501.979 531.754Z"/>
	<path fill="#F6F1D7" transform="scale(0.666667 0.666667)" d="M492.103 537.011L492.117 536.833L492.245 535.461C492.49 533.855 493.18 533.068 494.438 532.118C495.871 532.203 496.104 532.439 497.252 533.225C497.785 534.564 498.092 535.579 498.153 537.024C497.744 537.907 497.32 538.505 496.707 539.244C495.758 539.547 495.043 539.605 494.062 539.626C492.907 538.98 492.623 538.156 492.103 537.011Z"/>
	<path fill="#4282B9" transform="scale(0.666667 0.666667)" d="M680.31 597.416L753.933 597.214C753.496 599.947 753.009 602.533 751.982 605.112C748.677 613.414 743.659 621.371 739.662 629.388C736.475 635.78 733.876 643.089 730.144 649.125L658.584 648.678L658.635 648.438L680.001 597.465L680.31 597.416Z"/>
	<path fill="#AC76D5" transform="scale(0.666667 0.666667)" d="M553.159 597.042L594.728 596.866L650.56 597.158L668.569 597.192C672.178 597.159 676.474 596.711 680.001 597.465L658.635 648.438C650.016 647.925 641.167 648.285 632.52 648.241L580.273 648.006C571.031 647.964 561.193 648.615 552.047 647.523C556.102 638.84 560.593 630.179 561.494 620.478C562.384 610.893 559.147 604.289 553.159 597.042Z"/>
	<path fill="#FE773E" transform="scale(0.666667 0.666667)" d="M349.291 74.0271C354.904 72.2888 361.312 71.3097 367.143 70.5989C379.034 69.1495 391.204 68.848 403.084 70.5175L403.381 71.0882C403.749 71.7571 404.197 72.2066 404.732 72.7414C418.873 86.8885 425.364 115.359 425.288 134.693C425.184 161.133 412.614 182.909 394.276 201.048C385.479 209.748 375.209 216.686 364.425 222.658C350.059 230.614 334.256 237.042 318 239.74C312.842 240.596 307.659 240.987 302.438 241.147C299.758 241.229 296.905 241.03 294.255 241.365C282.641 226.724 276.521 208.702 274.515 190.282C274.13 186.751 273.66 183.328 273.662 179.767C276.396 177.689 278.575 174.624 280.801 172.009L291.667 159C290.803 159.037 289.918 158.638 289.125 158.313C285.56 156.852 282.24 154.332 279.188 152.026C278.428 151.453 276.991 150.658 276.415 149.947C276.006 149.442 275.678 148.28 275.401 147.652C277.905 136.12 282.239 125.225 288.737 115.333C302.914 93.7473 323.958 79.2836 349.291 74.0271Z"/>
	<defs>
		<linearGradient id="gradient_17" gradientUnits="userSpaceOnUse" x1="356.97702" y1="151.6055" x2="303.47992" y2="98.473045">
			<stop offset="0" stop-color="#FAD06B"/>
			<stop offset="1" stop-color="#FBF791"/>
		</linearGradient>
	</defs>
	<path fill="url(#gradient_17)" transform="scale(0.666667 0.666667)" d="M275.401 147.652C277.905 136.12 282.239 125.225 288.737 115.333C302.914 93.7473 323.958 79.2836 349.291 74.0271L349.806 74.4118C350.778 75.086 351.939 75.08 353.063 75.3039C354.674 75.6251 356.218 76.1296 357.713 76.8078C368.367 81.6416 376.412 92.22 379.144 103.512C381.735 114.223 379.998 124.881 374.187 134.229C365.382 148.393 348.773 156.899 332.93 160.5C323.205 162.71 312.519 162.517 302.754 160.617C299.757 160.034 296.848 158.95 293.851 158.43C292.708 158.232 292.554 158.235 291.667 159C290.803 159.037 289.918 158.638 289.125 158.313C285.56 156.852 282.24 154.332 279.188 152.026C278.428 151.453 276.991 150.658 276.415 149.947C276.006 149.442 275.678 148.28 275.401 147.652Z"/>
	<path fill="#FEEDBA" transform="scale(0.666667 0.666667)" d="M334.318 95.3525C335.666 95.2967 337.44 95.036 338.741 95.3616C339.822 95.6321 340.842 96.8885 341.27 97.8824C342.192 100.021 341.661 103.918 340.675 105.989C339.214 109.059 336.627 110.689 333.534 111.794C332.963 111.998 332.446 112.185 331.906 112.468C330.718 113.092 329.703 113.616 328.333 113.023C327.7 112.749 327.441 112.389 326.717 112.265L326.301 112.222L325.875 111.562C325.109 111.306 324.637 111.269 323.851 111.233C322.739 111.183 321.542 113.376 320.732 114.105C318.577 116.044 316.935 118.447 315.172 120.729C309.219 128.434 304.508 136.956 299.614 145.356L297.188 149.04L296.908 148.5C297.3 147.975 297.186 148.281 297.191 147.562C296.395 147.953 296.249 147.829 295.399 147.747C294.973 147.271 294.557 146.827 294.352 146.208C292.189 139.68 296.953 130.622 300.17 125.074C305.303 116.22 313.437 109.073 321.469 102.888C325.504 99.7806 329.303 96.6841 334.318 95.3525Z"/>
	<defs>
		<linearGradient id="gradient_18" gradientUnits="userSpaceOnUse" x1="513.67877" y1="594.75494" x2="300.67542" y2="441.82541">
			<stop offset="0" stop-color="#007916"/>
			<stop offset="1" stop-color="#96EB41"/>
		</linearGradient>
	</defs>
	<path fill="url(#gradient_18)" transform="scale(0.666667 0.666667)" d="M420.818 380.931L449.062 371.097C451.565 370.173 454.216 369.683 456.75 368.848C459.947 367.793 463.443 367.395 466.592 366.32L480.562 362.853L489.75 360.614L499.383 358.27C508.517 356.469 518.48 354.682 527.284 351.671C521.441 369.353 518.975 388.228 525.235 406.143L525.378 406.58C529.967 420.13 539.681 431.656 544.264 445.276C546.547 452.06 547.432 459.404 548.034 466.513C549.546 484.366 547.665 502.415 548.843 520.281L549.5 528.294C549.578 529.211 549.873 530.486 549.504 531.351L549.312 531.665L546.257 528.142C544.709 527.517 543.244 526.397 541.789 525.557L535.245 522.176C531.664 520.859 527.716 519.662 523.903 519.304C518.502 517.904 510.527 517.096 505.199 518.735L505.425 519.619L504.845 519.502L504.188 520.703C504.889 521.206 504.852 520.999 505.064 521.931C502.815 522.938 501.346 524.374 500.46 526.696C500.135 527.547 500.043 528.563 500.438 529.411L501.979 531.754C500.536 532.727 499.534 533.546 497.697 533.337L497.252 533.225C496.104 532.439 495.871 532.203 494.438 532.118C493.18 533.068 492.49 533.855 492.245 535.461L492.117 536.833L492.103 537.011C491.917 538.02 491.728 538.252 491.234 539.062L490.852 539.998L490.082 541.485L490.754 545.323C492.081 549.842 493.766 554.669 496.857 558.318C499.132 560.377 501.186 562.754 503.578 564.673C508.213 568.389 514.668 571.232 520.25 573.218C522.646 574.423 525.536 575.058 527.606 576.748C522.137 577.391 516.434 577.073 510.93 577.064L483.789 577.028L463.266 576.893C458.578 582.813 453.399 589.393 450.997 596.648C447.509 607.219 446.473 618.548 445.157 629.545C444.463 635.339 443.426 641.396 443.68 647.225L318.167 647.231L317.91 647.174L304.569 618.375C301.387 611.447 298.529 603.416 293.915 597.34C292.479 597.686 290.848 597.952 289.479 598.51C287.606 597.363 286.196 596.138 285.137 594.191C285.151 591.701 286.193 589.634 287.2 587.424C288.898 583.696 290.817 579.839 293.142 576.464L279.478 576.429C282.287 568.93 285.042 562.819 291.204 557.485C291.953 557.683 293.185 557.428 294 557.403C296.204 557.335 298.713 557.578 300.819 556.888L331.024 555.909C331.086 550.965 331.922 545.931 332.596 541.037L337.4 513.665L334.753 512.423C327.395 510.136 320.925 503.804 317.438 497.109C313.492 489.534 312.032 479.748 314.718 471.562C317.253 463.836 323.593 457.339 330.739 453.678C340.177 448.843 351.809 447.992 361.86 451.193C362.454 451.299 362.991 451.425 363.56 451.632C370.162 454.038 376.025 458.124 380.03 463.978C381.765 466.513 383.036 469.374 384.351 472.141L384.025 448.542L373.889 448.354C365.227 447.535 353.947 443.588 348.236 436.707C344.22 433.34 341.424 428.114 339.682 423.244C338.544 420.438 337.835 417.07 337.529 414.061C336.494 403.891 338.347 394.674 342.636 385.462C344.034 382.459 345.468 379.578 347.558 376.991C348.758 376.39 349.85 375.504 350.94 374.72C352.286 373.498 353.279 372.638 355.102 372.295C356.175 372.427 357.288 372.626 358.367 372.64L360.472 370.11L361.488 367.175L362.967 367.176C362.124 365.736 362.385 364.923 362.478 363.294C367.518 363.846 372.708 363.357 377.788 363.644C379.115 363.719 381.166 363.593 382.382 364.062C387.973 364.236 394.19 365.006 399.472 366.898C405.728 368.134 412.458 372.161 416.869 376.738C417.629 377.527 418.97 378.661 419.482 379.606L419.614 379.998L420.818 380.931Z"/>
	<path fill="#F6F1D7" transform="scale(0.666667 0.666667)" d="M321.029 470.674C321.871 471.448 322.8 472.237 323.462 473.178C324.372 474.472 325.076 476.19 326.626 476.812L326.812 477.374L324.334 478.678C323.121 479.173 322.111 479.428 320.812 479.588C319.917 479.035 319.91 478.862 319.694 477.81C319.166 475.232 319.664 472.89 321.029 470.674Z"/>
	<path fill="#FFD08F" transform="scale(0.666667 0.666667)" d="M362.967 367.176C364.242 367.889 365.631 368.497 366.398 369.801C367.053 372.062 365.837 375.454 364.893 377.523C363.275 377.037 362.209 375.07 361.078 373.875C360.077 372.816 359.841 372.718 358.367 372.64L360.472 370.11L361.488 367.175L362.967 367.176Z"/>
	<path fill="#FEEDBA" transform="scale(0.666667 0.666667)" d="M362.967 367.176C364.242 367.889 365.631 368.497 366.398 369.801L366.17 370.744C364.597 371.22 362.741 371.053 361.103 371.062L360.472 370.11L361.488 367.175L362.967 367.176Z"/>
	<path fill="#FBF3BD" transform="scale(0.666667 0.666667)" d="M329.227 478.891C330.635 479.871 331.569 480.697 331.837 482.467C332.14 484.473 331.63 486.873 330.368 488.486C329.564 489.513 328.463 490.015 327.188 490.114C325.483 490.247 324.106 489.957 322.823 488.794C321.507 487.602 321.015 486.009 321.013 484.277C321.012 482.973 321.403 482.101 322.34 481.154C323.003 480.483 323.689 479.904 324.557 479.523L324.769 479.461C326.244 478.925 327.672 478.951 329.227 478.891Z"/>
	<path fill="#FEEDBA" transform="scale(0.666667 0.666667)" d="M321.029 470.674L321.445 470.183C321.912 469.612 322.128 469.093 322.391 468.415C322.871 467.175 323.288 465.974 324.562 465.388C326.846 464.337 332.23 465.602 334.796 465.943C333.806 469.296 332.807 472.542 331.277 475.699C330.739 476.809 329.6 477.829 329.227 478.891C327.672 478.951 326.244 478.925 324.769 479.461L324.557 479.523L324.334 478.678L326.812 477.374L326.626 476.812C325.076 476.19 324.372 474.472 323.462 473.178C322.8 472.237 321.871 471.448 321.029 470.674Z"/>
	<path fill="#12062B" transform="scale(0.666667 0.666667)" d="M411.188 538.416C414.671 545 418.325 550.605 424.999 554.362C423.101 554.904 420.662 554.552 418.684 554.558C415.069 554.568 411.169 554.915 407.592 554.438L407.536 553.114C408.951 548.287 409.44 543.138 411.188 538.416Z"/>
	<path fill="#02AA61" transform="scale(0.666667 0.666667)" d="M419.614 379.998L420.818 380.931C422.09 383.157 423.544 385.378 424.605 387.709C428.463 396.186 430.139 407.247 427.676 416.301C424.599 427.61 417.718 435.544 407.568 441.236C403.293 443.634 399.08 445.187 394.432 446.684C395.203 453.914 395.313 461.154 395.437 468.417C395.497 471.931 395.841 475.846 395.293 479.307C395.208 478.263 395.21 477.155 394.877 476.156C394.668 475.53 394.693 475.409 394.783 474.75C394.936 473.637 394.699 472.663 394.691 471.562L394.875 466.5C393.936 465.091 394.495 459.796 394.408 457.875L394.316 454.312L393.941 453.938L394.085 448.934L394.125 448.5L393.566 447.938C393.506 447.255 393.528 447.018 393.847 446.38C394.22 445.632 394.499 445.761 395.252 445.502L396.094 445.219L397.125 445.033C397.659 444.802 398.014 444.545 398.627 444.377C399.162 444.231 399.426 444.172 399.95 443.909C400.512 443.628 400.463 443.606 401.062 443.441C401.736 443.256 402.128 443.198 402.751 442.834C403.448 442.426 404.215 442.311 404.85 441.838L405.191 441.562L405.75 441.283L406.127 441.002C406.744 440.701 407.157 440.73 407.742 440.262C408.411 439.726 409.079 439.099 409.877 438.752C410.748 438.373 411.27 437.727 412.127 437.252L412.688 437.25L413.627 436.127L414.188 436.125L417.775 432.348L418.127 432.002L420.188 430.125L420.191 429.562L420.656 429.189C422.021 427.483 419.904 429.65 421.332 428.215C422.027 427.516 421.379 427.505 421.691 426.938C422.217 425.983 422.674 426.178 423.002 424.877L423.656 424.689L424.033 423.75C423.93 423.121 423.989 422.859 424.127 422.252L424.783 422.25L425.062 421.691L424.316 421.312C424.9 420.728 424.689 420.42 424.691 419.625C425.278 419.032 425.149 418.556 425.25 417.75L424.691 417.188C425.267 416.612 425.035 415.917 425.625 415.125C425.147 414.525 425.325 414.842 425.066 414.188C425.306 413.048 424.921 412.081 425.252 411.002L425.441 410.438C425.647 409.643 425.746 409.11 426.191 408.375C426.699 407.536 426.564 407.089 426.566 406.125C427.17 405.515 426.94 404.712 426.941 403.875L427.5 403.5L427.502 403.031L427.316 402.375L427.875 401.438L427.316 401.062L427.316 399.188L426.941 398.812C426.954 398.255 426.969 397.746 426.858 397.194L426.752 396.748L426.566 396C426.132 395.174 426.194 395.409 426.283 394.5L425.816 393.938L425.816 393.188L425.441 392.812L425.441 392.062L425.066 391.688C424.983 391.253 424.915 390.561 424.691 390.188L424.316 389.812C424.057 388.295 423.23 387.161 422.627 385.781L422.441 385.312L422.066 384.938L421.783 384.375L421.502 383.906L421.316 383.438C420.564 382.237 420.12 381.375 419.614 379.998Z"/>
	<path fill="#F6F1D7" transform="scale(0.666667 0.666667)" d="M350.94 374.72C352.286 373.498 353.279 372.638 355.102 372.295C356.175 372.427 357.288 372.626 358.367 372.64C359.841 372.718 360.077 372.816 361.078 373.875C362.209 375.07 363.275 377.037 364.893 377.523C366.625 378.052 368.187 378.819 369.562 380.003L369.451 380.662L368.438 381.325C366.854 381.452 366.513 381.452 365.088 380.778L364.598 381L364.199 388.096C362.297 386.713 360.601 385.331 359.129 383.48L358.849 383.123C357.212 384.429 355.099 386.425 353.062 386.969L352.454 386.438C352.329 383.689 353.184 381.006 353.704 378.316C352.934 376.949 351.982 375.881 350.94 374.72Z"/>
	<path fill="#130730" transform="scale(0.666667 0.666667)" d="M353.402 514.305C354.017 514.219 354.038 514.337 354.562 514.617C354.692 518.109 355.293 521.59 355.741 525.053C357.025 534.977 358.952 544.535 361.29 554.258L350.273 554.549L341.804 554.998C343.281 549.36 343.751 543.529 344.353 537.75L346.879 514.474L353.402 514.305Z"/>
	<path fill="#130730" transform="scale(0.666667 0.666667)" d="M383.255 496.22L377.906 553.918L371.159 554.018L370.415 548.52L363.615 512.256L363.485 511.812C372.393 508.648 378.911 504.933 383.255 496.22Z"/>
	<path fill="#FB436A" transform="scale(0.666667 0.666667)" d="M373.356 576.326L463.266 576.893C458.578 582.813 453.399 589.393 450.997 596.648L338.218 596.526L310.426 596.613C305.07 596.635 299.243 596.23 293.959 597.106L293.915 597.34C292.479 597.686 290.848 597.952 289.479 598.51C287.606 597.363 286.196 596.138 285.137 594.191C285.151 591.701 286.193 589.634 287.2 587.424C288.898 583.696 290.817 579.839 293.142 576.464L373.356 576.326Z"/>
	<path fill="#3DD043" transform="scale(0.666667 0.666667)" d="M426.792 497.397C427.499 497.866 428.53 498.739 429.312 498.983C431.716 500.564 434.509 501.394 437.183 502.413L445.034 502.834C446.537 502.762 448.779 502.4 450.181 502.926C452.08 503.64 454.961 503.106 457.059 503.446C458.673 502.489 461.356 502.062 463.178 501.484C468.909 503.864 474.527 505.993 480.098 508.796L500.909 519.99L505.199 518.735L505.425 519.619L504.845 519.502L504.188 520.703C504.889 521.206 504.852 520.999 505.064 521.931C502.815 522.938 501.346 524.374 500.46 526.696C500.135 527.547 500.043 528.563 500.438 529.411L501.979 531.754C500.536 532.727 499.534 533.546 497.697 533.337L497.252 533.225C496.104 532.439 495.871 532.203 494.438 532.118C493.18 533.068 492.49 533.855 492.245 535.461L492.117 536.833L492.103 537.011C491.917 538.02 491.728 538.252 491.234 539.062L490.852 539.998L490.082 541.485L490.754 545.323C492.081 549.842 493.766 554.669 496.857 558.318C494.358 558.515 491.119 557.312 488.574 556.92C485.162 556.394 481.67 556.114 478.228 555.859C471.614 555.37 464.303 556.701 457.842 555.523C454.435 556.451 450.994 557.108 447.471 557.395C441.057 557.918 433.036 557.365 427.025 554.966C426.467 554.743 426.068 554.577 425.464 554.444L424.999 554.362C418.325 550.605 414.671 545 411.188 538.416L411.278 536.842L410.766 531.964C410.165 523.561 413.935 516.389 419.299 510.215C419.541 508.78 420.877 507.398 421.632 506.133L426.792 497.397Z"/>
	<path fill="#130730" transform="scale(0.666667 0.666667)" d="M426.792 497.397C427.499 497.866 428.53 498.739 429.312 498.983C431.716 500.564 434.509 501.394 437.183 502.413C430.231 503.395 424.813 505.884 419.299 510.215C419.541 508.78 420.877 507.398 421.632 506.133L426.792 497.397Z"/>
	<path fill="#12062B" transform="scale(0.666667 0.666667)" d="M463.178 501.484C468.909 503.864 474.527 505.993 480.098 508.796L500.909 519.99L505.199 518.735L505.425 519.619L504.845 519.502L504.188 520.703C504.889 521.206 504.852 520.999 505.064 521.931C502.815 522.938 501.346 524.374 500.46 526.696C500.135 527.547 500.043 528.563 500.438 529.411L501.979 531.754C500.536 532.727 499.534 533.546 497.697 533.337L497.252 533.225C496.104 532.439 495.871 532.203 494.438 532.118C493.18 533.068 492.49 533.855 492.245 535.461L492.117 536.833L492.103 537.011C491.917 538.02 491.728 538.252 491.234 539.062L490.852 539.998L490.082 541.485L490.754 545.323C492.081 549.842 493.766 554.669 496.857 558.318C494.358 558.515 491.119 557.312 488.574 556.92C485.162 556.394 481.67 556.114 478.228 555.859C471.614 555.37 464.303 556.701 457.842 555.523L460.875 553.918C467.339 550.098 471.754 542.55 473.621 535.434C475.591 527.926 474.865 519.739 470.781 513.073C467.726 508.085 462.632 504.891 457.059 503.446C458.673 502.489 461.356 502.062 463.178 501.484Z"/>
	<path fill="#94D01F" transform="scale(0.666667 0.666667)" d="M500.909 519.99L505.199 518.735L505.425 519.619L504.845 519.502L504.188 520.703C504.889 521.206 504.852 520.999 505.064 521.931C502.815 522.938 501.346 524.374 500.46 526.696C500.135 527.547 500.043 528.563 500.438 529.411L501.979 531.754C500.536 532.727 499.534 533.546 497.697 533.337L497.252 533.225C496.104 532.439 495.871 532.203 494.438 532.118C493.18 533.068 492.49 533.855 492.245 535.461L492.117 536.833L492.103 537.011C491.917 538.02 491.728 538.252 491.234 539.062L490.852 539.998L490.082 541.485C489.832 538.818 489.738 536.166 490.24 533.517C491.419 527.299 495.861 523.288 500.909 519.99Z"/>
	<path fill="#DD4E81" transform="scale(0.666667 0.666667)" d="M293.915 597.34L293.959 597.106C299.243 596.23 305.07 596.635 310.426 596.613L338.218 596.526L450.997 596.648C447.509 607.219 446.473 618.548 445.157 629.545C444.463 635.339 443.426 641.396 443.68 647.225L318.167 647.231L317.91 647.174L304.569 618.375C301.387 611.447 298.529 603.416 293.915 597.34Z"/>
	<path fill="#35164B" transform="scale(0.666667 0.666667)" d="M420.818 380.931L449.062 371.097C451.565 370.173 454.216 369.683 456.75 368.848C459.947 367.793 463.443 367.395 466.592 366.32L480.562 362.853L489.75 360.614L499.383 358.27C508.517 356.469 518.48 354.682 527.284 351.671C521.441 369.353 518.975 388.228 525.235 406.143L525.378 406.58C529.967 420.13 539.681 431.656 544.264 445.276C546.547 452.06 547.432 459.404 548.034 466.513C549.546 484.366 547.665 502.415 548.843 520.281L549.5 528.294C549.578 529.211 549.873 530.486 549.504 531.351L549.312 531.665L546.257 528.142C544.709 527.517 543.244 526.397 541.789 525.557L535.245 522.176C531.664 520.859 527.716 519.662 523.903 519.304C518.502 517.904 510.527 517.096 505.199 518.735L500.909 519.99L480.098 508.796C474.527 505.993 468.909 503.864 463.178 501.484C461.356 502.062 458.673 502.489 457.059 503.446C454.961 503.106 452.08 503.64 450.181 502.926C448.779 502.4 446.537 502.762 445.034 502.834L437.183 502.413C434.509 501.394 431.716 500.564 429.312 498.983C428.53 498.739 427.499 497.866 426.792 497.397C425.757 496.027 422.455 492.397 420.888 492.051C411.563 503.38 407.574 519.271 403.352 533.044C401.633 538.653 399.593 544.467 398.41 550.214L397.275 554.576L389.448 554.14L395.293 479.307C395.841 475.846 395.497 471.931 395.437 468.417C395.313 461.154 395.203 453.914 394.432 446.684C399.08 445.187 403.293 443.634 407.568 441.236C417.718 435.544 424.599 427.61 427.676 416.301C430.139 407.247 428.463 396.186 424.605 387.709C423.544 385.378 422.09 383.157 420.818 380.931Z"/>
	<defs>
		<linearGradient id="gradient_19" gradientUnits="userSpaceOnUse" x1="469.05273" y1="510.47577" x2="493.98761" y2="423.82852">
			<stop offset="0" stop-color="#18C531"/>
			<stop offset="1" stop-color="#00E9C7"/>
		</linearGradient>
	</defs>
	<path fill="url(#gradient_19)" transform="scale(0.666667 0.666667)" d="M418.344 454.056C419.203 451.935 420.532 450.024 422.033 448.31C429.246 440.073 439.981 436.484 450.597 435.716C450.231 426.157 448.345 418.377 444.535 409.63L451.877 412.145L452.278 412.256C460.891 414.426 469.359 416.59 477.672 419.764C482.827 421.732 487.713 424.239 492.685 426.614C501.941 430.63 511.48 437.461 517.811 445.309C523.252 452.052 527.173 459.963 530.35 467.988C536.336 483.105 539.286 499.318 542.872 515.115C543.854 519.439 545.562 523.803 546.257 528.142C544.709 527.517 543.244 526.397 541.789 525.557L535.245 522.176C531.664 520.859 527.716 519.662 523.903 519.304C518.502 517.904 510.527 517.096 505.199 518.735L500.909 519.99L480.098 508.796C474.527 505.993 468.909 503.864 463.178 501.484C461.356 502.062 458.673 502.489 457.059 503.446C454.961 503.106 452.08 503.64 450.181 502.926C448.779 502.4 446.537 502.762 445.034 502.834L437.183 502.413C434.509 501.394 431.716 500.564 429.312 498.983C428.53 498.739 427.499 497.866 426.792 497.397C425.757 496.027 422.455 492.397 420.888 492.051C418.831 489.992 417.261 485.906 416.454 483.152C413.911 474.481 413.941 462.122 418.344 454.056Z"/>
	<path fill="#15CA62" transform="scale(0.666667 0.666667)" d="M481.89 457.491L483.478 460.456C483.317 460.987 483.09 461.303 483.271 461.838C485.681 468.972 483.729 478.587 480.382 485.1C476.649 492.364 470.235 497.574 463.173 501.456L463.178 501.484C461.356 502.062 458.673 502.489 457.059 503.446C454.961 503.106 452.08 503.64 450.181 502.926C448.779 502.4 446.537 502.762 445.034 502.834L437.183 502.413C434.509 501.394 431.716 500.564 429.312 498.983L430.367 499.083C431.042 499.13 431.53 499.13 432.141 499.508C432.743 499.882 433.108 500.144 433.818 500.31C434.577 500.488 434.237 500.345 434.798 500.599C435.769 501.04 436.395 501.183 437.472 501.193L437.812 501.191L438.375 501.562C439.281 501.538 440.244 501.41 441.094 501.75C441.963 502.098 443.441 502.106 444.375 502.033L444.938 501.941C445.606 501.945 445.969 502.163 446.695 502.045L447.188 501.941L447.938 502.5C450.433 501.954 453.606 502.304 456.187 502.316L457.484 500.956C458.191 500.294 459.106 499.813 460.101 499.918L460.465 499.983C461.409 499.935 461.745 499.044 462.229 498.358C463.234 498.601 463.998 498.403 464.98 498.192C465.741 497.291 466.348 496.703 467.532 496.442C468.977 496.123 470.389 494.77 471.418 493.722L472.065 493.089C474.144 491.979 477.048 489.737 478.127 487.594L478.316 487.125L478.688 486.566C479.187 485.729 479.727 484.909 480.112 484.011C480.469 483.181 480.268 483.542 480.74 482.731L481.033 482.25C480.908 481.485 481.077 481.388 481.502 480.752C482.172 479.747 482.124 478.688 482.441 477.562C482.604 476.985 482.734 476.687 482.785 476.057L482.816 475.5C483.545 474.403 483.28 473.03 483.283 471.75L483.283 470.625C483.253 470.123 483.182 469.739 483.231 469.23C483.283 468.702 483.333 468.157 483.283 467.625C483.184 466.567 483.406 465.238 483.191 464.25L482.935 463.628L482.816 462.938C482.312 461.657 482.817 462.446 482.744 461.438C482.696 460.772 481.883 459.88 481.733 459.188C481.648 458.791 481.849 457.928 481.89 457.491Z"/>
	<path fill="#97E427" transform="scale(0.666667 0.666667)" d="M452.278 412.256C460.891 414.426 469.359 416.59 477.672 419.764C482.827 421.732 487.713 424.239 492.685 426.614L492.692 426.971C492.802 429.321 494.861 431.427 495.733 433.688C497.189 437.465 497.875 441.262 498.036 445.299L489.369 441.092C479.13 433.423 466.459 428.723 457.147 419.748C454.979 417.659 452.341 415.359 452.278 412.256Z"/>
	<path fill="#02AA61" transform="scale(0.666667 0.666667)" d="M492.685 426.614C501.941 430.63 511.48 437.461 517.811 445.309C523.252 452.052 527.173 459.963 530.35 467.988C536.336 483.105 539.286 499.318 542.872 515.115C543.854 519.439 545.562 523.803 546.257 528.142C544.709 527.517 543.244 526.397 541.789 525.557L535.245 522.176C534.33 521.107 533.169 520.272 532.286 519.162C529.879 516.136 527.973 512.405 525.958 509.098C521.352 501.54 515.795 494.004 508.875 488.395C507.854 487.568 507.065 486.707 506.213 485.713C508.275 486.526 509.453 487.902 511.097 489.282C517.885 494.98 522.756 502.425 527.344 509.906C529.52 513.456 531.271 517.095 534.278 520.026L532.934 516.628C532.535 515.623 531.913 514.779 531.566 513.75L530.066 510L529.691 508.875L527.816 504L524.973 496.902L524.816 496.5L524.066 494.25L523.81 493.628L523.691 492.938C523.542 492.558 523.266 492.234 523.137 491.848C522.935 491.242 522.65 490.714 522.434 490.123C522.11 489.237 521.923 488.524 521.441 487.688L520.81 486.561C520.494 485.612 519.706 484.249 519.606 483.341C519.401 481.492 518.079 479.074 517.297 477.375C513.157 468.386 508.053 459.924 501.104 452.814L494.369 446.229C492.7 444.679 490.857 443.28 489.561 441.386L489.369 441.092L498.036 445.299C497.875 441.262 497.189 437.465 495.733 433.688C494.861 431.427 492.802 429.321 492.692 426.971L492.685 426.614Z"/>
	<path fill="#00865D" transform="scale(0.666667 0.666667)" d="M463.178 501.484L463.173 501.456C470.235 497.574 476.649 492.364 480.382 485.1C483.729 478.587 485.681 468.972 483.271 461.838C483.09 461.303 483.317 460.987 483.478 460.456C489.459 470.136 497.622 478.333 506.213 485.713C507.065 486.707 507.854 487.568 508.875 488.395C515.795 494.004 521.352 501.54 525.958 509.098C527.973 512.405 529.879 516.136 532.286 519.162C533.169 520.272 534.33 521.107 535.245 522.176C531.664 520.859 527.716 519.662 523.903 519.304C518.502 517.904 510.527 517.096 505.199 518.735L500.909 519.99L480.098 508.796C474.527 505.993 468.909 503.864 463.178 501.484Z"/>
</svg>
